<svg xmlns="http://www.w3.org/2000/svg"><defs><font id="Gellix-RegularItalic" horiz-adv-x="737"><font-face font-family="Gellix" font-weight="400" font-style="italic" units-per-em="2048" panose-1="0 0 5 0 0 0 0 0 0 0" ascent="1671" descent="-377" x-height="995" cap-height="1434" bbox="-952.346 -438 2632 2284" underline-thickness="102" underline-position="-307" slope="-11" unicode-range="U+0020-25CF"/><glyph glyph-name=".notdef" horiz-adv-x="2291" d="M1133-418v2048q-201-7-384-92t-316-222.5-211.5-324T143 604q0-202 78-388t210.5-322.5 316-220.5 385.5-91zm69 2042V-412q85 24 156.5 166.5t113 368T1513 604q0 389-91.5 685T1202 1624zm377-1020q0-327-62.5-591T1348-381q150 56 268.5 199.5t185 349T1868 604q0 229-66.5 435t-185 351-268.5 203q106-131 168.5-396.5T1579 604zm-31-948q287 115 465 375t178 573-179.5 574.5T1542 1556q182-145 287.5-400T1935 604q0-296-104.5-550.5T1548-344z"/><glyph glyph-name=".null" horiz-adv-x="0"/><glyph glyph-name="nonmarkingreturn" horiz-adv-x="682"/><glyph glyph-name="space" horiz-adv-x="493"/><glyph glyph-name="exclam" unicode="!" horiz-adv-x="509" d="M356 1434h164L309 381H160zM190-20q-51 0-84.5 33.5T72 98q0 50 33.5 84.5T190 217t85-34.5T309 98q0-51-34-84.5T190-20z"/><glyph glyph-name="quotedbl" unicode="&quot;" horiz-adv-x="630" d="m211 979 74 455h151L334 979H211zm274 0 74 455h152L608 979H485z"/><glyph glyph-name="numbersign" unicode="#" horiz-adv-x="1339" d="M1358 881h-283L918 553h294l-24-129H856L655 0H520l201 424H430L229 0H92l201 424H43l27 129h284l158 328H213l25 129h335l201 424h135l-200-424h290l201 424h137l-200-424h245zM782 553l156 328H647L492 553h290z"/><glyph glyph-name="dollar" unicode="$" horiz-adv-x="1218" d="M1178 1038h-156q15 120-70 195.5T725 1309q-131 0-225-62.5T389 1085q-10-61 6-106.5t51.5-72.5 85.5-49 108-35 118.5-31 117-37.5 104-53.5 80-79.5T1103 505t-5-161q-29-157-171.5-258.5T586-20l-45-226H397L442-8Q265 28 168 152.5T98 444h154q-26-142 69.5-230.5T580 125q144 0 246 68.5T948 371q11 65-3.5 114.5T895 565t-84 54-106.5 38.5-117.5 33T470 728t-104.5 51.5-80 75-44.5 109 3 152.5q25 146 159.5 240.5T727 1454l43 225h143l-45-237q167-33 252-145.5t58-258.5z"/><glyph glyph-name="percent" unicode="%" horiz-adv-x="1667" d="M827 1163q-5-126-85.5-209.5T543 870q-119 0-193 83t-69 210q5 126 84.5 208.5T563 1454q120 0 194.5-82.5T827 1163zm600 271h127L324 0H197zm-708-271q3 84-40.5 137.5T559 1354q-75 0-122.5-53.5T387 1163q-3-84 40.5-137T547 973q75 0 122.5 53t49.5 137zm760-891q-4-127-85-209.5T1194-20t-192.5 82.5T932 272q5 126 84.5 208.5T1214 563q120 0 195-82.5t70-208.5zm-107 0q2 84-42 137.5T1212 463q-76 0-124-53.5T1038 272q-3-85 41-138.5T1198 80t123 53.5 51 138.5z"/><glyph glyph-name="ampersand" unicode="&amp;" horiz-adv-x="1427" d="m1376 604-340-299L1266 0h-199L915 199Q786 88 668.5 34T422-20q-169 0-272 120T80 387q12 65 41 120t64.5 94 86 74.5T368 734t107 48q-59 88-88.5 173.5T375 1137q28 142 138.5 229.5T776 1454q158 0 255-100.5t71-245.5q-15-74-51.5-134T957 870.5t-112-73T713 737l239-321 215 188h209zm-854 524q-13-74 16-137.5T631 844q54 21 93 38t81.5 42 70.5 50.5 50 61 30 76.5q19 86-40.5 145.5T756 1317q-89 0-152-51t-82-138zm293-833 19 14-277 367q-66-26-113-51t-92.5-59.5-74-79T238 387q-20-103 48-180.5T463 129q92 0 171.5 38T815 295z"/><glyph glyph-name="quotesingle" unicode="'" horiz-adv-x="356" d="m211 979 74 455h151L334 979H211z"/><glyph glyph-name="parenleft" unicode="(" horiz-adv-x="614" d="M389-426Q224-271 162 3t0 593q60 312 224.5 585T772 1606l78-109q-196-134-346-384T299 575q-56-282-6-529t194-378z"/><glyph glyph-name="parenright" unicode=")" horiz-adv-x="612" d="M258 1591q165-153 226.5-428t.5-592Q425 260 259.5-13T-127-438l-78 108Q-9-197 141 52.5T348 590q55 283 4.5 530.5T158 1499z"/><glyph glyph-name="asterisk" unicode="*" horiz-adv-x="993" d="m1024 1133-340-91 154-297-88-63-156 297-272-299-76 70 272 297-305 90 49 96 301-88 66 330h106l-63-332 338 90z"/><glyph glyph-name="plus" unicode="+" horiz-adv-x="1177" d="m1077 715-26-140H674l-74-376H461l74 376H160l26 140h375l72 375h139l-72-375h377z"/><glyph glyph-name="comma" unicode="," horiz-adv-x="497" d="M319 199 102-217H-18l165 416h172z"/><glyph glyph-name="hyphen" unicode="-" horiz-adv-x="645" d="m43 459 27 137h542l-26-137H43z"/><glyph glyph-name="period" unicode="." horiz-adv-x="483" d="M164-20q-51 0-86 33.5T43 98q0 50 35 84.5t86 34.5 85-34.5T283 98q0-51-34-84.5T164-20z"/><glyph glyph-name="slash" unicode="/" horiz-adv-x="827" d="m-80 0 909 1434h164L84 0H-80z"/><glyph glyph-name="zero" unicode="0" horiz-adv-x="1222" d="M522-20q-248 0-349.5 200.5T139 727q65 338 237 532.5T786 1454q247 0 348-200.5t35-546.5q-66-339-237.5-533T522-20zm17 149q170 0 295.5 156T1014 727q52 280-11.5 429T770 1305q-170 0-295.5-156T295 707q-52-281 11-429.5T539 129z"/><glyph glyph-name="one" unicode="1" horiz-adv-x="741" d="M762 1434 483 0H330l237 1221-383-283 33 190 432 306h113z"/><glyph glyph-name="two" unicode="2" horiz-adv-x="1130" d="m-4 0 22 115 654 553q142 118 210.5 198t82.5 158q24 117-50 199t-198 82q-145 0-244-86.5T346 981H188q36 219 188.5 346T731 1454q196 0 311.5-129t79.5-317q-21-106-104-211T784 575L268 150h703L942 0H-4z"/><glyph glyph-name="three" unicode="3" horiz-adv-x="1099" d="M444-20Q249-20 130 85.5T23 358h153q0-102 77-165.5T461 129q144 0 250 83.5T846 436q18 83-8.5 150.5t-87.5 105-148 47T412 715l20 108 506 463H240l28 148h918l-23-109-536-483q125 16 221.5-36.5t139-154.5 18.5-225q-40-204-192.5-325T444-20z"/><glyph glyph-name="four" unicode="4" horiz-adv-x="1173" d="m1110 465-27-143H889L825 0H670l63 322H8l19 108 723 1004h178L227 465h533l96 489h156l-97-489h195z"/><glyph glyph-name="five" unicode="5" horiz-adv-x="1079" d="M438-20q-124 0-223.5 46T61 159.5 18 358h154q2-102 79-165.5T455 129q133 0 242 91.5T831 444q28 140-48.5 234T569 772q-83 0-157.5-26.5T285 670H150l215 764h727l-27-146H475L336 815q51 41 126 64.5T614 903q124 0 219.5-64T972 666.5 991 434q-40-201-194.5-327.5T438-20z"/><glyph glyph-name="six" unicode="6" horiz-adv-x="1112" d="M623 924q129 0 232.5-66t154-180 30.5-246q-29-198-178-325T512-20q-135 0-245.5 66t-167 181T63 475q8 68 50.5 161T227 813l525 621h180L457 879q79 45 166 45zm270-473q20 144-74 242t-241 98q-141 0-245-95.5T211 463q-19-138 74-237t241-99q138 0 244 93.5T893 451z"/><glyph glyph-name="seven" unicode="7" horiz-adv-x="1019" d="M213 1434h938l-18-111L248 0H72l866 1286H184z"/><glyph glyph-name="eight" unicode="8" horiz-adv-x="1091" d="M471-18Q277-18 157 89T49 360q6 144 108 261.5T408 776q-77 29-124.5 107.5T240 1055q11 169 144.5 283T707 1452q172 0 276-95t94-243q-5-115-85-211.5T788 768q101-31 161.5-122.5T1004 438q-8-127-81.5-232t-193-164.5T471-18zm139 856q134 0 230 80.5t96 195.5q1 91-68 149t-176 58q-130 0-220.5-84.5T379 1040q-1-95 62-148.5T610 838zM483 119q154 0 264.5 100.5T860 457q2 107-72 174t-200 67q-104 0-194-45T250 530.5 195 362q-2-105 78.5-174T483 119z"/><glyph glyph-name="nine" unicode="9" horiz-adv-x="1112" d="M684 1454q101 0 190.5-39.5T1026 1309t92-158.5 15-192.5q-8-68-50.5-160.5T969 621L446 0H264l475 553q-81-43-164-43-129 0-233 66T187 755.5 156 1001q29 198 178.5 325.5T684 1454zm301-483q19 138-74 237t-239 99q-139 0-245.5-93.5T303 983q-18-144 75-242t240-98q141 0 246.5 96T985 971z"/><glyph glyph-name="colon" unicode=":" horiz-adv-x="483" d="M297 674q-51 0-85 33.5T178 791q0 51 34 85.5t85 34.5 86-34.5 35-85.5q0-49-35-83t-86-34zM164-20q-51 0-86 33.5T43 98q0 50 35 84.5t86 34.5 85-34.5T283 98q0-51-34-84.5T164-20z"/><glyph glyph-name="semicolon" unicode=";" horiz-adv-x="544" d="M346 596q-51 0-85 34.5T227 715q0 51 34 85t85 34q52 0 86.5-34t34.5-85q0-50-34.5-84.5T346 596zm-27-393L102-211H-18l168 414h169z"/><glyph glyph-name="less" unicode="&lt;" horiz-adv-x="1150" d="m1139 1178-31-160-727-303 608-303-26-148-787 398 23 116z"/><glyph glyph-name="equal" unicode="=" horiz-adv-x="1179" d="m1114 903-27-139H197l26 139h891zm-74-377-26-139H123l27 139h890z"/><glyph glyph-name="greater" unicode="&gt;" horiz-adv-x="1153" d="m100 262 31 160 727 303-608 303 26 148 787-398-23-116z"/><glyph glyph-name="question" unicode="?" horiz-adv-x="1007" d="M666 1454q164 0 278.5-95.5T1059 1126q0-92-26.5-166.5t-70.5-125-97.5-92.5T755 663t-104.5-75-85.5-91-49-116H371q14 83 51 150t84 111.5 101 83 105 74 92.5 74.5 67 95 25.5 125q0 93-72.5 152T641 1305q-135 0-233-86T285 993H133q32 204 180.5 332.5T666 1454zM412-20q-51 0-86 33.5T291 98q0 50 35 84.5t86 34.5 84.5-34.5T530 98q0-51-33.5-84.5T412-20z"/><glyph glyph-name="at" unicode="@" horiz-adv-x="1898" d="M1063 1313q185 0 336-55.5t249-153T1789 869t19-298q-35-237-137-366T1419 76q-97 0-144 48t-50 146q-55-105-150-157T860 61q-177 0-277.5 136T514 532q26 174 151.5 288T956 934q115 0 197.5-51.5T1264 741l26 177h125l-80-535q-17-108 8-150.5t97-42.5q87 0 152.5 100.5T1686 571q43 289-129.5 458T1047 1198q-204 0-381.5-89T374 867 233 528q-30-207 33-374t206-262 339-95q124 0 228 35t165 94h168q-84-117-235-181t-334-64q-170 0-311.5 66t-234 179.5-133 272.5T111 537q25 164 105.5 306.5t203 246.5 289 163.5T1063 1313zM883 182q133 0 227 85.5T1227 496q24 138-50 227.5T958 813q-123 0-213-80T633 526q-25-151 45-247.5T883 182z"/><glyph glyph-name="A" unicode="A" horiz-adv-x="1341" d="m1051 0-70 350H301L94 0H-70l852 1434h140L1219 0h-168zM389 498h561l-141 708z"/><glyph glyph-name="B" unicode="B" horiz-adv-x="1210" d="m63 0 279 1434h494q170 0 270.5-108.5T1176 1065q-22-113-108-201T872 756q129-14 201-120t45-251q-32-163-172.5-274T631 0H63zm314 813h332q110 0 199.5 69.5T1018 1057q20 100-40.5 164.5T803 1286H469zM246 147h391q120 0 213.5 75T967 412q22 115-42 189.5T739 676H350z"/><glyph glyph-name="C" unicode="C" horiz-adv-x="1589" d="M1487 483q-72-224-272-363.5T764-20q-181 0-325 81T215 284t-80 318q0 169 68 326.5T383.5 1201t267 184 320.5 69q244 0 405-134.5T1556 969h-167q-15 150-135 243t-298 93q-176 0-328.5-95T385 955t-90-343q0-211 133-347t346-136q184 0 334 98.5T1317 483h170z"/><glyph glyph-name="D" unicode="D" horiz-adv-x="1417" d="M762 1434q169 0 307.5-81t216.5-218.5 78-300.5q0-235-107-426T961 108.5 539 0H63l279 1434h420zM561 147q179 0 327.5 91.5t233 248.5 84.5 344q0 191-129.5 323T754 1286H469L248 147h313z"/><glyph glyph-name="E" unicode="E" horiz-adv-x="1077" d="M342 1434h803l-29-148H469l-86-446h575l-26-148H354L248 147h647L866 0H63z"/><glyph glyph-name="F" unicode="F" horiz-adv-x="1040" d="M342 1434h803l-29-148H469l-90-463h577l-28-147H352L219 0H63z"/><glyph glyph-name="G" unicode="G" horiz-adv-x="1601" d="M1542 750q-4-63-10-97-53-305-254.5-489T778-20q-133 0-250.5 47T325 157.5t-134.5 205T141 627q0 171 64 324t174.5 263.5 264.5 175 327 64.5q244 0 406-134.5T1556 969h-170q-13 151-132 243.5T956 1305q-186 0-336.5-89.5T385 973t-84-336q0-233 136.5-370.5T786 129q225 0 375.5 128.5T1354 602H868l29 148h645z"/><glyph glyph-name="H" unicode="H" horiz-adv-x="1437" d="M1305 1434h155L1182 0h-156l131 672H350L219 0H63l279 1434h156L379 819h807z"/><glyph glyph-name="I" unicode="I" horiz-adv-x="477" d="M342 1434h156L219 0H63z"/><glyph glyph-name="J" unicode="J" horiz-adv-x="618" d="M-25 129q10-2 37-2 230 0 287 295l197 1012h155L449 387Q410 192 298 87T23-18q-51 0-76 4z"/><glyph glyph-name="K" unicode="K" horiz-adv-x="1251" d="M1335 1434 530 752 1114 0H911L356 721 217 0H63l279 1434h154L371 786l757 648h207z"/><glyph glyph-name="L" unicode="L" horiz-adv-x="1116" d="M342 1434h156L248 147h725L944 0H63z"/><glyph glyph-name="M" unicode="M" horiz-adv-x="1763" d="m63 0 279 1434h178L829 225l789 1209h166L1505 0h-155l219 1122L846 0H727L440 1122 219 0H63z"/><glyph glyph-name="N" unicode="N" horiz-adv-x="1427" d="M342 1434h145l578-1151 227 1151h156L1169 0h-141L446 1149 219 0H63z"/><glyph glyph-name="O" unicode="O" horiz-adv-x="1648" d="M969 1454q138 0 255.5-46.5t199-128.5 127.5-196.5 46-246.5q0-166-67.5-323.5t-180.5-274T1081 51 760-20q-276 0-450.5 176T135 602q0 135 43 264.5T299.5 1101 481 1286t229.5 124 258.5 44zm-13-149q-130 0-251.5-56.5t-211.5-150T349 877t-54-265q0-211 132.5-347T772 129q130 0 253 57t214 151 146 222 55 264q0 211-134.5 346.5T956 1305z"/><glyph glyph-name="P" unicode="P" horiz-adv-x="1210" d="M874 1434q155 0 263-105.5t108-255.5q0-127-68-234.5t-183.5-169T743 608H338L219 0H63l279 1434h532zM760 756q131 0 230.5 90.5T1090 1061q0 92-68.5 158.5T856 1286H469L367 756h393z"/><glyph glyph-name="Q" unicode="Q" horiz-adv-x="1644" d="M1597 836q0-186-82.5-358T1290 184L1405 0h-162l-63 102Q984-20 760-20q-276 0-450.5 176T135 602q0 135 43 264.5T299.5 1101 481 1286t229.5 124 258.5 44q138 0 255.5-46.5t199-128.5 127.5-196.5 46-246.5zM772 129q173 0 330 98L831 664h162l219-353q105 99 166.5 233.5T1440 823q0 211-134.5 346.5T956 1305q-130 0-251.5-56.5t-211.5-150T349 877t-54-265q0-211 132.5-347T772 129z"/><glyph glyph-name="R" unicode="R" horiz-adv-x="1249" d="M1206 1018q-32-160-144.5-267T791 621L1087 0H915L633 614H338L219 0H63l279 1434h514q181 0 282.5-120t67.5-296zm-153 6q22 115-42.5 188.5T823 1286H467L365 750h348q123 0 220 77t120 197z"/><glyph glyph-name="S" unicode="S" horiz-adv-x="1218" d="M567-20q-150 0-265 60.5t-170 167T98 444h154q-26-142 69.5-230.5T580 125q144 0 246 68.5T948 371q11 65-3.5 114.5T895 565t-84 54-106.5 38.5-117.5 33T470 728t-104.5 51.5-80 75-44.5 109 3 152.5q25 149 164 243.5t333 94.5q112 0 203-33.5t146.5-90 79-132.5 8.5-160h-156q15 120-70 195.5T725 1309q-131 0-225-62.5T389 1085q-10-61 6-106.5t51.5-72.5 85.5-49 108-35 118.5-31 117-37.5 104-53.5 80-79.5T1103 505t-5-161q-29-160-178-262T567-20z"/><glyph glyph-name="T" unicode="T" horiz-adv-x="1214" d="m1335 1434-26-148H838L588 0H432l250 1286H213l29 148h1093z"/><glyph glyph-name="U" unicode="U" horiz-adv-x="1415" d="M639-20q-126 0-226.5 43t-160 119.5-83.5 182 3 230.5l170 879h156L324 545q-34-184 55.5-300T653 129q168 0 293 111.5T1106 535l174 899h156l-176-910q-47-246-218-395T639-20z"/><glyph glyph-name="V" unicode="V" horiz-adv-x="1294" d="M219 1434h162L594 236l682 1198h166L618 0H483z"/><glyph glyph-name="W" unicode="W" horiz-adv-x="2082" d="M2066 1434h166L1473 0h-138l-153 1192L559 0H424L219 1434h162L537 242l624 1192h135l150-1194z"/><glyph glyph-name="X" unicode="X" horiz-adv-x="1241" d="M1358 1434 762 733 1110 0H938L651 602 139 0H-59l639 752-324 682h174l260-551 469 551h199z"/><glyph glyph-name="Y" unicode="Y" horiz-adv-x="1273" d="M219 1434h172l301-635 539 635h190L748 639 621 0H465l127 643z"/><glyph glyph-name="Z" unicode="Z" horiz-adv-x="1189" d="M289 1434h1005l-20-111L215 147h836L1024 0H-37l19 113 1060 1173H260z"/><glyph glyph-name="bracketleft" unicode="[" horiz-adv-x="643" d="M469 1462 137-244h301l-22-123H-25l379 1954h439l-23-125H469z"/><glyph glyph-name="backslash" unicode="\" horiz-adv-x="811" d="M883 0H719l-909 1434h163z"/><glyph glyph-name="bracketright" unicode="]" horiz-adv-x="643" d="m217-244 332 1706H248l24 125h439L332-367h-438l24 123h299z"/><glyph glyph-name="asciicircum" unicode="^" horiz-adv-x="1116" d="M1030 592H877l-170 670-435-670H121l563 862h119z"/><glyph glyph-name="underscore" unicode="_" horiz-adv-x="1054" d="m-86-160 27 140h970l-26-140H-86z"/><glyph glyph-name="grave" unicode="`" horiz-adv-x="557" d="M16 1405h189l223-289H283z"/><glyph glyph-name="a" unicode="a" horiz-adv-x="1267" d="M1071 995h150L1026 0H877l41 211Q846 102 741 41T512-20q-223 0-344 159.5T92 543q41 207 194.5 340T637 1016q153 0 253-69t134-197zM559 119q150 0 267.5 103.5T969 473q33 182-58 294T647 879q-149 0-264-99.5T242 528q-32-181 59-295t258-114z"/><glyph glyph-name="b" unicode="b" horiz-adv-x="1267" d="M756 1016q146 0 252.5-71.5t152-200.5 15.5-289q-41-207-195-341T631-20q-153 0-253 69T244 246L197 0H47l279 1434h149L348 784q73 109 178.5 170.5T756 1016zm270-549q32 182-59.5 297T707 879q-137 0-250-91T305 563l-12-69q-20-170 71.5-272.5T621 119q149 0 263 98.5T1026 467z"/><glyph glyph-name="c" unicode="c" horiz-adv-x="1157" d="M547-20q-201 0-330 134.5T88 453q0 161 77 290.5t211 201 298 71.5q175 0 292.5-100T1075 670H928q1 87-78.5 145.5T659 874q-181 0-302-117T236 463q0-147 91-244.5T559 121q112 0 206.5 58T891 336h151q-42-162-182-259T547-20z"/><glyph glyph-name="d" unicode="d" horiz-adv-x="1267" d="M1155 1434h150L1026 0H877l41 211Q846 102 741 41T512-20q-223 0-344 159.5T92 543q41 207 194.5 340T637 1016q153 0 253-69t132-195zM559 119q144 0 257.5 95.5T963 449l8 36q29 176-63 285T647 879q-149 0-264-99.5T242 528q-32-181 59-295t258-114z"/><glyph glyph-name="e" unicode="e" horiz-adv-x="1163" d="M227 471v-20q-3-146 91-241t241-95q110 0 200 52t124 146h159Q998 162 860 71T547-20q-199 0-331 131T84 440q0 161 76 293.5T365.5 941t283.5 75q191 0 313.5-119.5T1085 586q0-41-16-115H227zm416 412q-139 0-244-79.5T252 596h680q-3 133-80.5 210T643 883z"/><glyph glyph-name="f" unicode="f" horiz-adv-x="720" d="M764 1319q-211 0-250-205l-22-119h278l-27-139H463L297 0H147l166 856H117l26 139h199l23 121q33 169 137.5 255.5T762 1458q51 0 96-10l-27-137q-27 8-67 8z"/><glyph glyph-name="g" unicode="g" horiz-adv-x="1267" d="M1073 997h150L1034 31q-41-219-192-344T465-438q-85 0-165 23.5T156-347 59.5-231.5 41-72h147q-16-107 70.5-166T485-297q155 0 262 87T883 25l39 200Q851 115 744.5 53.5T512-8Q367-8 260.5 63t-152 199T94 549q40 204 193.5 336.5T637 1018q155 0 255-69t134-197zM561 129q148 0 265.5 102.5T971 479q33 181-58 291.5T649 881q-149 0-264-98.5T244 535q-33-179 58-292.5T561 129z"/><glyph glyph-name="h" unicode="h" horiz-adv-x="1193" d="M721 1016q196 0 290-122t54-325L954 0H805l108 563q28 144-36.5 227.5T678 874q-132 0-229-75T313 596L197 0H47l279 1434h149L356 821q67 93 161.5 144t203.5 51z"/><glyph glyph-name="i" unicode="i" horiz-adv-x="436" d="M377 1430q43 0 75.5-32t32.5-75q0-44-32.5-76.5T377 1214q-44 0-76.5 32.5T268 1323q0 43 32.5 75t76.5 32zM242 995h147L197 0H47z"/><glyph glyph-name="j" unicode="j" horiz-adv-x="436" d="M377 1430q43 0 75.5-32t32.5-75q0-44-32.5-76.5T377 1214q-44 0-76.5 32.5T268 1323q0 43 32.5 75t76.5 32zM-168-274q4 0 12.5-1t12.5-1q68 0 111.5 49T35-72L242 995h147L180-84Q148-246 62-330t-218-84q-25 0-39 2z"/><glyph glyph-name="k" unicode="k" horiz-adv-x="1030" d="M1061 995 449 520 897 0H702L291 487 197 0H47l279 1434h149L303 551l567 444h191z"/><glyph glyph-name="l" unicode="l" horiz-adv-x="436" d="M475 1434 197 0H47l279 1434h149z"/><glyph glyph-name="m" unicode="m" horiz-adv-x="1853" d="M1393 1016q191 0 282.5-115t53.5-309L1614 0h-150l111 573q28 142-30 221.5T1360 874q-118 0-217.5-78.5T1014 563L905 0H756l110 573q29 143-29.5 222T649 874q-54 0-106-17.5t-100.5-53T358 706t-51-143l-2 2L197 0H47l195 995h147l-35-176q65 101 160 149t195 48q267 0 311-230 36 73 97.5 126.5t132 78.5 143.5 25z"/><glyph glyph-name="n" unicode="n" horiz-adv-x="1196" d="M723 1016q196 0 290-122t54-325L956 0H807l111 563q26 144-38.5 227.5T682 874q-144 0-245.5-88T305 553h-2L197 0H47l195 995h147l-35-182q66 97 161.5 150t207.5 53z"/><glyph glyph-name="o" unicode="o" horiz-adv-x="1202" d="M662 1016q199 0 328.5-129.5T1120 563q0-154-79-288.5T828 60 539-20q-199 0-328 127.5T82 430q0 116 46.5 224t125 187.5 185.5 127 223 47.5zm-11-142q-171 0-296.5-128T229 444q0-139 90-231t230-92q111 0 209.5 59T915 338t58 211q0 140-91.5 232.5T651 874z"/><glyph glyph-name="p" unicode="p" horiz-adv-x="1269" d="M758 1016q145 0 251.5-71.5t152-200.5 14.5-289q-40-207-193-341T633-20q-154 0-254.5 70T244 250L123-377H-27L242 995h147l-43-217q73 112 180 175t232 63zm270-549q32 182-59.5 297T709 879q-149 0-266-104T299 524q-32-184 58.5-294.5T621 119q150 0 264.5 98.5T1028 467z"/><glyph glyph-name="q" unicode="q" horiz-adv-x="1269" d="M1073 993h150L954-377H805l117 592Q849 104 743 42T512-20q-223 0-344 159.5T92 543q41 207 194.5 340T637 1016q155 0 255.5-71T1024 743zM559 119q150 0 267.5 103.5T969 473q33 182-58 294T647 879q-149 0-264-99.5T242 528q-32-181 59-295t258-114z"/><glyph glyph-name="r" unicode="r" horiz-adv-x="716" d="M674 1016q36 0 90-12l-29-146q-43 16-92 16-74 0-143-34.5T379.5 738 311 584L197 0H47l195 995h147l-31-164q54 82 139.5 133.5T674 1016z"/><glyph glyph-name="s" unicode="s" horiz-adv-x="929" d="M397-20q-172 0-275 86.5T29 293h141q-4-83 61-133.5T401 109q98 0 166 46.5T649 270q12 59-13.5 98T561 426t-110 33.5-121 34-107 50-68.5 91T150 782q19 102 118 168t248 66q153 0 254-79t94-202H719q1 69-60.5 112.5T508 891q-90 0-149-38t-70-95q-10-51 9-85.5t58-51.5 90-31.5T551.5 565 656 532.5t86-55 50.5-90.5-1.5-141Q767 129 660 54.5T397-20z"/><glyph glyph-name="t" unicode="t" horiz-adv-x="720" d="M444 856 342 330q-39-207 170-207 45 0 72 8L559 0q-48-10-100-10-155 0-226 87t-38 257l102 522H100l27 139h197l53 275h149l-53-275h281l-27-139H444z"/><glyph glyph-name="u" unicode="u" horiz-adv-x="1196" d="M1001 995h148L956 0H807l35 182Q776 85 680.5 32.5T475-20q-197 0-290.5 121.5T129 428l113 567h147L281 432q-28-142 37-226.5T516 121q143 0 245 88.5T893 442z"/><glyph glyph-name="v" unicode="v" horiz-adv-x="1050" d="M1114 995 498 0H367L135 995h158l170-807 485 807h166z"/><glyph glyph-name="w" unicode="w" horiz-adv-x="1609" d="M305 0 135 995h152l116-782 431 782h131l125-782 423 782h160L1114 0H989L864 782 430 0H305z"/><glyph glyph-name="x" unicode="x" horiz-adv-x="1013" d="M1042 995 598 510 870 0H698L489 391 129 0H-53l475 516-256 479h172l192-360 332 360h180z"/><glyph glyph-name="y" unicode="y" horiz-adv-x="1046" d="M946 995h164L268-377H104L356 27 135 995h158l170-798z"/><glyph glyph-name="z" unicode="z" horiz-adv-x="1024" d="m1030 995-20-110-797-744h653L838 0H-31l19 113 800 743H180l27 139h823z"/><glyph glyph-name="braceleft" unicode="{" horiz-adv-x="774" d="M420-367q-154 0-230.5 98.5T145-6l66 348q15 75-26.5 135.5T59 561l7 98q95 23 166.5 88.5T319 889l66 348q32 163 139.5 255.5T786 1587h138l-25-125H776q-92 0-166.5-65.5T514 1227l-65-340q-17-90-77-165.5T227 604q64-40 97-117t16-163L274-16q-21-104 23-166t135-62h137l-24-123H420z"/><glyph glyph-name="bar" unicode="|" horiz-adv-x="442" d="M367 1638h153L127-377H-27z"/><glyph glyph-name="braceright" unicode="}" horiz-adv-x="774" d="M397 1587q154 0 230.5-98.5T672 1227l-66-348q-15-76 26.5-136.5T758 659l-6-98q-95-23-167-88.5T498 332L432-16q-32-163-140-256T31-367h-137l24 123H41q92 0 166 66.5T303-6l66 340q17 90 76.5 165T590 616q-64 40-97 117t-16 164l66 340q21 104-23 164.5T385 1462H248l24 125h125z"/><glyph glyph-name="asciitilde" unicode="~" horiz-adv-x="1171" d="m274 500-124 26q38 125 113 196t165 71q51 0 107-22.5t96-49.5 84.5-49.5T791 649q110 0 163 160l129-27q-43-124-118.5-195T801 516q-47 0-101 22.5t-93.5 49-86 49T440 659q-54 0-97-40.5T274 500z"/><glyph glyph-name="uni00A0" horiz-adv-x="493"/><glyph glyph-name="exclamdown" unicode="¡" horiz-adv-x="481" d="M403 1454q51 0 86-34t35-85q0-50-35-84t-86-34-84.5 34-33.5 84q0 51 33.5 85t84.5 34zM238 0H74l211 1053h149z"/><glyph glyph-name="cent" unicode="¢" horiz-adv-x="1157" d="M1075 670H928q1 87-78.5 145.5T659 874q-181 0-302-117T236 463q0-147 91-244.5T559 121q112 0 206.5 58T891 336h151q-40-157-173.5-253.5T567-20l-43-226H375L420-4Q269 34 178.5 159T88 453q0 229 151 385.5T621 1014l43 229h149l-47-235q142-27 229-120t80-218z"/><glyph glyph-name="sterling" unicode="£" horiz-adv-x="1226" d="M928 1454q158 0 251-87t78-228h-157q8 72-47 119t-150 47q-114 0-198-82t-109-213l-43-219h405l-24-129H528l-32-168q-48-230-226-347h803L1044 0H63l29 147q204 120 248 345l33 170H207l24 129h166l47 241q35 185 171 303.5T928 1454z"/><glyph glyph-name="currency" unicode="¤" horiz-adv-x="1570" d="M1368 709q-36-185-170-316l168-205-127-108-168 205Q918 176 739 176q-182 0-309 117L176 80 84 188l254 215q-84 150-49 324 35 184 172 317l-172 207 127 109 172-207q154 109 340 109 188 0 301-113l252 211 92-109-254-213q87-148 49-329zM754 319q171 0 309 118.5T1229 727q29 165-62.5 278T913 1118q-174 0-315-119T428 709q-28-163 67.5-276.5T754 319z"/><glyph glyph-name="yen" unicode="¥" horiz-adv-x="1273" d="M1421 1434 842 750h311l-27-129H743L621 0H465l123 621H190l27 129h324l-322 684h172l301-635 539 635h190z"/><glyph glyph-name="brokenbar" unicode="¦" horiz-adv-x="442" d="m221 893 146 745h153L375 893H221zM-27-377l146 746h155L127-377H-27z"/><glyph glyph-name="section" unicode="§" horiz-adv-x="1308" d="M1208 1069h-137q20 115-62 188.5T778 1331q-155 0-252.5-73T428 1071q0-48 24.5-84.5T518 927t94.5-41T725 852.5 842.5 820t112-43 94.5-60 65.5-88 24.5-123q0-157-144-293 56-72 56-180 0-119-72.5-218.5T782.5-342 514-399q-223 0-350 126.5T72 41h133q-26-133 67-223t254-90q167 0 277 86.5T913 23q0 53-24.5 93T823 181.5t-94 45-112 36T499 296t-112 42-94 57.5-65.5 83.5T203 596q0 71 42 146.5T360 879q-67 70-67 182 0 172 140 284.5T791 1458q216 0 331.5-112.5T1208 1069zm-207-588q0 53-25.5 94T910 640.5 812.5 687t-112 36.5-120 36T469 803q-61-33-96-85t-35-106q0-60 36.5-102T475 443t132.5-43.5 151.5-45T897 297q48 37 76 86t28 98z"/><glyph glyph-name="dieresis" unicode="¨" horiz-adv-x="739" d="M158 1430q43 0 75.5-32t32.5-75q0-44-32.5-76.5T158 1214q-44 0-76.5 32.5T49 1323q0 43 32.5 75t76.5 32zm319 0q42 0 74.5-32.5T584 1323q0-44-32.5-76.5T477 1214q-44 0-76 32.5t-32 76.5q0 43 32 75t76 32z"/><glyph glyph-name="copyright" unicode="©" horiz-adv-x="1703" d="M893-20q-198 0-367.5 99T257 347.5 158 717t99 369.5T525.5 1355t367.5 99q201 0 371-99t269-268.5 99-369.5-99-369.5T1264 79 893-20zm2 73q133 0 255 53t210.5 142 141 212 52.5 257-52.5 257-141 212-210.5 141.5-255 52.5-255-52.5T429.5 1186t-141-212T236 717t52.5-257 141-212T640 106t255-53zm2 238q-177 0-296.5 124T481 721q0 181 119.5 303.5T897 1147q139 0 246.5-80.5T1274 862h-113q-24 85-98 136t-166 51q-131 0-221-95.5T586 721q0-140 89.5-236T897 389q96 0 170 55t96 142h113q-26-131-132.5-213T897 291z"/><glyph glyph-name="ordfeminine" unicode="ª" horiz-adv-x="763" d="M764 1440h98L748 842H647l27 133q-97-146-264-146-123 0-192 91.5T174 1141q26 130 129.5 220.5T530 1452q82 0 135-37.5t72-107.5zM449 926q92 0 164.5 61t91.5 154-30.5 155-142.5 62q-92 0-167.5-63T272 1141q-19-90 33.5-152.5T449 926z"/><glyph glyph-name="guillemotleft" unicode="«" horiz-adv-x="1316" d="M573 74 96 496l19 106 643 424-33-166-483-317 360-318zm543 0L639 496l20 106 641 424-32-166-482-317 361-318z"/><glyph glyph-name="logicalnot" unicode="¬" horiz-adv-x="1191" d="M1090 713 981 150H838l82 423H158l28 140h904z"/><glyph glyph-name="uni00AD" unicode="­" horiz-adv-x="645" d="m43 459 27 137h542l-26-137H43z"/><glyph glyph-name="registered" unicode="®" horiz-adv-x="1703" d="M893 1454q201 0 371-99t269-268.5 99-369.5-99-369.5T1264 79 893-20q-198 0-367.5 99T257 347.5 158 717t99 369.5T525.5 1355t367.5 99zm2-1401q133 0 255 53t210.5 142 141 212 52.5 257-52.5 257-141 212-210.5 141.5-255 52.5-255-52.5T429.5 1186t-141-212T236 717t52.5-257 141-212T640 106t255-53zm268 844q0-93-50-155.5T977 662l240-359h-121L866 655H713V303H610v832h305q105 0 176.5-68.5T1163 897zm-450 141V752h200q65 0 107.5 41t42.5 104q0 60-43 100.5T913 1038H713z"/><glyph glyph-name="macron" unicode="¯" horiz-adv-x="860" d="m227 1143 25 123h655l-24-123H227z"/><glyph glyph-name="degree" unicode="°" horiz-adv-x="798" d="M821 1165q0-122-85.5-208.5T530 870t-206 87-86 208q0 119 86 204t206 85 205.5-85 85.5-204zm-100 0q0 78-56.5 133.5T530 1354q-79 0-135.5-55.5T338 1165q0-79 56-135.5T530 973q78 0 134.5 56.5T721 1165z"/><glyph glyph-name="plusminus" unicode="±" horiz-adv-x="1177" d="M721 821h377l-27-139H694l-73-377H481l74 377H180l27 139h375l71 375h140zM47 0l27 139h891L938 0H47z"/><glyph glyph-name="uni00B2" unicode="²" horiz-adv-x="786" d="m160 573 14 78 387 322q87 73 130.5 133t43.5 117q0 54-38 88.5t-99 34.5q-84 0-146-52t-75-139H272q23 131 121 211t225 80q101 0 164.5-56t63.5-147q0-159-223-334L342 674h408l-21-101H160z"/><glyph glyph-name="uni00B3" unicode="³" horiz-adv-x="778" d="m385 1069 291 266H264l19 99h557l-15-72-311-281q99 10 161-43.5T737 895q0-134-106-234T383 561q-117 0-186 64.5T137 793h105q0-59 43.5-95T403 662q91 0 158.5 65.5T629 881q0 79-74.5 112T369 997z"/><glyph glyph-name="acute" unicode="´" horiz-adv-x="557" d="m633 1405-266-289H219l223 289h191z"/><glyph glyph-name="uni00B5" unicode="µ" horiz-adv-x="1198" d="M1001 995h150L956 0H807l35 180Q776 84 680.5 32T475-20q-172 0-264 92l-88-449H-27L242 995h149L276 412q-20-133 46-212t194-79q144 0 245.5 88T893 442z"/><glyph glyph-name="paragraph" unicode="¶" horiz-adv-x="1386" d="m1468 1434-4-148h-182L1057-377H907l228 1663H936L709-377H559l135 985H553q-180 0-288.5 121.5T176 1026q20 172 156.5 290T649 1434h819zM715 756l71 530H641q-109 0-199.5-78T332 1020q-19-109 44-186.5T549 756h166z"/><glyph glyph-name="periodcentered" unicode="·" horiz-adv-x="483" d="M252 432q-51 0-86 34t-35 85q0 50 35 84.5t86 34.5 85-34.5 34-84.5q0-51-34-85t-85-34z"/><glyph glyph-name="cedilla" unicode="¸" horiz-adv-x="528" d="m82 35 108-6q52-55 76-113.5t21.5-110-27.5-97-67.5-78T91-420t-126-16l-28 108q122 9 186 63t53.5 134.5T82 35z"/><glyph glyph-name="uni00B9" unicode="¹" horiz-adv-x="440" d="M528 1434 360 573H258l139 717-229-166 25 127 262 183h73z"/><glyph glyph-name="ordmasculine" unicode="º" horiz-adv-x="716" d="M545 1452q131 0 203.5-90.5T795 1141q-26-132-134-222t-237-90q-131 0-203 90t-47 222q26 131 133.5 221t237.5 90zm-19-94q-89 0-162-63t-92-154q-17-90 32.5-152.5T442 926q89 0 162 62t90 153q19 92-30.5 154.5T526 1358z"/><glyph glyph-name="guillemotright" unicode="»" horiz-adv-x="1316" d="m201 1022 475-422-19-106L14 70l33 166 483 317-360 317zm542 0 478-422-21-106L559 70l33 166 481 317-358 317z"/><glyph glyph-name="onequarter" unicode="¼" horiz-adv-x="1560" d="M1286 1434h129L184 0H55zM240 573l139 717-229-166 24 127 262 183h74L342 573H240zm1288-284-19-99h-114L1358 0h-105l37 190H856l14 72 430 598h117l-411-571h303l55 280h104l-55-280h115z"/><glyph glyph-name="onehalf" unicode="½" horiz-adv-x="1570" d="M1374 1434h127L270 0H143zm-864 0L342 573H240l139 717-229-166 24 127 262 183h74zM1006 0l14 78 387 321q87 73 130.5 133t43.5 117q0 54-38 88.5t-99 34.5q-85 0-146.5-51.5T1223 582h-105q23 131 121 210.5t225 79.5q102 0 165-55.5t63-146.5q0-159-224-334l-280-236h407L1575 0h-569z"/><glyph glyph-name="threequarters" unicode="¾" horiz-adv-x="1890" d="M739 895q0-134-106-234T385 561q-117 0-186 64.5T139 793h103q0-59 44-95t117-36q91 0 158.5 65.5T629 881q0 79-74 112t-184 4l14 72 291 266H266l19 99h557l-15-72-311-281q99 10 161-43.5T739 895zm877 539h127L512 0H385zm242-1145-19-99h-115L1688 0h-105l37 190h-434l12 72 432 598h117l-412-571h303l56 280h104l-55-280h115z"/><glyph glyph-name="questiondown" unicode="¿" horiz-adv-x="1005" d="M680 1454q52 0 86.5-34t34.5-85q0-50-34.5-84t-86.5-34q-51 0-85 34t-34 84q0 51 34 85t85 34zM426-20q-164 0-278.5 95T33 307q0 92 27 166.5t70.5 125 97 92.5T337 770.5 441.5 846t85 91 48.5 116h148q-15-83-52-150t-84.5-111.5-101.5-83-105-74-92.5-74.5-67-95T195 340q0-93 72.5-152T451 129q136 0 233.5 85.5T807 440h151q-32-204-180-332T426-20z"/><glyph glyph-name="Agrave" unicode="À" horiz-adv-x="1341" d="M965 1554H819l-266 289h188zM1051 0l-70 350H301L94 0H-70l852 1434h140L1219 0h-168zM389 498h561l-141 708z"/><glyph glyph-name="Aacute" unicode="Á" horiz-adv-x="1341" d="m1198 1843-266-289H786l224 289h188zM1051 0l-70 350H301L94 0H-70l852 1434h140L1219 0h-168zM389 498h561l-141 708z"/><glyph glyph-name="Acircumflex" unicode="Â" horiz-adv-x="1341" d="m907 1759-170-190H598l242 289h166l131-289h-131zM1051 0l-70 350H301L94 0H-70l852 1434h140L1219 0h-168zM389 498h561l-141 708z"/><glyph glyph-name="Atilde" unicode="Ã" horiz-adv-x="1341" d="M772 1688q-43 0-78.5-34.5T651 1567l-119 28q26 101 91.5 161.5T764 1817q43 0 85.5-18.5t70-41 58-41 52.5-18.5q44 0 80 34t47 85l119-29q-27-99-94-159t-142-60q-44 0-85.5 18.5t-68.5 41-58 41-56 18.5zm10-254h140L1219 0h-168l-70 350H301L94 0H-70zM389 498h561l-141 708z"/><glyph glyph-name="Adieresis" unicode="Ä" horiz-adv-x="1341" d="M717 1577q-45 0-77 31t-32 75q0 43 32.5 75t76.5 32q41 0 73.5-32t32.5-75q0-44-32-75t-74-31zm317 0q-44 0-76 31t-32 75q0 43 32 75t76 32q43 0 76-32t33-75q0-44-33-75t-76-31zM1051 0l-70 350H301L94 0H-70l852 1434h140L1219 0h-168zM389 498h561l-141 708z"/><glyph glyph-name="Aring" unicode="Å" horiz-adv-x="1341" d="M895 1550q-106 0-171.5 66.5T664 1784q4 101 77 168t179 67 172-67 61-168q-6-101-79-167.5T895 1550zm-133 234q-3-60 35.5-99.5T899 1645t107 39.5 47 99.5-36 100.5-102 40.5-106.5-40.5T762 1784zM1051 0l-70 350H301L94 0H-70l852 1434h140L1219 0h-168zM389 498h561l-141 708z"/><glyph glyph-name="AE" unicode="Æ" horiz-adv-x="1888" d="M1927 1286h-643l-86-446h574l-29-148h-574l-106-545h643L1677 0H881l71 377H408L109 0H-72l1155 1434h873zM981 516l147 764-608-764h461z"/><glyph glyph-name="Ccedilla" unicode="Ç" horiz-adv-x="1589" d="M774 129q184 0 334 98.5T1317 483h170q-72-222-268.5-361T774-20q43-62 53.5-125.5T817-261t-63-93-106.5-62.5T508-436l-29 108q83 6 140 34.5t81.5 71 17 97T668-14Q431 18 283 189T135 602q0 169 68 326.5T383.5 1201t267 184 320.5 69q244 0 405-134.5T1556 969h-167q-15 150-135 243t-298 93q-176 0-328.5-95T385 955t-90-343q0-211 133-347t346-136z"/><glyph glyph-name="Egrave" unicode="È" horiz-adv-x="1077" d="M446 1843h189l223-289H713zm-104-409h803l-29-148H469l-86-446h575l-26-148H354L248 147h647L866 0H63z"/><glyph glyph-name="Eacute" unicode="É" horiz-adv-x="1077" d="m1092 1843-267-289H680l223 289h189zm-750-409h803l-29-148H469l-86-446h575l-26-148H354L248 147h647L866 0H63z"/><glyph glyph-name="Ecircumflex" unicode="Ê" horiz-adv-x="1077" d="m801 1759-170-190H492l241 289h166l131-289H899zm315-473H469l-86-446h575l-26-148H354L248 147h647L866 0H63l279 1434h803z"/><glyph glyph-name="Edieresis" unicode="Ë" horiz-adv-x="1077" d="M612 1790q42 0 74.5-32.5T719 1683q0-43-32.5-74.5T612 1577q-44 0-76 31t-32 75q0 43 32 75t76 32zm318 0q43 0 75.5-32t32.5-75q0-44-32.5-75t-75.5-31q-45 0-77 31t-32 75q0 43 32.5 75t76.5 32zm-588-356h803l-29-148H469l-86-446h575l-26-148H354L248 147h647L866 0H63z"/><glyph glyph-name="Igrave" unicode="Ì" horiz-adv-x="477" d="M119 1843h188l223-289H385zm223-409h156L219 0H63z"/><glyph glyph-name="Iacute" unicode="Í" horiz-adv-x="477" d="m764 1843-266-289H352l223 289h189zm-422-409h156L219 0H63z"/><glyph glyph-name="Icircumflex" unicode="Î" horiz-adv-x="477" d="m571 1858 131-289H571l-98 190-170-190H164l242 289h165zM63 0l279 1434h156L219 0H63z"/><glyph glyph-name="Idieresis" unicode="Ï" horiz-adv-x="477" d="M285 1790q41 0 73.5-32t32.5-75q0-44-32-75t-74-31q-45 0-77 31t-32 75q0 43 32.5 75t76.5 32zm317 0q43 0 76-32t33-75q0-44-33-75t-76-31q-44 0-76 31t-32 75q0 43 32 75t76 32zm-260-356h156L219 0H63z"/><glyph glyph-name="Eth" unicode="Ð" horiz-adv-x="1417" d="M762 1434q169 0 307.5-81t216.5-218.5 78-300.5q0-235-107-426T961 108.5 539 0H63l132 670H-27l19 106h223l127 658h420zM561 147q179 0 327.5 91.5t233 248.5 84.5 344q0 191-129.5 323T754 1286H469l-98-510h237l-20-106H350L248 147h313z"/><glyph glyph-name="Ntilde" unicode="Ñ" horiz-adv-x="1427" d="M580 1595q26 101 91 161.5t140 60.5q43 0 85.5-18.5t70-41 58-41 52.5-18.5q44 0 80 34t47 85l119-29q-27-99-94-159t-142-60q-44 0-85.5 18.5t-68.5 41-58 41-56 18.5q-43 0-78.5-34.5T698 1567zm-238-161h145l578-1151 227 1151h156L1169 0h-141L446 1149 219 0H63z"/><glyph glyph-name="Ograve" unicode="Ò" horiz-adv-x="1648" d="M707 1843h188l223-289H973zm262-389q138 0 255.5-46.5t199-128.5 127.5-196.5 46-246.5q0-166-67.5-323.5t-180.5-274T1081 51 760-20q-276 0-450.5 176T135 602q0 135 43 264.5T299.5 1101 481 1286t229.5 124 258.5 44zm-13-149q-130 0-251.5-56.5t-211.5-150T349 877t-54-265q0-211 132.5-347T772 129q130 0 253 57t214 151 146 222 55 264q0 211-134.5 346.5T956 1305z"/><glyph glyph-name="Oacute" unicode="Ó" horiz-adv-x="1648" d="m1352 1843-267-289H940l223 289h189zm-383-389q138 0 255.5-46.5t199-128.5 127.5-196.5 46-246.5q0-166-67.5-323.5t-180.5-274T1081 51 760-20q-276 0-450.5 176T135 602q0 135 43 264.5T299.5 1101 481 1286t229.5 124 258.5 44zm-13-149q-130 0-251.5-56.5t-211.5-150T349 877t-54-265q0-211 132.5-347T772 129q130 0 253 57t214 151 146 222 55 264q0 211-134.5 346.5T956 1305z"/><glyph glyph-name="Ocircumflex" unicode="Ô" horiz-adv-x="1648" d="m1061 1759-170-190H752l241 289h166l131-289h-131zm-92-305q138 0 255.5-46.5t199-128.5 127.5-196.5 46-246.5q0-166-67.5-323.5t-180.5-274T1081 51 760-20q-276 0-450.5 176T135 602q0 135 43 264.5T299.5 1101 481 1286t229.5 124 258.5 44zM772 129q130 0 253 57t214 151 146 222 55 264q0 211-134.5 346.5T956 1305q-130 0-251.5-56.5t-211.5-150T349 877t-54-265q0-211 132.5-347T772 129z"/><glyph glyph-name="Otilde" unicode="Õ" horiz-adv-x="1648" d="M686 1595q26 101 91.5 161.5T918 1817q43 0 85.5-18.5t70-41 58-41 52.5-18.5q44 0 80 34t47 85l119-29q-27-99-94-159t-142-60q-44 0-85.5 18.5t-68.5 41-58 41-56 18.5q-43 0-78.5-34.5T805 1567zm283-141q138 0 255.5-46.5t199-128.5 127.5-196.5 46-246.5q0-166-67.5-323.5t-180.5-274T1081 51 760-20q-276 0-450.5 176T135 602q0 135 43 264.5T299.5 1101 481 1286t229.5 124 258.5 44zm-13-149q-130 0-251.5-56.5t-211.5-150T349 877t-54-265q0-211 132.5-347T772 129q130 0 253 57t214 151 146 222 55 264q0 211-134.5 346.5T956 1305z"/><glyph glyph-name="Odieresis" unicode="Ö" horiz-adv-x="1648" d="M872 1790q42 0 74.5-32.5T979 1683q0-43-32.5-74.5T872 1577q-44 0-76 31t-32 75q0 43 32 75t76 32zm318 0q43 0 75.5-32t32.5-75q0-44-32.5-75t-75.5-31q-45 0-77 31t-32 75q0 43 32.5 75t76.5 32zm-221-336q138 0 255.5-46.5t199-128.5 127.5-196.5 46-246.5q0-166-67.5-323.5t-180.5-274T1081 51 760-20q-276 0-450.5 176T135 602q0 135 43 264.5T299.5 1101 481 1286t229.5 124 258.5 44zm-13-149q-130 0-251.5-56.5t-211.5-150T349 877t-54-265q0-211 132.5-347T772 129q130 0 253 57t214 151 146 222 55 264q0 211-134.5 346.5T956 1305z"/><glyph glyph-name="multiply" unicode="×" horiz-adv-x="1071" d="M1012 946 664 649l237-293-113-96-239 295-346-295-86 102 350 295-236 289 113 96 236-288 348 293z"/><glyph glyph-name="Oslash" unicode="Ø" horiz-adv-x="1648" d="m1669 1419-199-194q127-161 127-389 0-166-67.5-323.5t-180.5-274T1081 51 760-20q-244 0-414 141L154-68 68 23l192 188Q135 377 135 602q0 135 43 264.5T299.5 1101 481 1286t229.5 124 258.5 44q249 0 415-141l199 194zM295 612q0-162 82-286l893 874q-130 105-314 105-130 0-251.5-56.5t-211.5-150T349 877t-54-265zm1145 211q0 165-86 287L461 233q129-104 311-104 130 0 253 57t214 151 146 222 55 264z"/><glyph glyph-name="Ugrave" unicode="Ù" horiz-adv-x="1415" d="M582 1843h188l223-289H848zM639-20q-126 0-226.5 43t-160 119.5-83.5 182 3 230.5l170 879h156L324 545q-34-184 55.5-300T653 129q168 0 293 111.5T1106 535l174 899h156l-176-910q-47-246-218-395T639-20z"/><glyph glyph-name="Uacute" unicode="Ú" horiz-adv-x="1415" d="m1233 1843-264-289H821l223 289h189zM639-20q-126 0-226.5 43t-160 119.5-83.5 182 3 230.5l170 879h156L324 545q-34-184 55.5-300T653 129q168 0 293 111.5T1106 535l174 899h156l-176-910q-47-246-218-395T639-20z"/><glyph glyph-name="Ucircumflex" unicode="Û" horiz-adv-x="1415" d="m954 1757-168-190H645l242 288h166l131-288h-131zm326-323h156l-176-910q-47-246-218-395T639-20q-126 0-226.5 43t-160 119.5-83.5 182 3 230.5l170 879h156L324 545q-34-184 55.5-300T653 129q168 0 293 111.5T1106 535z"/><glyph glyph-name="Udieresis" unicode="Ü" horiz-adv-x="1415" d="M774 1790q43 0 76-32t33-75q0-44-33-75t-76-31q-44 0-76 31t-32 75q0 43 32 75t76 32zm318 0q43 0 75.5-32t32.5-75q0-44-32.5-75t-75.5-31-75 31-32 75q0 43 32 75t75 32zM639-20q-126 0-226.5 43t-160 119.5-83.5 182 3 230.5l170 879h156L324 545q-34-184 55.5-300T653 129q168 0 293 111.5T1106 535l174 899h156l-176-910q-47-246-218-395T639-20z"/><glyph glyph-name="Yacute" unicode="Ý" horiz-adv-x="1273" d="m1163 1843-266-289H752l223 289h188zm-944-409h172l301-635 539 635h190L748 639 621 0H465l127 643z"/><glyph glyph-name="Thorn" unicode="Þ" horiz-adv-x="1204" d="M815 1133q155 0 263-105.5T1186 772q0-128-68-235.5T934.5 368 684 307H279L219 0H63l279 1434h156l-60-301h377zM700 455q131 0 230.5 89.5T1030 758q0 93-67.5 160T799 985H410L307 455h393z"/><glyph glyph-name="germandbls" unicode="ß" horiz-adv-x="1204" d="m45 0 195 997q41 211 192 334t361 123q182 0 289-118t75-283q-21-113-101.5-193T866 758q128-21 196.5-119.5T1104 403q-32-170-173-286.5T618 0H346l27 147h256q112 0 206.5 80T952 420q22 112-46.5 185T694 678H477l27 139h194q107 0 197.5 72.5T1006 1065q21 101-42.5 172.5T784 1309q-142 0-252.5-91T393 987L201 0H45z"/><glyph glyph-name="agrave" unicode="à" horiz-adv-x="1267" d="M911 1116H766l-266 289h188zm160-121h150L1026 0H877l41 211Q846 102 741 41T512-20q-223 0-344 159.5T92 543q41 207 194.5 340T637 1016q153 0 253-69t134-197zM559 119q150 0 267.5 103.5T969 473q33 182-58 294T647 879q-149 0-264-99.5T242 528q-32-181 59-295t258-114z"/><glyph glyph-name="aacute" unicode="á" horiz-adv-x="1267" d="m1126 1405-266-289H713l223 289h190zm-55-410h150L1026 0H877l41 211Q846 102 741 41T512-20q-223 0-344 159.5T92 543q41 207 194.5 340T637 1016q153 0 253-69t134-197zM559 119q150 0 267.5 103.5T969 473q33 182-58 294T647 879q-149 0-264-99.5T242 528q-32-181 59-295t258-114z"/><glyph glyph-name="acircumflex" unicode="â" horiz-adv-x="1267" d="m827 1321-170-191H518l240 289h168l129-289H926zm244-326h150L1026 0H877l41 211Q846 102 741 41T512-20q-223 0-344 159.5T92 543q41 207 194.5 340T637 1016q153 0 253-69t134-197zM559 119q150 0 267.5 103.5T969 473q33 182-58 294T647 879q-149 0-264-99.5T242 528q-32-181 59-295t258-114z"/><glyph glyph-name="atilde" unicode="ã" horiz-adv-x="1267" d="M700 1249q-43 0-78-34.5t-42-86.5l-119 29q26 101 91 161t140 60q43 0 85.5-18.5t70-40.5 58-40.5T958 1260q44 0 80.5 33.5t46.5 84.5l119-28q-27-99-93.5-159.5T969 1130q-44 0-86 18.5t-69 41-58 41-56 18.5zm371-254h150L1026 0H877l41 211Q846 102 741 41T512-20q-223 0-344 159.5T92 543q41 207 194.5 340T637 1016q153 0 253-69t134-197zM559 119q150 0 267.5 103.5T969 473q33 182-58 294T647 879q-149 0-264-99.5T242 528q-32-181 59-295t258-114z"/><glyph glyph-name="adieresis" unicode="ä" horiz-adv-x="1267" d="M694 1214q-44 0-76 32.5t-32 76.5q0 43 32 75t76 32q43 0 76-32t33-75q0-44-33-76.5t-76-32.5zm318 0q-43 0-75 32.5t-32 76.5q0 43 32 75t75 32 75.5-32 32.5-75q0-44-32.5-76.5T1012 1214zm59-219h150L1026 0H877l41 211Q846 102 741 41T512-20q-223 0-344 159.5T92 543q41 207 194.5 340T637 1016q153 0 253-69t134-197zM559 119q150 0 267.5 103.5T969 473q33 182-58 294T647 879q-149 0-264-99.5T242 528q-32-181 59-295t258-114z"/><glyph glyph-name="aring" unicode="å" horiz-adv-x="1267" d="M821 1112q-104 0-169.5 66.5T590 1346t77.5 168 178.5 67q106 0 172-67t61-168q-4-101-78-167.5T821 1112zm-133 234q-2-60 37-100t100-40q63 0 108 40t46 100q3 60-35.5 100.5T842 1487t-107-40.5-47-100.5zm383-351h150L1026 0H877l41 211Q846 102 741 41T512-20q-223 0-344 159.5T92 543q41 207 194.5 340T637 1016q153 0 253-69t134-197zM559 119q150 0 267.5 103.5T969 473q33 182-58 294T647 879q-149 0-264-99.5T242 528q-32-181 59-295t258-114z"/><glyph glyph-name="ae" unicode="æ" horiz-adv-x="2113" d="M1180 485q-2-10-2-30-3-149 91.5-250T1511 104q119 0 210 56t124 153h146q-43-155-180.5-244T1499-20q-148 0-262 76t-160 202L1026 0H877l41 211Q846 102 741 41T512-20q-223 0-344 159.5T92 543q41 207 194.5 340T637 1016q153 0 253-69t134-197l47 245h150l-37-188q77 98 185 153.5t233 55.5q192 0 312-119.5T2034 590q0-48-13-105h-841zm415 408q-140 0-247-84t-148-217h688q0 142-78.5 221.5T1595 893zM559 119q150 0 267.5 103.5T969 473q33 182-58 294T647 879q-149 0-264-99.5T242 528q-32-181 59-295t258-114z"/><glyph glyph-name="ccedilla" unicode="ç" horiz-adv-x="1157" d="M1075 670H928q1 87-78.5 145.5T659 874q-181 0-302-117T236 463q0-147 91-244.5T559 121q112 0 206.5 58T891 336h151q-42-162-182-259T547-20h-8q43-62 53.5-125.5t-11-115.5-63.5-93-106.5-62.5T272-436l-28 108q84 6 141.5 35t81 72.5 14 100T426-6Q273 32 180.5 157.5T88 453q0 161 77 290.5t211 201 298 71.5q175 0 292.5-100T1075 670z"/><glyph glyph-name="egrave" unicode="è" horiz-adv-x="1163" d="M793 1116H647l-266 289h188zM227 471v-20q-3-146 91-241t241-95q110 0 200 52t124 146h159Q998 162 860 71T547-20q-199 0-331 131T84 440q0 161 76 293.5T365.5 941t283.5 75q191 0 313.5-119.5T1085 586q0-41-16-115H227zm416 412q-139 0-244-79.5T252 596h680q-3 133-80.5 210T643 883z"/><glyph glyph-name="eacute" unicode="é" horiz-adv-x="1163" d="m1026 1405-266-289H614l224 289h188zM227 471v-20q-3-146 91-241t241-95q110 0 200 52t124 146h159Q998 162 860 71T547-20q-199 0-331 131T84 440q0 161 76 293.5T365.5 941t283.5 75q191 0 313.5-119.5T1085 586q0-41-16-115H227zm416 412q-139 0-244-79.5T252 596h680q-3 133-80.5 210T643 883z"/><glyph glyph-name="ecircumflex" unicode="ê" horiz-adv-x="1163" d="m735 1321-170-191H426l242 289h166l131-289H834zM227 471v-20q-3-146 91-241t241-95q110 0 200 52t124 146h159Q998 162 860 71T547-20q-199 0-331 131T84 440q0 161 76 293.5T365.5 941t283.5 75q191 0 313.5-119.5T1085 586q0-41-16-115H227zm416 412q-139 0-244-79.5T252 596h680q-3 133-80.5 210T643 883z"/><glyph glyph-name="edieresis" unicode="ë" horiz-adv-x="1163" d="M588 1214q-44 0-76.5 32.5T479 1323q0 43 32.5 75t76.5 32q43 0 75.5-32t32.5-75q0-44-32.5-76.5T588 1214zm317 0q-44 0-76 32.5t-32 76.5q0 43 32 75t76 32q43 0 76-32t33-75q0-44-33-76.5t-76-32.5zM227 471v-20q-3-146 91-241t241-95q110 0 200 52t124 146h159Q998 162 860 71T547-20q-199 0-331 131T84 440q0 161 76 293.5T365.5 941t283.5 75q191 0 313.5-119.5T1085 586q0-41-16-115H227zm416 412q-139 0-244-79.5T252 596h680q-3 133-80.5 210T643 883z"/><glyph glyph-name="igrave" unicode="ì" horiz-adv-x="436" d="M16 1405h189l223-289H283zm226-410h147L197 0H47z"/><glyph glyph-name="iacute" unicode="í" horiz-adv-x="436" d="m662 1405-267-289H250l223 289h189zM242 995h147L197 0H47z"/><glyph glyph-name="icircumflex" unicode="î" horiz-adv-x="436" d="m469 1419 131-289H469l-98 191-170-191H61l242 289h166zM47 0l195 995h147L197 0H47z"/><glyph glyph-name="idieresis" unicode="ï" horiz-adv-x="436" d="M221 1430q43 0 76-32t33-75q0-44-33-76.5t-76-32.5q-44 0-76 32.5t-32 76.5q0 43 32 75t76 32zm318 0q43 0 75.5-32t32.5-75q0-44-32.5-76.5T539 1214q-44 0-76.5 32.5T430 1323q0 43 32.5 75t76.5 32zM242 995h147L197 0H47z"/><glyph glyph-name="eth" unicode="ð" horiz-adv-x="1296" d="m1569 1300-23-106h-278l-133-692q-30-155-120-274.5T795 44 516-20q-152 0-260.5 71T103 245 88 518q27 136 114 250.5t211.5 181T670 1016q145 0 240-65t124-173l84 416H868l23 106h248l26 134h150l-27-134h281zM981 508q28 160-57.5 264.5T678 877q-161 0-293-113.5T227 489q-26-156 61-262t242-106q167 0 295 110t156 277z"/><glyph glyph-name="ntilde" unicode="ñ" horiz-adv-x="1193" d="M600 1249q-43 0-77.5-34.5T479 1128l-119 29q27 101 92 161t140 60q43 0 85.5-18.5t70-40.5 58-40.5T858 1260q45 0 81.5 33.5T985 1378l119-28q-27-100-93.5-160T868 1130q-44 0-85.5 18.5t-68.5 41-58 41-56 18.5zm123-233q196 0 290-122t54-325L956 0H807l111 563q26 144-38.5 227.5T682 874q-144 0-245.5-88T305 553h-2L197 0H47l195 995h147l-35-182q66 97 161.5 150t207.5 53z"/><glyph glyph-name="ograve" unicode="ò" horiz-adv-x="1202" d="M397 1405h189l223-289H664zm265-389q199 0 328.5-129.5T1120 563q0-154-79-288.5T828 60 539-20q-199 0-328 127.5T82 430q0 116 46.5 224t125 187.5 185.5 127 223 47.5zm-11-142q-171 0-296.5-128T229 444q0-139 90-231t230-92q111 0 209.5 59T915 338t58 211q0 140-91.5 232.5T651 874z"/><glyph glyph-name="oacute" unicode="ó" horiz-adv-x="1202" d="m1042 1405-266-289H631l223 289h188zm-380-389q199 0 328.5-129.5T1120 563q0-154-79-288.5T828 60 539-20q-199 0-328 127.5T82 430q0 116 46.5 224t125 187.5 185.5 127 223 47.5zm-11-142q-171 0-296.5-128T229 444q0-139 90-231t230-92q111 0 209.5 59T915 338t58 211q0 140-91.5 232.5T651 874z"/><glyph glyph-name="ocircumflex" unicode="ô" horiz-adv-x="1202" d="m752 1321-170-191H442l242 289h166l131-289H850zm-90-305q199 0 328.5-129.5T1120 563q0-154-79-288.5T828 60 539-20q-199 0-328 127.5T82 430q0 116 46.5 224t125 187.5 185.5 127 223 47.5zM549 121q111 0 209.5 59T915 338t58 211q0 140-91.5 232.5T651 874q-171 0-296.5-128T229 444q0-139 90-231t230-92z"/><glyph glyph-name="otilde" unicode="õ" horiz-adv-x="1202" d="M377 1157q26 101 91 161t140 60q43 0 85.5-18.5t70-40.5 58-40.5T874 1260q44 0 80.5 33.5t46.5 84.5l119-28q-27-99-93.5-159.5T885 1130q-44 0-86 18.5t-69 41-58 41-56 18.5q-43 0-78-34.5t-42-86.5zm285-141q199 0 328.5-129.5T1120 563q0-154-79-288.5T828 60 539-20q-199 0-328 127.5T82 430q0 116 46.5 224t125 187.5 185.5 127 223 47.5zm-11-142q-171 0-296.5-128T229 444q0-139 90-231t230-92q111 0 209.5 59T915 338t58 211q0 140-91.5 232.5T651 874z"/><glyph glyph-name="odieresis" unicode="ö" horiz-adv-x="1202" d="M604 1430q43 0 76-32t33-75q0-44-33-76.5t-76-32.5q-44 0-76 32.5t-32 76.5q0 43 32 75t76 32zm318 0q43 0 75.5-32t32.5-75q0-44-32.5-76.5T922 1214q-44 0-76.5 32.5T813 1323q0 43 32.5 75t76.5 32zm-260-414q199 0 328.5-129.5T1120 563q0-154-79-288.5T828 60 539-20q-199 0-328 127.5T82 430q0 116 46.5 224t125 187.5 185.5 127 223 47.5zm-11-142q-171 0-296.5-128T229 444q0-139 90-231t230-92q111 0 209.5 59T915 338t58 211q0 140-91.5 232.5T651 874z"/><glyph glyph-name="divide" unicode="÷" horiz-adv-x="1179" d="M690 877q-52 0-86.5 33.5T569 995q0 50 34.5 84.5T690 1114q51 0 85-34.5t34-84.5q0-51-34-84.5T690 877zm387-162-26-140H160l26 140h891zM553 176q-51 0-86 34t-35 83q0 51 35 86t86 35 85-35 34-86q0-50-34-83.5T553 176z"/><glyph glyph-name="oslash" unicode="ø" horiz-adv-x="1304" d="m1219 991-144-141q96-123 96-287 0-154-79-288.5T879.5 60 592-20Q412-20 291 82L147-59 84 8l141 139q-92 119-92 283 0 116 46.5 224t125 187.5 185.5 127 223 47.5q172 0 297-101l143 142zM281 444q0-108 55-188l565 553q-84 65-199 65-171 0-296-128T281 444zm743 105q0 114-59 194L399 188q83-67 201-67 111 0 209.5 59T966 338t58 211z"/><glyph glyph-name="ugrave" unicode="ù" horiz-adv-x="1196" d="M831 1116H684l-264 289h188zm170-121h148L956 0H807l35 182Q776 85 680.5 32.5T475-20q-197 0-290.5 121.5T129 428l113 567h147L281 432q-28-142 37-226.5T516 121q143 0 245 88.5T893 442z"/><glyph glyph-name="uacute" unicode="ú" horiz-adv-x="1193" d="m1044 1405-266-289H631l223 289h190zm-43-410h148L956 0H807l35 182Q776 85 680.5 32.5T475-20q-197 0-290.5 121.5T129 428l113 567h147L281 432q-28-142 37-226.5T516 121q143 0 245 88.5T893 442z"/><glyph glyph-name="ucircumflex" unicode="û" horiz-adv-x="1193" d="m588 1321-170-191H279l241 289h166l131-289H686zm413-326h148L956 0H807l35 182Q776 85 680.5 32.5T475-20q-197 0-290.5 121.5T129 428l113 567h147L281 432q-28-142 37-226.5T516 121q143 0 245 88.5T893 442z"/><glyph glyph-name="udieresis" unicode="ü" horiz-adv-x="1196" d="M606 1214q-44 0-76 32.5t-32 76.5q0 43 32 75t76 32q43 0 76-32t33-75q0-44-33-76.5t-76-32.5zm318 0q-44 0-76.5 32.5T815 1323q0 43 32.5 75t76.5 32q43 0 75.5-32t32.5-75q0-44-32.5-76.5T924 1214zm77-219h148L956 0H807l35 182Q776 85 680.5 32.5T475-20q-197 0-290.5 121.5T129 428l113 567h147L281 432q-28-142 37-226.5T516 121q143 0 245 88.5T893 442z"/><glyph glyph-name="yacute" unicode="ý" horiz-adv-x="1046" d="m981 1405-266-289H569l224 289h188zm-35-410h164L268-377H104L356 27 135 995h158l170-798z"/><glyph glyph-name="thorn" unicode="þ" horiz-adv-x="1269" d="M758 1016q145 0 251.5-71.5t152-200.5 14.5-289q-40-207-193-341T633-20q-155 0-256 70.5T244 250L123-377H-27l353 1811h147L346 776q71 114 178 177t234 63zm270-549q32 182-59.5 297T709 879q-149 0-266-104T299 524q-32-184 58.5-294.5T621 119q150 0 264.5 98.5T1028 467z"/><glyph glyph-name="ydieresis" unicode="ÿ" horiz-adv-x="1046" d="M543 1214q-44 0-76.5 32.5T434 1323q0 43 32.5 75t76.5 32q43 0 75.5-32t32.5-75q0-44-32.5-76.5T543 1214zm317 0q-44 0-76 32.5t-32 76.5q0 43 32 75t76 32q43 0 76-32t33-75q0-44-33-76.5t-76-32.5zm86-219h164L268-377H104L356 27 135 995h158l170-798z"/><glyph glyph-name="Amacron" unicode="Ā" horiz-adv-x="1341" d="m1235 1704-25-123H555l25 123h655zm-453-270h140L1219 0h-168l-70 350H301L94 0H-70zM389 498h561l-141 708z"/><glyph glyph-name="amacron" unicode="ā" horiz-adv-x="1243" d="m1145 1266-25-123H465l24 123h656zm-74-271h150L1026 0H877l41 211Q846 102 741 41T512-20q-223 0-344 159.5T92 543q41 207 194.5 340T637 1016q153 0 253-69t134-197zM559 119q150 0 267.5 103.5T969 473q33 182-58 294T647 879q-149 0-264-99.5T242 528q-32-181 59-295t258-114z"/><glyph glyph-name="Abreve" unicode="Ă" horiz-adv-x="1341" d="M881 1546q-129 0-200 88.5T635 1853h115q-18-88 25-145t124-57q80 0 141 56t78 146h119q-29-143-124.5-225T881 1546zm-99-112h140L1219 0h-168l-70 350H301L94 0H-70zM389 498h561l-141 708z"/><glyph glyph-name="abreve" unicode="ă" horiz-adv-x="1247" d="M772 1108q-128 0-198.5 88.5T528 1415h115q-18-88 25.5-145.5T793 1212q80 0 141 56.5t78 146.5h118q-29-143-124.5-225T772 1108zm299-113h150L1026 0H877l41 211Q846 102 741 41T512-20q-223 0-344 159.5T92 543q41 207 194.5 340T637 1016q153 0 253-69t134-197zM559 119q150 0 267.5 103.5T969 473q33 182-58 294T647 879q-149 0-264-99.5T242 528q-32-181 59-295t258-114z"/><glyph glyph-name="Aogonek" unicode="Ą" horiz-adv-x="1341" d="M1176 0q-95-30-154.5-82T950-199q-8-39 12.5-64.5T1028-289q59 0 115 27l33-100q-80-41-181-41-96 0-145.5 55T817-209q15 74 73.5 139T1042 43l-61 307H301L94 0H-70l852 1434h140L1219 0h-43zM389 498h561l-141 708z"/><glyph glyph-name="aogonek" unicode="ą" horiz-adv-x="1267" d="M1028 0q-94-29-153.5-81T803-199q-8-39 12.5-64.5T881-289q58 0 114 27l33-100q-80-41-180-41-96 0-145.5 55T670-209q13 73 68.5 136.5T883 37l35 174Q846 102 741 41T512-20q-223 0-344 159.5T92 543q41 207 194.5 340T637 1016q153 0 253-69t134-197l47 245h150L1028 16V0zM559 119q150 0 267.5 103.5T969 473q33 182-58 294T647 879q-149 0-264-99.5T242 528q-32-181 59-295t258-114z"/><glyph glyph-name="Cacute" unicode="Ć" horiz-adv-x="1589" d="m1346 1843-267-289H934l223 289h189zm141-1360q-72-224-272-363.5T764-20q-181 0-325 81T215 284t-80 318q0 169 68 326.5T383.5 1201t267 184 320.5 69q244 0 405-134.5T1556 969h-167q-15 150-135 243t-298 93q-176 0-328.5-95T385 955t-90-343q0-211 133-347t346-136q184 0 334 98.5T1317 483h170z"/><glyph glyph-name="cacute" unicode="ć" horiz-adv-x="1157" d="m1010 1405-267-289H598l223 289h189zM547-20q-201 0-330 134.5T88 453q0 161 77 290.5t211 201 298 71.5q175 0 292.5-100T1075 670H928q1 87-78.5 145.5T659 874q-181 0-302-117T236 463q0-147 91-244.5T559 121q112 0 206.5 58T891 336h151q-42-162-182-259T547-20z"/><glyph glyph-name="Ccircumflex" unicode="Ĉ" horiz-adv-x="1589" d="m1053 1759-170-190H743l242 289h166l131-289h-131zM774 129q184 0 334 98.5T1317 483h170q-72-224-272-363.5T764-20q-181 0-325 81T215 284t-80 318q0 169 68 326.5T383.5 1201t267 184 320.5 69q244 0 405-134.5T1556 969h-167q-15 150-135 243t-298 93q-176 0-328.5-95T385 955t-90-343q0-211 133-347t346-136z"/><glyph glyph-name="ccircumflex" unicode="ĉ" horiz-adv-x="1157" d="m719 1321-170-191H410l241 289h166l131-289H817zm356-651H928q1 87-78.5 145.5T659 874q-181 0-302-117T236 463q0-147 91-244.5T559 121q112 0 206.5 58T891 336h151q-42-162-182-259T547-20q-201 0-330 134.5T88 453q0 161 77 290.5t211 201 298 71.5q175 0 292.5-100T1075 670z"/><glyph glyph-name="Cdotaccent" unicode="Ċ" horiz-adv-x="1589" d="M1042 1790q42 0 74.5-32.5t32.5-74.5q0-43-32.5-74.5T1042 1577q-44 0-76 31t-32 75q0 43 32 75t76 32zm445-1307q-72-224-272-363.5T764-20q-181 0-325 81T215 284t-80 318q0 169 68 326.5T383.5 1201t267 184 320.5 69q244 0 405-134.5T1556 969h-167q-15 150-135 243t-298 93q-176 0-328.5-95T385 955t-90-343q0-211 133-347t346-136q184 0 334 98.5T1317 483h170z"/><glyph glyph-name="cdotaccent" unicode="ċ" horiz-adv-x="1157" d="M725 1430q43 0 76-32t33-75q0-44-33-76.5t-76-32.5q-44 0-76.5 32.5T616 1323q0 43 32.5 75t76.5 32zM547-20q-201 0-330 134.5T88 453q0 161 77 290.5t211 201 298 71.5q175 0 292.5-100T1075 670H928q1 87-78.5 145.5T659 874q-181 0-302-117T236 463q0-147 91-244.5T559 121q112 0 206.5 58T891 336h151q-42-162-182-259T547-20z"/><glyph glyph-name="Ccaron" unicode="Č" horiz-adv-x="1589" d="m942 1554-129 289h129l98-190 170 190h140l-240-289H942zM774 129q184 0 334 98.5T1317 483h170q-72-224-272-363.5T764-20q-181 0-325 81T215 284t-80 318q0 169 68 326.5T383.5 1201t267 184 320.5 69q244 0 405-134.5T1556 969h-167q-15 150-135 243t-298 93q-176 0-328.5-95T385 955t-90-343q0-211 133-347t346-136z"/><glyph glyph-name="ccaron" unicode="č" horiz-adv-x="1157" d="m606 1116-129 289h129l99-191 169 191h140l-240-289H606zm469-446H928q1 87-78.5 145.5T659 874q-181 0-302-117T236 463q0-147 91-244.5T559 121q112 0 206.5 58T891 336h151q-42-162-182-259T547-20q-201 0-330 134.5T88 453q0 161 77 290.5t211 201 298 71.5q175 0 292.5-100T1075 670z"/><glyph glyph-name="Dcaron" unicode="Ď" horiz-adv-x="1417" d="m754 1554-129 289h129l98-190 170 190h139l-239-289H754zm8-120q169 0 307.5-81t216.5-218.5 78-300.5q0-235-107-426T961 108.5 539 0H63l279 1434h420zM561 147q179 0 327.5 91.5t233 248.5 84.5 344q0 191-129.5 323T754 1286H469L248 147h313z"/><glyph glyph-name="dcaron" unicode="ď" horiz-adv-x="1339" d="M1425 1536h160l-160-420h-125zm-270-102h150L1026 0H877l41 211Q846 102 741 41T512-20q-223 0-344 159.5T92 543q41 207 194.5 340T637 1016q153 0 253-69t132-195zM559 119q144 0 257.5 95.5T963 449l8 36q29 176-63 285T647 879q-149 0-264-99.5T242 528q-32-181 59-295t258-114z"/><glyph glyph-name="Dcroat" unicode="Đ" horiz-adv-x="1417" d="M762 1434q169 0 307.5-81t216.5-218.5 78-300.5q0-235-107-426T961 108.5 539 0H63l132 670H-27l19 106h223l127 658h420zM561 147q179 0 327.5 91.5t233 248.5 84.5 344q0 191-129.5 323T754 1286H469l-98-510h237l-20-106H350L248 147h313z"/><glyph glyph-name="dcroat" unicode="đ" horiz-adv-x="1222" d="m1493 1298-20-102h-216L1026 0H877l41 211Q846 102 741 41T512-20q-223 0-344 159.5T92 543q41 207 194.5 340T637 1016q153 0 253-69t132-195l86 444H856l21 102h251l27 136h150l-27-136h215zM559 119q144 0 257.5 95.5T963 449l8 36q29 176-63 285T647 879q-149 0-264-99.5T242 528q-32-181 59-295t258-114z"/><glyph glyph-name="Emacron" unicode="Ē" horiz-adv-x="1077" d="m449 1581 24 123h655l-24-123H449zm-107-147h803l-29-148H469l-86-446h575l-26-148H354L248 147h647L866 0H63z"/><glyph glyph-name="emacron" unicode="ē" horiz-adv-x="1163" d="m1063 1266-25-123H383l25 123h655zM227 471v-20q-3-146 91-241t241-95q110 0 200 52t124 146h159Q998 162 860 71T547-20q-199 0-331 131T84 440q0 161 76 293.5T365.5 941t283.5 75q191 0 313.5-119.5T1085 586q0-41-16-115H227zm416 412q-139 0-244-79.5T252 596h680q-3 133-80.5 210T643 883z"/><glyph glyph-name="Ebreve" unicode="Ĕ" horiz-adv-x="1077" d="M1130 1853q-29-143-124.5-225T774 1546q-129 0-200 88.5T528 1853h115q-18-88 25.5-145t124.5-57q80 0 141 56t78 146h118zm-788-419h803l-29-148H469l-86-446h575l-26-148H354L248 147h647L866 0H63z"/><glyph glyph-name="ebreve" unicode="ĕ" horiz-adv-x="1163" d="M709 1108q-129 0-200 88.5T463 1415h115q-19-88 24.5-145.5T727 1212q80 0 141 56.5t78 146.5h119q-29-143-124.5-225T709 1108zM227 471v-20q-3-146 91-241t241-95q110 0 200 52t124 146h159Q998 162 860 71T547-20q-199 0-331 131T84 440q0 161 76 293.5T365.5 941t283.5 75q191 0 313.5-119.5T1085 586q0-41-16-115H227zm416 412q-139 0-244-79.5T252 596h680q-3 133-80.5 210T643 883z"/><glyph glyph-name="Edotaccent" unicode="Ė" horiz-adv-x="1077" d="M788 1790q42 0 74.5-32.5T895 1683q0-43-32.5-74.5T788 1577q-44 0-76 31t-32 75q0 43 32 75t76 32zm-446-356h803l-29-148H469l-86-446h575l-26-148H354L248 147h647L866 0H63z"/><glyph glyph-name="edotaccent" unicode="ė" horiz-adv-x="1163" d="M743 1214q-44 0-76 32.5t-32 76.5q0 43 32 75t76 32q43 0 76-32t33-75q0-44-33-76.5t-76-32.5zM227 471v-20q-3-146 91-241t241-95q110 0 200 52t124 146h159Q998 162 860 71T547-20q-199 0-331 131T84 440q0 161 76 293.5T365.5 941t283.5 75q191 0 313.5-119.5T1085 586q0-41-16-115H227zm416 412q-139 0-244-79.5T252 596h680q-3 133-80.5 210T643 883z"/><glyph glyph-name="Eogonek" unicode="Ę" horiz-adv-x="1077" d="M1116 1286H469l-86-446h575l-26-148H354L248 147h647L866 0H711q-95-30-154.5-82T485-199q-8-39 12.5-64.5T563-289q59 0 115 27l33-100q-80-41-181-41-96 0-145.5 55T352-209Q376-88 506 0H63l279 1434h803z"/><glyph glyph-name="eogonek" unicode="ę" horiz-adv-x="1163" d="M227 471v-20q-3-146 91-241t241-95q110 0 200 52t124 146h159q-40-139-161-227v-4Q754-6 691.5-68.5T616-195q-8-41 12.5-67.5T694-289q59 0 115 27l33-100q-80-41-180-41-96 0-146 55t-33 139q18 100 123 191-20-2-59-2-199 0-331 131T84 440q0 161 76 293.5T365.5 941t283.5 75q191 0 313.5-119.5T1085 586q0-41-16-115H227zm416 412q-139 0-244-79.5T252 596h680q-3 133-80.5 210T643 883z"/><glyph glyph-name="Ecaron" unicode="Ě" horiz-adv-x="1077" d="m690 1554-129 289h129l98-190 170 190h140l-240-289H690zm426-268H469l-86-446h575l-26-148H354L248 147h647L866 0H63l279 1434h803z"/><glyph glyph-name="ecaron" unicode="ě" horiz-adv-x="1163" d="m625 1116-129 289h129l98-191 170 191h139l-239-289H625zM227 471v-20q-3-146 91-241t241-95q110 0 200 52t124 146h159Q998 162 860 71T547-20q-199 0-331 131T84 440q0 161 76 293.5T365.5 941t283.5 75q191 0 313.5-119.5T1085 586q0-41-16-115H227zm416 412q-139 0-244-79.5T252 596h680q-3 133-80.5 210T643 883z"/><glyph glyph-name="Gcircumflex" unicode="Ĝ" horiz-adv-x="1601" d="m1065 1759-170-190H756l241 289h166l131-289h-131zm477-1009q-4-63-10-97-53-305-254.5-489T778-20q-133 0-250.5 47T325 157.5t-134.5 205T141 627q0 171 64 324t174.5 263.5 264.5 175 327 64.5q244 0 406-134.5T1556 969h-170q-13 151-132 243.5T956 1305q-186 0-336.5-89.5T385 973t-84-336q0-233 136.5-370.5T786 129q225 0 375.5 128.5T1354 602H868l29 148h645z"/><glyph glyph-name="gcircumflex" unicode="ĝ" horiz-adv-x="1267" d="m778 1321-170-191H469l242 289h166l131-289H877zm295-324h150L1034 31q-41-219-192-344T465-438q-85 0-165 23.5T156-347 59.5-231.5 41-72h147q-16-107 70.5-166T485-297q155 0 262 87T883 25l39 200Q851 115 744.5 53.5T512-8Q367-8 260.5 63t-152 199T94 549q40 204 193.5 336.5T637 1018q155 0 255-69t134-197zM561 129q148 0 265.5 102.5T971 479q33 181-58 291.5T649 881q-149 0-264-98.5T244 535q-33-179 58-292.5T561 129z"/><glyph glyph-name="Gbreve" unicode="Ğ" horiz-adv-x="1601" d="M1038 1546q-129 0-199.5 88T793 1853h114q-18-88 25.5-145t124.5-57q80 0 141 56t78 146h119q-29-143-125-225t-232-82zm504-796q-4-63-10-97-53-305-254.5-489T778-20q-133 0-250.5 47T325 157.5t-134.5 205T141 627q0 171 64 324t174.5 263.5 264.5 175 327 64.5q244 0 406-134.5T1556 969h-170q-13 151-132 243.5T956 1305q-186 0-336.5-89.5T385 973t-84-336q0-233 136.5-370.5T786 129q225 0 375.5 128.5T1354 602H868l29 148h645z"/><glyph glyph-name="gbreve" unicode="ğ" horiz-adv-x="1267" d="M752 1108q-129 0-200 88.5T506 1415h115q-19-88 24.5-145.5T770 1212q80 0 141 56.5t78 146.5h119q-29-143-124.5-225T752 1108zm321-111h150L1034 31q-41-219-192-344T465-438q-85 0-165 23.5T156-347 59.5-231.5 41-72h147q-16-107 70.5-166T485-297q155 0 262 87T883 25l39 200Q851 115 744.5 53.5T512-8Q367-8 260.5 63t-152 199T94 549q40 204 193.5 336.5T637 1018q155 0 255-69t134-197zM561 129q148 0 265.5 102.5T971 479q33 181-58 291.5T649 881q-149 0-264-98.5T244 535q-33-179 58-292.5T561 129z"/><glyph glyph-name="Gdotaccent" unicode="Ġ" horiz-adv-x="1601" d="M1053 1577q-45 0-77 31t-32 75q0 43 32.5 75t76.5 32q41 0 73.5-32t32.5-75q0-44-32-75t-74-31zm489-827q-4-63-10-97-53-305-254.5-489T778-20q-133 0-250.5 47T325 157.5t-134.5 205T141 627q0 171 64 324t174.5 263.5 264.5 175 327 64.5q244 0 406-134.5T1556 969h-170q-13 151-132 243.5T956 1305q-186 0-336.5-89.5T385 973t-84-336q0-233 136.5-370.5T786 129q225 0 375.5 128.5T1354 602H868l29 148h645z"/><glyph glyph-name="gdotaccent" unicode="ġ" horiz-adv-x="1267" d="M786 1214q-44 0-76 32.5t-32 76.5q0 43 32 75t76 32q43 0 76-32t33-75q0-44-33-76.5t-76-32.5zm287-217h150L1034 31q-41-219-192-344T465-438q-85 0-165 23.5T156-347 59.5-231.5 41-72h147q-16-107 70.5-166T485-297q155 0 262 87T883 25l39 200Q851 115 744.5 53.5T512-8Q367-8 260.5 63t-152 199T94 549q40 204 193.5 336.5T637 1018q155 0 255-69t134-197zM561 129q148 0 265.5 102.5T971 479q33 181-58 291.5T649 881q-149 0-264-98.5T244 535q-33-179 58-292.5T561 129z"/><glyph glyph-name="uni0122" unicode="Ģ" horiz-adv-x="1601" d="M1542 750q-4-63-10-97-53-305-254.5-489T778-20q-133 0-250.5 47T325 157.5t-134.5 205T141 627q0 171 64 324t174.5 263.5 264.5 175 327 64.5q244 0 406-134.5T1556 969h-170q-13 151-132 243.5T956 1305q-186 0-336.5-89.5T385 973t-84-336q0-233 136.5-370.5T786 129q225 0 375.5 128.5T1354 602H868l29 148h645zM383-438l223 288h191L530-438H383z"/><glyph glyph-name="uni0123" unicode="ģ" horiz-adv-x="1267" d="m983 1411-223-289H569l267 289h147zm90-414h150L1034 31q-41-219-192-344T465-438q-85 0-165 23.5T156-347 59.5-231.5 41-72h147q-16-107 70.5-166T485-297q155 0 262 87T883 25l39 200Q851 115 744.5 53.5T512-8Q367-8 260.5 63t-152 199T94 549q40 204 193.5 336.5T637 1018q155 0 255-69t134-197zM561 129q148 0 265.5 102.5T971 479q33 181-58 291.5T649 881q-149 0-264-98.5T244 535q-33-179 58-292.5T561 129z"/><glyph glyph-name="Hcircumflex" unicode="Ĥ" horiz-adv-x="1437" d="m954 1759-170-190H645l242 289h166l131-289h-131zm351-325h155L1182 0h-156l131 672H350L219 0H63l279 1434h156L379 819h807z"/><glyph glyph-name="hcircumflex" unicode="ĥ" horiz-adv-x="1193" d="m455 1759-170-190H145l242 289h166l131-289H553zm266-743q196 0 290-122t54-325L954 0H805l108 563q28 144-36.5 227.5T678 874q-132 0-229-75T313 596L197 0H47l279 1434h149L356 821q67 93 161.5 144t203.5 51z"/><glyph glyph-name="Hbar" unicode="Ħ" horiz-adv-x="1437" d="m1552 1196-22-106h-137L1182 0h-156l131 672H350L219 0H63l211 1090H135l21 106h139l47 238h156l-47-238h806l48 238h155l-47-238h139zm-366-377 51 271H430l-51-271h807z"/><glyph glyph-name="hbar" unicode="ħ" horiz-adv-x="1193" d="M721 1016q196 0 290-122t54-325L954 0H805l108 563q28 144-36.5 227.5T678 874q-132 0-229-75T313 596L197 0H47l232 1196H57l21 102h221l27 136h149l-26-136h245l-20-102H428l-72-375q67 93 161.5 144t203.5 51z"/><glyph glyph-name="Itilde" unicode="Ĩ" horiz-adv-x="477" d="M98 1595q26 101 91.5 161.5T330 1817q43 0 85.5-18.5t70-41 58-41T596 1698q44 0 80 34t47 85l119-29q-27-99-94-159t-142-60q-44 0-85.5 18.5t-68.5 41-58 41-56 18.5q-43 0-78.5-34.5T217 1567zm244-161h156L219 0H63z"/><glyph glyph-name="itilde" unicode="ĩ" horiz-adv-x="436" d="M-4 1157q26 101 91 161t140 60q43 0 85.5-18.5T383 1319t58.5-40.5T494 1260q44 0 80.5 33.5T621 1378l118-28q-27-99-93.5-159.5T504 1130q-44 0-85.5 18.5t-68.5 41-58 41-56 18.5q-43 0-78.5-34.5T115 1128zm246-162h147L197 0H47z"/><glyph glyph-name="Imacron" unicode="Ī" horiz-adv-x="477" d="m121 1581 24 123h656l-25-123H121zm221-147h156L219 0H63z"/><glyph glyph-name="imacron" unicode="ī" horiz-adv-x="436" d="m16 1143 25 123h655l-24-123H16zm226-148h147L197 0H47z"/><glyph glyph-name="Ibreve" unicode="Ĭ" horiz-adv-x="477" d="M803 1853q-29-143-125-225t-232-82q-129 0-199.5 88T201 1853h114q-18-88 25.5-145t124.5-57q80 0 141 56t78 146h119zm-461-419h156L219 0H63z"/><glyph glyph-name="ibreve" unicode="ĭ" horiz-adv-x="436" d="M700 1415q-29-143-124.5-225T344 1108q-129 0-200 88.5T98 1415h115q-19-88 24.5-145.5T362 1212q80 0 141.5 56.5T582 1415h118zM242 995h147L197 0H47z"/><glyph glyph-name="Iogonek" unicode="Į" horiz-adv-x="477" d="M219 0Q125-29 65.5-81T-6-199q-8-39 12.5-64.5T72-289q58 0 114 27l33-100q-80-41-180-41-96 0-145.5 55T-139-209q13 72 67.5 135T70 35l272 1399h156z"/><glyph glyph-name="iogonek" unicode="į" horiz-adv-x="436" d="M377 1430q43 0 75.5-32t32.5-75q0-44-32.5-76.5T377 1214q-44 0-76.5 32.5T268 1323q0 43 32.5 75t76.5 32zM242 995h147L205 47l-2-47Q108-30 48.5-82T-23-199q-8-39 12.5-64.5T55-289q59 0 115 27l33-100q-80-41-180-41-96 0-146 55t-33 139q13 72 67.5 135T53 35z"/><glyph glyph-name="Idotaccent" unicode="İ" horiz-adv-x="477" d="M461 1790q41 0 73.5-32t32.5-75q0-44-32-75t-74-31q-45 0-77 31t-32 75q0 43 32.5 75t76.5 32zm-119-356h156L219 0H63z"/><glyph glyph-name="dotlessi" unicode="ı" horiz-adv-x="436" d="M242 995h147L197 0H47z"/><glyph glyph-name="IJ" unicode="Ĳ" horiz-adv-x="1095" d="M342 1434h156L219 0H63zM453 129q10-2 36-2 230 0 287 295l197 1012h155L926 387Q887 192 775 87T500-18q-51 0-76 4z"/><glyph glyph-name="ij" unicode="ĳ" horiz-adv-x="872" d="M377 1430q43 0 75.5-32t32.5-75q0-44-32.5-76.5T377 1214q-44 0-76.5 32.5T268 1323q0 43 32.5 75t76.5 32zm434 0q43 0 76-32t33-75q0-44-33-76.5t-76-32.5-74.5 32.5T705 1323q0 43 31.5 75t74.5 32zM242 995h147L197 0H47zm26-1269q4 0 12.5-1t12.5-1q68 0 111.5 49T471-72L678 995h147L616-84q-32-162-117.5-246T281-414q-25 0-39 2z"/><glyph glyph-name="Jcircumflex" unicode="Ĵ" horiz-adv-x="618" d="m727 1858 131-289H727l-98 190-170-190H319l242 289h166zM299 422l197 1012h155L449 387Q410 192 298 87T23-18q-51 0-76 4l28 143q10-2 37-2 230 0 287 295z"/><glyph glyph-name="jcircumflex" unicode="ĵ" horiz-adv-x="436" d="m467 1419 131-289H467l-98 191-170-191H59l242 289h166zM35-72 242 995h147L180-84Q148-246 62-330t-218-84q-25 0-39 2l27 138q4 0 12.5-1t12.5-1q68 0 111.5 49T35-72z"/><glyph glyph-name="uni0136" unicode="Ķ" horiz-adv-x="1251" d="M1335 1434 530 752 1114 0H911L356 721 217 0H63l279 1434h154L371 786l757 648h207zM213-438l223 288h191L360-438H213z"/><glyph glyph-name="uni0137" unicode="ķ" horiz-adv-x="1030" d="M1061 995 449 520 897 0H702L291 487 197 0H47l279 1434h149L303 551l567 444h191zM115-438l223 288h190L262-438H115z"/><glyph glyph-name="kgreenlandic" unicode="ĸ" horiz-adv-x="1034" d="M1065 995 459 520 899 0H705L293 500 195 0H47l195 995h147l-88-454 571 454h193z"/><glyph glyph-name="Lacute" unicode="Ĺ" horiz-adv-x="1116" d="m764 1843-266-289H352l223 289h189zm-422-409h156L248 147h725L944 0H63z"/><glyph glyph-name="lacute" unicode="ĺ" horiz-adv-x="436" d="m754 1843-267-289H342l223 289h189zm-279-409L197 0H47l279 1434h149z"/><glyph glyph-name="uni013B" unicode="Ļ" horiz-adv-x="1116" d="M342 1434h156L248 147h725L944 0H63zM584-150 317-438H170l223 288h191z"/><glyph glyph-name="uni013C" unicode="ļ" horiz-adv-x="436" d="M475 1434 197 0H47l279 1434h149zM233-150-33-438h-147L43-150h190z"/><glyph glyph-name="Lcaron" unicode="Ľ" horiz-adv-x="1116" d="m944 1536-160-420H659l125 420h160zm-602-102h156L248 147h725L944 0H63z"/><glyph glyph-name="lcaron" unicode="ľ" horiz-adv-x="555" d="m799 1536-160-420H514l125 420h160zm-324-102L197 0H47l279 1434h149z"/><glyph glyph-name="Ldot" unicode="Ŀ" horiz-adv-x="1116" d="M342 1434h156L248 147h725L944 0H63zm461-787q-51 0-85 34t-34 85q0 50 34 84.5t85 34.5q52 0 86.5-34.5T924 766q0-51-34.5-85T803 647z"/><glyph glyph-name="ldot" unicode="ŀ" horiz-adv-x="622" d="M467 1434 188 0H41l278 1434h148zm102-828q-52 0-86 34t-34 85q0 50 34 84.5t86 34.5q51 0 85-34.5t34-84.5q0-51-34-85t-85-34z"/><glyph glyph-name="Lslash" unicode="Ł" horiz-adv-x="1116" d="M248 147h725L944 0H63l113 584-153-66 24 135 156 68 139 713h156L373 793l463 198-25-135-465-199z"/><glyph glyph-name="lslash" unicode="ł" horiz-adv-x="436" d="m539 1004-25-138-162-67L197 0H47l141 729-161-67 24 137 164 69 111 566h149l-96-498z"/><glyph glyph-name="Nacute" unicode="Ń" horiz-adv-x="1427" d="m1245 1843-266-289H834l223 289h188zm-903-409h145l578-1151 227 1151h156L1169 0h-141L446 1149 219 0H63z"/><glyph glyph-name="nacute" unicode="ń" horiz-adv-x="1193" d="m1028 1405-266-289H614l224 289h190zm-305-389q196 0 290-122t54-325L956 0H807l111 563q26 144-38.5 227.5T682 874q-144 0-245.5-88T305 553h-2L197 0H47l195 995h147l-35-182q66 97 161.5 150t207.5 53z"/><glyph glyph-name="uni0145" unicode="Ņ" horiz-adv-x="1427" d="M342 1434h145l578-1151 227 1151h156L1169 0h-141L446 1149 219 0H63zM727-150 461-438H313l224 288h190z"/><glyph glyph-name="uni0146" unicode="ņ" horiz-adv-x="1193" d="M723 1016q196 0 290-122t54-325L956 0H807l111 563q26 144-38.5 227.5T682 874q-144 0-245.5-88T305 553h-2L197 0H47l195 995h147l-35-182q66 97 161.5 150t207.5 53zM186-438l224 288h188L332-438H186z"/><glyph glyph-name="Ncaron" unicode="Ň" horiz-adv-x="1427" d="m842 1554-129 289h129l98-190 170 190h139l-239-289H842zm450-120h156L1169 0h-141L446 1149 219 0H63l279 1434h145l578-1151z"/><glyph glyph-name="ncaron" unicode="ň" horiz-adv-x="1193" d="m625 1116-129 289h129l98-191 170 191h139l-239-289H625zm98-100q196 0 290-122t54-325L956 0H807l111 563q26 144-38.5 227.5T682 874q-144 0-245.5-88T305 553h-2L197 0H47l195 995h147l-35-182q66 97 161.5 150t207.5 53z"/><glyph glyph-name="napostrophe" unicode="ŉ" horiz-adv-x="1179" d="M336 1116H236l96 148q-33 12-49 43t-9 73q9 45 44 75t79 30q54 0 84-36t19-89q-8-38-43-86zm387-100q196 0 290-122t54-325L956 0H807l111 563q26 144-38.5 227.5T682 874q-144 0-245.5-88T305 553h-2L197 0H47l195 995h147l-35-182q66 97 161.5 150t207.5 53z"/><glyph glyph-name="Eng" unicode="Ŋ" horiz-adv-x="1427" d="M700-254h35q217 3 281 279L446 1149 219 0H63l279 1434h145l578-1151 227 1151h156L1171 2q-38-195-146-298T758-399q-30 0-84 4z"/><glyph glyph-name="eng" unicode="ŋ" horiz-adv-x="1193" d="M723 1016q196 0 290-122t54-325L956 0h-4l-16-88q-61-326-322-326-30 0-67 6l33 134q10-2 24-2 149 0 189 210l67 357h4l54 272q26 144-38.5 227.5T682 874q-144 0-245.5-88T305 553h-2L197 0H47l195 995h147l-35-182q66 97 161.5 150t207.5 53z"/><glyph glyph-name="Omacron" unicode="Ō" horiz-adv-x="1648" d="m709 1581 24 123h656l-25-123H709zm260-127q138 0 255.5-46.5t199-128.5 127.5-196.5 46-246.5q0-166-67.5-323.5t-180.5-274T1081 51 760-20q-276 0-450.5 176T135 602q0 135 43 264.5T299.5 1101 481 1286t229.5 124 258.5 44zm-13-149q-130 0-251.5-56.5t-211.5-150T349 877t-54-265q0-211 132.5-347T772 129q130 0 253 57t214 151 146 222 55 264q0 211-134.5 346.5T956 1305z"/><glyph glyph-name="omacron" unicode="ō" horiz-adv-x="1202" d="m399 1143 25 123h655l-24-123H399zm263-127q199 0 328.5-129.5T1120 563q0-154-79-288.5T828 60 539-20q-199 0-328 127.5T82 430q0 116 46.5 224t125 187.5 185.5 127 223 47.5zm-11-142q-171 0-296.5-128T229 444q0-139 90-231t230-92q111 0 209.5 59T915 338t58 211q0 140-91.5 232.5T651 874z"/><glyph glyph-name="Obreve" unicode="Ŏ" horiz-adv-x="1648" d="M1391 1853q-29-143-125-225t-232-82q-129 0-200 88.5T788 1853h115q-18-88 25.5-145t124.5-57q80 0 141 56t78 146h119zm-422-399q138 0 255.5-46.5t199-128.5 127.5-196.5 46-246.5q0-166-67.5-323.5t-180.5-274T1081 51 760-20q-276 0-450.5 176T135 602q0 135 43 264.5T299.5 1101 481 1286t229.5 124 258.5 44zm-13-149q-130 0-251.5-56.5t-211.5-150T349 877t-54-265q0-211 132.5-347T772 129q130 0 253 57t214 151 146 222 55 264q0 211-134.5 346.5T956 1305z"/><glyph glyph-name="obreve" unicode="ŏ" horiz-adv-x="1202" d="M1081 1415q-29-143-124.5-225T725 1108q-129 0-200 88.5T479 1415h115q-19-88 24.5-145.5T743 1212q80 0 141.5 56.5T963 1415h118zm-419-399q199 0 328.5-129.5T1120 563q0-154-79-288.5T828 60 539-20q-199 0-328 127.5T82 430q0 116 46.5 224t125 187.5 185.5 127 223 47.5zm-11-142q-171 0-296.5-128T229 444q0-139 90-231t230-92q111 0 209.5 59T915 338t58 211q0 140-91.5 232.5T651 874z"/><glyph glyph-name="Ohungarumlaut" unicode="Ő" horiz-adv-x="1648" d="m934 1554 199 304H981l-201-304h154zm319 0 197 304h-150l-198-304h151zm-284-100q138 0 255.5-46.5t199-128.5 127.5-196.5 46-246.5q0-166-67.5-323.5t-180.5-274T1081 51 760-20q-276 0-450.5 176T135 602q0 135 43 264.5T299.5 1101 481 1286t229.5 124 258.5 44zm-13-149q-130 0-251.5-56.5t-211.5-150T349 877t-54-265q0-211 132.5-347T772 129q130 0 253 57t214 151 146 222 55 264q0 211-134.5 346.5T956 1305z"/><glyph glyph-name="ohungarumlaut" unicode="ő" horiz-adv-x="1202" d="m625 1116 198 303H672l-201-303h154zm319 0 197 303H991l-198-303h151zm-282-100q199 0 328.5-129.5T1120 563q0-154-79-288.5T828 60 539-20q-199 0-328 127.5T82 430q0 116 46.5 224t125 187.5 185.5 127 223 47.5zm-11-142q-171 0-296.5-128T229 444q0-139 90-231t230-92q111 0 209.5 59T915 338t58 211q0 140-91.5 232.5T651 874z"/><glyph glyph-name="OE" unicode="Œ" horiz-adv-x="2009" d="M709 0Q562 0 441.5 55t-194 152-104 229 1.5 287q38 202 162.5 365.5T611 1343t376 91h1092l-29-148h-647l-86-446h575l-28-148h-578l-104-545h645L1800 0H709zm18 147h299l221 1139H950q-153 0-289-72t-230.5-200.5T303 723q-31-163 13-295t152-206.5T727 147z"/><glyph glyph-name="oe" unicode="œ" horiz-adv-x="2041" d="M1110 459v-8q-3-146 91-241t241-95q109 0 199 52t124 146h160q-44-151-182-242t-313-91q-140 0-250.5 68T1014 231Q933 115 807.5 47.5T539-20q-199 0-328 127.5T82 430q0 116 46.5 224t125 187.5 185.5 127 223 47.5q137 0 244.5-64.5T1071 776q78 112 199 176t262 64q193 0 314.5-119.5T1968 586q0-41-16-115h-840q0-2-1-6t-1-6zm416 424q-139 0-244-79.5T1135 596h680q-3 133-80.5 210T1526 883zM549 121q155 0 276.5 108.5T969 492q0 5 1 14t1 14q2 10 2 29 0 140-91.5 232.5T651 874q-171 0-296.5-128T229 444q0-139 90-231t230-92z"/><glyph glyph-name="Racute" unicode="Ŕ" horiz-adv-x="1249" d="m1096 1843-267-289H684l223 289h189zm110-825q-32-160-144.5-267T791 621L1087 0H915L633 614H338L219 0H63l279 1434h514q181 0 282.5-120t67.5-296zm-153 6q22 115-42.5 188.5T823 1286H467L365 750h348q123 0 220 77t120 197z"/><glyph glyph-name="racute" unicode="ŕ" horiz-adv-x="716" d="m842 1403-267-289H430l223 289h189zm-168-387q36 0 90-12l-29-146q-43 16-92 16-74 0-143-34.5T379.5 738 311 584L197 0H47l195 995h147l-31-164q54 82 139.5 133.5T674 1016z"/><glyph glyph-name="uni0156" unicode="Ŗ" horiz-adv-x="1249" d="M1206 1018q-32-160-144.5-267T791 621L1087 0H915L633 614H338L219 0H63l279 1434h514q181 0 282.5-120t67.5-296zm-153 6q22 115-42.5 188.5T823 1286H467L365 750h348q123 0 220 77t120 197zM219-438l223 288h191L367-438H219z"/><glyph glyph-name="uni0157" unicode="ŗ" horiz-adv-x="716" d="M674 1016q36 0 90-12l-29-146q-43 16-92 16-74 0-143-34.5T379.5 738 311 584L197 0H47l195 995h147l-31-164q54 82 139.5 133.5T674 1016zM215-150-51-438h-148L25-150h190z"/><glyph glyph-name="Rcaron" unicode="Ř" horiz-adv-x="1249" d="m692 1554-129 289h129l99-190 170 190h139l-240-289H692zm514-536q-32-160-144.5-267T791 621L1087 0H915L633 614H338L219 0H63l279 1434h514q181 0 282.5-120t67.5-296zm-153 6q22 115-42.5 188.5T823 1286H467L365 750h348q123 0 220 77t120 197z"/><glyph glyph-name="rcaron" unicode="ř" horiz-adv-x="716" d="m438 1114-129 289h129l99-191 170 191h139l-240-289H438zm-80-283q54 82 139.5 133.5T674 1016q36 0 90-12l-29-146q-43 16-92 16-74 0-143-34.5T379.5 738 311 584L197 0H47l195 995h147z"/><glyph glyph-name="Sacute" unicode="Ś" horiz-adv-x="1218" d="m1118 1843-266-289H707l223 289h188zM567-20q-150 0-265 60.5t-170 167T98 444h154q-26-142 69.5-230.5T580 125q144 0 246 68.5T948 371q11 65-3.5 114.5T895 565t-84 54-106.5 38.5-117.5 33T470 728t-104.5 51.5-80 75-44.5 109 3 152.5q25 149 164 243.5t333 94.5q112 0 203-33.5t146.5-90 79-132.5 8.5-160h-156q15 120-70 195.5T725 1309q-131 0-225-62.5T389 1085q-10-61 6-106.5t51.5-72.5 85.5-49 108-35 118.5-31 117-37.5 104-53.5 80-79.5T1103 505t-5-161q-29-160-178-262T567-20z"/><glyph glyph-name="sacute" unicode="ś" horiz-adv-x="915" d="m893 1405-266-289H479l223 289h191zM397-20q-172 0-275 86.5T29 293h141q-4-83 61-133.5T401 109q98 0 166 46.5T649 270q12 59-13.5 98T561 426t-110 33.5-121 34-107 50-68.5 91T150 782q19 102 118 168t248 66q153 0 254-79t94-202H719q1 69-60.5 112.5T508 891q-90 0-149-38t-70-95q-10-51 9-85.5t58-51.5 90-31.5T551.5 565 656 532.5t86-55 50.5-90.5-1.5-141Q767 129 660 54.5T397-20z"/><glyph glyph-name="Scircumflex" unicode="Ŝ" horiz-adv-x="1218" d="m825 1759-170-190H516l242 289h166l131-289H924zm353-721h-156q15 120-70 195.5T725 1309q-131 0-225-62.5T389 1085q-10-61 6-106.5t51.5-72.5 85.5-49 108-35 118.5-31 117-37.5 104-53.5 80-79.5T1103 505t-5-161q-29-160-178-262T567-20q-150 0-265 60.5t-170 167T98 444h154q-26-142 69.5-230.5T580 125q144 0 246 68.5T948 371q11 65-3.5 114.5T895 565t-84 54-106.5 38.5-117.5 33T470 728t-104.5 51.5-80 75-44.5 109 3 152.5q25 149 164 243.5t333 94.5q112 0 203-33.5t146.5-90 79-132.5 8.5-160z"/><glyph glyph-name="scircumflex" unicode="ŝ" horiz-adv-x="915" d="m641 1321-168-191H332l241 289h166l131-289H739zm-125-305q153 0 254-79t94-202H719q1 69-60.5 112.5T508 891q-90 0-149-38t-70-95q-10-51 9-85.5t58-51.5 90-31.5T551.5 565 656 532.5t86-55 50.5-90.5-1.5-141Q767 129 660 54.5T397-20q-172 0-275 86.5T29 293h141q-4-83 61-133.5T401 109q98 0 166 46.5T649 270q12 59-13.5 98T561 426t-110 33.5-121 34-107 50-68.5 91T150 782q19 102 118 168t248 66z"/><glyph glyph-name="Scedilla" unicode="Ş" horiz-adv-x="1218" d="M1178 1038h-156q15 120-70 195.5T725 1309q-131 0-225-62.5T389 1085q-10-61 6-106.5t51.5-72.5 85.5-49 108-35 118.5-31 117-37.5 104-53.5 80-79.5T1103 505t-5-161q-28-154-167.5-255.5T596-20q54-76 57-154.5t-37-136-115.5-93T332-436l-29 108q83 6 140 34t81.5 70 17.5 96.5T494-16Q295 6 182 135T98 444h154q-26-142 69.5-230.5T580 125q144 0 246 68.5T948 371q11 65-3.5 114.5T895 565t-84 54-106.5 38.5-117.5 33T470 728t-104.5 51.5-80 75-44.5 109 3 152.5q25 149 164 243.5t333 94.5q112 0 203-33.5t146.5-90 79-132.5 8.5-160z"/><glyph glyph-name="scedilla" unicode="ş" horiz-adv-x="915" d="M864 735H719q1 69-60.5 112.5T508 891q-90 0-149-38t-70-95q-10-51 9-85.5t58-51.5 90-31.5T551.5 565 656 532.5t86-55 50.5-90.5-1.5-141Q767 133 666 58.5T416-20q53-77 55.5-155T434-310.5t-115.5-93T150-436l-27 108q83 6 140 34.5t81 71 16 97T309-14Q173 8 96.5 90T29 293h141q-4-83 61-133.5T401 109q98 0 166 46.5T649 270q12 59-13.5 98T561 426t-110 33.5-121 34-107 50-68.5 91T150 782q19 102 118 168t248 66q153 0 254-79t94-202z"/><glyph glyph-name="Scaron" unicode="Š" horiz-adv-x="1218" d="m715 1554-129 289h129l98-190 170 190h139l-239-289H715zm463-516h-156q15 120-70 195.5T725 1309q-131 0-225-62.5T389 1085q-10-61 6-106.5t51.5-72.5 85.5-49 108-35 118.5-31 117-37.5 104-53.5 80-79.5T1103 505t-5-161q-29-160-178-262T567-20q-150 0-265 60.5t-170 167T98 444h154q-26-142 69.5-230.5T580 125q144 0 246 68.5T948 371q11 65-3.5 114.5T895 565t-84 54-106.5 38.5-117.5 33T470 728t-104.5 51.5-80 75-44.5 109 3 152.5q25 149 164 243.5t333 94.5q112 0 203-33.5t146.5-90 79-132.5 8.5-160z"/><glyph glyph-name="scaron" unicode="š" horiz-adv-x="915" d="m489 1116-129 289h129l99-191 170 191h139l-240-289H489zm27-100q153 0 254-79t94-202H719q1 69-60.5 112.5T508 891q-90 0-149-38t-70-95q-10-51 9-85.5t58-51.5 90-31.5T551.5 565 656 532.5t86-55 50.5-90.5-1.5-141Q767 129 660 54.5T397-20q-172 0-275 86.5T29 293h141q-4-83 61-133.5T401 109q98 0 166 46.5T649 270q12 59-13.5 98T561 426t-110 33.5-121 34-107 50-68.5 91T150 782q19 102 118 168t248 66z"/><glyph glyph-name="uni0162" unicode="Ţ" horiz-adv-x="1212" d="M1309 1286H838L592 16q56-65 75-133t1.5-125T609-344t-110-69.5T352-436l-26 108q85 6 143 35.5t80.5 74 11.5 102T502 0h-70l250 1286H213l29 148h1093z"/><glyph glyph-name="uni0163" unicode="ţ" horiz-adv-x="720" d="M444 856 342 330q-39-207 170-207 45 0 72 8L559 0q-48-10-100-10h-8q47-63 60-127.5t-7-118-62-95.5-107.5-64.5T193-436l-29 108q116 9 179 58t61.5 123T336 8q-92 30-129.5 112T195 334l102 522H100l27 139h197l53 275h149l-53-275h281l-27-139H444z"/><glyph glyph-name="Tcaron" unicode="Ť" horiz-adv-x="1214" d="m727 1554-129 289h129l98-190 170 190h140l-240-289H727zm608-120-26-148H838L588 0H432l250 1286H213l29 148h1093z"/><glyph glyph-name="tcaron" unicode="ť" horiz-adv-x="720" d="M784 1536h160l-160-420H659zm-258-266-53-275h281l-27-139H444L342 330q-39-207 170-207 45 0 72 8L559 0q-48-10-100-10-155 0-226 87t-38 257l102 522H100l27 139h197l53 275h149z"/><glyph glyph-name="Tbar" unicode="Ŧ" horiz-adv-x="1214" d="M1309 1286H838L737 770h228l-21-106H717L588 0H432l129 664H330l20 106h232l100 516H213l29 148h1093z"/><glyph glyph-name="tbar" unicode="ŧ" horiz-adv-x="720" d="M727 856H444l-59-309h264l-20-98H365l-23-119q-39-207 170-207 45 0 72 8L559 0q-48-10-100-10-155 0-226 87t-38 257l22 115H18l21 98h197l61 309H100l27 139h197l53 275h149l-53-275h281z"/><glyph glyph-name="Utilde" unicode="Ũ" horiz-adv-x="1415" d="M567 1595q26 101 91.5 161.5T799 1817q43 0 85.5-19t70-41.5 58-41.5 52.5-19q44 0 80.5 34.5t46.5 86.5l119-29q-27-99-94-160t-142-61q-44 0-85.5 19t-68.5 41.5-58 41.5-56 19q-43 0-78.5-35.5T686 1565zM639-20q-126 0-226.5 43t-160 119.5-83.5 182 3 230.5l170 879h156L324 545q-34-184 55.5-300T653 129q168 0 293 111.5T1106 535l174 899h156l-176-910q-47-246-218-395T639-20z"/><glyph glyph-name="utilde" unicode="ũ" horiz-adv-x="1193" d="M616 1249q-43 0-77-34.5t-43-86.5l-119 29q27 101 92 161t141 60q42 0 84-18.5t69.5-40.5 58-40.5T874 1260q46 0 82 33.5t45 84.5l119-28q-27-100-93-160t-142-60q-44 0-85.5 18.5t-68.5 41-58.5 41T616 1249zm385-254h148L956 0H807l35 182Q776 85 680.5 32.5T475-20q-197 0-290.5 121.5T129 428l113 567h147L281 432q-28-142 37-226.5T516 121q143 0 245 88.5T893 442z"/><glyph glyph-name="Umacron" unicode="Ū" horiz-adv-x="1415" d="m590 1581 24 123h656l-25-123H590zM639-20q-126 0-226.5 43t-160 119.5-83.5 182 3 230.5l170 879h156L324 545q-34-184 55.5-300T653 129q168 0 293 111.5T1106 535l174 899h156l-176-910q-47-246-218-395T639-20z"/><glyph glyph-name="umacron" unicode="ū" horiz-adv-x="1193" d="m1079 1266-22-123H401l23 123h655zm-78-271h148L956 0H807l35 182Q776 85 680.5 32.5T475-20q-197 0-290.5 121.5T129 428l113 567h147L281 432q-28-142 37-226.5T516 121q143 0 245 88.5T893 442z"/><glyph glyph-name="Ubreve" unicode="Ŭ" horiz-adv-x="1415" d="M1272 1853q-28-142-124-224.5T915 1546q-129 0-199.5 88T670 1853h114q-17-88 26.5-145t123.5-57 141 55 80 147h117zM639-20q-126 0-226.5 43t-160 119.5-83.5 182 3 230.5l170 879h156L324 545q-34-184 55.5-300T653 129q168 0 293 111.5T1106 535l174 899h156l-176-910q-47-246-218-395T639-20z"/><glyph glyph-name="ubreve" unicode="ŭ" horiz-adv-x="1193" d="M725 1108q-128 0-198.5 88.5T479 1415h117q-19-89 24-146t125-57q78 0 139.5 56.5T965 1415h116q-28-143-123-225t-233-82zm276-113h148L956 0H807l35 182Q776 85 680.5 32.5T475-20q-197 0-290.5 121.5T129 428l113 567h147L281 432q-28-142 37-226.5T516 121q143 0 245 88.5T893 442z"/><glyph glyph-name="Uring" unicode="Ů" horiz-adv-x="1415" d="M930 1548q-105 0-171.5 67.5T698 1784q4 101 77 168t179 67 172.5-67 61.5-168q-4-101-78-168.5T930 1548zm4 94q63 0 107.5 41t45.5 101q3 60-35.5 99.5T950 1923t-106.5-39.5T797 1784q-2-61 37-101.5t100-40.5zM639-20q-126 0-226.5 43t-160 119.5-83.5 182 3 230.5l170 879h156L324 545q-34-184 55.5-300T653 129q168 0 293 111.5T1106 535l174 899h156l-176-910q-47-246-218-395T639-20z"/><glyph glyph-name="uring" unicode="ů" horiz-adv-x="1193" d="M739 1112q-104 0-169.5 66.5T508 1346t77.5 168 178.5 67q106 0 172-67t61-168q-4-101-78-167.5T739 1112zm-131 234q-3-60 35.5-100t101.5-40 107 40 47 100q2 61-37.5 101T760 1487q-63 0-107-40.5T608 1346zm393-351h148L956 0H807l35 182Q776 85 680.5 32.5T475-20q-197 0-290.5 121.5T129 428l113 567h147L281 432q-28-142 37-226.5T516 121q143 0 245 88.5T893 442z"/><glyph glyph-name="Uhungarumlaut" unicode="Ű" horiz-adv-x="1415" d="m813 1554 199 301H862l-200-301h151zm320 0 198 301h-151l-199-301h152zM639-20q-126 0-226.5 43t-160 119.5-83.5 182 3 230.5l170 879h156L324 545q-34-184 55.5-300T653 129q168 0 293 111.5T1106 535l174 899h156l-176-910q-47-246-218-395T639-20z"/><glyph glyph-name="uhungarumlaut" unicode="ű" horiz-adv-x="1193" d="m821 1419-198-303H471l201 303h149zm123-303H791l200 303h150zm57-121h148L956 0H807l35 182Q776 85 680.5 32.5T475-20q-197 0-290.5 121.5T129 428l113 567h147L281 432q-28-142 37-226.5T516 121q143 0 245 88.5T893 442z"/><glyph glyph-name="Uogonek" unicode="Ų" horiz-adv-x="1415" d="M1280 1434h156l-176-910q-43-220-185.5-364.5T731-14q-77-31-125.5-79T545-199q-8-39 13.5-64.5T623-289q58 0 114 27l35-100q-84-41-182-41-96 0-145.5 55T412-209Q433-99 547-14 333 17 230.5 172.5T172 555l170 879h156L324 545q-34-184 55.5-300T653 129q168 0 293 111.5T1106 535z"/><glyph glyph-name="uogonek" unicode="ų" horiz-adv-x="1193" d="M961 0q-95-30-154.5-82T735-199q-8-39 12.5-64.5T813-289q59 0 115 27l33-100q-80-41-181-41-96 0-145.5 55T602-209q13 71 68.5 134.5T813 35l29 147Q776 85 680.5 32.5T475-20q-197 0-290.5 121.5T129 428l113 567h147L281 432q-28-142 37-226.5T516 121q143 0 245 88.5T893 442l108 553h148L963 31z"/><glyph glyph-name="Wcircumflex" unicode="Ŵ" horiz-adv-x="2082" d="m1276 1759-170-190H967l241 289h166l131-289h-131zm790-325h166L1473 0h-138l-153 1192L559 0H424L219 1434h162L537 242l624 1192h135l150-1194z"/><glyph glyph-name="wcircumflex" unicode="ŵ" horiz-adv-x="1609" d="m956 1321-170-191H647l242 289h166l131-289h-131zm557-326h160L1114 0H989L864 782 430 0H305L135 995h152l116-782 431 782h131l125-782z"/><glyph glyph-name="Ycircumflex" unicode="Ŷ" horiz-adv-x="1273" d="m872 1759-170-190H563l242 289h166l131-289H971zm359-325h190L748 639 621 0H465l127 643-373 791h172l301-635z"/><glyph glyph-name="ycircumflex" unicode="ŷ" horiz-adv-x="1046" d="m690 1321-170-191H381l242 289h165l132-289H788zm256-326h164L268-377H104L356 27 135 995h158l170-798z"/><glyph glyph-name="Ydieresis" unicode="Ÿ" horiz-adv-x="1273" d="M682 1790q42 0 74-32t32-75q0-44-32-75t-74-31q-45 0-77 31t-32 75q0 43 32.5 75t76.5 32zm317 0q43 0 76-32t33-75q0-44-33-75t-76-31q-44 0-76 31t-32 75q0 43 32 75t76 32zm-780-356h172l301-635 539 635h190L748 639 621 0H465l127 643z"/><glyph glyph-name="Zacute" unicode="Ź" horiz-adv-x="1189" d="m1128 1843-266-289H717l223 289h188zm-839-409h1005l-20-111L215 147h836L1024 0H-37l19 113 1060 1173H260z"/><glyph glyph-name="zacute" unicode="ź" horiz-adv-x="1024" d="m942 1405-266-289H530l224 289h188zm88-410-20-110-797-744h653L838 0H-31l19 113 800 743H180l27 139h823z"/><glyph glyph-name="Zdotaccent" unicode="Ż" horiz-adv-x="1189" d="M825 1790q42 0 74.5-32.5T932 1683q0-43-32.5-74.5T825 1577q-44 0-76 31t-32 75q0 43 32 75t76 32zm-536-356h1005l-20-111L215 147h836L1024 0H-37l19 113 1060 1173H260z"/><glyph glyph-name="zdotaccent" unicode="ż" horiz-adv-x="1024" d="M659 1430q43 0 76-32t33-75q0-44-33-76.5t-76-32.5q-44 0-76 32.5t-32 76.5q0 43 32 75t76 32zm371-435-20-110-797-744h653L838 0H-31l19 113 800 743H180l27 139h823z"/><glyph glyph-name="Zcaron" unicode="Ž" horiz-adv-x="1189" d="m725 1554-129 289h129l98-190 170 190h140l-240-289H725zm569-120-20-111L215 147h836L1024 0H-37l19 113 1060 1173H260l29 148h1005z"/><glyph glyph-name="zcaron" unicode="ž" horiz-adv-x="1024" d="m541 1116-129 289h129l98-191 170 191h139l-239-289H541zm489-121-20-110-797-744h653L838 0H-31l19 113 800 743H180l27 139h823z"/><glyph glyph-name="longs" unicode="ſ" horiz-adv-x="655" d="M762 1458q51 0 96-10l-27-137q-27 8-67 8-211 0-250-205L297 0H147l166 856H117l26 139h199l23 121q33 169 137.5 255.5T762 1458z"/><glyph glyph-name="uni0180" unicode="ƀ" horiz-adv-x="1222" d="M756 1016q146 0 252.5-71.5t152-200.5 15.5-289q-41-207-195-341T631-20q-153 0-253 69T244 246L197 0H47l234 1204H51l21 107h229l25 123h149l-24-123h237l-20-107H430l-82-420q73 109 178.5 170.5T756 1016zm270-549q32 182-59.5 297T707 879q-137 0-250-91T305 563l-12-69q-20-170 71.5-272.5T621 119q149 0 263 98.5T1026 467z"/><glyph glyph-name="florin" unicode="ƒ" horiz-adv-x="751" d="M793 1468q51 0 96-18l-25-127q-32 8-57 8-98 0-174.5-63.5T535 1098l-15-76-6-27h283l-29-139H487l-12-63L332 47l-19-90q-33-168-142.5-261T-90-397q-56 0-96 16l24 129q21-8 60-8 96 0 172.5 63T168-29l14 76 21 103 135 706H143l27 139h195l6 27h2l18 92q31 168 141.5 261t260.5 93z"/><glyph glyph-name="uni01EA" unicode="Ǫ" horiz-adv-x="1648" d="M854-14q-77-31-125.5-79T670-199q-8-39 12.5-64.5T748-289q58 0 114 27l33-100q-80-41-180-41-96 0-145.5 55T537-209q21 109 133 195-241 29-388 199T135 602q0 135 43 264.5T299.5 1101 481 1286t229.5 124 258.5 44q138 0 255.5-46.5t199-128.5 127.5-196.5 46-246.5q0-206-99.5-393T1227 133.5 854-14zM295 612q0-211 132.5-347T772 129q130 0 253 57t214 151 146 222 55 264q0 211-134.5 346.5T956 1305q-130 0-251.5-56.5t-211.5-150T349 877t-54-265z"/><glyph glyph-name="uni01EB" unicode="ǫ" horiz-adv-x="1202" d="M608-16q-76-31-123-78t-57-105q-8-39 12.5-64.5T506-289q59 0 115 27l32-100q-80-41-180-41-96 0-145.5 55T295-209Q316-95 434-10 275 22 178.5 142T82 430q0 116 46.5 224t125 187.5 185.5 127 223 47.5q199 0 328.5-129.5T1120 563q0-217-148.5-384T608-16zM229 444q0-139 90-231t230-92q111 0 209.5 59T915 338t58 211q0 140-91.5 232.5T651 874q-171 0-296.5-128T229 444z"/><glyph glyph-name="Aringacute" unicode="Ǻ" horiz-adv-x="1341" d="M895 1550q-106 0-171.5 66.5T664 1784q4 94 68 159t159 74l205 267h188l-262-285q63-26 98.5-84t32.5-131q-6-101-79-167.5T895 1550zm-133 234q-3-60 35.5-99.5T899 1645t107 39.5 47 99.5-36 100.5-102 40.5-106.5-40.5T762 1784zm20-350h140L1219 0h-168l-70 350H301L94 0H-70zM389 498h561l-141 708z"/><glyph glyph-name="aringacute" unicode="ǻ" horiz-adv-x="1267" d="M821 1112q-104 0-169.5 66.5T590 1346q4 93 68.5 158.5T817 1579l205 266h188l-262-284q63-26 98.5-84t32.5-131q-4-101-78-167.5T821 1112zm-133 234q-2-60 37-100t100-40q63 0 108 40t46 100q3 60-35.5 100.5T842 1487t-107-40.5-47-100.5zm383-351h150L1026 0H877l41 211Q846 102 741 41T512-20q-223 0-344 159.5T92 543q41 207 194.5 340T637 1016q153 0 253-69t134-197zM559 119q150 0 267.5 103.5T969 473q33 182-58 294T647 879q-149 0-264-99.5T242 528q-32-181 59-295t258-114z"/><glyph glyph-name="AEacute" unicode="Ǽ" horiz-adv-x="1888" d="m1843 1843-266-289h-145l223 289h188zm84-557h-643l-86-446h574l-29-148h-574l-106-545h643L1677 0H881l71 377H408L109 0H-72l1155 1434h873zM981 516l147 764-608-764h461z"/><glyph glyph-name="aeacute" unicode="ǽ" horiz-adv-x="2113" d="m1483 1405-266-289h-146l223 289h189zm-303-920q-2-10-2-30-3-149 91.5-250T1511 104q119 0 210 56t124 153h146q-43-155-180.5-244T1499-20q-148 0-262 76t-160 202L1026 0H877l41 211Q846 102 741 41T512-20q-223 0-344 159.5T92 543q41 207 194.5 340T637 1016q153 0 253-69t134-197l47 245h150l-37-188q77 98 185 153.5t233 55.5q192 0 312-119.5T2034 590q0-48-13-105h-841zm415 408q-140 0-247-84t-148-217h688q0 142-78.5 221.5T1595 893zM559 119q150 0 267.5 103.5T969 473q33 182-58 294T647 879q-149 0-264-99.5T242 528q-32-181 59-295t258-114z"/><glyph glyph-name="uni0218" unicode="Ș" horiz-adv-x="1218" d="M567-20q-150 0-265 60.5t-170 167T98 444h154q-26-142 69.5-230.5T580 125q144 0 246 68.5T948 371q11 65-3.5 114.5T895 565t-84 54-106.5 38.5-117.5 33T470 728t-104.5 51.5-80 75-44.5 109 3 152.5q25 149 164 243.5t333 94.5q112 0 203-33.5t146.5-90 79-132.5 8.5-160h-156q15 120-70 195.5T725 1309q-131 0-225-62.5T389 1085q-10-61 6-106.5t51.5-72.5 85.5-49 108-35 118.5-31 117-37.5 104-53.5 80-79.5T1103 505t-5-161q-29-160-178-262T567-20zm58-130L358-438H211l223 288h191z"/><glyph glyph-name="uni0219" unicode="ș" horiz-adv-x="915" d="M397-20q-172 0-275 86.5T29 293h141q-4-83 61-133.5T401 109q98 0 166 46.5T649 270q12 59-13.5 98T561 426t-110 33.5-121 34-107 50-68.5 91T150 782q19 102 118 168t248 66q153 0 254-79t94-202H719q1 69-60.5 112.5T508 891q-90 0-149-38t-70-95q-10-51 9-85.5t58-51.5 90-31.5T551.5 565 656 532.5t86-55 50.5-90.5-1.5-141Q767 129 660 54.5T397-20zm43-130L176-438H29l223 288h188z"/><glyph glyph-name="uni021A" unicode="Ț" horiz-adv-x="1214" d="m1335 1434-26-148H838L588 0H432l250 1286H213l29 148h1093zM207-438l223 288h191L354-438H207z"/><glyph glyph-name="uni021B" unicode="ț" horiz-adv-x="720" d="M444 856 342 330q-39-207 170-207 45 0 72 8L559 0q-48-10-100-10-155 0-226 87t-38 257l102 522H100l27 139h197l53 275h149l-53-275h281l-27-139H444zM70-438l223 288h190L217-438H70z"/><glyph glyph-name="uni0237" unicode="ȷ" horiz-adv-x="436" d="M-168-274q4 0 12.5-1t12.5-1q68 0 111.5 49T35-72L242 995h147L180-84Q148-246 62-330t-218-84q-25 0-39 2z"/><glyph glyph-name="uni0243" unicode="Ƀ" horiz-adv-x="1210" d="M1176 1065q-22-113-108-201T872 756q129-14 201-120t45-251q-32-163-172.5-274T631 0H63l68 350H-98l20 107h230l190 977h494q170 0 270.5-108.5T1176 1065zm-158-8q20 100-40.5 164.5T803 1286H469l-92-473h332q110 0 199.5 69.5T1018 1057zm-51-645q22 115-42 189.5T739 676H350l-43-219h232l-21-107H287l-41-203h391q120 0 213.5 75T967 412z"/><glyph glyph-name="circumflex" unicode="ˆ" horiz-adv-x="743" d="M586 1130H457l-99 191-170-191H49l240 289h168z"/><glyph glyph-name="caron" unicode="ˇ" horiz-adv-x="743" d="M680 1405h139l-241-289H412l-131 289h131l98-191z"/><glyph glyph-name="breve" unicode="˘" horiz-adv-x="806" d="M883 1415q-28-143-123.5-225T526 1108q-127 0-197.5 88T281 1415h116q-19-89 24.5-146t125.5-57q78 0 139 56.5t80 146.5h117z"/><glyph glyph-name="dotaccent" unicode="˙" horiz-adv-x="421" d="M33 1430q43 0 75.5-32t32.5-75q0-44-32.5-76.5T33 1214q-44 0-76.5 32.5T-76 1323q0 43 32.5 75t76.5 32z"/><glyph glyph-name="ring" unicode="˚" horiz-adv-x="694" d="M485 1112q-106 0-172 66.5T252 1346q6 101 79 168t177 67q106 0 172.5-67t60.5-168q-4-101-77.5-167.5T485 1112zm4 94q63 0 107 40t47 100q2 61-37.5 101T504 1487q-63 0-107-40.5T352 1346q-3-60 35.5-100t101.5-40z"/><glyph glyph-name="ogonek" unicode="˛" horiz-adv-x="589" d="M143-403q-96 0-145.5 55T-35-209Q-15-108 82.5-27.5T330 96l-6-96q-95-30-154.5-82T98-199q-8-39 12.5-64.5T176-289q59 0 115 27l33-100q-80-41-181-41z"/><glyph glyph-name="tilde" unicode="˜" horiz-adv-x="909" d="M229 1157q27 101 93 161t141 60q43 0 85-18.5t69.5-40.5 58-40.5T729 1260q44 0 80 33.5t45 84.5l121-28q-29-100-95.5-160T737 1130q-43 0-84.5 18.5t-68 41-57.5 41-56 18.5q-44 0-79-34.5t-42-86.5z"/><glyph glyph-name="hungarumlaut" unicode="˝" horiz-adv-x="819" d="m375 1116 198 303H424l-201-303h152zm321 0 197 303H743l-200-303h153z"/><glyph glyph-name="gravecomb" unicode="̀" horiz-adv-x="0" d="M-395 1405h188l225-289h-147z"/><glyph glyph-name="acutecomb" unicode="́" horiz-adv-x="0" d="m-186 1405-267-289h-145l223 289h189z"/><glyph glyph-name="uni0302" unicode="̂" horiz-adv-x="0" d="M20 1130h-131l-98 191-170-191h-139l242 289h165z"/><glyph glyph-name="tildecomb" unicode="̃" horiz-adv-x="0" d="M-829 1157q26 101 91 161t140 60q43 0 85.5-18.5t70-40.5 58-40.5 52.5-18.5q44 0 80.5 33.5t46.5 84.5l119-28q-27-99-94-159.5t-142-60.5q-44 0-85.5 18.5t-68.5 41-58 41-56 18.5q-43 0-78.5-34.5T-711 1128z"/><glyph glyph-name="uni0304" unicode="̄" horiz-adv-x="0" d="m-831 1143 24 123h655l-24-123h-655z"/><glyph glyph-name="uni0306" unicode="̆" horiz-adv-x="0" d="M-119 1415q-29-143-124.5-225t-231.5-82q-129 0-200 88.5t-46 218.5h115q-19-88 24.5-145.5T-457 1212q80 0 141 56.5t78 146.5h119z"/><glyph glyph-name="uni0307" unicode="̇" horiz-adv-x="0" d="M-51 1430q43 0 75.5-32t32.5-75q0-44-32.5-76.5T-51 1214q-44 0-76.5 32.5T-160 1323q0 43 32.5 75t76.5 32z"/><glyph glyph-name="uni0308" unicode="̈" horiz-adv-x="0" d="M-371 1430q43 0 76-32t33-75q0-44-33-76.5t-76-32.5q-44 0-76 32.5t-32 76.5q0 43 32 75t76 32zm318 0q43 0 75.5-32t32.5-75q0-44-32.5-76.5T-53 1214q-44 0-76.5 32.5T-162 1323q0 43 32.5 75t76.5 32z"/><glyph glyph-name="uni030A" unicode="̊" horiz-adv-x="0" d="M-446 1112q-106 0-172 66.5t-60 167.5q4 101 77 168t179 67 172.5-67 61.5-168q-6-101-79-167.5t-179-66.5zm4 94q63 0 106.5 40t46.5 100-35.5 100.5T-426 1487t-107-40.5-47-100.5 36-100 102-40z"/><glyph glyph-name="uni030B" unicode="̋" horiz-adv-x="0" d="m-598 1116 199 303h-152l-201-303h154zm319 0 197 303h-149l-199-303h151z"/><glyph glyph-name="uni030C" unicode="̌" horiz-adv-x="0" d="M-242 1405h140l-240-289h-168l-129 289h129l98-191z"/><glyph glyph-name="uni0312" unicode="̒" horiz-adv-x="0" d="m-338 1122 266 289H76l-223-289h-191z"/><glyph glyph-name="uni0326" unicode="̦" horiz-adv-x="0" d="m-233-150-267-288h-147l223 288h191z"/><glyph glyph-name="uni0327" unicode="̧" horiz-adv-x="0" d="m-406 35 107-6q52-55 76-113.5t21.5-110-27.5-97-67.5-78T-398-420t-126-16l-29 108q122 9 186 63t54 134.5T-406 35z"/><glyph glyph-name="uni0328" unicode="̨" horiz-adv-x="0" d="M-770-403q-96 0-145.5 55T-948-209q20 101 117 181.5T-584 96l-6-96q-94-29-153.5-81T-815-199q-8-39 12.5-64.5T-737-289q58 0 114 27l33-100q-80-41-180-41z"/><glyph glyph-name="uni0394" unicode="Δ" horiz-adv-x="1232" d="m-70 0 27 147 770 1289h137l271-1289-27-147H-70zm193 147h850L760 1221z"/><glyph glyph-name="uni03A9" unicode="Ω" horiz-adv-x="1593" d="m55 0 29 147 315 3Q239 253 176.5 409.5T154 764q38 200 158.5 358.5t293 245T971 1454q149 0 269.5-52.5t195-147 104.5-225-2-286.5q-37-194-155.5-346T1067 145l305 2-29-147H842l22 150q217 105 349.5 260.5T1384 758q47 246-71 396.5T965 1305q-157 0-295-70t-235-200-130-298q-36-183 34-333.5T582 145L559 0H55z"/><glyph glyph-name="uni03BC" unicode="μ" horiz-adv-x="1198" d="M1001 995h150L956 0H807l35 180Q776 84 680.5 32T475-20q-172 0-264 92l-88-449H-27L242 995h149L276 412q-20-133 46-212t194-79q144 0 245.5 88T893 442z"/><glyph glyph-name="pi" unicode="π" horiz-adv-x="1419" d="m1126 856-98-512q-21-105 24.5-163t135.5-58q41 0 74 10l-7-135q-41-14-90-14-157 0-237.5 97.5T879 348l98 508H586L420 0H270l168 856H156l26 139h1258l-27-139h-287z"/><glyph glyph-name="uni0E3F" unicode="฿" horiz-adv-x="1202" d="M1137 1065q-22-114-107-201.5T834 756q129-14 200.5-120t44.5-251q-32-163-172.5-274T592 0h-84l-47-246H317L365 0H25l278 1434h340l47 245h144l-46-245h9q170 0 270.5-108.5T1137 1065zm-156-8q19 100-42 164.5T764 1286H430l-92-473h332q110 0 199.5 69.5T981 1057zm-53-645q22 115-42 189.5T700 676H311L207 147h391q120 0 213.5 75T928 412z"/><glyph glyph-name="Wgrave" unicode="Ẁ" horiz-adv-x="2082" d="M922 1843h188l223-289h-145zm1144-409h166L1473 0h-138l-153 1192L559 0H424L219 1434h162L537 242l624 1192h135l150-1194z"/><glyph glyph-name="wgrave" unicode="ẁ" horiz-adv-x="1609" d="M602 1405h189l223-289H868zM305 0 135 995h152l116-782 431 782h131l125-782 423 782h160L1114 0H989L864 782 430 0H305z"/><glyph glyph-name="Wacute" unicode="Ẃ" horiz-adv-x="2082" d="m1569 1843-266-289h-146l223 289h189zm497-409h166L1473 0h-138l-153 1192L559 0H424L219 1434h162L537 242l624 1192h135l150-1194z"/><glyph glyph-name="wacute" unicode="ẃ" horiz-adv-x="1609" d="m1247 1405-266-289H836l223 289h188zM305 0 135 995h152l116-782 431 782h131l125-782 423 782h160L1114 0H989L864 782 430 0H305z"/><glyph glyph-name="Wdieresis" unicode="Ẅ" horiz-adv-x="2082" d="M1087 1790q42 0 74.5-32.5t32.5-74.5q0-43-32.5-74.5T1087 1577q-44 0-76 31t-32 75q0 43 32 75t76 32zm318 0q43 0 75.5-32t32.5-75q0-44-32.5-75t-75.5-31q-45 0-77 31t-32 75q0 43 32.5 75t76.5 32zm661-356h166L1473 0h-138l-153 1192L559 0H424L219 1434h162L537 242l624 1192h135l150-1194z"/><glyph glyph-name="wdieresis" unicode="ẅ" horiz-adv-x="1609" d="M809 1430q43 0 76-32t33-75q0-44-33-76.5t-76-32.5q-44 0-76.5 32.5T700 1323q0 43 32.5 75t76.5 32zm317 0q43 0 76-32t33-75q0-44-33-76.5t-76-32.5q-44 0-76 32.5t-32 76.5q0 43 32 75t76 32zM305 0 135 995h152l116-782 431 782h131l125-782 423 782h160L1114 0H989L864 782 430 0H305z"/><glyph glyph-name="uni1E9E" unicode="ẞ" horiz-adv-x="1234" d="M801 1454q187 0 302.5-106.5T1210 1085L811 778q184-1 276-105t60-272q-21-109-95-201.5t-179.5-146T655 0H362l29 147h281q109 0 203.5 79.5T993 418q22 119-34.5 186.5T778 672H616l9 102 422 336q-8 86-76 141.5T803 1307q-144 0-255.5-97.5T408 965L219 0H63l191 975q41 213 193.5 346T801 1454z"/><glyph glyph-name="Ygrave" unicode="Ỳ" horiz-adv-x="1273" d="M516 1843h189l223-289H782zm-297-409h172l301-635 539 635h190L748 639 621 0H465l127 643z"/><glyph glyph-name="ygrave" unicode="ỳ" horiz-adv-x="1046" d="M748 1116H602l-266 289h188zm198-121h164L268-377H104L356 27 135 995h158l170-798z"/><glyph glyph-name="uni2009" horiz-adv-x="391"/><glyph glyph-name="endash" unicode="–" horiz-adv-x="1150" d="m94 459 27 137h948l-27-137H94z"/><glyph glyph-name="emdash" unicode="—" horiz-adv-x="2252" d="m94 459 27 137h2048l-27-137H94z"/><glyph glyph-name="quoteleft" unicode="‘" horiz-adv-x="444" d="M238 1196q5 29 43 88l180 252h90l-145-244q33-12 48.5-42.5t8.5-71.5q-7-46-43-76.5t-80-30.5q-54 0-82.5 36t-19.5 89z"/><glyph glyph-name="quoteright" unicode="’" horiz-adv-x="444" d="M520 1411q-6-32-43-86l-178-254h-92l145 244q-32 12-48 44.5t-9 72.5q9 46 44 75t81 29q52 0 81-36t19-89z"/><glyph glyph-name="quotesinglbase" unicode="‚" horiz-adv-x="444" d="M270 125q-6-32-43-86L47-215h-90L102 29Q70 41 54 72.5T45 145q8 44 43.5 74.5T170 250q52 0 81-36t19-89z"/><glyph glyph-name="quotedblleft" unicode="“" horiz-adv-x="765" d="M238 1196q5 29 43 88l180 252h90l-145-244q33-12 48.5-42.5t8.5-71.5q-7-46-43-76.5t-80-30.5q-54 0-82.5 36t-19.5 89zm321 0q6 35 43 88l180 252h90l-145-244q33-12 48.5-42.5t8.5-71.5q-7-46-43-76.5t-82-30.5q-52 0-80.5 36t-19.5 89z"/><glyph glyph-name="quotedblright" unicode="”" horiz-adv-x="765" d="M520 1411q-6-32-43-86l-178-254h-92l145 244q-32 12-48 44.5t-9 72.5q9 46 44 75t81 29q52 0 81-36t19-89zm322 0q-6-32-43-86l-181-254h-90l146 244q-32 12-48.5 44.5T616 1432q7 45 43 74.5t82 29.5q53 0 82-36.5t19-88.5z"/><glyph glyph-name="quotedblbase" unicode="„" horiz-adv-x="765" d="M270 125q-6-32-43-86L47-215h-90L102 29Q70 41 54 72.5T45 145q8 44 43.5 74.5T170 250q52 0 81-36t19-89zm322 0q-6-32-43-86L369-215h-90L424 29q-33 12-48.5 43t-8.5 73q8 44 43.5 74.5T492 250q52 0 80.5-36t19.5-89z"/><glyph glyph-name="dagger" unicode="†" horiz-adv-x="923" d="m944 1133-24-129H629L516 426H379l113 578H201l24 129h291l68 342h137l-68-342h291z"/><glyph glyph-name="daggerdbl" unicode="‡" horiz-adv-x="933" d="m629 1004-68-349-37-184h293l-24-129H500L434 0H297l65 342H74l24 129h289l37 184 68 349H201l24 129h291l68 342h137l-68-342h291l-24-129H629z"/><glyph glyph-name="bullet" unicode="•" horiz-adv-x="632" d="M315 268q-98 0-163.5 67T86 502q0 98 65.5 163.5T315 731q99 0 166.5-65.5T549 502q0-99-67.5-166.5T315 268z"/><glyph glyph-name="ellipsis" unicode="…" horiz-adv-x="1228" d="M164-20q-51 0-86 33.5T43 98q0 50 35 84.5t86 34.5 85-34.5T283 98q0-51-34-84.5T164-20zm383 0q-51 0-85 33.5T428 98q0 50 34 84.5t85 34.5 86-34.5T668 98q0-51-35-84.5T547-20zm362 0q-51 0-86 33.5T788 98q0 50 35 84.5t86 34.5 85-34.5 34-84.5q0-51-34-84.5T909-20z"/><glyph glyph-name="perthousand" unicode="‰" horiz-adv-x="2134" d="M543 870q-119 0-193 83t-69 210q5 126 84.5 208.5T563 1454q120 0 194.5-82.5T827 1163t-85.5-209.5T543 870zm884 564h127L324 0H197zM387 1163q-3-84 40.5-137T547 973q75 0 122.5 53t49.5 137q3 84-40.5 137.5T559 1354q-75 0-122.5-53.5T387 1163zm1292-600q120 0 194-82.5t69-208.5q-4-127-84-209.5T1659-20q-75 0-134.5 35t-92.5 96q-39-61-101.5-96T1194-20q-119 0-192.5 82.5T932 272q5 126 84.5 208.5T1214 563q75 0 135.5-35t94.5-96q37 61 99 96t136 35zm-307-291q2 84-42 137.5T1212 463q-76 0-124-53.5T1038 272q-3-85 41-138.5T1198 80t123 53.5 51 138.5zm463 0q3 84-41.5 137.5T1675 463t-122.5-53.5T1501 272q-2-86 42-139t118-53q76 0 124 53.5t50 138.5z"/><glyph glyph-name="guilsinglleft" unicode="‹" horiz-adv-x="757" d="M573 74 96 496l19 106 643 424-33-166-483-317 360-318z"/><glyph glyph-name="guilsinglright" unicode="›" horiz-adv-x="774" d="m201 1022 477-422-21-106L16 70l33 166 481 317-358 317z"/><glyph glyph-name="fraction" unicode="⁄" horiz-adv-x="483" d="M838 1434h127L-266 0h-127z"/><glyph glyph-name="Euro" unicode="€" horiz-adv-x="1755" d="M938 129q185 0 334.5 98T1481 483h170q-71-223-270.5-363T930-20q-182 0-326 81T380.5 284 301 602q0 37 2 55H92l25 129h205q43 186 161.5 338.5t290.5 241 363 88.5q160 0 289-61t206-171.5 88-252.5h-168q-13 150-133 243t-299 93q-223 0-402-148T481 786h695l-70-129H461q-2-14-2-45 0-211 133-347t346-136z"/><glyph glyph-name="uni20BD" unicode="₽" horiz-adv-x="1318" d="M973 1434q180 0 287.5-118.5T1346 1020t-156.5-294.5T874 608H473l-45-225h434l-6-127H403L354 0H199l49 256H57l6 127h209l45 225H104l7 148h235l131 678h496zm219-408q17 111-46.5 185.5T969 1286H604L502 756h375q114 0 204.5 78t110.5 192z"/><glyph glyph-name="uni2116" unicode="№" horiz-adv-x="2707" d="M2173 1452q199 0 329-129.5T2632 997q0-153-79-287t-214-214-289-80q-199 0-328 127.5T1593 866q0 116 46.5 224t125 187.5 185.5 127 223 47.5zm-1831-18h145l578-1151 227 1151h156L1169 0h-141L446 1149 219 0H63zm1821-123q-112 0-209.5-59t-155-158.5T1741 879q0-138 89.5-230t229.5-92q111 0 209.5 59T2426 774t58 211q0 140-91 233t-230 93zm237-1174L2374-2h-891l26 139h891z"/><glyph glyph-name="uni2117" unicode="℗" horiz-adv-x="1703" d="M893 1454q201 0 371-99t269-268.5 99-369.5-99-369.5T1264 79 893-20q-198 0-367.5 99T257 347.5 158 717t99 369.5T525.5 1355t367.5 99zm2-1401q133 0 255 53t210.5 142 141 212 52.5 257-52.5 257-141 212-210.5 141.5-255 52.5-255-52.5T429.5 1186t-141-212T236 717t52.5-257 141-212T640 106t255-53zm84 1082q106 0 178-69.5t72-172.5q0-104-72-175t-178-71H760V303H657v832h322zm0-390q63 0 105 43t42 105q0 61-42.5 103T979 1038H760V745h219z"/><glyph glyph-name="trademark" unicode="™" horiz-adv-x="1974" d="M879 1434v-105H602V573H494v756H217v105h662zm897 0h118V573h-108v613l-287-613h-86l-287 613V573h-110v861h119l323-686z"/><glyph glyph-name="uni2126" unicode="Ω" horiz-adv-x="1593" d="m55 0 29 147 315 3Q239 253 176.5 409.5T154 764q38 200 158.5 358.5t293 245T971 1454q149 0 269.5-52.5t195-147 104.5-225-2-286.5q-37-194-155.5-346T1067 145l305 2-29-147H842l22 150q217 105 349.5 260.5T1384 758q47 246-71 396.5T965 1305q-157 0-295-70t-235-200-130-298q-36-183 34-333.5T582 145L559 0H55z"/><glyph glyph-name="oneeighth" unicode="⅛" horiz-adv-x="1640" d="M1286 1434h129L184 0H55zm-776 0L342 573H240l139 717-229-166 24 127 262 183h74zM1214-10q-108 0-174.5 57T973 195q0 87 61.5 164T1190 463q-47 18-73.5 59.5T1090 614q0 103 88 179.5t208 76.5q96 0 154.5-50t58.5-130q0-73-50-137.5T1425 463q59-19 94-67.5t35-112.5q0-118-101.5-205.5T1214-10zm103 516q75 0 129.5 48.5T1501 670q0 50-36 80t-97 30q-75 0-129.5-49T1184 616q0-48 36.5-79t96.5-31zm-84-424q91 0 157 58.5t66 140.5q0 60-43.5 96.5T1298 414q-91 0-157-58t-66-141q0-59 43.5-96T1233 82z"/><glyph glyph-name="threeeighths" unicode="⅜" horiz-adv-x="1970" d="m385 1069 291 266H266l19 99h557l-15-72-311-281q99 10 161-43.5T739 895q0-134-106-234T385 561q-117 0-186 64.5T139 793h103q0-59 44-95t117-36q91 0 158.5 65.5T629 881q0 79-74 112t-184 4zm1231 365h127L512 0H385zM1544-10q-108 0-174.5 57T1303 195q0 87 61.5 164T1520 463q-47 19-74 60t-27 91q0 103 88.5 179.5T1716 870q96 0 154.5-50t58.5-130q0-73-50.5-137.5T1753 463q60-19 95.5-67.5T1884 283q0-118-101.5-205.5T1544-10zm101 516q77 0 131.5 48.5T1831 670q0 50-36 80t-97 30q-75 0-130-49t-55-115q0-48 36.5-79t95.5-31zm-82-424q91 0 157 58.5t66 140.5q0 60-43.5 96.5T1628 414q-91 0-157-58t-66-141q0-59 43.5-96T1563 82z"/><glyph glyph-name="fiveeighths" unicode="⅝" horiz-adv-x="1830" d="M381 561q-113 0-183.5 63.5T137 793h105q2-59 44.5-95T399 662q88 0 156 66.5T623 881q0 66-42.5 107.5T471 1030q-107 0-166-59h-92l129 463h444l-18-99H418l-78-266q28 23 72.5 36t87.5 13q103 0 167-59.5T731 901q0-135-106-237.5T381 561zm1096 873h127L373 0H246zM1405-10q-108 0-175 57t-67 148q0 87 61.5 164T1380 463q-48 18-75 59t-27 92q0 103 89.5 179.5T1577 870q95 0 153-50t58-130q0-73-49.5-137.5T1614 463q60-19 95.5-67.5T1745 283q0-118-101.5-205.5T1405-10zm100 516q77 0 132 48.5t55 115.5q0 50-36.5 80t-96.5 30q-76 0-130.5-49T1374 616q0-48 35.5-79t95.5-31zm-82-424q91 0 156.5 58.5T1645 281q0 60-43 96.5T1487 414q-90 0-156.5-58.5T1264 215q0-59 43.5-96T1423 82z"/><glyph glyph-name="seveneighths" unicode="⅞" horiz-adv-x="1699" d="M1346 1434h127L242 0H115zm-1127 0h569l-16-74-526-787H129l514 760H199zM1274-10q-108 0-175 57t-67 148q0 87 61.5 164T1249 463q-48 18-75 59t-27 92q0 103 89 179.5t210 76.5q95 0 153-50t58-130q0-73-49.5-137.5T1483 463q59-19 95-67.5t36-112.5q0-118-101.5-205.5T1274-10zm100 516q77 0 132 48.5t55 115.5q0 49-37 79.5t-97 30.5q-76 0-130-48.5T1243 616q0-48 35.5-79t95.5-31zm-82-424q91 0 156 58.5t65 140.5q0 60-42.5 96.5T1356 414q-90 0-156.5-58.5T1133 215q0-59 43.5-96T1292 82z"/><glyph glyph-name="arrowleft" unicode="←" horiz-adv-x="1552" d="M1466 711V575H383l442-432-96-96-598 596 598 598 96-96-442-434h1083z"/><glyph glyph-name="arrowup" unicode="↑" horiz-adv-x="1400" d="m1352 778-97-96-432 440V41H690v1083L254 682l-96 96 598 598z"/><glyph glyph-name="arrowright" unicode="→" horiz-adv-x="1552" d="m881 1241 598-598L881 47l-97 96 441 432H143v136h1082l-441 434z"/><glyph glyph-name="arrowdown" unicode="↓" horiz-adv-x="1400" d="m1208 633 99-96L707-63 111 537l96 96 434-445v1084h133V190z"/><glyph glyph-name="uni2196" unicode="↖" horiz-adv-x="1370" d="m1210 207-94-94-764 764 6-619H221l-2 846h848V967l-625 6z"/><glyph glyph-name="uni2197" unicode="↗" horiz-adv-x="1214" d="M219 1102h848l-2-846H928l6 618-764-763-94 94 766 766-623-6v137z"/><glyph glyph-name="uni2198" unicode="↘" horiz-adv-x="1370" d="M319-31v137l623-6-768 766 94 95 764-764-6 618h137l2-846H319z"/><glyph glyph-name="uni2199" unicode="↙" horiz-adv-x="1214" d="M1153 866 387 100l623 6V-31H162l2 846h137l-6-618 764 764z"/><glyph glyph-name="partialdiff" unicode="∂" horiz-adv-x="1089" d="M961 813q86-196 51-373-39-211-179-335.5T489-20q-105 0-194.5 40t-148 107.5-84 162T55 489q35 194 170 314.5T539 924q143 0 227-62l-258 572h176zm-99-371q28 156-55.5 252.5T545 791q-123 0-219.5-86T205 483q-29-154 56-255t241-101q137 0 236 86.5T862 442z"/><glyph glyph-name="emptyset" unicode="∅" horiz-adv-x="1398" d="m1382 1251-204-204q108-143 108-330 0-147-72-271.5t-196-197T748 176q-187 0-330 111L209 80 100 188l209 207Q201 541 201 717q0 148 73.5 273.5T474 1189t274 73q179 0 321-107l205 205zM344 717q0-119 68-219l555 555q-100 65-219 65-167 0-285.5-117.5T344 717zm799 0q0 127-68 227L520 389q103-70 228-70 164 0 279.5 116T1143 717z"/><glyph glyph-name="uni2206" unicode="∆" horiz-adv-x="1232" d="m-70 0 27 147 770 1289h137l271-1289-27-147H-70zm193 147h850L760 1221z"/><glyph glyph-name="product" unicode="∏" horiz-adv-x="1323" d="M1401 1434 1122 0H969l250 1286H412L162 0H6l279 1434h1116z"/><glyph glyph-name="summation" unicode="∑" horiz-adv-x="1212" d="m1292 1434-28-148H453l305-569-522-570h804L1014 0H6l21 125 548 592-313 594 23 123h1007z"/><glyph glyph-name="minus" unicode="−" horiz-adv-x="1177" d="m1077 715-26-140H160l26 140h891z"/><glyph glyph-name="radical" unicode="√" horiz-adv-x="1409" d="M1329 1434h162L709 0H557L436 848H172l27 147h379l96-778z"/><glyph glyph-name="infinity" unicode="∞" horiz-adv-x="1994" d="M1516 1149q135 0 228.5-66.5T1873 904t9-247q-37-200-186-336.5T1352 184q-140 0-239.5 85.5T995 469q-56-114-185.5-199.5T545 184t-228.5 66.5-129 178.5-9.5 247q39 201 188 337t345 136q139 0 238.5-85.5T1065 864q59 116 188 200.5t263 84.5zM971 676q13 147-61.5 239.5T713 1008q-141 0-250.5-99.5T322 657q-28-147 37-239t198-92q131 0 249 98t165 252zm768 0q28 146-37 239t-195 93q-131 0-246.5-98T1098 657q-13-148 59.5-239.5T1350 326q141 0 250.5 98.5T1739 676z"/><glyph glyph-name="integral" unicode="∫" horiz-adv-x="751" d="M793 1468q51 0 96-18l-25-127q-32 8-57 8-98 0-174.5-63.5T535 1098l-15-76-45-229L332 47l-19-90q-33-168-142.5-261T-90-397q-56 0-96 16l24 129q21-8 60-8 96 0 172.5 63T168-29l14 76 21 103 168 872h2l18 92q31 168 141.5 261t260.5 93z"/><glyph glyph-name="approxequal" unicode="≈" horiz-adv-x="1171" d="m301 635-125 27q38 125 113.5 195.5T455 928q51 0 106.5-22.5t96-49.5 85.5-49.5 76-22.5q51 0 93.5 41.5T981 944l129-24q-41-125-117-197t-166-72q-47 0-101 23t-93 50-85.5 50-80.5 23q-109 0-166-162zm-76-389-125 28q38 124 113 194.5T379 539q51 0 106.5-22.5T581 467t84.5-49.5T741 395q53 0 95.5 41.5T905 557l129-27q-42-125-118-195.5T752 264q-47 0-101 22.5T557.5 336t-86 49.5T391 408q-53 0-96.5-41.5T225 246z"/><glyph glyph-name="notequal" unicode="≠" horiz-adv-x="1179" d="M1087 764H776L614 526h426l-26-139H520L373 170H231l148 217H123l27 139h323l162 238H197l26 139h506l125 184h143L872 903h242z"/><glyph glyph-name="lessequal" unicode="≤" horiz-adv-x="1150" d="m1155 1260-31-158-729-303 611-305-29-148-784 397 20 119zM47 0l27 139h862L909 0H47z"/><glyph glyph-name="greaterequal" unicode="≥" horiz-adv-x="1153" d="m117 346 30 160 727 303-608 303 27 148 786-398-22-119zM47 0l27 139h862L909 0H47z"/><glyph glyph-name="lozenge" unicode="◊" horiz-adv-x="1103" d="M1038 717h4L514 0H397L150 717h-5l527 717h116zm-145 0h4l-190 565-414-565h-4l188-565z"/><glyph glyph-name="circle" unicode="○" horiz-adv-x="1703" d="M893-20q-198 0-367.5 99T257 347.5 158 717t99 369.5T525.5 1355t367.5 99q201 0 371-99t269-268.5 99-369.5-99-369.5T1264 79 893-20zm2 73q133 0 255 53t210.5 142 141 212 52.5 257-52.5 257-141 212-210.5 141.5-255 52.5-255-52.5T429.5 1186t-141-212T236 717t52.5-257 141-212T640 106t255-53z"/><glyph glyph-name="uni25CF" unicode="●" horiz-adv-x="1703" d="M895-20q-200 0-369.5 99T257 347.5 158 717t99 369.5T525.5 1355t369.5 99 369.5-99 268.5-268.5 99-369.5-99-369.5T1264.5 79 895-20z"/><glyph glyph-name="P_sq" horiz-adv-x="1280" d="m1300 1434-159-826H338L219 0H63l279 1434h958zm-286-678 104 530H469L367 756h647z"/><glyph glyph-name="P_sq_sinf" horiz-adv-x="813" d="m813 860-98-506H242L172 0H63l168 860h582zM629 457l59 301H319l-57-301h367z"/><glyph glyph-name="Iacute_J.loclNLD" horiz-adv-x="1095" d="m764 1843-266-289H352l223 289h189zm633 0-267-289H985l223 289h189zM342 1434h156L219 0H63zM453 129q10-2 36-2 230 0 287 295l197 1012h155L926 387Q887 192 775 87T500-18q-51 0-76 4z"/><glyph glyph-name="O.ss10" horiz-adv-x="1564" d="M1585 1434 1307 0H63l279 1434h1243zM248 147h932l221 1139H469z"/><glyph glyph-name="Oacute.ss10" horiz-adv-x="1564" d="m1309 1843-267-289H897l223 289h189zm276-409L1307 0H63l279 1434h1243zM248 147h932l221 1139H469z"/><glyph glyph-name="Obreve.ss10" horiz-adv-x="1564" d="M1348 1853q-29-143-125-225t-232-82q-129 0-200 88.5T745 1853h115q-18-88 25.5-145t124.5-57q80 0 141 56t78 146h119zm237-419L1307 0H63l279 1434h1243zM248 147h932l221 1139H469z"/><glyph glyph-name="Ocircumflex.ss10" horiz-adv-x="1564" d="m1018 1759-170-190H709l241 289h166l131-289h-131zm-676-325h1243L1307 0H63zm838-1287 221 1139H469L248 147h932z"/><glyph glyph-name="Odieresis.ss10" horiz-adv-x="1564" d="M827 1790q42 0 74.5-32.5T934 1683q0-43-32.5-74.5T827 1577q-44 0-76 31t-32 75q0 43 32 75t76 32zm318 0q43 0 75.5-32t32.5-75q0-44-32.5-75t-75.5-31q-45 0-77 31t-32 75q0 43 32.5 75t76.5 32zm440-356L1307 0H63l279 1434h1243zM248 147h932l221 1139H469z"/><glyph glyph-name="Ograve.ss10" horiz-adv-x="1564" d="M664 1843h188l223-289H930zm921-409L1307 0H63l279 1434h1243zM248 147h932l221 1139H469z"/><glyph glyph-name="Ohungarumlaut.ss10" horiz-adv-x="1564" d="m889 1554 198 304H936l-201-304h154zm319 0 197 304h-150l-198-304h151zm377-120L1307 0H63l279 1434h1243zM248 147h932l221 1139H469z"/><glyph glyph-name="Omacron.ss10" horiz-adv-x="1564" d="m664 1581 24 123h655l-24-123H664zm921-147L1307 0H63l279 1434h1243zM248 147h932l221 1139H469z"/><glyph glyph-name="uni01EA.ss10" horiz-adv-x="1564" d="M342 1434h1243L1307 0H870q-94-29-153.5-81T645-199q-8-39 12.5-64.5T723-289q59 0 115 27l32-100q-80-41-180-41-96 0-145.5 55T512-209Q536-88 666 0H63zm838-1287 221 1139H469L248 147h932z"/><glyph glyph-name="Oslash.ss10" horiz-adv-x="1873" d="M1683 1364 1419 0H295L123-168 37-80 193 72l264 1362h1122l172 168 86-89zm-1099-78L385 262l1045 1024H584zM444 147h848l203 1031z"/><glyph glyph-name="S.ss12" horiz-adv-x="1122" d="M694 1434h424l-28-150H653q-125 0-210.5-56.5T340 1077q-11-54 3-96.5t47-69.5 80-50 101.5-39 111-35.5 110.5-40 98.5-52.5 75.5-72.5 41.5-101T1004 383q-33-174-174.5-278.5T463 0H-6l29 150h464q148 0 244.5 66T850 397q12 61-6.5 106.5t-59 73-96 51-118 39.5T446 706.5 330.5 757 239 829.5 186.5 935t1.5 150q31 157 169 253t337 96z"/><glyph glyph-name="Sacute.ss12" horiz-adv-x="1122" d="m1104 1843-266-289H692l223 289h189zm-410-409h424l-28-150H653q-125 0-210.5-56.5T340 1077q-11-54 3-96.5t47-69.5 80-50 101.5-39 111-35.5 110.5-40 98.5-52.5 75.5-72.5 41.5-101T1004 383q-33-174-174.5-278.5T463 0H-6l29 150h464q148 0 244.5 66T850 397q12 61-6.5 106.5t-59 73-96 51-118 39.5T446 706.5 330.5 757 239 829.5 186.5 935t1.5 150q31 157 169 253t337 96z"/><glyph glyph-name="Scaron.ss12" horiz-adv-x="1122" d="m702 1554-129 289h129l99-190 170 190h139l-240-289H702zm-49-270q-125 0-210.5-56.5T340 1077q-11-54 3-96.5t47-69.5 80-50 101.5-39 111-35.5 110.5-40 98.5-52.5 75.5-72.5 41.5-101T1004 383q-33-174-174.5-278.5T463 0H-6l29 150h464q148 0 244.5 66T850 397q12 61-6.5 106.5t-59 73-96 51-118 39.5T446 706.5 330.5 757 239 829.5 186.5 935t1.5 150q31 157 169 253t337 96h424l-28-150H653z"/><glyph glyph-name="Scedilla.ss12" horiz-adv-x="1122" d="M653 1284q-125 0-210.5-56.5T340 1077q-11-54 3-96.5t47-69.5 80-50 101.5-39 111-35.5 110.5-40 98.5-52.5 75.5-72.5 41.5-101T1004 383q-32-167-165-271.5T494 0q63-79 70.5-161T533-303.5t-116-98T244-436l-29 108q85 6 143.5 35.5t81 74 11.5 102T393 0H-6l29 150h464q148 0 244.5 66T850 397q12 61-6.5 106.5t-59 73-96 51-118 39.5T446 706.5 330.5 757 239 829.5 186.5 935t1.5 150q31 157 169 253t337 96h424l-28-150H653z"/><glyph glyph-name="Scircumflex.ss12" horiz-adv-x="1122" d="m813 1759-170-190H504l241 289h166l131-289H911zm-160-475q-125 0-210.5-56.5T340 1077q-11-54 3-96.5t47-69.5 80-50 101.5-39 111-35.5 110.5-40 98.5-52.5 75.5-72.5 41.5-101T1004 383q-33-174-174.5-278.5T463 0H-6l29 150h464q148 0 244.5 66T850 397q12 61-6.5 106.5t-59 73-96 51-118 39.5T446 706.5 330.5 757 239 829.5 186.5 935t1.5 150q31 157 169 253t337 96h424l-28-150H653z"/><glyph glyph-name="uni0218.ss12" horiz-adv-x="1122" d="M694 1434h424l-28-150H653q-125 0-210.5-56.5T340 1077q-11-54 3-96.5t47-69.5 80-50 101.5-39 111-35.5 110.5-40 98.5-52.5 75.5-72.5 41.5-101T1004 383q-33-174-174.5-278.5T463 0H-6l29 150h464q148 0 244.5 66T850 397q12 61-6.5 106.5t-59 73-96 51-118 39.5T446 706.5 330.5 757 239 829.5 186.5 935t1.5 150q31 157 169 253t337 96zM537-150 270-438H123l223 288h191z"/><glyph glyph-name="D.ss16" horiz-adv-x="1482" d="M827 1434q169 0 308-81t217-218.5 78-300.5q0-141-40-269.5T1275.5 334 1100 156.5t-228.5-116T604 0H-39l27 147h172l250 1287h417zM629 147q178 0 326 91.5T1187.5 487t84.5 344q0 192-129.5 323.5T819 1286H537L313 147h316z"/><glyph glyph-name="Eth.ss16" horiz-adv-x="1482" d="M827 1434q169 0 308-81t217-218.5 78-300.5q0-141-40-269.5T1275.5 334 1100 156.5t-228.5-116T604 0H-39l27 147h172l100 517H92l21 106h168l129 664h417zM629 147q178 0 326 91.5T1187.5 487t84.5 344q0 192-129.5 323.5T819 1286H537L436 770h291l-20-106H414L313 147h316z"/><glyph glyph-name="Dcaron.ss16" horiz-adv-x="1482" d="m819 1554-129 289h129l99-190 169 190h140l-240-289H819zm8-120q169 0 308-81t217-218.5 78-300.5q0-141-40-269.5T1275.5 334 1100 156.5t-228.5-116T604 0H-39l27 147h172l250 1287h417zM629 147q178 0 326 91.5T1187.5 487t84.5 344q0 192-129.5 323.5T819 1286H537L313 147h316z"/><glyph glyph-name="Dcroat.ss16" horiz-adv-x="1482" d="M827 1434q169 0 308-81t217-218.5 78-300.5q0-141-40-269.5T1275.5 334 1100 156.5t-228.5-116T604 0H-39l27 147h172l100 517H92l21 106h168l129 664h417zM629 147q178 0 326 91.5T1187.5 487t84.5 344q0 192-129.5 323.5T819 1286H537L436 770h291l-20-106H414L313 147h316z"/><glyph glyph-name="J.ss17" horiz-adv-x="776" d="M797 1434 518 0H-49l26 147h414l250 1287h156z"/><glyph glyph-name="Jcircumflex.ss17" horiz-adv-x="776" d="m872 1858 132-289H872l-98 190-170-190H465l242 289h165zM391 147l250 1287h156L518 0H-49l26 147h414z"/><glyph glyph-name="L.ss18" horiz-adv-x="1202" d="M1100 147 1071 0H23l26 147h172l250 1287h154L375 147h725z"/><glyph glyph-name="Lacute.ss18" horiz-adv-x="1202" d="m889 1843-266-289H477l223 289h189zm211-1696L1071 0H23l26 147h172l250 1287h154L375 147h725z"/><glyph glyph-name="Lcaron.ss18" horiz-adv-x="1202" d="m1163 1536-159-420H879l125 420h159zM375 147h725L1071 0H23l26 147h172l250 1287h154z"/><glyph glyph-name="uni013B.ss18" horiz-adv-x="1202" d="M1100 147 1071 0H23l26 147h172l250 1287h154L375 147h725zM283-438l223 288h190L430-438H283z"/><glyph glyph-name="Ldot.ss18" horiz-adv-x="1202" d="M1100 147 1071 0H23l26 147h172l250 1287h154L375 147h725zM895 647q-51 0-86 34t-35 85q0 50 35 84.5t86 34.5 85-34.5 34-84.5q0-51-34-85t-85-34z"/><glyph glyph-name="Lslash.ss18" horiz-adv-x="1202" d="M1100 147 1071 0H23l26 147h172l88 449-184-78 25 135 186 80 135 701h154L502 805l436 186-25-135-438-188-100-521h725z"/><glyph glyph-name="M.swsh" horiz-adv-x="2082" d="M102 0H-63l759 1434h138L987 242l623 1192h135L1950 0h-162l-156 1192L1008 0H872L723 1194z"/><glyph glyph-name="G.titl" horiz-adv-x="1689" d="m1696 750-29-148h-145q-64-284-261-453T778-20q-133 0-250.5 47T325 157.5t-134.5 205T141 627q0 171 64 324t174.5 263.5 264.5 175 327 64.5q218 0 374-108t193-281l-162-12q-34 113-150 182.5T956 1305q-186 0-336.5-89.5T385 973t-84-336q0-233 136.5-370.5T786 129q225 0 375.5 128.5T1354 602H868l29 148h799z"/><glyph glyph-name="Gbreve.titl" horiz-adv-x="1689" d="M1001 1546q-129 0-199.5 88T756 1853h114q-18-88 25.5-145t124.5-57q80 0 141 56t78 146h119q-29-143-125-225t-232-82zm695-796-29-148h-145q-64-284-261-453T778-20q-133 0-250.5 47T325 157.5t-134.5 205T141 627q0 171 64 324t174.5 263.5 264.5 175 327 64.5q218 0 374-108t193-281l-162-12q-34 113-150 182.5T956 1305q-186 0-336.5-89.5T385 973t-84-336q0-233 136.5-370.5T786 129q225 0 375.5 128.5T1354 602H868l29 148h799z"/><glyph glyph-name="Gcircumflex.titl" horiz-adv-x="1689" d="m1026 1759-170-190H717l241 289h166l131-289h-131zm670-1009-29-148h-145q-64-284-261-453T778-20q-133 0-250.5 47T325 157.5t-134.5 205T141 627q0 171 64 324t174.5 263.5 264.5 175 327 64.5q218 0 374-108t193-281l-162-12q-34 113-150 182.5T956 1305q-186 0-336.5-89.5T385 973t-84-336q0-233 136.5-370.5T786 129q225 0 375.5 128.5T1354 602H868l29 148h799z"/><glyph glyph-name="uni0122.titl" horiz-adv-x="1689" d="m1696 750-29-148h-145q-64-284-261-453T778-20q-133 0-250.5 47T325 157.5t-134.5 205T141 627q0 171 64 324t174.5 263.5 264.5 175 327 64.5q218 0 374-108t193-281l-162-12q-34 113-150 182.5T956 1305q-186 0-336.5-89.5T385 973t-84-336q0-233 136.5-370.5T786 129q225 0 375.5 128.5T1354 602H868l29 148h799zM391-438l223 288h191L539-438H391z"/><glyph glyph-name="Gdotaccent.titl" horiz-adv-x="1689" d="M1016 1577q-45 0-77 31t-32 75q0 43 32.5 75t76.5 32q42 0 74-32t32-75q0-44-32-75t-74-31zm680-827-29-148h-145q-64-284-261-453T778-20q-133 0-250.5 47T325 157.5t-134.5 205T141 627q0 171 64 324t174.5 263.5 264.5 175 327 64.5q218 0 374-108t193-281l-162-12q-34 113-150 182.5T956 1305q-186 0-336.5-89.5T385 973t-84-336q0-233 136.5-370.5T786 129q225 0 375.5 128.5T1354 602H868l29 148h799z"/><glyph glyph-name="I.titl" horiz-adv-x="700" d="M741 1292H584L360 147h158L489 0H16l29 147h160l223 1145H268l29 148h473z"/><glyph glyph-name="IJ.titl" horiz-adv-x="1474" d="M584 1292 360 147h158L489 0H16l29 147h160l223 1145H268l29 148h473l-29-148H584zm925 142-28-148h-160l-174-899q-38-195-149.5-300T723-18q-51 0-76 4l29 143q10-2 37-2 114 0 185 72t101 223l166 864h-157l28 148h473z"/><glyph glyph-name="Iacute.titl" horiz-adv-x="700" d="m877 1843-267-289H465l223 289h189zm-609-551 29 148h473l-29-148H584L360 147h158L489 0H16l29 147h160l223 1145H268z"/><glyph glyph-name="Ibreve.titl" horiz-adv-x="700" d="M797 1853h118q-29-143-124.5-225T559 1546q-129 0-200 88.5T313 1853h115q-18-88 25.5-145t124.5-57q80 0 141 56t78 146zm-529-561 29 148h473l-29-148H584L360 147h158L489 0H16l29 147h160l223 1145H268z"/><glyph glyph-name="Icircumflex.titl" horiz-adv-x="700" d="m586 1759-170-190H276l242 289h166l131-289H684zm-318-467 29 148h473l-29-148H584L360 147h158L489 0H16l29 147h160l223 1145H268z"/><glyph glyph-name="Idieresis.titl" horiz-adv-x="700" d="M397 1577q-44 0-76 31t-32 75q0 43 32 75t76 32q42 0 74.5-32.5T504 1683q0-43-32.5-74.5T397 1577zm318 213q43 0 75.5-32t32.5-75q0-44-32.5-75t-75.5-31q-45 0-77 31t-32 75q0 43 32.5 75t76.5 32zm-447-498 29 148h473l-29-148H584L360 147h158L489 0H16l29 147h160l223 1145H268z"/><glyph glyph-name="Idotaccent.titl" horiz-adv-x="700" d="M573 1577q-44 0-76 31t-32 75q0 43 32 75t76 32q42 0 74.5-32.5T680 1683q0-43-32.5-74.5T573 1577zm168-285H584L360 147h158L489 0H16l29 147h160l223 1145H268l29 148h473z"/><glyph glyph-name="Igrave.titl" horiz-adv-x="700" d="M643 1554H498l-267 289h189zm98-262H584L360 147h158L489 0H16l29 147h160l223 1145H268l29 148h473z"/><glyph glyph-name="Imacron.titl" horiz-adv-x="700" d="M258 1704h655l-24-123H233zm10-412 29 148h473l-29-148H584L360 147h158L489 0H16l29 147h160l223 1145H268z"/><glyph glyph-name="Iogonek.titl" horiz-adv-x="700" d="M741 1292H584L360 147h158L489 0h-51q-94-29-153.5-81T213-199q-8-39 12.5-64.5T291-289q59 0 115 27l32-100q-80-41-180-41-96 0-145.5 55T80-209Q104-87 233 0H16l29 147h160l223 1145H268l29 148h473z"/><glyph glyph-name="Itilde.titl" horiz-adv-x="700" d="m836 1817 118-29q-27-99-93.5-159T719 1569q-44 0-85.5 18.5t-68.5 41-58 41-56 18.5q-43 0-78.5-34.5T330 1567l-119 28q26 101 91 161.5t140 60.5q55 0 107-30t92.5-59.5T709 1698q44 0 80 34t47 85zm-568-525 29 148h473l-29-148H584L360 147h158L489 0H16l29 147h160l223 1145H268z"/><glyph glyph-name="J.titl" horiz-adv-x="778" d="m809 1434-27-148H623L449 387Q410 192 298 87T23-18q-51 0-76 4l28 143q10-2 37-2 230 0 287 295l168 864H307l29 148h473z"/><glyph glyph-name="Jcircumflex.titl" horiz-adv-x="778" d="m623 1759-170-190H313l242 289h166l131-289H721zm186-325-27-148H623L449 387Q410 192 298 87T23-18q-51 0-76 4l28 143q10-2 37-2 230 0 287 295l168 864H307l29 148h473z"/><glyph glyph-name="T.titl" horiz-adv-x="1214" d="M1309 1286H838L616 147h160L748 0H274l27 147h160l221 1139H213l29 148h1093z"/><glyph glyph-name="Tbar.titl" horiz-adv-x="1214" d="M1309 1286H838L737 770h230l-21-106H717L616 147h160L748 0H274l27 147h160l100 517H330l20 106h232l100 516H213l29 148h1093z"/><glyph glyph-name="Tcaron.titl" horiz-adv-x="1214" d="m729 1554-129 289h129l98-190 170 190h140l-240-289H729zm580-268H838L616 147h160L748 0H274l27 147h160l221 1139H213l29 148h1093z"/><glyph glyph-name="uni0162.titl" horiz-adv-x="1214" d="M1309 1286H838L616 147h160L748 0H578q63-79 70.5-161T617-303.5t-116-98T328-436l-29 108q85 6 143.5 35.5t81 74 11.5 102T477 0H274l27 147h160l221 1139H213l29 148h1093z"/><glyph glyph-name="uni021A.titl" horiz-adv-x="1214" d="M1309 1286H838L616 147h160L748 0H274l27 147h160l221 1139H213l29 148h1093zM207-438l223 288h188L352-438H207z"/><glyph glyph-name="Y.titl" horiz-adv-x="1273" d="m748 639-99-492h158L778 0H305l29 147h160l98 496-373 791h172l301-635 539 635h190z"/><glyph glyph-name="Yacute.titl" horiz-adv-x="1269" d="m1147 1843-266-289H733l223 289h191zM748 639l-99-492h158L778 0H305l29 147h160l98 496-373 791h172l301-635 539 635h190z"/><glyph glyph-name="Ycircumflex.titl" horiz-adv-x="1269" d="m690 1757-170-190H381l240 288h167l130-288H788zm58-1118-99-492h158L778 0H305l29 147h160l98 496-373 791h172l301-635 539 635h190z"/><glyph glyph-name="Ydieresis.titl" horiz-adv-x="1273" d="M674 1577q-45 0-77 31t-32 75q0 43 32.5 75t76.5 32q42 0 74-32t32-75q0-44-32-75t-74-31zm317 0q-44 0-76 31t-32 75q0 43 32 75t76 32q43 0 76-32t33-75q0-44-33-75t-76-31zM748 639l-99-492h158L778 0H305l29 147h160l98 496-373 791h172l301-635 539 635h190z"/><glyph glyph-name="Ygrave.titl" horiz-adv-x="1269" d="M762 1554H614l-264 289h189zm-14-915-99-492h158L778 0H305l29 147h160l98 496-373 791h172l301-635 539 635h190z"/><glyph glyph-name="i.loclTRK" horiz-adv-x="436" d="M377 1430q43 0 75.5-32t32.5-75q0-44-32.5-76.5T377 1214q-44 0-76.5 32.5T268 1323q0 43 32.5 75t76.5 32zM242 995h147L197 0H47z"/><glyph glyph-name="eth.alt" horiz-adv-x="1234" d="m913 1305 177-414q65-145 65-309 0-171-78.5-308.5T859 58 547-20q-129 0-236 62.5T144 210 84 438q0 159 76.5 291.5t209 208.5 289.5 76q147 0 252-82l-139 313-274-112-17 90 254 104-86 193h172l58-134 303 125 16-90zM559 127q188 0 316.5 127.5T1004 571q0 133-95 221.5T668 881q-184 0-309.5-124.5T233 449q0-131 94.5-226.5T559 127z"/><glyph glyph-name="germandbls.calt" horiz-adv-x="1234" d="M801 1454q187 0 302.5-106.5T1210 1085L811 778q184-1 276-105t60-272q-21-109-95-201.5t-179.5-146T655 0H362l29 147h281q109 0 203.5 79.5T993 418q22 119-34.5 186.5T778 672H616l9 102 422 336q-8 86-76 141.5T803 1307q-144 0-255.5-97.5T408 965L219 0H63l191 975q41 213 193.5 346T801 1454z"/><glyph glyph-name="iacute_j.loclNLD" horiz-adv-x="872" d="m662 1405-267-289H250l223 289h189zm434 0-267-289H684l223 289h189zM242 995h147L197 0H47zm26-1269q4 0 12.5-1t12.5-1q68 0 111.5 49T471-72L678 995h147L616-84q-32-162-117.5-246T281-414q-25 0-39 2z"/><glyph glyph-name="a.ss01" horiz-adv-x="1040" d="M584 1016q194 0 293.5-110T944 625L821 0H680l35 182Q651 86 557 33T350-20q-139 0-217 67.5T55 227q0 96 45.5 169.5t126 117.5T408 580t219 22h170l6 29q24 117-48.5 189.5T557 893q-114 0-192.5-61T260 674H121q35 150 159.5 246t303.5 96zm174-610h2l16 83H614q-200 0-306.5-59.5T201 254q0-69 50.5-108.5T397 106q132 0 234.5 88.5T758 406z"/><glyph glyph-name="aacute.ss01" horiz-adv-x="1040" d="m961 1405-267-289H549l223 289h189zm-377-389q194 0 293.5-110T944 625L821 0H680l35 182Q651 86 557 33T350-20q-139 0-217 67.5T55 227q0 96 45.5 169.5t126 117.5T408 580t219 22h170l6 29q24 117-48.5 189.5T557 893q-114 0-192.5-61T260 674H121q35 150 159.5 246t303.5 96zm174-610h2l16 83H614q-200 0-306.5-59.5T201 254q0-69 50.5-108.5T397 106q132 0 234.5 88.5T758 406z"/><glyph glyph-name="abreve.ss01" horiz-adv-x="1040" d="M643 1108q-129 0-200 88.5T397 1415h115q-18-88 25.5-145.5T662 1212q80 0 141 56.5t78 146.5h118q-29-143-124.5-225T643 1108zm-59-92q194 0 293.5-110T944 625L821 0H680l35 182Q651 86 557 33T350-20q-139 0-217 67.5T55 227q0 96 45.5 169.5t126 117.5T408 580t219 22h170l6 29q24 117-48.5 189.5T557 893q-114 0-192.5-61T260 674H121q35 150 159.5 246t303.5 96zm174-610h2l16 83H614q-200 0-306.5-59.5T201 254q0-69 50.5-108.5T397 106q132 0 234.5 88.5T758 406z"/><glyph glyph-name="acircumflex.ss01" horiz-adv-x="1040" d="m670 1321-170-191H360l242 289h166l131-289H768zm-86-305q194 0 293.5-110T944 625L821 0H680l35 182Q651 86 557 33T350-20q-139 0-217 67.5T55 227q0 96 45.5 169.5t126 117.5T408 580t219 22h170l6 29q24 117-48.5 189.5T557 893q-114 0-192.5-61T260 674H121q35 150 159.5 246t303.5 96zm174-610h2l16 83H614q-200 0-306.5-59.5T201 254q0-69 50.5-108.5T397 106q132 0 234.5 88.5T758 406z"/><glyph glyph-name="adieresis.ss01" horiz-adv-x="1040" d="M522 1214q-44 0-76 32.5t-32 76.5q0 43 32 75t76 32q43 0 76-32t33-75q0-44-33-76.5t-76-32.5zm318 0q-44 0-76.5 32.5T731 1323q0 43 32.5 75t76.5 32q43 0 75.5-32t32.5-75q0-44-32.5-76.5T840 1214zm-256-198q194 0 293.5-110T944 625L821 0H680l35 182Q651 86 557 33T350-20q-139 0-217 67.5T55 227q0 96 45.5 169.5t126 117.5T408 580t219 22h170l6 29q24 117-48.5 189.5T557 893q-114 0-192.5-61T260 674H121q35 150 159.5 246t303.5 96zm174-610h2l16 83H614q-200 0-306.5-59.5T201 254q0-69 50.5-108.5T397 106q132 0 234.5 88.5T758 406z"/><glyph glyph-name="agrave.ss01" horiz-adv-x="1040" d="M727 1116H582l-267 289h189zm-143-100q194 0 293.5-110T944 625L821 0H680l35 182Q651 86 557 33T350-20q-139 0-217 67.5T55 227q0 96 45.5 169.5t126 117.5T408 580t219 22h170l6 29q24 117-48.5 189.5T557 893q-114 0-192.5-61T260 674H121q35 150 159.5 246t303.5 96zm174-610h2l16 83H614q-200 0-306.5-59.5T201 254q0-69 50.5-108.5T397 106q132 0 234.5 88.5T758 406z"/><glyph glyph-name="amacron.ss01" horiz-adv-x="1040" d="M342 1266h655l-24-123H317zm242-250q194 0 293.5-110T944 625L821 0H680l35 182Q651 86 557 33T350-20q-139 0-217 67.5T55 227q0 96 45.5 169.5t126 117.5T408 580t219 22h170l6 29q24 117-48.5 189.5T557 893q-114 0-192.5-61T260 674H121q35 150 159.5 246t303.5 96zm174-610h2l16 83H614q-200 0-306.5-59.5T201 254q0-69 50.5-108.5T397 106q132 0 234.5 88.5T758 406z"/><glyph glyph-name="aogonek.ss01" horiz-adv-x="1040" d="M584 1016q194 0 293.5-110T944 625L829 47l-2-47q-94-29-153.5-81T602-199q-8-39 12.5-64.5T680-289q59 0 115 27l32-100q-80-41-180-41-96 0-145.5 55T469-209q15 74 71.5 138T688 39l27 143Q651 86 557 33T350-20q-139 0-217 67.5T55 227q0 96 45.5 169.5t126 117.5T408 580t219 22h170l6 29q24 117-48.5 189.5T557 893q-114 0-192.5-61T260 674H121q35 150 159.5 246t303.5 96zm174-610h2l16 83H614q-200 0-306.5-59.5T201 254q0-69 50.5-108.5T397 106q132 0 234.5 88.5T758 406z"/><glyph glyph-name="aring.ss01" horiz-adv-x="1040" d="M657 1112q-106 0-171.5 66.5T426 1346q4 101 77 168t179 67 172-67 61-168q-6-101-79-167.5T657 1112zm-133 234q-3-60 36-100t102-40 106.5 40 46.5 100-35.5 100.5T678 1487t-107-40.5-47-100.5zm60-330q194 0 293.5-110T944 625L821 0H680l35 182Q651 86 557 33T350-20q-139 0-217 67.5T55 227q0 96 45.5 169.5t126 117.5T408 580t219 22h170l6 29q24 117-48.5 189.5T557 893q-114 0-192.5-61T260 674H121q35 150 159.5 246t303.5 96zm174-610h2l16 83H614q-200 0-306.5-59.5T201 254q0-69 50.5-108.5T397 106q132 0 234.5 88.5T758 406z"/><glyph glyph-name="atilde.ss01" horiz-adv-x="1040" d="m920 1378 118-28q-27-99-93.5-159.5T803 1130q-44 0-85.5 18.5t-68.5 41-58 41-56 18.5q-43 0-78.5-34.5T414 1128l-119 29q26 101 91 161t140 60q43 0 85.5-18.5T682 1319t58.5-40.5T793 1260q44 0 80.5 33.5T920 1378zm-336-362q194 0 293.5-110T944 625L821 0H680l35 182Q651 86 557 33T350-20q-139 0-217 67.5T55 227q0 96 45.5 169.5t126 117.5T408 580t219 22h170l6 29q24 117-48.5 189.5T557 893q-114 0-192.5-61T260 674H121q35 150 159.5 246t303.5 96zm174-610h2l16 83H614q-200 0-306.5-59.5T201 254q0-69 50.5-108.5T397 106q132 0 234.5 88.5T758 406z"/><glyph glyph-name="ae.ss01" horiz-adv-x="1875" d="M942 471v-20q-2-146 92-241t240-95q110 0 200.5 52T1597 313h160q-44-151-182-242t-313-91q-130 0-235 60T862 203L821 0H680l35 182Q651 86 557 33T350-20q-139 0-217 67.5T55 227q0 96 45.5 169.5t126 117.5T408 580t219 22h170l6 29q24 117-48.5 189.5T557 893q-114 0-192.5-61T260 674H121q35 150 159.5 246t303.5 96q133 0 224.5-54.5T934 813q78 95 190.5 149t241.5 54q191 0 313.5-119.5T1802 586q0-32-18-115H942zm418 412q-140 0-244.5-79T967 596h680q-3 134-80 210.5T1360 883zM758 406h2l16 83H614q-200 0-306.5-59.5T201 254q0-69 50.5-108.5T397 106q132 0 234.5 88.5T758 406z"/><glyph glyph-name="aeacute.ss01" horiz-adv-x="1875" d="m1374 1405-266-289H963l223 289h188zM942 471v-20q-2-146 92-241t240-95q110 0 200.5 52T1597 313h160q-44-151-182-242t-313-91q-130 0-235 60T862 203L821 0H680l35 182Q651 86 557 33T350-20q-139 0-217 67.5T55 227q0 96 45.5 169.5t126 117.5T408 580t219 22h170l6 29q24 117-48.5 189.5T557 893q-114 0-192.5-61T260 674H121q35 150 159.5 246t303.5 96q133 0 224.5-54.5T934 813q78 95 190.5 149t241.5 54q191 0 313.5-119.5T1802 586q0-32-18-115H942zm418 412q-140 0-244.5-79T967 596h680q-3 134-80 210.5T1360 883zM758 406h2l16 83H614q-200 0-306.5-59.5T201 254q0-69 50.5-108.5T397 106q132 0 234.5 88.5T758 406z"/><glyph glyph-name="a.ss02" horiz-adv-x="1064" d="M256 995h762L823 0H676l29 152Q635 69 537.5 24.5T342-20Q179-20 99 66.5T47 295q28 140 171 217.5T588 590h203l53 278H231zm115-895q95 0 191 49t169 140l37 188H600q-382 0-422-192-17-86 33.5-135.5T371 100z"/><glyph glyph-name="aacute.ss02" horiz-adv-x="1064" d="m981 1405-266-289H567l224 289h190zM256 995h762L823 0H676l29 152Q635 69 537.5 24.5T342-20Q179-20 99 66.5T47 295q28 140 171 217.5T588 590h203l53 278H231zm115-895q95 0 191 49t169 140l37 188H600q-382 0-422-192-17-86 33.5-135.5T371 100z"/><glyph glyph-name="abreve.ss02" horiz-adv-x="1064" d="M662 1108q-128 0-198.5 88.5T416 1415h114q-17-88 26.5-145.5T680 1212t141 56 80 147h117q-28-142-123.5-224.5T662 1108zM231 868l25 127h762L823 0H676l29 152Q635 69 537.5 24.5T342-20Q179-20 99 66.5T47 295q28 140 171 217.5T588 590h203l53 278H231zm140-768q95 0 191 49t169 140l37 188H600q-382 0-422-192-17-86 33.5-135.5T371 100z"/><glyph glyph-name="acircumflex.ss02" horiz-adv-x="1064" d="m688 1321-170-191H379l242 289h165l132-289H786zM256 995h762L823 0H676l29 152Q635 69 537.5 24.5T342-20Q179-20 99 66.5T47 295q28 140 171 217.5T588 590h203l53 278H231zm115-895q95 0 191 49t169 140l37 188H600q-382 0-422-192-17-86 33.5-135.5T371 100z"/><glyph glyph-name="adieresis.ss02" horiz-adv-x="1064" d="M541 1214q-44 0-76.5 32.5T432 1323q0 43 32.5 75t76.5 32q41 0 73.5-32t32.5-75q0-44-32-76.5t-74-32.5zm317 0q-44 0-76 32.5t-32 76.5q0 43 32 75t76 32q43 0 76-32t33-75q0-44-33-76.5t-76-32.5zM256 995h762L823 0H676l29 152Q635 69 537.5 24.5T342-20Q179-20 99 66.5T47 295q28 140 171 217.5T588 590h203l53 278H231zm115-895q95 0 191 49t169 140l37 188H600q-382 0-422-192-17-86 33.5-135.5T371 100z"/><glyph glyph-name="agrave.ss02" horiz-adv-x="1064" d="M745 1116H600l-266 289h188zM256 995h762L823 0H676l29 152Q635 69 537.5 24.5T342-20Q179-20 99 66.5T47 295q28 140 171 217.5T588 590h203l53 278H231zm115-895q95 0 191 49t169 140l37 188H600q-382 0-422-192-17-86 33.5-135.5T371 100z"/><glyph glyph-name="amacron.ss02" horiz-adv-x="1064" d="m1016 1266-25-123H336l24 123h656zM256 995h762L823 0H676l29 152Q635 69 537.5 24.5T342-20Q179-20 99 66.5T47 295q28 140 171 217.5T588 590h203l53 278H231zm115-895q95 0 191 49t169 140l37 188H600q-382 0-422-192-17-86 33.5-135.5T371 100z"/><glyph glyph-name="aogonek.ss02" horiz-adv-x="1064" d="M682-289q58 0 117 27l32-100q-84-41-182-41-95 0-144 55t-34 139q13 71 68.5 134.5T682 35l23 117Q635 69 537.5 24.5T342-20Q179-20 99 66.5T47 295q28 140 171 217.5T588 590h203l53 278H231l25 127h762L831 47l-2-47q-93-29-152.5-81.5T604-199q-8-39 13.5-64.5T682-289zM371 100q95 0 191 49t169 140l37 188H600q-382 0-422-192-17-86 33.5-135.5T371 100z"/><glyph glyph-name="aring.ss02" horiz-adv-x="1064" d="M676 1112q-104 0-170 66.5T444 1346t77.5 168 178.5 67q106 0 172.5-67t61.5-168q-4-101-78-167.5T676 1112zm-133 234q-2-60 37-100t100-40q63 0 108 40t46 100q3 60-36 100.5T696 1487t-106.5-40.5T543 1346zM256 995h762L823 0H676l29 152Q635 69 537.5 24.5T342-20Q179-20 99 66.5T47 295q28 140 171 217.5T588 590h203l53 278H231zm115-895q95 0 191 49t169 140l37 188H600q-382 0-422-192-17-86 33.5-135.5T371 100z"/><glyph glyph-name="atilde.ss02" horiz-adv-x="1064" d="M553 1249q-43 0-78.5-34.5T432 1128l-119 29q26 100 91.5 160.5T545 1378q43 0 85.5-18.5t70-40.5 58-40.5T811 1260q44 0 80.5 33.5T938 1378l119-28q-27-100-93.5-160T821 1130q-44 0-85.5 18.5t-68.5 41-58 41-56 18.5zM231 868l25 127h762L823 0H676l29 152Q635 69 537.5 24.5T342-20Q179-20 99 66.5T47 295q28 140 171 217.5T588 590h203l53 278H231zm140-768q95 0 191 49t169 140l37 188H600q-382 0-422-192-17-86 33.5-135.5T371 100z"/><glyph glyph-name="ae.ss02" horiz-adv-x="1843" d="M1372 1016q205 0 318-140t75-344q-4-22-12-47l-840 4q-32-171 50-275.5T1200 109q112 0 212 46.5T1569 279l106-80q-76-104-203-161.5T1196-20q-124 0-218 57T836 195L799 0H676l31 156Q637 70 536.5 25T328-20Q175-20 97 66.5T45 289q29 146 172 220.5T592 584h196l56 284H231l25 127h735l-33-174q80 91 187.5 143t226.5 52zm258-422q17 128-59.5 213.5T1364 893q-139 0-254-84T942 590zM358 104q104 0 203.5 48.5T731 291l39 192H580q-168 0-272-51.5T184 281q-15-80 32-128.5T358 104z"/><glyph glyph-name="aeacute.ss02" horiz-adv-x="1843" d="m1362 1405-266-289H950l224 289h188zm10-389q205 0 318-140t75-344q-4-22-12-47l-840 4q-32-171 50-275.5T1200 109q112 0 212 46.5T1569 279l106-80q-76-104-203-161.5T1196-20q-124 0-218 57T836 195L799 0H676l31 156Q637 70 536.5 25T328-20Q175-20 97 66.5T45 289q29 146 172 220.5T592 584h196l56 284H231l25 127h735l-33-174q80 91 187.5 143t226.5 52zm258-422q17 128-59.5 213.5T1364 893q-139 0-254-84T942 590zM358 104q104 0 203.5 48.5T731 291l39 192H580q-168 0-272-51.5T184 281q-15-80 32-128.5T358 104z"/><glyph glyph-name="c.ss03" horiz-adv-x="985" d="M946 856H362L223 141h584L780 0H47l195 995h731z"/><glyph glyph-name="cacute.ss03" horiz-adv-x="985" d="m952 1405-266-289H541l223 289h188zm-6-549H362L223 141h584L780 0H47l195 995h731z"/><glyph glyph-name="ccaron.ss03" horiz-adv-x="985" d="m551 1116-129 289h129l98-191 170 191h139l-239-289H551zm395-260H362L223 141h584L780 0H47l195 995h731z"/><glyph glyph-name="ccedilla.ss03" horiz-adv-x="985" d="M946 856H362L223 141h584L780 0H487q63-79 70.5-161t-31-142.5-115.5-98T238-436l-29 108q85 6 143.5 35.5t81 74 11.5 102T387 0H47l195 995h731z"/><glyph glyph-name="ccircumflex.ss03" horiz-adv-x="985" d="m662 1321-170-191H352l242 289h166l131-289H760zm284-465H362L223 141h584L780 0H47l195 995h731z"/><glyph glyph-name="cdotaccent.ss03" horiz-adv-x="985" d="M670 1430q43 0 75.5-32t32.5-75q0-44-32.5-76.5T670 1214q-44 0-76.5 32.5T561 1323q0 43 32.5 75t76.5 32zm276-574H362L223 141h584L780 0H47l195 995h731z"/><glyph glyph-name="g.ss04" horiz-adv-x="1224" d="M1028 995h150L909-377H100l27 139h661l80 410Q804 99 707 53.5T512 8Q323 8 204.5 129.5T86 446q0 157 76.5 288.5T372 942t292 76q107 0 201.5-47T999 848zM555 145q94 0 187.5 48T897 317l78 406q-33 71-116.5 114.5T682 881q-188 0-315-120.5T240 465q0-146 85-233t230-87z"/><glyph glyph-name="gbreve.ss04" horiz-adv-x="1218" d="M737 1108q-129 0-199.5 88T492 1415h114q-18-88 25.5-145.5T756 1212q80 0 141 56.5t78 146.5h119q-29-143-125-225t-232-82zm291-113h150L909-377H100l27 139h661l80 410Q804 99 707 53.5T512 8Q323 8 204.5 129.5T86 446q0 157 76.5 288.5T372 942t292 76q107 0 201.5-47T999 848zM555 145q94 0 187.5 48T897 317l78 406q-33 71-116.5 114.5T682 881q-188 0-315-120.5T240 465q0-146 85-233t230-87z"/><glyph glyph-name="gcircumflex.ss04" horiz-adv-x="1218" d="m764 1321-170-191H455l239 289h168l129-289H862zm264-326h150L909-377H100l27 139h661l80 410Q804 99 707 53.5T512 8Q323 8 204.5 129.5T86 446q0 157 76.5 288.5T372 942t292 76q107 0 201.5-47T999 848zM555 145q94 0 187.5 48T897 317l78 406q-33 71-116.5 114.5T682 881q-188 0-315-120.5T240 465q0-146 85-233t230-87z"/><glyph glyph-name="uni0123.ss04" horiz-adv-x="1218" d="m969 1411-224-289H557l266 289h146zm59-416h150L909-377H100l27 139h661l80 410Q804 99 707 53.5T512 8Q323 8 204.5 129.5T86 446q0 157 76.5 288.5T372 942t292 76q107 0 201.5-47T999 848zM555 145q94 0 187.5 48T897 317l78 406q-33 71-116.5 114.5T682 881q-188 0-315-120.5T240 465q0-146 85-233t230-87z"/><glyph glyph-name="gdotaccent.ss04" horiz-adv-x="1218" d="M756 1214q-44 0-76.5 32.5T647 1323q0 43 32.5 75t76.5 32q42 0 74-32t32-75q0-44-32-76.5t-74-32.5zm272-219h150L909-377H100l27 139h661l80 410Q804 99 707 53.5T512 8Q323 8 204.5 129.5T86 446q0 157 76.5 288.5T372 942t292 76q107 0 201.5-47T999 848zM555 145q94 0 187.5 48T897 317l78 406q-33 71-116.5 114.5T682 881q-188 0-315-120.5T240 465q0-146 85-233t230-87z"/><glyph glyph-name="h.ss05" horiz-adv-x="1159" d="m475 1434-86-439h723L920 0H770l166 856H362L197 0H47l279 1434h149z"/><glyph glyph-name="hbar.ss05" horiz-adv-x="1159" d="M389 995h723L920 0H770l166 856H362L197 0H47l227 1169H43l20 107h232l31 158h149l-31-158h234l-21-107H424z"/><glyph glyph-name="hcircumflex.ss05" horiz-adv-x="1159" d="m453 1759-170-190H143l242 289h166l131-289H551zm-64-764h723L920 0H770l166 856H362L197 0H47l279 1434h149z"/><glyph glyph-name="j.ss06" horiz-adv-x="436" d="M377 1430q43 0 75.5-32t32.5-75q0-44-32.5-76.5T377 1214q-44 0-76.5 32.5T268 1323q0 43 32.5 75t76.5 32zm12-435L123-377H-27L242 995h147z"/><glyph glyph-name="uni0237.ss06" horiz-adv-x="436" d="M389 995 123-377H-27L242 995h147z"/><glyph glyph-name="jcircumflex.ss06" horiz-adv-x="436" d="m467 1419 131-289H467l-98 191-170-191H59l242 289h166zM-27-377 242 995h147L123-377H-27z"/><glyph glyph-name="l.ss07" horiz-adv-x="520" d="M475 1434 223 141h162L358 0H47l279 1434h149z"/><glyph glyph-name="lacute.ss07" horiz-adv-x="520" d="m750 1843-267-289H338l223 289h189zm-275-409L223 141h162L358 0H47l279 1434h149z"/><glyph glyph-name="lcaron.ss07" horiz-adv-x="608" d="m774 1536-160-420H492l124 420h158zm-299-102L223 141h162L358 0H47l279 1434h149z"/><glyph glyph-name="uni013C.ss07" horiz-adv-x="520" d="M475 1434 223 141h162L358 0H47l279 1434h149zM301-150 35-438h-148l224 288h190z"/><glyph glyph-name="ldot.ss07" horiz-adv-x="634" d="M475 1434 223 141h162L358 0H47l279 1434h149zm107-828q-51 0-86 34t-35 85q0 50 35 84.5t86 34.5 84.5-34.5T700 725q0-51-33.5-85T582 606z"/><glyph glyph-name="lslash.ss07" horiz-adv-x="520" d="m514 866-164-67-127-658h162L358 0H47l141 729-161-67 24 137 164 69 111 566h149l-96-498 160 68z"/><glyph glyph-name="m.ss08" horiz-adv-x="1802" d="M1755 995 1561 0h-150l168 856h-535L879 0H729l168 856H362L197 0H47l195 995h1513z"/><glyph glyph-name="n.ss09" horiz-adv-x="1159" d="M1112 995 920 0H770l166 856H362L197 0H47l195 995h870z"/><glyph glyph-name="nacute.ss09" horiz-adv-x="1159" d="m1022 1405-266-289H610l224 289h188zm90-410L920 0H770l166 856H362L197 0H47l195 995h870z"/><glyph glyph-name="ncaron.ss09" horiz-adv-x="1159" d="m618 1116-129 289h129l99-191 170 191h139l-240-289H618zM242 995h870L920 0H770l166 856H362L197 0H47z"/><glyph glyph-name="uni0146.ss09" horiz-adv-x="1159" d="M1112 995 920 0H770l166 856H362L197 0H47l195 995h870zM590-150 324-438H176l223 288h191z"/><glyph glyph-name="eng.ss09" horiz-adv-x="1142" d="M1112 995 920 0h-2l-17-88q-64-326-321-326-32 0-70 6l33 134q10-2 24-2 148 0 191 210l12 66 4 16 39 211h2l121 629H362L197 0H47l195 995h870z"/><glyph glyph-name="ntilde.ss09" horiz-adv-x="1159" d="M356 1157q26 100 91.5 160.5T588 1378q43 0 85.5-18.5t70-40.5 58-40.5T854 1260q44 0 80.5 33.5T981 1378l119-28q-27-99-94-159.5T864 1130q-44 0-85.5 18.5t-68.5 41-58 41-56 18.5q-43 0-78.5-34.5T475 1128zm756-162L920 0H770l166 856H362L197 0H47l195 995h870z"/><glyph glyph-name="o.ss10" horiz-adv-x="1159" d="M1112 995 918 0H47l195 995h870zM936 856H362L223 141h574z"/><glyph glyph-name="oacute.ss10" horiz-adv-x="1159" d="m1022 1405-266-289H610l224 289h188zm90-410L918 0H47l195 995h870zM936 856H362L223 141h574z"/><glyph glyph-name="obreve.ss10" horiz-adv-x="1159" d="M1061 1415q-29-143-124.5-225T705 1108q-129 0-200 88.5T459 1415h114q-18-88 25.5-145.5T723 1212q80 0 141 56.5t78 146.5h119zm51-420L918 0H47l195 995h870zM936 856H362L223 141h574z"/><glyph glyph-name="ocircumflex.ss10" horiz-adv-x="1159" d="m731 1321-170-191H422l242 289h165l132-289H829zM242 995h870L918 0H47zm555-854 139 715H362L223 141h574z"/><glyph glyph-name="odieresis.ss10" horiz-adv-x="1159" d="M582 1430q43 0 75.5-32t32.5-75q0-44-32.5-76.5T582 1214q-44 0-76.5 32.5T473 1323q0 43 32.5 75t76.5 32zm317 0q43 0 76-32t33-75q0-44-33-76.5t-76-32.5q-44 0-76 32.5t-32 76.5q0 43 32 75t76 32zm213-435L918 0H47l195 995h870zM936 856H362L223 141h574z"/><glyph glyph-name="ograve.ss10" horiz-adv-x="1159" d="M375 1405h188l223-289H641zm737-410L918 0H47l195 995h870zM936 856H362L223 141h574z"/><glyph glyph-name="ohungarumlaut.ss10" horiz-adv-x="1159" d="m602 1116 199 303H649l-200-303h153zm320 0 196 303H969l-199-303h152zm190-121L918 0H47l195 995h870zM936 856H362L223 141h574z"/><glyph glyph-name="omacron.ss10" horiz-adv-x="1159" d="m377 1143 24 123h656l-25-123H377zm735-148L918 0H47l195 995h870zM936 856H362L223 141h574z"/><glyph glyph-name="oslash.ss10" horiz-adv-x="1320" d="M1184 944 999 0H215L102-111 39-43l100 98 185 940h778l112 111 68-66zm-742-88L324 236l634 620H442zm-82-715h519l118 623z"/><glyph glyph-name="otilde.ss10" horiz-adv-x="1159" d="M356 1157q26 100 91.5 160.5T588 1378q43 0 85.5-18.5t70-40.5 58-40.5T854 1260q44 0 80.5 33.5T981 1378l119-28q-27-99-94-159.5T864 1130q-44 0-85.5 18.5t-68.5 41-58 41-56 18.5q-43 0-78.5-34.5T475 1128zm756-162L918 0H47l195 995h870zM936 856H362L223 141h574z"/><glyph glyph-name="oe.ss10" horiz-adv-x="1992" d="M1059 471v-20q-2-146 92-241t240-95q110 0 200.5 52T1714 313h160q-44-151-182.5-242T1378-20q-139 0-249 68T963 233L918 0H47l195 995h870l-29-143q78 78 180.5 121t217.5 43q193 0 314.5-119.5T1917 586q0-41-16-115h-842zm418 412q-140 0-246-79t-148-208h680q-3 134-79.5 210.5T1477 883zM797 141l139 715H362L223 141h574z"/><glyph glyph-name="r.ss11" horiz-adv-x="714" d="m760 995-27-139H362L195 0H47l195 995h518z"/><glyph glyph-name="racute.ss11" horiz-adv-x="714" d="m838 1405-267-289H426l223 289h189zm-78-410-27-139H362L195 0H47l195 995h518z"/><glyph glyph-name="rcaron.ss11" horiz-adv-x="714" d="m434 1116-129 289h129l98-191 170 191h140l-240-289H434zM47 0l195 995h518l-27-139H362L195 0H47z"/><glyph glyph-name="uni0157.ss11" horiz-adv-x="714" d="m760 995-27-139H362L195 0H47l195 995h518zM221-150-45-438h-148L31-150h190z"/><glyph glyph-name="s.ss12" horiz-adv-x="892" d="M362 0H16l27 141h350q218 0 246 144 8 42-12 71.5t-59 45-90 30.5-104.5 25.5-103 32.5-86 50.5-52 79.5-1.5 119q23 120 127.5 189T526 997h332l-27-143H483q-186 0-209-123-7-37 8-64t46.5-42.5 73.5-29 89.5-23 94-24.5 87-34 69-51.5T781 386t-1-110Q755 148 645 74T362 0z"/><glyph glyph-name="sacute.ss12" horiz-adv-x="892" d="m922 1405-267-289H510l223 289h189zM362 0H16l27 141h350q218 0 246 144 8 42-12 71.5t-59 45-90 30.5-104.5 25.5-103 32.5-86 50.5-52 79.5-1.5 119q23 120 127.5 189T526 997h332l-27-143H483q-186 0-209-123-7-37 8-64t46.5-42.5 73.5-29 89.5-23 94-24.5 87-34 69-51.5T781 386t-1-110Q755 148 645 74T362 0z"/><glyph glyph-name="scaron.ss12" horiz-adv-x="892" d="m520 1116-129 289h129l98-191 170 191h140l-240-289H520zM131 739q23 120 127.5 189T526 997h332l-27-143H483q-186 0-209-123-7-37 8-64t46.5-42.5 73.5-29 89.5-23 94-24.5 87-34 69-51.5T781 386t-1-110Q755 148 645 74T362 0H16l27 141h350q218 0 246 144 8 42-12 71.5t-59 45-90 30.5-104.5 25.5-103 32.5-86 50.5-52 79.5-1.5 119z"/><glyph glyph-name="scedilla.ss12" horiz-adv-x="892" d="M483 854q-186 0-209-123-7-37 8-64t46.5-42.5 73.5-29 89.5-23 94-24.5 87-34 69-51.5T781 386t-1-110Q756 158 661 85T414 2q52-64 68-130t-2.5-121-60.5-98.5-108.5-67T166-436l-29 108q85 6 143.5 35.5t81 74 11.5 102T315 0H16l27 141h350q218 0 246 144 8 42-12 71.5t-59 45-90 30.5-104.5 25.5-103 32.5-86 50.5-52 79.5-1.5 119q23 120 127.5 189T526 997h332l-27-143H483z"/><glyph glyph-name="scircumflex.ss12" horiz-adv-x="892" d="m631 1321-170-191H322l241 289h166l131-289H729zM131 739q23 120 127.5 189T526 997h332l-27-143H483q-186 0-209-123-7-37 8-64t46.5-42.5 73.5-29 89.5-23 94-24.5 87-34 69-51.5T781 386t-1-110Q755 148 645 74T362 0H16l27 141h350q218 0 246 144 8 42-12 71.5t-59 45-90 30.5-104.5 25.5-103 32.5-86 50.5-52 79.5-1.5 119z"/><glyph glyph-name="uni0219.ss12" horiz-adv-x="892" d="M362 0H16l27 141h350q218 0 246 144 8 42-12 71.5t-59 45-90 30.5-104.5 25.5-103 32.5-86 50.5-52 79.5-1.5 119q23 120 127.5 189T526 997h332l-27-143H483q-186 0-209-123-7-37 8-64t46.5-42.5 73.5-29 89.5-23 94-24.5 87-34 69-51.5T781 386t-1-110Q755 148 645 74T362 0zm95-150L190-438H43l223 288h191z"/><glyph glyph-name="t.ss13" horiz-adv-x="714" d="m766 995-27-139H494L328 0H178l166 856H100l27 139h244l53 273h149l-53-273h246z"/><glyph glyph-name="tbar.ss13" horiz-adv-x="714" d="M739 856H494l-62-321h178l-16-99H412L328 0H178l84 436H82l16 99h185l61 321H100l27 139h244l53 273h149l-53-273h246z"/><glyph glyph-name="tcaron.ss13" horiz-adv-x="714" d="M797 1536h159l-159-420H672zm-224-268-53-273h246l-27-139H494L328 0H178l166 856H100l27 139h244l53 273h149z"/><glyph glyph-name="uni0163.ss13" horiz-adv-x="714" d="M739 856H494L330 12q55-65 73.5-132.5t1-124-59.5-101T236-414 90-436L61-328q69 5 120.5 25t80 51.5 37 71.5-7 86.5T238 0h-60l166 856H100l27 139h244l53 273h149l-53-273h246z"/><glyph glyph-name="uni021B.ss13" horiz-adv-x="714" d="m766 995-27-139H494L328 0H178l166 856H100l27 139h244l53 273h149l-53-273h246zM-51-438l223 288h190L96-438H-51z"/><glyph glyph-name="u.ss14" horiz-adv-x="1200" d="m1151 995-107-542q-42-217-178.5-345T532-20q-209 0-320.5 136T141 471l103 524h149L289 459q-30-155 40.5-246.5T537 121q140 0 236 93t126 249l102 532h150z"/><glyph glyph-name="uacute.ss14" horiz-adv-x="1200" d="m1042 1405-266-289H631l223 289h188zm109-410-107-542q-42-217-178.5-345T532-20q-209 0-320.5 136T141 471l103 524h149L289 459q-30-155 40.5-246.5T537 121q140 0 236 93t126 249l102 532h150z"/><glyph glyph-name="ucircumflex.ss14" horiz-adv-x="1200" d="m752 1321-170-191H442l242 289h166l131-289H850zm249-326h150l-107-542q-42-217-178.5-345T532-20q-209 0-320.5 136T141 471l103 524h149L289 459q-30-155 40.5-246.5T537 121q140 0 236 93t126 249z"/><glyph glyph-name="udieresis.ss14" horiz-adv-x="1200" d="M604 1430q43 0 76-32t33-75q0-44-33-76.5t-76-32.5q-44 0-76 32.5t-32 76.5q0 43 32 75t76 32zm318 0q43 0 75.5-32t32.5-75q0-44-32.5-76.5T922 1214q-44 0-76.5 32.5T813 1323q0 43 32.5 75t76.5 32zm229-435-107-542q-42-217-178.5-345T532-20q-209 0-320.5 136T141 471l103 524h149L289 459q-30-155 40.5-246.5T537 121q140 0 236 93t126 249l102 532h150z"/><glyph glyph-name="ugrave.ss14" horiz-adv-x="1200" d="M397 1405h189l223-289H664zm754-410-107-542q-42-217-178.5-345T532-20q-209 0-320.5 136T141 471l103 524h149L289 459q-30-155 40.5-246.5T537 121q140 0 236 93t126 249l102 532h150z"/><glyph glyph-name="uhungarumlaut.ss14" horiz-adv-x="1200" d="m625 1116 198 303H672l-201-303h154zm319 0 197 303H991l-198-303h151zm207-121-107-542q-42-217-178.5-345T532-20q-209 0-320.5 136T141 471l103 524h149L289 459q-30-155 40.5-246.5T537 121q140 0 236 93t126 249l102 532h150z"/><glyph glyph-name="umacron.ss14" horiz-adv-x="1200" d="m399 1143 25 123h655l-24-123H399zm752-148-107-542q-42-217-178.5-345T532-20q-209 0-320.5 136T141 471l103 524h149L289 459q-30-155 40.5-246.5T537 121q140 0 236 93t126 249l102 532h150z"/><glyph glyph-name="uogonek.ss14" horiz-adv-x="1200" d="M1001 995h150l-107-542q-37-194-151-318T612-14q-77-31-125.5-79T428-199q-8-39 12.5-64.5T506-289q59 0 115 27l32-100q-80-41-180-41-96 0-145.5 55T295-209q21 109 137 199-164 31-245.5 161T141 471l103 524h149L289 459q-30-155 40.5-246.5T537 121q140 0 236 93t126 249z"/><glyph glyph-name="uring.ss14" horiz-adv-x="1200" d="M739 1112q-106 0-171.5 66.5T508 1346q4 101 77 168t179 67 172-67 61-168q-6-101-79-167.5T739 1112zm4 94q63 0 107 40t47 100-35.5 100.5T760 1487t-107-40.5-47-100.5 35.5-100 101.5-40zm408-211-107-542q-42-217-178.5-345T532-20q-209 0-320.5 136T141 471l103 524h149L289 459q-30-155 40.5-246.5T537 121q140 0 236 93t126 249l102 532h150z"/><glyph glyph-name="utilde.ss14" horiz-adv-x="1200" d="M377 1157q26 101 91 161t140 60q43 0 85.5-18.5t70-40.5 58-40.5T874 1260q44 0 80.5 33.5t46.5 84.5l119-28q-27-99-93.5-159.5T885 1130q-44 0-86 18.5t-69 41-58 41-56 18.5q-43 0-78-34.5t-42-86.5zm774-162-107-542q-42-217-178.5-345T532-20q-209 0-320.5 136T141 471l103 524h149L289 459q-30-155 40.5-246.5T537 121q140 0 236 93t126 249l102 532h150z"/><glyph glyph-name="u.ss15" horiz-adv-x="1159" d="m47 0 195 995h147L223 139h574l166 856h149L918 0H47z"/><glyph glyph-name="uacute.ss15" horiz-adv-x="1159" d="m1022 1405-266-289H610l224 289h188zM47 0l195 995h147L223 139h574l166 856h149L918 0H47z"/><glyph glyph-name="ucircumflex.ss15" horiz-adv-x="1159" d="m731 1321-170-191H422l242 289h165l132-289H829zm232-326h149L918 0H47l195 995h147L223 139h574z"/><glyph glyph-name="udieresis.ss15" horiz-adv-x="1159" d="M584 1430q43 0 75.5-32t32.5-75q0-44-32.5-76.5T584 1214q-44 0-76.5 32.5T475 1323q0 43 32.5 75t76.5 32zm317 0q43 0 76-32t33-75q0-44-33-76.5t-76-32.5q-44 0-76 32.5t-32 76.5q0 43 32 75t76 32zM47 0l195 995h147L223 139h574l166 856h149L918 0H47z"/><glyph glyph-name="ugrave.ss15" horiz-adv-x="1159" d="M377 1405h188l223-289H643zM47 0l195 995h147L223 139h574l166 856h149L918 0H47z"/><glyph glyph-name="uhungarumlaut.ss15" horiz-adv-x="1159" d="m602 1116 199 303H649l-200-303h153zm320 0 196 303H969l-199-303h152zM47 0l195 995h147L223 139h574l166 856h149L918 0H47z"/><glyph glyph-name="umacron.ss15" horiz-adv-x="1159" d="m379 1143 24 123h656l-25-123H379zM47 0l195 995h147L223 139h574l166 856h149L918 0H47z"/><glyph glyph-name="uogonek.ss15" horiz-adv-x="1159" d="M963 995h149L918 0H664q-95-30-154.5-82T438-199q-8-39 12.5-64.5T516-289q59 0 115 27l33-100q-80-41-181-41-96 0-145.5 55T305-209Q329-88 459 0H47l195 995h147L223 139h574z"/><glyph glyph-name="uring.ss15" horiz-adv-x="1159" d="M719 1112q-106 0-172 66.5T487 1346q4 101 77 168t179 67 172.5-67 61.5-168q-6-101-79-167.5T719 1112zm4 94q63 0 107 40t47 100-36 100.5-102 40.5-106.5-40.5T586 1346t35.5-100 101.5-40zM47 0l195 995h147L223 139h574l166 856h149L918 0H47z"/><glyph glyph-name="utilde.ss15" horiz-adv-x="1159" d="M356 1157q26 100 91.5 160.5T588 1378q43 0 85.5-18.5t70-40.5 58-40.5T854 1260q44 0 80.5 33.5T981 1378l119-28q-27-99-94-159.5T864 1130q-44 0-85.5 18.5t-68.5 41-58 41-56 18.5q-43 0-78.5-34.5T475 1128zM47 0l195 995h147L223 139h574l166 856h149L918 0H47z"/><glyph glyph-name="uni00CD_uni00A40301" horiz-adv-x="1095" d="m764 1843-266-289H352l223 289h189zm633 0-267-289H985l223 289h189zM342 1434h156L219 0H63zM453 129q10-2 36-2 230 0 287 295l197 1012h155L926 387Q887 192 775 87T500-18q-51 0-76 4z"/><glyph glyph-name="T_h.dlig" horiz-adv-x="2344" d="M1870 1016q197 0 290.5-122t53.5-325L2103 0h-149l110 563q28 143-37 227t-198 84q-138 0-237.5-80.5T1458 578L1346 0h-150l250 1286H838L588 0H432l250 1286H213l29 148h1382l-119-615q66 94 160.5 145.5T1870 1016z"/><glyph glyph-name="T_i.dlig" horiz-adv-x="1476" d="M1309 1286H838L588 0H432l250 1286H213l29 148h1093zm-29-291h150L1235 0h-148z"/><glyph glyph-name="f_f.dlig" horiz-adv-x="1331" d="M1374 1319q-210 0-252-205l-22-119h280l-26-139h-281L907 0H758l166 856H463L297 0H147l166 856H117l26 139h199l23 121q33 169 137.5 255.5T762 1458q51 0 96-10l-27-137q-27 8-67 8-211 0-250-205l-22-119h460l23 121q33 169 137.5 255.5T1372 1458q51 0 96-10l-26-137q-27 8-68 8z"/><glyph glyph-name="f_f_i.dlig" horiz-adv-x="1738" d="M1692 995 1499 0h-149l168 856h-445L907 0H758l166 856H463L297 0H147l166 856H117l26 139h199l23 121q33 169 137.5 255.5T762 1458q51 0 96-10l-27-137q-27 8-67 8-211 0-250-205l-22-119h460l23 121q33 169 137.5 255.5T1372 1458q51 0 96-10l-26-137q-27 8-68 8-210 0-252-205l-22-119h592z"/><glyph glyph-name="f_f_t.dlig" horiz-adv-x="1943" d="m1667 856-102-526q-39-207 170-207 44 0 71 8L1782 0q-48-10-101-10-155 0-226 87t-38 257l103 522h-447L907 0H758l166 856H463L297 0H147l166 856H117l26 139h199l23 121q33 169 137.5 255.5T762 1458q51 0 96-10l-27-137q-27 8-67 8-211 0-250-205l-22-119h460l23 121q33 169 137.5 255.5T1372 1458q51 0 96-10l-26-137q-27 8-68 8-210 0-252-205l-22-119h446l53 275h150l-53-275h278l-26-139h-281z"/><glyph glyph-name="f_i.dlig" horiz-adv-x="1128" d="M1081 995 889 0H739l168 856H463L297 0H147l166 856H117l26 139h199l23 121q33 169 137.5 255.5T762 1458q51 0 96-10l-27-137q-27 8-67 8-211 0-250-205l-22-119h589z"/><glyph glyph-name="f_l.dlig" horiz-adv-x="1128" d="M1018 1434h149L889 0H739l166 856H463L297 0H147l166 856H117l26 139h199l23 121q33 169 137.5 255.5T762 1458q51 0 96-10l-27-137q-27 8-67 8-211 0-250-205l-22-119h440z"/><glyph glyph-name="f_t.dlig" horiz-adv-x="1333" d="M1057 856 954 330q-39-207 170-207 45 0 72 8L1171 0q-48-10-100-10-155 0-226 87t-38 257l102 522H463L297 0H147l166 856H117l26 139h199l23 121q33 169 137.5 255.5T762 1458q51 0 96-10l-27-137q-27 8-67 8-211 0-250-205l-22-119h444l53 275h150l-54-275h279l-27-139h-280z"/><glyph glyph-name="A.sinf" horiz-adv-x="808" d="m586 0-41 203H147L29 0H-82l512 860h92L698 0H586zM201 293h325l-82 412z"/><glyph glyph-name="B.sinf" horiz-adv-x="724" d="m-4 0 168 860h301q102 0 162-64t43-153q-12-66-65-121t-116-67q79-9 120-71t26-146Q615 138 527.5 69T336 0H-4zm199 487h194q61 0 111.5 41T561 629q10 55-25 94t-94 39H248zM119 98h227q67 0 119.5 44.5T530 252q13 64-23 109t-99 45H178z"/><glyph glyph-name="C.sinf" horiz-adv-x="937" d="M387-12q-181 0-279 128T45 432q37 186 185 313t329 127q145 0 239.5-82.5T893 580H778q-7 86-73.5 139T539 772q-135 0-247-98.5T152 432q-26-145 47.5-244.5T408 88q100 0 187.5 57T723 293h115Q785 158 660 73T387-12z"/><glyph glyph-name="D.sinf" horiz-adv-x="845" d="M434 860q119 0 205-54.5T761.5 653 774 434q-35-185-181-309.5T266 0H-4l168 860h270zM293 98q132 0 239.5 96.5T668 434q28 142-43 235t-205 93H248L121 98h172z"/><glyph glyph-name="E.sinf" horiz-adv-x="645" d="M164 860h485l-18-98H248l-47-254h340l-21-100H180L121 98h381L481 0H-4z"/><glyph glyph-name="F.sinf" horiz-adv-x="624" d="M164 860h485l-18-98H248l-51-266h340l-19-99H178L100 0H-4z"/><glyph glyph-name="G.sinf" horiz-adv-x="956" d="M887 455q0-24-8-56-34-178-173-294.5T391-12q-184 0-282.5 128T45 432q37 186 186 313t332 127q134 0 233-78.5T903 604H786q-13 72-83 120t-160 48q-136 0-249.5-98.5T152 432q-28-146 48.5-245T418 88q124 0 222.5 80T764 362v5H479l17 88h391z"/><glyph glyph-name="H.sinf" horiz-adv-x="862" d="M737 860h105L674 0H569l78 397H178L100 0H-4l168 860h104l-71-364h469z"/><glyph glyph-name="I.sinf" horiz-adv-x="288" d="M164 860h104L100 0H-4z"/><glyph glyph-name="J.sinf" horiz-adv-x="374" d="M-51 88h22q134 0 168 168l117 604h104L238 233q-22-116-90.5-179.5T-20-10q-36 0-50 2z"/><glyph glyph-name="K.sinf" horiz-adv-x="761" d="M772 860 299 451 641 0H502L182 428 98 0H-4l168 860h102l-76-389 449 389h133z"/><glyph glyph-name="L.sinf" horiz-adv-x="671" d="M164 860h104L121 98h430L530 0H-4z"/><glyph glyph-name="M.sinf" horiz-adv-x="1058" d="m-4 0 168 860h123l182-706 461 706h106L868 0H764l127 651L469 0h-78L227 651 100 0H-4z"/><glyph glyph-name="N.sinf" horiz-adv-x="851" d="M164 860h96l334-665 131 665h104L662 0h-95L231 666 100 0H-4z"/><glyph glyph-name="O.sinf" horiz-adv-x="985" d="M565 872q184 0 284.5-127T913 432q-23-123-99.5-225t-188-160.5T393-12q-183 0-283 128T45 432q37 186 187 313t333 127zm-20-100q-138 0-251.5-98.5T152 432q-26-145 49-244.5T414 88t251.5 99.5T807 432q28 143-48 241.5T545 772z"/><glyph glyph-name="P.sinf" horiz-adv-x="724" d="M496 860q109 0 169-71.5T705 610q-22-108-110.5-180T395 358H170L100 0H-4l168 860h332zm102-250q12 63-23.5 107.5T475 762H250l-60-305h226q65 0 117.5 44.5T598 610z"/><glyph glyph-name="Q.sinf" horiz-adv-x="985" d="M913 432q-35-185-178-309L811 0H700l-41 66Q532-12 393-12q-183 0-283 128T45 432q37 186 187 313t333 127q184 0 284.5-127T913 432zM608 145 449 397h112l121-192q101 95 125 227 28 143-48 241.5T545 772t-251.5-98.5T152 432q-26-145 49-244.5T414 88q103 0 194 57z"/><glyph glyph-name="R.sinf" horiz-adv-x="751" d="M686 614q-18-95-83-159.5T446 371L621 0H496L330 365H172L100 0H-4l168 860h313q108 0 168.5-71T686 614zm-106-4q12 65-25 107.5T449 760H246l-58-305h201q70 0 124.5 44T580 610z"/><glyph glyph-name="S.sinf" horiz-adv-x="731" d="M274-12Q139-12 66 67.5T16 268h103q-15-79 34-130.5T293 86q86 0 150 42t77 108q8 42-7.5 72.5T465 355t-73.5 30-86.5 24-86 28-71 41-43.5 65-2.5 98q19 100 112.5 165.5T432 872q134 0 197.5-73T672 618H565q11 68-32.5 112T410 774q-80 0-137.5-37.5T205 641q-8-44 14-72.5t63-44 92-27.5 100.5-28.5 88.5-42 57-73.5 5-117Q604 132 505 60T274-12z"/><glyph glyph-name="T.sinf" horiz-adv-x="729" d="m766 860-21-98H471L322 0H215l150 762H86l20 98h660z"/><glyph glyph-name="U.sinf" horiz-adv-x="843" d="M322-12q-140 0-216.5 96T57 324l107 536h104L164 324q-20-101 30.5-168.5T342 88q96 0 173 67t97 169l107 536h104L717 324Q689 179 576.5 83.5T322-12z"/><glyph glyph-name="V.sinf" horiz-adv-x="782" d="M92 860h111l123-700 397 700h108L338 0h-88z"/><glyph glyph-name="W.sinf" horiz-adv-x="1249" d="M1190 860h110L846 0h-90l-97 668L303 0h-90L92 860h111l88-694 368 694h80l92-694z"/><glyph glyph-name="X.sinf" horiz-adv-x="755" d="M786 860 430 446 639 0H514L348 352 45 0H-76l381 444-194 416h125l151-321 277 321h122z"/><glyph glyph-name="Y.sinf" horiz-adv-x="772" d="M92 860h125l170-373 313 373h123L418 385 344 0H240l73 385z"/><glyph glyph-name="Z.sinf" horiz-adv-x="718" d="M135 860h606l-14-74L96 98h502L580 0H-61l14 74 635 688H115z"/><glyph glyph-name="a.sinf" horiz-adv-x="761" d="M598 598h100L582 0h-99l25 133Q412-12 244-12 122-12 53.5 79T10 299q26 130 130 220.5T367 610q80 0 132.5-37T573 469zM285 84q92 0 164.5 61T541 299v2q19 94-30.5 154.5T367 516q-91 0-166.5-63T106 299q-17-91 35-153t144-62z"/><glyph glyph-name="b.sinf" horiz-adv-x="761" d="M442 610q122 0 190-90.5T674 299Q649 171 546 79.5T319-12q-82 0-134.5 37.5T113 133L86 0H-14l168 860h100l-78-395q46 70 114.5 107.5T442 610zm136-311q19 90-32.5 153.5T403 516q-86 0-157-54.5T150 322l-11-46q-8-85 42-138.5T319 84q91 0 166.5 62.5T578 299z"/><glyph glyph-name="c.sinf" horiz-adv-x="686" d="M258-12Q129-12 57 77.5T10 299q26 131 133.5 221T381 610q103 0 170.5-60.5T618 397H516q-4 51-48.5 84T360 514q-88 0-160-62t-91-153q-17-91 32-153t138-62q63 0 119 34t79 89h103q-32-96-124-157.5T258-12z"/><glyph glyph-name="d.sinf" horiz-adv-x="761" d="M651 860h99L582 0h-99l27 133Q463 64 394.5 26T244-12Q122-12 53.5 79T10 299q26 130 130 220.5T367 610q82 0 134.5-37.5T573 465zM285 84q92 0 164.5 61T541 299q19 94-30.5 155.5T367 516q-91 0-166.5-63T106 299q-17-91 35-153t144-62z"/><glyph glyph-name="e.sinf" horiz-adv-x="690" d="M375 610q122 0 189-82.5T608 324q-6-26-8-35H98q-15-94 33.5-155.5T270 72q71 0 127.5 32t79.5 86h98Q540 98 452 43T256-12Q127-12 56.5 78T12 303q25 129 131 218t232 89zm135-252q9 72-35.5 121T356 528q-75 0-139-46t-98-124h391z"/><glyph glyph-name="f.sinf" horiz-adv-x="438" d="M424 784q-124 0-148-120l-12-66h166l-18-94H246L150 0H49l98 504H29l18 94h119l12 68q20 103 85.5 157T424 877q31 0 59-7l-18-92q-15 6-41 6z"/><glyph glyph-name="g.sinf" horiz-adv-x="761" d="m596 70-2-9-2-12-6-29q-24-124-121.5-199T236-254q-51 0-97.5 12.5t-85 37-57 66.5T-14-41h98q-9-57 39-93t125-36q87 0 154.5 51.5T485 14l7 35 18 92Q464 74 395.5 37T246 0Q123 0 55 88.5T10 305q26 128 130 216.5T367 610q80 0 132.5-37T573 469l25 129h100zM285 90q93 0 166 61t90 154q19 92-30.5 153.5T369 520q-91 0-167.5-63T106 305q-15-90 37-152.5T285 90z"/><glyph glyph-name="h.sinf" horiz-adv-x="716" d="M403 610q117 0 170.5-71.5T602 344L537 0H436l66 332q15 83-22.5 132.5T365 514q-80 0-139-49.5T152 332L86 0H-14l168 860h100l-74-375q40 59 98 92t125 33z"/><glyph glyph-name="i.sinf" horiz-adv-x="268" d="M205 862q28 0 46-20.5t13-46.5q-6-29-32-50.5T178 723t-44.5 21.5T123 795q5 27 29 47t53 20zM104 598h99L88 0H-12z"/><glyph glyph-name="j.sinf" horiz-adv-x="266" d="M203 862q28 0 45-20.5t12-46.5q-6-29-31-50.5T178 723q-29 0-46 21.5T121 795q5 26 29.5 46.5T203 862zM-139-154h16q81 0 103 117l122 635h101L78-45Q59-140 5.5-193T-131-246h-27z"/><glyph glyph-name="k.sinf" horiz-adv-x="626" d="M606 598 250 311 510 0H377L143 291 86 0H-14l168 860h100L152 330l327 268h127z"/><glyph glyph-name="l.sinf" horiz-adv-x="266" d="M254 860 86 0H-14l168 860h100z"/><glyph glyph-name="m.sinf" horiz-adv-x="1107" d="M803 610q111 0 163.5-67.5T997 360L928 0H825l66 340q17 81-16 127.5T768 514q-66 0-122.5-43.5T573 340l-2 6L506 0h-98l65 340q15 82-18.5 128T348 514q-61 0-115-38t-77-118L86 0H-14l116 598h101l-19-98q40 57 97 83.5T397 610q149 0 176-125 37 59 100.5 92T803 610z"/><glyph glyph-name="n.sinf" horiz-adv-x="716" d="M403 610q117 0 170.5-71.5T602 344L537 0H436l66 332q15 83-22.5 132.5T365 514q-80 0-139-49.5T152 332L86 0H-14l116 598h101l-23-113q40 59 98 92t125 33z"/><glyph glyph-name="o.sinf" horiz-adv-x="716" d="M381 610q129 0 201.5-90.5T629 299Q604 168 496.5 78T258-12Q129-12 57 77.5T10 299q26 131 133.5 221T381 610zm-21-96q-88 0-160-62t-91-153q-17-91 32-153t138-62q88 0 161 62t90 153q19 92-30.5 153.5T360 514z"/><glyph glyph-name="p.sinf" horiz-adv-x="761" d="M442 610q123 0 190.5-91T674 299Q649 169 545.5 78.5T319-12q-82 0-134.5 37.5T113 133L43-221H-57l159 819h101l-27-133q46 70 114.5 107.5T442 610zm136-311q19 90-32.5 153.5T403 516q-86 0-157-54.5T150 322l-11-48q-8-84 42.5-137T319 84q91 0 166.5 62.5T578 299z"/><glyph glyph-name="q.sinf" horiz-adv-x="761" d="M598 598h100L539-221H438l68 350Q408-12 244-12 122-12 53.5 78.5T10 299q26 129 130 220t227 91q80 0 132.5-37T573 469zM285 84q87 0 157 55t95 140l8 43q9 85-40.5 139.5T367 516q-91 0-166.5-63T106 299q-17-91 35-153t144-62z"/><glyph glyph-name="r.sinf" horiz-adv-x="434" d="M373 610q21 0 53-8l-18-92q-20 10-58 10-68 0-124.5-49T154 346L86 0H-14l116 598h101l-19-92q78 104 189 104z"/><glyph glyph-name="s.sinf" horiz-adv-x="565" d="M186-12Q83-12 26 39t-51 139h95q-5-47 30-77.5T195 70q61 0 104 28t51 72q6 29-5.5 49t-35 29.5T255 266t-64 13-63.5 16.5-53 27-32 45.5-1.5 72q15 74 84.5 122T291 610q90 0 145-47t49-125h-98q3 40-29.5 66T274 530q-54 0-91.5-23.5T137 446q-6-28 6-46.5t36-27 55-15.5 64-12 63-16.5 52-29 31-49.5 0-78q-15-79-88.5-131.5T186-12z"/><glyph glyph-name="a.ss01.sinf" horiz-adv-x="622" d="M328 610q115 0 168-64t32-171L455 0h-95l21 104Q298-12 152-12 66-12 21.5 37T-8 160Q9 255 98 303.5T332 352h96l6 27q13 67-21.5 108T309 528q-60 0-110.5-35.5T135 403H47q22 87 104 147t177 60zM186 68q75 0 135.5 43T403 217l13 70h-99q-103 0-164-30.5T82 168q-9-45 19-72.5T186 68z"/><glyph glyph-name="a.ss02.sinf" horiz-adv-x="632" d="M109 598h460L453 0h-99l21 109Q291-12 143-12 58-12 13.5 37.5T-16 160Q2 255 91 303.5T324 352h98l31 160H92zm290-362 11 51H309q-103 0-164-30.5T74 168q-9-45 19-72.5T178 68q82 0 145.5 49.5T399 236z"/><glyph glyph-name="c.ss03.sinf" horiz-adv-x="647" d="M526 504H184L104 96h342L428 0H-14l116 598h441z"/><glyph glyph-name="g.ss04.sinf" horiz-adv-x="757" d="M594 598h100L535-223H16l19 84h418l55 291Q463 84 395 46T246 8Q123 8 55 96T12 309q25 126 126.5 213.5T362 610q164 0 207-139zM281 96q92 0 164 58.5T537 303l4 12q14 91-35.5 149T365 522t-165.5-62T106 309q-17-89 34-151t141-62z"/><glyph glyph-name="h.ss05.sinf" horiz-adv-x="694" d="m254 860-51-262h426L514 0H414l98 504H184L86 0H-14l168 860h100z"/><glyph glyph-name="j.ss06.sinf" horiz-adv-x="268" d="M203 862q28 0 46-20.5t13-46.5q-6-29-31.5-50.5T178 723q-29 0-46 21.5T121 795q5 26 29.5 46.5T203 862zm0-264L43-223H-57l159 821h101z"/><glyph glyph-name="l.ss07.sinf" horiz-adv-x="317" d="M254 860 104 96h97L182 0H-14l168 860h100z"/><glyph glyph-name="m.ss08.sinf" horiz-adv-x="1075" d="M1012 598 895 0h-98l98 504H590L492 0H389l98 504H184L86 0H-14l116 598h910z"/><glyph glyph-name="n.ss09.sinf" horiz-adv-x="694" d="M629 598 514 0H414l98 504H184L86 0H-14l116 598h527z"/><glyph glyph-name="O.ss10.sinf" horiz-adv-x="933" d="M807 860h104L743 0H-4l168 860h104v-2h539v2zM657 98l129 660H248L119 98h538z"/><glyph glyph-name="o.ss10.sinf" horiz-adv-x="692" d="M629 598 512 0H-14l116 598h527zm-117-94H184L104 96h328z"/><glyph glyph-name="r.ss11.sinf" horiz-adv-x="430" d="m420 598-17-94H184L86 0H-14l116 598h318z"/><glyph glyph-name="S.ss12.sinf" horiz-adv-x="673" d="M385 860h248l-19-100H346q-67 0-114-31.5T176 647q-8-43 12-73t58-47 85.5-31.5 94-32.5 83-43.5T562 348t5-110Q546 132 459.5 66T238 0H-43l18 100h285q83 0 137 37.5T463 238q9 43-11 73t-58.5 47-86 30.5-94 31.5-83.5 42.5-54.5 70T70 641q20 98 107 158.5T385 860z"/><glyph glyph-name="s.ss12.sinf" horiz-adv-x="540" d="M180 0H-33l15 78h213q59 0 97.5 24t45.5 66q8 38-24 60.5T232 262t-99.5 26-79 51T35 434q13 76 78.5 120T279 598h200l-14-78H254q-48 0-80.5-20.5T135 444q-7-38 25-60.5t81.5-34 98-27T417 270t17-98q-15-79-82.5-125.5T180 0z"/><glyph glyph-name="t.ss13.sinf" horiz-adv-x="434" d="m426 598-18-94H264L166 0H66l98 504H20l17 94h145l31 162h100l-30-162h143z"/><glyph glyph-name="u.ss14.sinf" horiz-adv-x="716" d="m651 598-61-322Q565 147 473.5 67.5T260-12Q137-12 77.5 67.5T43 276l61 322h99l-62-322q-17-87 21-139.5T279 84t137 52.5T489 276l64 322h98z"/><glyph glyph-name="u.ss15.sinf" horiz-adv-x="694" d="M514 0H-14l116 598h101L104 96h328l98 502h99z"/><glyph glyph-name="D.ss16.sinf" horiz-adv-x="886" d="M477 860q180 0 277.5-121.5T817 434q-37-186-182.5-310T309 0H-63l18 96H57l150 764h270zm234-426q29 142-42 235t-206 93H291L162 98h172q133 0 241 96.5T711 434z"/><glyph glyph-name="J.ss17.sinf" horiz-adv-x="468" d="M449 860 281 0H-68l19 98h246l147 762h105z"/><glyph glyph-name="L.ss18.sinf" horiz-adv-x="712" d="M162 98h430L573 0H-63l18 96H57l150 764h104z"/><glyph glyph-name="t.sinf" horiz-adv-x="438" d="m236 504-58-297Q154 88 276 88q34 0 46 4L303 0q-27-6-61-6-95 0-139.5 54T78 207l57 297H18l17 94h119l32 164h101l-33-164h164l-17-94H236z"/><glyph glyph-name="G.titl.sinf" horiz-adv-x="1001" d="m965 455-19-88h-76Q830 204 693.5 96T391-12q-184 0-282.5 128T45 432q37 186 186 313t332 127q134 0 233-78.5T903 604H786q-13 72-83 120t-160 48q-136 0-249.5-98.5T152 432q-28-146 48.5-245T418 88q122 0 223 83.5T764 367H479l17 88h469z"/><glyph glyph-name="I.titl.sinf" horiz-adv-x="421" d="M410 766h-95L184 96h97L260 0H-33l19 96h94l131 670h-94l18 94h293z"/><glyph glyph-name="J.titl.sinf" horiz-adv-x="466" d="m451 860-19-94h-90L238 233q-22-116-90.5-179.5T-20-10q-36 0-50 2l19 96h22q134 0 168 168l99 510h-99l19 94h293z"/><glyph glyph-name="T.titl.sinf" horiz-adv-x="729" d="M745 762H471L340 96h92L414 0H121l18 96h94l132 666H86l20 98h660z"/><glyph glyph-name="Y.titl.sinf" horiz-adv-x="772" d="M418 385 362 96h95L438 0H145l19 96h94l55 289L92 860h125l170-373 313 373h123z"/><glyph glyph-name="u.sinf" horiz-adv-x="716" d="M553 598h98L537 0H436l23 113q-40-59-98-92T236-12Q120-12 66 59.5T37 254l65 344h101l-66-332q-15-83 23-132.5T276 84q80 0 138 50t73 132z"/><glyph glyph-name="v.sinf" horiz-adv-x="636" d="M635 598 266 0h-88L39 598h108l99-469 280 469h109z"/><glyph glyph-name="w.sinf" horiz-adv-x="966" d="M141 0 39 598h106l66-453 250 453h82l75-453 240 453h107L631 0h-82l-76 453L221 0h-80z"/><glyph glyph-name="x.sinf" horiz-adv-x="616" d="M594 598 330 309 494 0H375L254 227 47 0H-72l283 307L57 598h121l109-207 190 207h117z"/><glyph glyph-name="y.sinf" horiz-adv-x="632" d="M524 598h107L127-223H20L172 14 39 598h108l99-467z"/><glyph glyph-name="z.sinf" horiz-adv-x="616" d="m582 598-15-74L102 96h383L467 0H-57l12 74 469 430H66l18 94h498z"/><glyph glyph-name="zero.cv01" horiz-adv-x="1202" d="M793 1454q239 0 339.5-160.5T1176 840l-52-256q-57-294-213-449T516-20h-20q-239 0-339.5 160.5T113 594l49 256q59 295 215 449.5T772 1454h21zm-43-149q-166 0-278-118.5T317 846l-51-268q-44-221 20-335t230-114h21q167 0 279 118t155 341l51 268q44 221-20 335t-232 114h-20z"/><glyph glyph-name="two.cv01" horiz-adv-x="1259" d="m53 0 17 92q18 98 55.5 173T236 413t174.5 140T672 707q61 33 102.5 58t90.5 63 78 75 49 87 20 106q0 93-61.5 152T778 1307q-145 0-251-88.5T395 981H240q36 213 197 343t372 130q166 0 264-90.5t98-235.5q0-58-15-112.5t-37.5-97T1058 834t-73-72.5-86.5-64-88.5-55-91-50.5Q457 445 365.5 361T248 150h739L958 0H53z"/><glyph glyph-name="three.cv01" horiz-adv-x="1073" d="M733 772q106-12 182-96t76-201q0-129-78.5-244t-209-183T426-20Q226-20 117.5 91T37 379h145q-13-110 64.5-182T455 125q152 0 267.5 105T838 473q0 103-81 167.5T539 705h-60l23 120h55q146 0 248 84t102 203q0 86-62 140.5T680 1307q-122 0-212-69.5T350 1053H211q22 116 96 207.5T488 1402t225 50q155 0 253.5-87.5T1065 1143q0-138-100-245T733 772z"/><glyph glyph-name="four.cv01" horiz-adv-x="1214" d="M1145 1434 952 442h193l-27-147H924L866 0H711l57 295H2l21 117 915 1022h207zM223 442h574l159 820z"/><glyph glyph-name="seven.cv01" horiz-adv-x="1091" d="m1225 1434-21-111L309 0H133l877 1286H365l-41-219H168l70 367h987z"/><glyph glyph-name="zero.tf" horiz-adv-x="1234" d="M528-20q-248 0-349.5 200.5T143 727q66 339 238.5 533T791 1454q164 0 266.5-91.5t131-257T1174 709q-65-339-237-534T528-20zm15 149q170 0 295.5 156T1018 727q52 281-11 429.5T774 1305t-295.5-155.5T299 709q-52-282 11.5-431T543 129z"/><glyph glyph-name="one.tf" horiz-adv-x="1234" d="M635 147h360L967 0H70l30 147h381l209 1074-383-283 33 190 432 306h113z"/><glyph glyph-name="two.tf" horiz-adv-x="1234" d="m102 0 21 115 653 553q141 117 210 197t85 159q23 117-51 199t-197 82q-146 0-245-86.5T451 981H293q36 219 188.5 346T836 1454q128 0 226.5-58t144-161 20.5-227q-20-105-103-210T889 575L375 150h700L1047 0H102z"/><glyph glyph-name="three.tf" horiz-adv-x="1234" d="M545-20Q350-20 230 85.5T123 358h153q-2-102 75.5-165.5T559 129q145 0 250.5 83.5T946 436q18 83-8.5 150.5t-87.5 105-148 47T512 715l20 108 506 463H340l27 148h917l-20-109-537-483q125 16 221-36.5T1086.5 651t19.5-225q-40-204-192-325T545-20z"/><glyph glyph-name="four.tf" horiz-adv-x="1234" d="m1153 465-27-143H932L868 0H713l63 322H51l19 108 723 1004h178L270 465h533l96 489h156l-97-489h195z"/><glyph glyph-name="five.tf" horiz-adv-x="1234" d="M539-20q-123 0-222 46T164 159.5 121 358h153q0-102 77.5-165.5T555 129q134 0 244 91.5T934 444q26 140-49.5 234T672 772q-83 0-159-26.5T387 670H252l215 764h727l-29-146H575L438 815q50 41 125.5 64.5T715 903q93 0 172.5-38T1018 763.5t72-150 2-179.5q-40-201-194-327.5T539-20z"/><glyph glyph-name="six.tf" horiz-adv-x="1234" d="M692 924q129 0 233-66t155.5-180 31.5-246q-29-197-178.5-324.5T584-20q-135 0-245.5 66t-167 181T135 475q8 68 50.5 161T299 813l522 621h183L528 881q81 43 164 43zm273-473q18 144-75.5 242T649 791q-141 0-246-95.5T283 463q-19-138 74-237t239-99q139 0 245.5 93.5T965 451z"/><glyph glyph-name="seven.tf" horiz-adv-x="1234" d="M330 1434h940l-21-111L365 0H188l867 1286H301z"/><glyph glyph-name="eight.tf" horiz-adv-x="1234" d="M543-18Q349-18 229 89T121 360q6 144 108 261.5T479 776q-77 30-124.5 108T313 1055q9 169 142.5 283T778 1452q172 0 277.5-95.5T1149 1114q-3-114-84-211T860 768q100-31 160.5-122.5T1075 438q-7-127-80.5-232t-193-164.5T543-18zm139 856q134 0 230.5 80.5T1010 1114q1 91-69 149t-177 58q-130 0-220.5-84.5T451 1040q-1-95 62-148.5T682 838zM557 119q153 0 264 100.5T934 457q2 107-73.5 174T659 698q-104 0-193.5-45t-143-122.5T268 362q-2-105 79-174t210-69z"/><glyph glyph-name="nine.tf" horiz-adv-x="1234" d="M791 1454q101 0 190.5-39.5t151-105.5 91.5-158.5 15-192.5q-10-68-52.5-160.5T1075 621L551 0H371l473 553q-81-43-164-43-129 0-232.5 66T293 755.5 262 1001q29 198 178.5 325.5T791 1454zm301-483q17 138-76.5 237T776 1307q-138 0-244.5-93.5T408 983q-18-144 76-242t239-98q141 0 246.5 95.5T1092 971z"/><glyph glyph-name="zero.tf.cv01" horiz-adv-x="1234" d="M809 1454q239 0 339.5-160.5T1192 840l-51-256q-57-293-213.5-448.5T532-20h-20q-239 0-339.5 160.5T129 594l49 256q59 295 215 449.5T788 1454h21zm-43-149q-166 0-277.5-118.5T334 846l-51-268q-44-221 19.5-335T532 129h21q167 0 279 118t155 341l51 268q44 221-20 335t-232 114h-20z"/><glyph glyph-name="two.tf.cv01" horiz-adv-x="1234" d="m92 0 19 92q18 98 55 173t110 148 174.5 140T713 707q61 33 101.5 57.5t90 63 79 75 49.5 87 20 106.5q0 93-61.5 152T819 1307q-145 0-252-89T436 981H281q36 213 197 343t372 130q166 0 263-90.5t97-235.5q0-59-15-113t-37.5-96.5-60-84.5-72.5-72.5-86-64-88.5-55T760 592q-137-77-213.5-125.5T411.5 366t-84-101T289 150h737L997 0H92z"/><glyph glyph-name="three.tf.cv01" horiz-adv-x="1234" d="M842 772q107-12 183.5-96t76.5-201q0-129-78.5-244t-209-183T537-20Q336-20 227.5 91T147 379h146q-13-110 64-182t208-72q151 0 267 105t116 243q0 103-81 167.5T649 705h-61l24 120h56q145 0 247.5 84t102.5 203q0 86-62.5 140.5T791 1307q-122 0-212-69.5T461 1053H319q22 115 97 207t182 142 225 50q155 0 254-87.5t99-221.5q0-138-100.5-245T842 772z"/><glyph glyph-name="four.tf.cv01" horiz-adv-x="1234" d="m1249 442-26-147h-197L969 0H813l57 295H106l19 117 915 1022h207l-192-992h194zm-921 0h571l158 815z"/><glyph glyph-name="seven.tf.cv01" horiz-adv-x="1234" d="m1307 1434-21-111L393 0H217l875 1286H449l-43-219H250l72 367h985z"/><glyph glyph-name="zero.tf.zero" horiz-adv-x="1234" d="M791 1454q248 0 349.5-200.5T1174 707q-65-338-237-532.5T528-20q-248 0-349.5 200.5T143 727q66 338 238.5 532.5T791 1454zM299 707q-29-162-20-285l735 715q-59 168-240 168-170 0-295.5-156T299 707zm719 20q28 155 22 283L303 293q63-164 240-164 170 0 295.5 156T1018 727z"/><glyph glyph-name="zero.zero" horiz-adv-x="1222" d="M786 1454q247 0 348-200.5t35-546.5q-66-339-237.5-533T522-20q-248 0-349.5 200.5T139 727q65 338 237 532.5T786 1454zM295 707q-30-166-21-285l736 715q-59 168-240 168-170 0-295.5-156T295 707zm719 20q29 159 20 283L299 293q59-164 240-164 170 0 295.5 156T1014 727z"/><glyph glyph-name="three.sinf" horiz-adv-x="778" d="m274 496 291 266H154l18 98h557l-14-72-312-280q100 10 162-43.5T627 322q0-134-106.5-234T272-12Q155-12 86.5 52T27 219h104q0-59 44-95t118-36q91 0 158 65.5T518 307q0 79-75 112.5T258 424z"/><glyph glyph-name="four.sinf" horiz-adv-x="729" d="m696 289-18-99H563L526 0H422l37 190H25l12 72 432 598h117L174 289h303l55 280h105l-55-280h114z"/><glyph glyph-name="five.sinf" horiz-adv-x="718" d="M270-12Q157-12 87 51T27 219h104q2-59 45-95t113-36q88 0 155.5 66.5T512 307q0 66-42.5 108T360 457q-105 0-165-60h-93l129 463h445l-19-98H307l-78-266q28 23 72.5 36t87.5 13q103 0 167.5-59.5T621 328q0-135-106.5-237.5T270-12z"/><glyph glyph-name="six.sinf" horiz-adv-x="673" d="M406 557q102 0 164.5-62.5T633 334q0-135-108-240.5T279-12q-105 0-172.5 67T39 221q0 125 117 266l303 373h119L307 532q59 25 99 25zM299 86q91 0 161 69t70 158q0 68-44 111t-113 43q-91 0-161.5-70T141 238q0-65 44-108.5T299 86z"/><glyph glyph-name="seven.sinf" horiz-adv-x="706" d="M109 860h567l-14-74L135 0H18l514 760H88z"/><glyph glyph-name="eight.sinf" horiz-adv-x="708" d="M283-10q-108 0-175 57T41 195q0 87 61.5 164T258 463q-47 18-73.5 59.5T158 614q0 103 88.5 179.5T455 870q96 0 154.5-50T668 690q0-73-50.5-137.5T492 463q60-19 95.5-67.5T623 283q0-118-101.5-205.5T283-10zm100 516q77 0 131.5 48.5T569 670q0 50-36 80t-97 30q-75 0-129.5-49T252 616q0-48 36-79t95-31zM301 82q91 0 157 58.5T524 281q0 60-43 96.5T367 414q-91 0-157.5-58T143 215q0-59 43.5-96T301 82z"/><glyph glyph-name="nine.sinf" horiz-adv-x="673" d="M393 872q105 0 174.5-66.5T637 639q0-68-38-142.5T518 373L215 0H94l275 328q-59-25-101-25-102 0-164.5 62.5T41 526q0 135 107.5 240.5T393 872zm-90-479q89 0 159 70.5T532 623q0 65-43.5 108T375 774q-91 0-162.5-69.5T141 547q0-65 45.5-109.5T303 393z"/><glyph glyph-name="zero.dnom" horiz-adv-x="768" d="M297-12q-116 0-179 78T55 283q0 159 56 295t151.5 215T469 872q118 0 181-77.5T713 578q0-119-33.5-228T590 162 457.5 35.5 297-12zm20 100q77 0 143 65t105 175.5T604 567q0 99-39 152t-114 53q-77 0-143.5-65t-106-175.5T162 293q0-100 40-152.5T317 88z"/><glyph glyph-name="zero.sinf" horiz-adv-x="768" d="M297-12q-116 0-179 78T55 283q0 159 56 295t151.5 215T469 872q118 0 181-77.5T713 578q0-119-33.5-228T590 162 457.5 35.5 297-12zm20 100q77 0 143 65t105 175.5T604 567q0 99-39 152t-114 53q-77 0-143.5-65t-106-175.5T162 293q0-100 40-152.5T317 88z"/><glyph glyph-name="one.sinf" horiz-adv-x="438" d="M418 860 250 0H145l142 717L55 551l25 127 262 182h76z"/><glyph glyph-name="two.sinf" horiz-adv-x="784" d="m47 0 14 78 388 321q87 73 130.5 133T623 649q0 54-38.5 88.5T485 772q-85 0-146.5-51.5T264 582H160q23 131 121 210.5T506 872q101 0 164-55.5T733 670q0-159-223-334L229 100h408L616 0H47z"/><glyph glyph-name="one.dnom" horiz-adv-x="423" d="M418 860 250 0H145l142 717L55 551l25 127 262 182h76z"/><glyph glyph-name="two.dnom" horiz-adv-x="612" d="m47 0 14 78 388 321q87 73 130.5 133T623 649q0 54-38.5 88.5T485 772q-85 0-146.5-51.5T264 582H160q23 131 121 210.5T506 872q101 0 164-55.5T733 670q0-159-223-334L229 100h408L616 0H47z"/><glyph glyph-name="three.dnom" horiz-adv-x="778" d="m274 496 291 266H154l18 98h557l-14-72-312-280q100 10 162-43.5T627 322q0-134-106.5-234T272-12Q155-12 86.5 52T27 219h104q0-59 44-95t118-36q91 0 158 65.5T518 307q0 79-75 112.5T258 424z"/><glyph glyph-name="four.dnom" horiz-adv-x="729" d="m696 289-18-99H563L526 0H422l37 190H25l12 72 432 598h117L174 289h303l55 280h105l-55-280h114z"/><glyph glyph-name="five.dnom" horiz-adv-x="638" d="M270-12Q157-12 87 51T27 219h104q2-59 45-95t113-36q88 0 155.5 66.5T512 307q0 66-42.5 108T360 457q-105 0-165-60h-93l129 463h445l-19-98H307l-78-266q28 23 72.5 36t87.5 13q103 0 167.5-59.5T621 328q0-135-106.5-237.5T270-12z"/><glyph glyph-name="six.dnom" horiz-adv-x="663" d="M406 557q102 0 164.5-62.5T633 334q0-135-108-240.5T279-12q-105 0-172.5 67T39 221q0 125 117 266l303 373h119L307 532q59 25 99 25zM299 86q91 0 161 69t70 158q0 68-44 111t-113 43q-91 0-161.5-70T141 238q0-65 44-108.5T299 86z"/><glyph glyph-name="seven.dnom" horiz-adv-x="706" d="M109 860h567l-14-74L135 0H18l514 760H88z"/><glyph glyph-name="eight.dnom" horiz-adv-x="708" d="M283-10q-108 0-175 57T41 195q0 87 61.5 164T258 463q-47 18-73.5 59.5T158 614q0 103 88.5 179.5T455 870q96 0 154.5-50T668 690q0-73-50.5-137.5T492 463q60-19 95.5-67.5T623 283q0-118-101.5-205.5T283-10zm100 516q77 0 131.5 48.5T569 670q0 50-36 80t-97 30q-75 0-129.5-49T252 616q0-48 36-79t95-31zM301 82q91 0 157 58.5T524 281q0 60-43 96.5T367 414q-91 0-157.5-58T143 215q0-59 43.5-96T301 82z"/><glyph glyph-name="nine.dnom" horiz-adv-x="673" d="M393 872q105 0 174.5-66.5T637 639q0-68-38-142.5T518 373L215 0H94l275 328q-59-25-101-25-102 0-164.5 62.5T41 526q0 135 107.5 240.5T393 872zm-90-479q89 0 159 70.5T532 623q0 65-43.5 108T375 774q-91 0-162.5-69.5T141 547q0-65 45.5-109.5T303 393z"/><glyph glyph-name="zero.numr" horiz-adv-x="768" d="M317 96q-116 0-178.5 78T76 391q0 159 56 295t151 215.5T489 981q117 0 180.5-78T733 686q0-119-33.5-228T610 270 477.5 143.5 317 96zm21 101q77 0 143 65t105 175.5T625 676q0 99-39.5 152T471 881q-77 0-143.5-65t-106-176T182 401q0-99 40.5-151.5T338 197z"/><glyph glyph-name="one.numr" horiz-adv-x="446" d="M510 1434 342 573H240l139 717-229-166 24 127 262 183h74z"/><glyph glyph-name="two.numr" horiz-adv-x="612" d="m158 573 14 78 387 322q87 73 130.5 133t43.5 117q0 54-38 88.5t-99 34.5q-84 0-146-52t-75-139H270q23 131 121 211t225 80q101 0 164.5-56t63.5-147q0-159-223-334L340 674h408l-21-101H158z"/><glyph glyph-name="three.numr" horiz-adv-x="778" d="m385 1069 291 266H266l19 99h557l-15-72-311-281q99 10 161-43.5T739 895q0-134-106-234T385 561q-117 0-186 64.5T139 793h103q0-59 44-95t117-36q91 0 158.5 65.5T629 881q0 79-74 112t-184 4z"/><glyph glyph-name="four.numr" horiz-adv-x="727" d="m807 862-19-98H674l-37-191H532l37 191H135l12 72 433 598h116L285 862h303l55 281h105l-56-281h115z"/><glyph glyph-name="five.numr" horiz-adv-x="638" d="M381 561q-113 0-183.5 63.5T137 793h105q2-59 44.5-95T399 662q88 0 156 66.5T623 881q0 66-42.5 107.5T471 1030q-107 0-166-59h-92l129 463h444l-18-99H418l-78-266q28 23 72.5 36t87.5 13q103 0 167-59.5T731 901q0-135-106-237.5T381 561z"/><glyph glyph-name="six.numr" horiz-adv-x="663" d="M516 1130q102 0 164.5-62.5T743 907q0-135-108-240.5T389 561q-105 0-172 67.5T150 795q0 126 116 266l303 373h119l-270-328q57 24 98 24zM410 659q91 0 161 69.5T641 887q0 67-44.5 110T483 1040q-91 0-161-70t-70-159q0-65 44-108.5T410 659z"/><glyph glyph-name="seven.numr" horiz-adv-x="706" d="M219 1434h569l-16-74-526-787H129l514 760H199z"/><glyph glyph-name="eight.numr" horiz-adv-x="708" d="M393 563q-108 0-174.5 57T152 768q0 87 61.5 164T369 1036q-47 19-74 60.5t-27 91.5q0 103 88.5 179.5T565 1444q96 0 154.5-50t58.5-130q0-73-50.5-138T602 1036q60-19 95.5-67.5T733 856q0-118-101.5-205.5T393 563zm101 516q77 0 131.5 48.5T680 1243q0 50-36 80.5t-97 30.5q-75 0-130-49t-55-115q0-48 36.5-79.5T494 1079zm-82-424q91 0 157 58.5T635 854q0 60-43.5 96.5T477 987q-91 0-157-58t-66-141q0-59 43.5-96T412 655z"/><glyph glyph-name="nine.numr" horiz-adv-x="671" d="M504 1446q105 0 174.5-67t69.5-167q0-68-38-142.5T629 946L326 573H205l274 328q-57-24-100-24-102 0-164.5 62.5T152 1100q0 135 107.5 240.5T504 1446zm-90-479q89 0 159 70t70 159q0 65-44 108.5T485 1348q-91 0-162-70t-71-158q0-65 45.5-109T414 967z"/><glyph glyph-name="zero.sups" horiz-adv-x="768" d="M412 571q-117 0-180.5 78T168 866q0 159 56.5 295t152 215.5T584 1456q116 0 178.5-78t62.5-217q0-158-55.5-294t-151-216T412 571zm18 101q77 0 143 65t105 175.5 39 238.5q0 99-39.5 152T563 1356q-77 0-143-65t-105-175.5T276 877q0-99 40-152t114-53z"/><glyph glyph-name="one.sups" horiz-adv-x="440" d="M530 1444 362 584H260l139 716-229-165 25 127 262 182h73z"/><glyph glyph-name="two.sups" horiz-adv-x="786" d="m162 584 14 78 387 321q87 73 130.5 133t43.5 117q0 54-38 88.5t-99 34.5q-84 0-146-52t-75-139H274q23 131 121.5 211t225.5 80q101 0 164-56t63-147q0-158-223-333L344 684h408l-21-100H162z"/><glyph glyph-name="three.sups" horiz-adv-x="778" d="m387 1079 291 267H266l19 98h557l-15-72-311-280q99 10 161-43.5T739 905q0-134-106-234T385 571q-117 0-186 64.5T139 803h105q0-59 44-95t118-36q91 0 158 65.5T631 891q0 79-75 112.5t-185 4.5z"/><glyph glyph-name="four.sups" horiz-adv-x="729" d="m809 872-18-98H676l-37-190H535l36 190H137l13 72 432 598h116L287 872h303l55 281h105l-56-281h115z"/><glyph glyph-name="five.sups" horiz-adv-x="720" d="M385 571q-115 0-185.5 63.5T141 803h103q2-59 45.5-95T403 672q88 0 156 66.5T627 891q0 66-43 107.5T475 1040q-106 0-168-59h-90l129 463h445l-19-98H422l-80-267q65 49 162 49 103 0 167-59.5T735 911q0-135-106-237.5T385 571z"/><glyph glyph-name="six.sups" horiz-adv-x="675" d="M520 1141q102 0 165-62.5T748 918q0-135-108.5-241T393 571q-105 0-172 67.5T154 805q0 126 116 266l303 373h119l-270-328q59 25 98 25zM414 670q91 0 161 69t70 158q0 67-44.5 110.5T487 1051q-91 0-161-70.5T256 821q0-65 44-108t114-43z"/><glyph glyph-name="seven.sups" horiz-adv-x="706" d="M221 1444h570l-17-74-526-786H131l514 759H201z"/><glyph glyph-name="eight.sups" horiz-adv-x="708" d="M395 573q-108 0-174.5 57T154 778q0 87 61.5 164.5T371 1047q-47 19-74 60t-27 91q0 103 88.5 179.5T567 1454q96 0 154.5-50t58.5-130q0-73-50.5-137.5T604 1047q60-19 95.5-68T735 866q0-118-101.5-205.5T395 573zm101 517q77 0 131.5 48t54.5 115q0 50-36 80.5t-97 30.5q-75 0-129.5-49T365 1200q0-48 36-79t95-31zm-82-424q91 0 157 58.5T637 864q0 60-43.5 96.5T479 997q-91 0-157-57.5T256 799q0-59 43.5-96T414 666z"/><glyph glyph-name="nine.sups" horiz-adv-x="671" d="M506 1456q105 0 174.5-66.5T750 1223q0-68-38-143t-81-124L328 584H207l274 327q-57-24-100-24-102 0-164.5 62.5T154 1110q0 135 107.5 240.5T506 1456zm-90-479q89 0 159 70t70 159q0 65-44 108.5T487 1358q-91 0-162-70t-71-158q0-65 45.5-109T416 977z"/><glyph glyph-name="three.sinf.cv01" horiz-adv-x="727" d="M461 463q61-8 105-58t44-120q0-117-103-207T268-12Q149-12 82.5 56.5T35 233h98q-8-63 35.5-105T289 86q87 0 153 60t66 139q0 58-46 94.5T336 416h-35l14 82h33q83 0 142 48t59 116q0 48-35 79t-94 31q-71 0-122-40.5T229 627h-92q18 105 107 174t198 69q93 0 153-53t60-135q0-80-58-143.5T461 463z"/><glyph glyph-name="four.sinf.cv01" horiz-adv-x="778" d="M678 860 563 272h113l-19-96H545L510 0H406l34 176H-23l15 74 549 610h137zM125 272h334l90 469z"/><glyph glyph-name="seven.sinf.cv01" horiz-adv-x="724" d="m696 860-16-74L150 0H33l518 760H182l-26-129H51l45 229h600z"/><glyph glyph-name="zero.dnom.cv01" horiz-adv-x="751" d="M469 872q143 0 202.5-96T696 506l-28-152Q633 178 537 83T297-12h-14Q138-12 79 83.5T55 354l31 152q34 176 130 271t239 95h14zm-35-100q-94 0-156.5-67T190 510l-32-160q-25-129 12.5-195.5T303 88h12q94 0 158 66.5T561 350l31 160q25 127-11 194.5T449 772h-15z"/><glyph glyph-name="zero.sinf.cv01" horiz-adv-x="751" d="M469 872q143 0 202.5-96T696 506l-28-152Q633 178 537 83T297-12h-14Q138-12 79 83.5T55 354l31 152q34 176 130 271t239 95h14zm-35-100q-94 0-156.5-67T190 510l-32-160q-25-129 12.5-195.5T303 88h12q94 0 158 66.5T561 350l31 160q25 127-11 194.5T449 772h-15z"/><glyph glyph-name="two.sinf.cv01" horiz-adv-x="759" d="m31 0 10 59q22 112 98 190t262 179q46 25 72.5 42t60.5 45.5 50 62.5 16 75q0 52-35.5 86.5T467 774q-86 0-146.5-53T246 582H141q23 131 121 210.5T487 872q101 0 161.5-55T709 674q0-48-17.5-91t-42-74-65.5-63-72.5-51-79.5-45q-148-84-201.5-131.5T164 100h436L580 0H31z"/><glyph glyph-name="two.dnom.cv01" horiz-adv-x="759" d="m31 0 10 59q22 112 98 190t262 179q46 25 72.5 42t60.5 45.5 50 62.5 16 75q0 52-35.5 86.5T467 774q-86 0-146.5-53T246 582H141q23 131 121 210.5T487 872q101 0 161.5-55T709 674q0-48-17.5-91t-42-74-65.5-63-72.5-51-79.5-45q-148-84-201.5-131.5T164 100h436L580 0H31z"/><glyph glyph-name="three.dnom.cv01" horiz-adv-x="727" d="M461 463q61-8 105-58t44-120q0-117-103-207T268-12Q149-12 82.5 56.5T35 233h98q-8-63 35.5-105T289 86q87 0 153 60t66 139q0 58-46 94.5T336 416h-35l14 82h33q83 0 142 48t59 116q0 48-35 79t-94 31q-71 0-122-40.5T229 627h-92q18 105 107 174t198 69q93 0 153-53t60-135q0-80-58-143.5T461 463z"/><glyph glyph-name="four.dnom.cv01" horiz-adv-x="778" d="M678 860 563 272h113l-19-96H545L510 0H406l34 176H-23l15 74 549 610h137zM125 272h334l90 469z"/><glyph glyph-name="seven.dnom.cv01" horiz-adv-x="724" d="m696 860-16-74L150 0H33l518 760H182l-26-129H51l45 229h600z"/><glyph glyph-name="zero.numr.cv01" horiz-adv-x="751" d="M580 1446q143 0 202.5-96t24.5-271l-29-151q-35-176-130.5-271.5T408 561h-15q-144 0-203 96t-24 271l31 151q34 177 129.5 272t238.5 95h15zm-35-100q-94 0-156.5-67T301 1083l-33-159q-25-129 12.5-195.5T414 662h12q94 0 158 66.5T672 924l30 159q25 127-11 195t-132 68h-14z"/><glyph glyph-name="two.numr.cv01" horiz-adv-x="739" d="m219 573 10 60q22 112 98 189t263 179q45 25 72 42t60.5 45.5 49.5 63 16 75.5q0 52-35.5 86.5T655 1348q-86 0-146.5-53.5T434 1155H330q23 131 121 211t225 80q101 0 161-55.5t60-143.5q0-48-17.5-91t-41.5-73.5-65-62.5-72.5-51-79.5-45q-148-83-201.5-131T352 674h436l-20-101H219z"/><glyph glyph-name="three.numr.cv01" horiz-adv-x="727" d="M571 1036q61-8 105.5-58T721 858q0-117-103-207t-239-90q-119 0-186 69t-48 177h99q-8-63 35-105.5T399 659q87 0 153 60t66 139q0 58-46 94.5T446 989h-34l14 82h33q83 0 141.5 48t58.5 116q0 48-35 79.5t-94 31.5q-70 0-121-40.5T340 1200h-92q18 106 107 175t198 69q93 0 153-53.5t60-135.5q0-80-58.5-143.5T571 1036z"/><glyph glyph-name="four.numr.cv01" horiz-adv-x="776" d="M788 1434 674 846h112l-18-96H655l-34-177H516l35 177H90l12 73 549 611h137zM236 846h333l90 469z"/><glyph glyph-name="seven.numr.cv01" horiz-adv-x="724" d="m807 1434-16-74-531-787H143l519 760H293l-27-129H162l45 230h600z"/><glyph glyph-name="zero.sups.cv01" horiz-adv-x="751" d="M582 1456q143 0 202.5-96t24.5-270l-29-152q-35-176-130.5-271.5T410 571h-15q-144 0-203 96t-24 271l31 152q34 176 129.5 271t238.5 95h15zm-35-100q-94 0-156.5-67T303 1094l-33-160q-25-129 12.5-195.5T416 672h12q94 0 158 66.5T674 934l31 160q25 127-11.5 194.5T561 1356h-14z"/><glyph glyph-name="two.sups.cv01" horiz-adv-x="761" d="m145 584 11 59q22 112 98 190t262 179q46 25 72.5 42t60.5 45.5 50 62.5 16 75q0 52-35.5 86.5T582 1358q-86 0-147-53.5T360 1165H256q23 131 121 211t225 80q101 0 161-55.5t60-143.5q0-48-17.5-91t-41.5-73.5-65-62.5-72.5-51-79.5-45q-148-84-201.5-131.5T279 684h436l-21-100H145z"/><glyph glyph-name="three.sups.cv01" horiz-adv-x="727" d="M573 1047q61-8 105.5-58.5T723 868q0-117-103-207t-239-90q-119 0-186 69t-48 177h99q-8-63 35-105t120-42q87 0 153.5 59.5T621 868q0 58-46 94.5T449 999h-35l14 82h33q83 0 142 48t59 116q0 48-35.5 79.5T532 1356q-70 0-121-40.5T342 1210h-92q18 106 107 175t198 69q93 0 153-53t60-135q0-80-58.5-143.5T573 1047z"/><glyph glyph-name="four.sups.cv01" horiz-adv-x="776" d="M791 1444 676 856h112l-18-96H657l-34-176H518l35 176H92l12 74 549 610h138zM238 856h333l91 469z"/><glyph glyph-name="seven.sups.cv01" horiz-adv-x="724" d="m809 1444-16-74-531-786H145l519 759H295l-27-129H164l45 230h600z"/><glyph glyph-name="three.sinf.tf" d="m322 496 290 266H203l18 98h555l-12-72-313-280q100 10 162.5-43.5T676 322q0-133-106.5-233.5T322-12q-118 0-187 64T74 219h104q0-59 44.5-95T340 88q91 0 158 65.5T565 307q0 79-74 112.5T307 424z"/><glyph glyph-name="four.sinf.tf" d="m723 289-21-99H588L551 0H449l36 190H51l12 72 433 598h116L201 289h303l55 280h103l-56-280h117z"/><glyph glyph-name="five.sinf.tf" d="M334-12q-114 0-184 63T90 219h105q2-59 45.5-95T354 88q88 0 154.5 66.5T575 307q0 66-42 108t-109 42q-103 0-166-60h-90l129 463h442l-16-98H371l-78-266q65 49 162 49 103 0 167-59.5T686 328q0-135-106-237.5T334-12z"/><glyph glyph-name="six.sinf.tf" d="M449 557q101 0 164-63t63-160q0-135-108-240.5T322-12q-105 0-173.5 67T80 221q0 123 119 266l303 373h119L348 532q59 25 101 25zM342 86q91 0 161 69t70 158q0 68-44.5 111T414 467q-90 0-161-70t-71-159q0-65 45-108.5T342 86z"/><glyph glyph-name="seven.sinf.tf" d="M178 860h570l-17-74L205 0H90l514 760H158z"/><glyph glyph-name="eight.sinf.tf" d="M330-10q-108 0-175 57T88 195q0 87 61.5 164T305 463q-48 18-75 59t-27 92q0 103 89.5 179.5T502 870q95 0 154-50t59-130q0-73-50.5-137.5T539 463q60-19 95.5-67.5T670 283q0-118-101.5-205.5T330-10zm100 516q77 0 131.5 48.5T616 670q0 50-36.5 80T483 780q-76 0-130-48.5T299 616q0-48 35.5-79t95.5-31zM348 82q91 0 156 58.5T569 281q0 60-42.5 96.5T412 414q-90 0-157-58.5T188 215q0-59 44-96t116-37z"/><glyph glyph-name="nine.sinf.tf" d="M426 872q105 0 174.5-66.5T670 639q0-68-37.5-141T551 373L248 0H127l274 328q-59-25-100-25-102 0-164.5 62.5T74 526q0 135 107.5 240.5T426 872zm-90-479q89 0 159 70.5T565 623q0 65-43.5 108T408 774q-91 0-162.5-69.5T174 547q0-65 45.5-109.5T336 393z"/><glyph glyph-name="zero.sinf.tf" d="M297-12q-116 0-179 78T55 283q0 159 56 295t151.5 215T469 872q118 0 181-77.5T713 578q0-119-33.5-228T590 162 457.5 35.5 297-12zm20 100q77 0 143 65t105 175.5T604 567q0 99-39 152t-114 53q-77 0-143-65T203 531.5 164 293q0-99 39.5-152T317 88z"/><glyph glyph-name="one.sinf.tf" d="M369 100h213L563 0H16l21 100h229l123 627-199-111 21 117 229 127h76z"/><glyph glyph-name="two.sinf.tf" horiz-adv-x="759" d="m109 0 14 78 385 321q87 72 130.5 132T682 649q0 55-37.5 89T545 772q-84 0-145-51.5T326 582H221q21 131 119 210.5T567 872q101 0 163.5-55.5T793 670q0-157-222-334L291 100h405L678 0H109z"/><glyph glyph-name="zero.sups.tf" d="M420 561q-116 0-179 78t-63 217q0 159 56 295t151.5 215.5T592 1446q117 0 180.5-78t63.5-217q0-119-33.5-228T713 735 580.5 608.5 420 561zm20 101q77 0 143 65t105 175.5 39 238.5q0 99-39.5 152T573 1346q-77 0-143.5-65.5t-105.5-176T285 866q0-99 40-151.5T440 662z"/><glyph glyph-name="one.sups.tf" d="M481 684h213l-18-100H129l21 100h229l123 627-199-111 21 117 229 127h76z"/><glyph glyph-name="two.sups.tf" d="m233 573 15 78 387 322q87 72 130.5 132t43.5 118q0 54-38 88.5t-99 34.5q-84 0-146-52t-75-139H346q23 131 121 211t225 80q101 0 164.5-56t63.5-147q0-159-224-334L418 674h405l-20-101H233z"/><glyph glyph-name="three.sups.tf" d="m432 1069 291 266H313l19 99h555l-13-72-313-281q100 10 162.5-43.5T786 895q0-133-106.5-233.5T432 561q-118 0-187 64.5T184 793h105q0-59 44.5-95T451 662q91 0 158 65.5T676 881q0 79-74 112t-184 4z"/><glyph glyph-name="four.sups.tf" d="m834 862-21-98H698l-36-191H559l37 191H162l12 72 432 598h117L311 862h303l56 281h102l-55-281h117z"/><glyph glyph-name="five.sups.tf" d="M444 561q-113 0-183 63.5T201 793h104q2-59 46-95t114-36q88 0 154.5 66.5T686 881q0 66-42 107.5T535 1030q-104 0-166-59h-90l129 463h442l-16-99H481l-78-266q65 49 162 49 103 0 167.5-59.5T797 901q0-135-106.5-237.5T444 561z"/><glyph glyph-name="six.sups.tf" d="M559 1130q101 0 164-63t63-160q0-135-108-240.5T432 561q-105 0-173.5 67.5T190 795q0 123 119 266l303 373h119l-272-328q57 24 100 24zM453 659q91 0 161 69.5T684 887q0 67-44.5 110T524 1040q-89 0-160-70t-71-159q0-65 45-108.5T453 659z"/><glyph glyph-name="seven.sups.tf" d="M289 1434h569l-16-74-527-787H201l514 760H268z"/><glyph glyph-name="eight.sups.tf" d="M440 563q-108 0-174.5 57T199 768q0 87 61.5 164T416 1036q-48 18-75.5 59.5T313 1188q0 103 89.5 179.5T612 1444q95 0 154-50t59-130q0-73-50.5-138T649 1036q60-19 95.5-67.5T780 856q0-118-101.5-205.5T440 563zm101 516q77 0 131.5 48.5T727 1243q0 50-36.5 80.5T594 1354q-76 0-130-48.5T410 1190q0-48 35.5-79.5T541 1079zm-82-424q91 0 156 58.5T680 854q0 60-43 96.5T522 987q-90 0-156.5-58.5T299 788q0-59 44-96t116-37z"/><glyph glyph-name="nine.sups.tf" d="M537 1446q105 0 174-67t69-167q0-68-37.5-141.5T662 946L358 573H238l274 328q-57-24-100-24-102 0-165 62.5T184 1100q0 135 108 240.5T537 1446zm-91-479q89 0 159.5 70t70.5 159q0 65-44 108.5T518 1348q-91 0-162-70t-71-158q0-65 45-109t116-44z"/><glyph glyph-name="three.sinf.tf.cv01" d="M510 463q60-8 104.5-58.5T659 285q0-117-103-207T317-12q-121 0-187 68.5T84 233h98q-9-62 34.5-104.5T336 86q87 0 153 60t66 139q0 58-45 94.5T385 416h-37l17 82h32q82 0 140.5 48.5T596 662q0 49-34.5 79.5T467 772q-71 0-122-40.5T279 627h-95q18 105 107.5 174T489 870q94 0 155-53t61-135q0-80-59-143.5T510 463z"/><glyph glyph-name="four.sinf.tf.cv01" d="M678 860 563 272h113l-19-96H545L510 0H406l34 176H-23l15 74 549 610h137zM125 272h334l90 469z"/><glyph glyph-name="seven.sinf.tf.cv01" d="m696 860-16-74L150 0H33l518 760H182l-26-129H51l45 229h600z"/><glyph glyph-name="zero.sinf.tf.cv01" d="M469 872q143 0 202.5-96T696 506l-28-152Q633 178 537 83T297-12h-14Q138-12 79 83.5T55 354l31 152q34 176 130 271t239 95h14zm-35-100q-94 0-156.5-67T190 510l-32-160q-25-129 12.5-195.5T303 88h12q94 0 158 66.5T561 350l31 160q25 127-11 194.5T449 772h-15z"/><glyph glyph-name="two.sinf.tf.cv01" d="m106 0 11 59q22 112 98 190t262 179q46 25 72.5 42t60.5 45.5 50 62.5 16 75q0 52-35.5 86.5T543 774q-86 0-146.5-53T322 582H217q23 131 121 210.5T563 872q101 0 161-55t60-143q0-48-17.5-91T725 509t-65-63-72.5-51-79.5-45q-147-83-200.5-131T240 100h436L655 0H106z"/><glyph glyph-name="zero.sups.tf.cv01" d="M580 1446q143 0 202.5-96t24.5-271l-29-151q-35-176-130.5-271.5T408 561h-15q-144 0-203 96t-24 271l31 151q34 177 129.5 272t238.5 95h15zm-35-100q-94 0-156.5-67T301 1083l-33-159q-25-129 12.5-195.5T414 662h12q94 0 158 66.5T672 924l30 159q25 127-11 195t-132 68h-14z"/><glyph glyph-name="two.sups.tf.cv01" d="m217 573 10 60q22 112 98 189t263 179q45 25 72 42t60.5 45.5 49.5 63 16 75.5q0 52-35.5 86.5T653 1348q-86 0-146.5-53.5T432 1155H328q23 131 121 211t225 80q101 0 161-55.5t60-143.5q0-48-17.5-91t-41.5-73.5-65.5-62.5-73-51-79.5-45q-147-83-200.5-131T350 674h436l-20-101H217z"/><glyph glyph-name="three.sups.tf.cv01" d="M621 1036q60-8 104.5-58.5T770 858q0-117-103-207t-239-90q-121 0-187 69t-46 177h98q-9-62 34-105t119-43q87 0 153.5 60T666 858q0 58-45 94.5T496 989h-37l16 82h33q82 0 140.5 48.5T707 1235q0 49-34.5 80t-94.5 31q-71 0-122.5-41T389 1200h-94q18 105 107.5 174.5T600 1444q94 0 154.5-53.5T815 1255q0-80-58.5-143.5T621 1036z"/><glyph glyph-name="four.sups.tf.cv01" d="M788 1434 674 846h112l-18-96H655l-34-177H516l35 177H90l12 73 549 611h137zM236 846h333l90 469z"/><glyph glyph-name="seven.sups.tf.cv01" d="m807 1434-16-74-531-787H143l519 760H293l-27-129H162l45 230h600z"/><glyph glyph-name="zero.sinf.tf.zero" horiz-adv-x="751" d="M436 872q151 0 215-122t25-330q-40-200-143-316T289-12Q138-12 74.5 110T51 440q38 200 141 316t244 116zM156 420q-18-89-15-156l428 418q-31 90-129 90-102 0-177-91.5T156 420zm413 20q17 84 17 154L156 176q34-88 129-88 102 0 177 91.5T569 440z"/><glyph glyph-name="zero.sups.tf.zero" horiz-adv-x="735" d="M569 1446q150 0 214-122.5T807 993q-40-201-142.5-316.5T420 561q-151 0-214.5 122.5T182 1014q38 200 141.5 316T569 1446zM287 993q-18-92-15-157l430 419q-35 91-129 91-103 0-178.5-92T287 993zm415 21q17 102 15 153L287 750q34-88 129-88 102 0 177.5 91.5T702 1014z"/><glyph glyph-name="zero.dnom.zero" horiz-adv-x="763" d="M457 872q151 0 214-122t23-330q-40-201-142.5-316.5T307-12Q156-12 93 110T70 440q38 200 141.5 316T457 872zM174 420q-17-87-14-158l430 420q-35 90-129 90-103 0-179-92T174 420zm416 20q17 98 14 154L174 176q36-88 129-88 102 0 178 91.5T590 440z"/><glyph glyph-name="zero.sinf.zero" horiz-adv-x="763" d="M457 872q151 0 214-122t23-330q-40-201-142.5-316.5T307-12Q156-12 93 110T70 440q38 200 141.5 316T457 872zM174 420q-17-87-14-158l430 420q-35 90-129 90-103 0-179-92T174 420zm416 20q17 98 14 154L174 176q36-88 129-88 102 0 178 91.5T590 440z"/><glyph glyph-name="zero.numr.zero" horiz-adv-x="763" d="M567 1446q151 0 215-122.5T807 993q-40-200-143-316T420 561q-151 0-214.5 122.5T182 1014q38 200 141 316t244 116zM287 993q-18-89-15-155l428 417q-31 91-129 91-102 0-177-92T287 993zm413 21q17 84 17 153L287 750q34-88 129-88 102 0 177 91.5T700 1014z"/><glyph glyph-name="zero.sups.zero" horiz-adv-x="763" d="M567 1446q151 0 215-122.5T807 993q-40-200-143-316T420 561q-151 0-214.5 122.5T182 1014q38 200 141 316t244 116zM287 993q-18-89-15-155l428 417q-31 91-129 91-102 0-177-92T287 993zm413 21q17 84 17 153L287 750q34-88 129-88 102 0 177 91.5T700 1014z"/></font>
</defs>
</svg>
