<svg id="svg2" height="127.04248" width="890.11975" version="1.1" xmlns="http://www.w3.org/2000/svg">
  <defs id="defs4">
    <clipPath id="clipPath3647">
      <path id="path3649" d="m 21.827,30.614 740.009,0 0,520.441 -740.009,0 0,-520.441 z"></path>
    </clipPath>
    <clipPath id="clipPath3619">
      <path id="path3621" d="m 0,0 782.362,0 0,1000.63 L 0,1000.63 0,0 z"></path>
    </clipPath>
    <clipPath id="clipPath3023">
      <path id="path3025" d="m 0,890.078 782.362,0 0,110.552 -782.362,0 0,-110.552 z"></path>
    </clipPath>
    <clipPath id="clipPath3005">
      <path id="path3007" d="m 0,0 782.362,0 0,1000.63 L 0,1000.63 0,0 z"></path>
    </clipPath>
    <clipPath id="clipPath4648">
      <path id="path4650" d="m 21.827,30.614 740.009,0 0,520.441 -740.009,0 0,-520.441 z"></path>
    </clipPath>
    <clipPath id="clipPath4620">
      <path id="path4622" d="m 0,0 782.362,0 0,1000.63 L 0,1000.63 0,0 z"></path>
    </clipPath>
    <clipPath id="clipPath4024">
      <path id="path4026" d="m 0,890.078 782.362,0 0,110.552 -782.362,0 0,-110.552 z"></path>
    </clipPath>
    <clipPath id="clipPath4006">
      <path id="path4008" d="m 0,0 782.362,0 0,1000.63 L 0,1000.63 0,0 z"></path>
    </clipPath>
  </defs>
  <metadata id="metadata7">
    
      
        image/svg+xml
        
        
      
    
  </metadata>
  <g id="layer1" transform="translate(-1484.7347,-171.91725)">
    <g id="g2993" transform="matrix(1.25,0,0,-1.25,-138.97625,1155.6643)">
      <g id="g3019" transform="translate(1264,-210.28571)">
        <g id="g3021" clip-path="url(#clipPath3023)">
          <g id="g3027" transform="matrix(0.9400024,0,0,-0.9499969,307.38176,895.64937)">
            <path style="fill:#ffffff;fill-opacity:1;fill-rule:nonzero;stroke:none" id="path3029" d="m 0,0 c -5.918,-4.471 -9.698,-8.982 -12.431,-15.415 -2.123,-5.693 -3.558,-11.763 -2.818,-18.067 0.772,-7.815 2.312,-14.609 3.792,-22.199 0.418,-0.418 0.128,-1.094 0.386,-1.576 0.965,-4.374 2.155,-8.652 3.12,-13.026 0.386,-0.096 0.9,-0.064 1.318,-0.032 l -0.482,0.096 c 3.698,0.225 7.622,0.418 11.386,0.708 0.225,0.29 0.643,0.257 0.9,0.193 0.309,0.039 0.614,0.088 0.922,0.13 0.327,-0.897 0.688,-1.751 1.117,-2.251 -1.383,-2.637 -1.758,-2.961 -3.398,-5.47 0,0 -3.232,-4.889 -3.978,-5.387 -0.746,-0.497 -1.409,-0.746 -2.403,-1.243 -0.995,-0.497 -2.135,-0.397 -3.647,-0.911 -1.801,-5.758 -4.806,-12.763 -6.504,-19.912 l 2.316,2.316 7.912,7.654 4.67,3.795 c 0.129,0.965 0.129,2.283 0.579,3.28 0.257,1.255 1.254,2.123 1.801,3.281 2.605,3.667 3.937,5.054 6.382,8.785 0,0 1.574,-0.58 2.568,-1.409 -1.325,-0.663 -0.947,-4.973 -0.947,-4.973 -0.257,-2.251 -2.219,-4.213 -1.158,-6.658 0.161,-0.193 0.515,-1.126 0.611,-1.447 -0.193,-1.222 -1.786,-2.013 -0.66,-3.331 0.128,-0.193 -0.369,-0.914 -0.369,-1.204 -0.096,-2.573 0.707,-5.05 0.965,-7.526 0.611,-0.997 1.319,-1.705 2.38,-2.219 2.67,-1.094 5.918,-1.255 8.652,-2.059 0.225,0.161 0.321,-0.193 0.547,-0.161 1.447,0 2.605,-1.125 4.052,-0.611 2.123,2.027 4.149,4.117 6.143,6.24 1.48,0.997 2.187,2.508 3.378,3.827 0.321,0.708 1.025,1.799 0.606,2.635 l -0.911,1.078 -0.339,5.035 c -0.257,0.451 -0.193,1.03 -0.579,1.448 l 0,0.257 -0.064,-0.064 c -0.193,1.19 -0.289,2.412 -0.675,3.506 -0.194,1.286 -0.402,2.708 -0.498,4.155 -0.193,2.477 0.527,3.527 1.298,5.746 0.611,0.611 1.796,2.017 2.763,3.205 1.256,1.543 4.309,4.143 6.796,8.867 2.486,4.724 5.221,13.26 7.127,22.791 0.515,3.602 1.562,6.361 0.083,10.028 -1.866,2.412 -2.501,2.732 -5.139,3.729 0,0 7.294,9.448 7.294,11.283 0,1.268 -0.581,1.812 -0.581,1.812 l -31.409,0 C 19.476,-6.962 9.713,-0.933 0,0"></path>
          </g>
          <g id="g3031" transform="matrix(0.9400024,0,0,-0.9499969,332.83485,995.43544)">
            <path style="fill:#ed1639;fill-opacity:1;fill-rule:nonzero;stroke:none" id="path3033" d="m 0,0 c 1.93,1.842 3.772,3.742 5.585,5.672 1.345,0.907 1.988,2.281 3.07,3.48 0.292,0.643 0.789,1.374 0.409,2.134 L 8.596,11.842 8.07,17.105 C 7.836,17.514 7.894,18.04 7.544,18.42 l 0,0.234 -0.059,-0.058 c -0.175,1.082 -0.263,2.193 -0.614,3.187 -0.175,1.169 -0.614,2.427 -0.702,3.742 -0.175,2.252 0.498,4.503 1.199,6.521 0.556,0.555 0.585,1.198 1.228,1.666 l -0.029,0.029 c 1.637,1.872 3.45,3.684 5.146,5.673 l 1.959,2.368 c 0.029,0.322 0.234,0.526 0.497,0.702 4.503,6.929 5.731,15.204 7.836,23.157 0.468,3.275 1.667,7.076 0.322,10.409 -1.696,2.193 -4.211,3.246 -6.608,4.152 2.66,3.801 5.672,7.544 8.245,11.403 0.029,0.205 0.088,0.38 0.059,0.585 -1.462,-0.059 -3.012,-0.263 -4.445,-0.234 -2.397,-3.684 -4.971,-7.368 -7.69,-10.877 -0.087,-0.088 -0.35,0.029 -0.35,-0.146 -0.03,0.029 -0.088,0.058 -0.059,0.117 -0.702,-0.059 -1.52,0.175 -2.31,0.204 -0.263,0.38 -0.321,0.965 -0.438,1.462 -0.117,0.439 -0.147,0.936 -0.41,1.258 0.498,0.643 0.644,1.403 1.199,2.017 0.965,2.076 1.813,4.24 2.719,6.345 l -5.584,0 -10.263,0.029 c -0.468,0.088 -0.994,-0.146 -1.433,0 L -4.24,92.307 c 0.527,-0.38 0.848,-0.994 1.316,-1.374 4.942,-0.088 9.708,0.204 14.62,-0.118 C 11.082,88.476 9.824,86.313 8.45,84.237 L 6.696,82.278 C 5.292,81.634 3.713,81.401 2.281,80.816 l 1.637,-5.614 c 2.719,0.614 5.322,1.842 7.865,2.807 4.24,-6.754 7.193,-14.356 6.579,-22.894 L 18.011,52.308 C 17.748,52.045 17.953,51.752 17.777,51.46 16.9,46.49 14.795,41.958 11.228,38.186 c -0.059,0.146 0.146,0.234 0.175,0.351 0.176,0.906 0.614,2.017 -0.146,2.777 -0.614,0.819 -1.696,0.702 -2.515,0.497 -2.397,-1.666 -4.122,-4.298 -6.11,-6.286 -2.691,-2.807 -5.936,-5.468 -10.03,-5.292 -1.549,-0.088 -3.011,0.263 -4.356,0.643 -0.117,0.059 -0.088,0.205 -0.059,0.263 2.281,0.293 4.211,1.374 6.141,2.573 2.602,2.076 4.239,4.795 5.146,7.778 -1.667,-0.497 -3.304,-1.053 -5.058,-1.375 0.263,-0.321 0.789,-0.438 0.701,-0.906 -0.351,-0.468 -0.936,-0.322 -1.462,-0.526 l -0.526,0.029 c -0.029,0.614 0.673,1.14 1.082,1.345 -0.497,-0.205 -0.995,-0.351 -1.521,-0.468 0.234,-0.263 -0.029,-0.585 -0.351,-0.585 -0.526,0.088 -1.052,-0.292 -1.579,-0.058 l 0.234,0.234 c -0.438,-0.117 -0.877,-0.176 -1.286,-0.351 0.263,-0.117 0.292,-0.322 0.263,-0.585 -0.467,-0.292 -1.169,0 -1.433,-0.614 l -0.146,0 c -0.058,0.117 0.059,0.234 0.176,0.293 -0.234,-0.03 -0.468,-0.351 -0.673,-0.088 -0.058,0.351 0.263,0.585 0.497,0.702 l 0.439,0.116 c -3.041,-0.438 -6.228,-1.228 -9.386,-1.695 0.585,-1.111 1.404,-2.076 2.281,-3.099 -1.257,-2.398 -3.1,-4.562 -4.591,-6.842 l -3.508,-4.679 c -0.702,-0.438 -1.17,-1.169 -1.988,-1.345 -1.199,-0.789 -2.515,-1.286 -3.889,-1.754 -1.638,-5.234 -3.509,-10.351 -5.819,-15.321 l 2.105,2.105 7.193,6.959 2.573,2.28 c 0.117,0.878 0.117,2.076 0.526,2.983 0.234,1.14 1.141,1.93 1.638,2.982 2.368,3.334 4.824,6.375 7.046,9.766 0.234,0.292 0.644,0.555 0.498,0.877 l -0.03,0.059 c 0.526,-0.205 0.848,-0.819 1.433,-1.053 1.403,-0.819 2.924,-1.403 4.532,-1.696 l 0.175,0.059 c 0.176,-0.322 -0.204,-0.439 -0.204,-0.76 -0.088,-0.147 -0.41,-0.088 -0.293,-0.351 -0.965,-0.351 -2.456,-0.702 -2.485,-2.047 l -0.292,-3.158 c -0.234,-2.047 -2.018,-3.83 -1.053,-6.052 0.146,-0.176 0.175,-0.41 0.263,-0.614 l -0.117,0 c 0.205,-0.088 0.322,-0.41 0.41,-0.702 -0.176,-1.111 -1.579,-2.164 -0.556,-3.362 0.117,-0.176 0.234,-0.351 0.175,-0.585 -0.117,0.117 -0.555,0.088 -0.555,-0.176 -0.088,-2.339 0.643,-4.59 0.877,-6.842 0.556,-0.906 1.199,-1.549 2.164,-2.017 2.427,-0.994 5.379,-1.14 7.865,-1.871 0.204,0.146 0.292,-0.176 0.497,-0.147 C -2.368,0.555 -1.316,-0.468 0,0"></path>
          </g>
          <g id="g3035" transform="matrix(0.9400024,0,0,-0.9499969,332.66989,994.18562)">
            <path style="fill:#ffffff;fill-opacity:1;fill-rule:nonzero;stroke:none" id="path3037" d="M 0,0 C 0.702,0.79 1.754,1.17 2.164,2.105 1.754,2.252 1.345,1.871 0.936,1.754 -0.585,1.111 -2.28,0.76 -3.889,0.439 l 0,-0.234 c 1.111,-0.234 2.486,0.76 3.217,-0.439 C -0.409,-0.672 -0.058,-0.263 0,0"></path>
          </g>
          <g id="g3039" transform="matrix(0.9400024,0,0,-0.9499969,333.96182,991.60229)">
            <path style="fill:#ffffff;fill-opacity:1;fill-rule:nonzero;stroke:none" id="path3041" d="m 0,0 c 1.638,1.052 3.596,1.608 4.941,3.275 -0.058,0.029 -0.117,0 -0.146,0.058 0,0.088 0.117,0.088 0.176,0.117 L 5.058,3.392 C 5.555,4.21 5.234,5.351 5.175,6.257 L 4.795,9.24 c 0.38,0.379 0.614,0.73 0.848,1.14 L 5.76,10.117 C 5.877,8.508 6.023,6.812 6.228,5.146 6.257,5.088 6.345,4.97 6.403,4.912 6.608,5.117 6.813,5.409 6.871,5.702 L 6.754,5.731 C 6.725,7.69 6.637,9.736 6.286,11.579 L 6.199,11.637 C 6.023,11.608 5.965,11.432 5.848,11.315 5.994,11.023 5.585,11.199 5.585,10.935 5.175,10.497 4.854,10.029 4.415,9.649 3.947,8.86 3.041,8.245 2.368,7.631 1.608,7.105 0.819,6.403 -0.088,6.082 -2.105,4.649 -4.678,4.444 -7.047,3.859 -8.216,3.976 -9.561,3.743 -10.731,4.035 l 0,-0.117 0.088,0 c 0.351,-1.725 0.877,-3.45 1.053,-5.292 2.251,-0.234 4.648,-0.263 6.695,0.38 L 0,0 z"></path>
          </g>
          <g id="g3043" transform="matrix(0.9400024,0,0,-0.9499969,324.20479,992.74115)">
            <path style="fill:#ffffff;fill-opacity:1;fill-rule:nonzero;stroke:none" id="path3045" d="M 0,0 C -0.293,1.813 -0.761,3.567 -1.053,5.351 L -2.076,5.702 C -1.871,4.006 -1.549,2.134 -1.14,0.409 -0.819,0.146 -0.409,0.059 0,0"></path>
          </g>
          <g id="g3047" transform="matrix(0.9400024,0,0,-0.9499969,320.79652,990.49127)">
            <path style="fill:#ffffff;fill-opacity:1;fill-rule:nonzero;stroke:none" id="path3049" d="m 0,0 -0.585,3.772 c -0.292,0 -0.467,0.409 -0.672,0.321 C -1.111,2.69 -0.76,1.199 -0.497,-0.234 -0.292,-0.438 0.088,-0.321 0,0"></path>
          </g>
          <g id="g3051" transform="matrix(0.9400024,0,0,-0.9499969,299.99109,987.74132)">
            <path style="fill:#ffffff;fill-opacity:1;fill-rule:nonzero;stroke:none" id="path3053" d="m 0,0 c 2.631,2.631 5.087,5.175 7.865,7.515 0.409,-0.03 0.088,0.38 0.234,0.584 0.556,3.714 3.45,6.462 5.205,9.678 0.029,0.234 -0.235,0.146 -0.322,0.205 -0.146,0.175 -0.292,0.321 -0.497,0.351 l 0.058,-0.117 C 10.379,15.146 8.216,12.046 5.935,9.035 4.795,7.397 3.83,5.614 2.456,4.093 3.128,5.994 4.064,7.895 4.736,9.853 4.649,10.116 4.357,10.292 4.093,10.175 3.567,9.97 3.245,9.327 3.041,8.83 L -0.527,-0.497 -0.79,-0.789 C -0.468,-0.556 -0.117,-0.38 0,0"></path>
          </g>
          <g id="g3055" transform="matrix(0.9400024,0,0,-0.9499969,332.83485,985.49153)">
            <path style="fill:#ffffff;fill-opacity:1;fill-rule:nonzero;stroke:none" id="path3057" d="m 0,0 c -0.117,0.702 0.468,1.17 0.526,1.842 0.497,2.369 0.556,5.263 0.117,7.719 -0.38,0.936 -0.702,1.784 -1.111,2.69 -0.585,0.936 -1.14,1.988 -2.134,2.544 -1.492,1.374 -3.772,1.783 -5.643,0.994 -1.141,-0.059 -1.462,-2.339 -2.807,-1.14 -0.146,0.321 -0.526,0.555 -0.556,0.935 l -0.117,0.088 c -0.292,-0.468 0,-1.315 -0.088,-1.725 0.147,-0.789 0.966,-0.789 1.609,-0.965 l 1.14,0.146 0.117,-0.058 c -0.293,-0.38 -0.439,-0.936 -0.585,-1.345 -0.526,-0.205 -1.111,0.117 -1.725,0 -0.205,0.029 -0.497,0.029 -0.672,-0.146 l 0.175,-0.029 c 0,-0.118 -0.146,-0.322 0,-0.498 0.673,-0.438 1.52,-0.467 2.31,-0.701 0.38,0.204 0.789,-0.117 1.082,0.175 l 1.198,0.176 c 0.205,0.292 0.527,0.438 0.848,0.584 0.205,-0.146 -0.175,-0.234 -0.146,-0.409 l -0.029,0.058 C -6.784,10.76 -6.754,9.62 -7.426,10.146 c -1.258,0.146 -2.193,-1.433 -3.421,-0.439 -0.41,0.147 -0.702,-0.526 -1.024,-0.058 l -0.351,0.322 c 0.147,-0.498 0.322,-1.024 0.497,-1.462 l -0.088,0 c 0.469,-0.205 1.083,0.292 1.433,-0.264 l -0.087,-0.204 0.087,0.088 0.029,-0.059 -0.116,-0.117 0.175,-0.117 c 0.673,0 1.667,0.643 2.018,-0.146 0.029,-0.439 -0.264,-0.819 -0.615,-1.053 -0.73,-0.058 -1.286,0.526 -1.958,0.38 -0.41,-0.233 -0.995,-0.467 -1.141,-0.906 0.38,-1.257 0.79,-2.485 1.462,-3.655 0.38,-0.088 0.672,0.205 1.082,0.146 0.322,0.761 1.199,0.936 1.783,1.404 0.497,0.088 0.965,0.409 1.463,0.263 0.146,-0.088 0.321,0.146 0.467,0.058 C -5.877,3.713 -6.667,3.333 -6.667,2.573 -6.725,2.485 -6.9,2.485 -6.784,2.368 c 1.375,-0.263 2.72,-0.058 3.743,0.615 0.059,0.029 0.117,0 0.176,-0.059 C -4.035,2.251 -5.146,1.053 -6.637,1.316 L -6.608,1.287 -6.871,1.14 c 1.403,-0.906 3.07,0.176 4.474,0.41 L -2.28,1.462 C -3.596,0.614 -5,-0.029 -6.55,-0.263 c -0.994,0.029 -1.812,0.409 -2.719,0.614 -0.409,-0.322 -0.789,-0.614 -0.614,-1.257 -0.058,-0.117 0.059,-0.205 0.117,-0.263 1.287,-0.556 2.72,-0.585 4.182,-0.498 C -3.626,-1.316 -1.754,-0.76 0,0"></path>
          </g>
          <g id="g3059" transform="matrix(0.9400024,0,0,-0.9499969,335.1985,984.18585)">
            <path style="fill:#ffffff;fill-opacity:1;fill-rule:nonzero;stroke:none" id="path3061" d="m 0,0 c -0.38,0.029 -0.614,0.526 -1.053,0.292 0.088,-0.38 -0.73,-0.555 -0.263,-0.906 C -0.906,-0.38 0.059,-0.819 0,0"></path>
          </g>
          <g id="g3063" transform="matrix(0.9400024,0,0,-0.9499969,337.58968,982.18593)">
            <path style="fill:#ffffff;fill-opacity:1;fill-rule:nonzero;stroke:none" id="path3065" d="m 0,0 -0.117,0.292 c -0.438,0 -0.672,-0.438 -0.789,-0.789 L -1.052,-1.053 C -0.468,-0.965 -0.292,-0.409 0,0"></path>
          </g>
          <g id="g3067" transform="matrix(0.9400024,0,0,-0.9499969,335.77585,982.99133)">
            <path style="fill:#ffffff;fill-opacity:1;fill-rule:nonzero;stroke:none" id="path3069" d="M 0,0 C 0.117,0.204 0.234,0.38 0.234,0.614 0.117,0.819 -0.146,0.731 -0.322,0.848 -0.614,0.701 -0.79,0.292 -1.024,0.088 -0.848,-0.41 -0.292,-0.03 0,0"></path>
          </g>
          <g id="g3071" transform="matrix(0.9400024,0,0,-0.9499969,334.70387,982.32491)">
            <path style="fill:#ffffff;fill-opacity:1;fill-rule:nonzero;stroke:none" id="path3073" d="M 0,0 C 0.058,0.263 0.351,0.38 0.351,0.643 0.029,0.819 -0.234,0.526 -0.468,0.351 -0.556,0.263 -0.701,0.059 -0.556,-0.029 -0.351,-0.058 -0.088,0.234 0,0"></path>
          </g>
          <g id="g3075" transform="matrix(0.9400024,0,0,-0.9499969,337.47978,980.9362)">
            <path style="fill:#ffffff;fill-opacity:1;fill-rule:nonzero;stroke:none" id="path3077" d="m 0,0 c -0.205,0.439 -0.614,0.234 -0.965,0.38 -0.351,-0.087 -0.438,-0.497 -0.701,-0.701 0.117,-0.176 0.38,-0.234 0.614,-0.264 0.38,0.117 0.73,0.351 1.052,0.585"></path>
          </g>
          <g id="g3079" transform="matrix(0.9400024,0,0,-0.9499969,335.80321,980.54718)">
            <path style="fill:#ffffff;fill-opacity:1;fill-rule:nonzero;stroke:none" id="path3081" d="M 0,0 0,0.702 C -0.497,0.585 -1.199,0.555 -1.462,0.059 c 0.117,-0.147 0,-0.41 0.263,-0.469 C -0.702,-0.497 -0.351,-0.205 0,0"></path>
          </g>
          <g id="g3083" transform="matrix(0.9400024,0,0,-0.9499969,338.99132,980.04729)">
            <path style="fill:#ffffff;fill-opacity:1;fill-rule:nonzero;stroke:none" id="path3085" d="M 0,0 C -0.058,0.292 -0.526,0.439 -0.789,0.673 -1.257,0.614 -1.754,0.819 -1.988,0.351 -1.901,0.322 -1.813,0.263 -1.784,0.175 -1.813,0.059 -2.047,-0.029 -2.105,-0.029 -1.754,0.146 -1.374,0.088 -0.994,0 c 0.088,-0.117 0.117,-0.322 0.058,-0.409 0.381,0 0.79,0.058 0.936,0.409"></path>
          </g>
          <g id="g3087" transform="matrix(0.9400024,0,0,-0.9499969,334.86884,979.3251)">
            <path style="fill:#ffffff;fill-opacity:1;fill-rule:nonzero;stroke:none" id="path3089" d="m 0,0 c -0.059,0.117 -0.146,0.117 -0.263,0.117 l 0.029,-0.292 C -0.146,-0.146 -0.059,-0.059 0,0"></path>
          </g>
          <g id="g3091" transform="matrix(0.9400024,0,0,-0.9499969,337.28728,978.8804)">
            <path style="fill:#ffffff;fill-opacity:1;fill-rule:nonzero;stroke:none" id="path3093" d="M 0,0 C 0.088,0.234 -0.146,0.438 -0.321,0.497 -0.643,0.585 -0.994,0.76 -1.345,0.555 -1.608,0.263 -1.871,-0.029 -1.988,-0.38 c 0.526,-0.234 1.082,0 1.608,0.263 L 0,0 z"></path>
          </g>
          <g id="g3095" transform="matrix(0.9400024,0,0,-0.9499969,325.68887,979.35265)">
            <path style="fill:#ed1639;fill-opacity:1;fill-rule:nonzero;stroke:none" id="path3097" d="m 0,0 c 0.293,0.322 0.877,0 1.082,0.555 0.585,0.702 0.351,1.784 1.024,2.398 0,0.146 0.116,0.292 0,0.409 C 1.901,3.245 1.696,2.953 1.462,2.807 1.228,2.251 0.672,2.164 0.293,1.696 0.351,1.023 -0.058,0.555 -0.263,0 L -0.058,0.088 0,0 z"></path>
          </g>
          <g id="g3099" transform="matrix(0.9400024,0,0,-0.9499969,339.12903,979.15828)">
            <path style="fill:#ffffff;fill-opacity:1;fill-rule:nonzero;stroke:none" id="path3101" d="m 0,0 0.029,0.058 c 0.029,0 -0.38,0.088 -0.175,0.235 0.117,0.058 0.321,0.029 0.321,0.204 C 0.117,0.672 0.146,0.76 0.146,0.965 -0.146,1.491 -0.556,0.994 -1.023,1.111 L -1.316,0.79 c 0.059,-0.41 0.585,-0.088 0.585,-0.527 0.175,-0.058 0.292,-0.292 0.497,-0.205 L -0.263,0 -0.029,-0.176 C 0,-0.146 -0.088,0 0,0"></path>
          </g>
          <g id="g3103" transform="matrix(0.9400024,0,0,-0.9499969,335.58353,978.01952)">
            <path style="fill:#ffffff;fill-opacity:1;fill-rule:nonzero;stroke:none" id="path3105" d="M 0,0 C 0.058,0.117 0.292,-0.059 0.263,0.146 0.117,0.497 -0.205,0.585 -0.497,0.702 -0.614,0.585 -0.76,0.468 -0.965,0.497 -1.17,0.263 -1.433,0 -1.287,-0.351 l 0.176,-0.146 C -0.731,-0.351 -0.234,-0.322 0,0"></path>
          </g>
          <g id="g3107" transform="matrix(0.9400024,0,0,-0.9499969,338.4417,977.51953)">
            <path style="fill:#ffffff;fill-opacity:1;fill-rule:nonzero;stroke:none" id="path3109" d="M 0,0 -0.994,0.877 C -1.403,0.76 -1.871,0.585 -2.105,0.205 c 0.322,-0.322 0.731,-0.322 1.199,-0.409 0.234,-0.556 0.467,0.146 0.877,-0.03 C 0.117,-0.176 -0.058,-0.088 0,0"></path>
          </g>
          <g id="g3111" transform="matrix(0.9400024,0,0,-0.9499969,391.18109,499.74805)">
            <path style="fill:#ffffff;fill-opacity:1;fill-rule:nonzero;stroke:none" id="path3113" d="m -54.585,-503.357 0.029,0 0,0.088 -0.029,0 0,-0.088 z"></path>
          </g>
          <g id="g3115" transform="matrix(0.9400024,0,0,-0.9499969,336.51788,976.49184)">
            <path style="fill:#ffffff;fill-opacity:1;fill-rule:nonzero;stroke:none" id="path3117" d="M 0,0 0.322,-0.117 C 0.409,-0.058 0.439,0.088 0.439,0.234 0.117,0.468 -0.234,0.965 -0.702,0.702 -1.257,0.643 -1.228,0 -1.608,-0.292 c 0.322,-0.497 0.789,0.175 1.257,0.029 L 0,0 z"></path>
          </g>
          <g id="g3119" transform="matrix(0.9400024,0,0,-0.9499969,338.79927,976.71404)">
            <path style="fill:#ffffff;fill-opacity:1;fill-rule:nonzero;stroke:none" id="path3121" d="m 0,0 c 0.497,0.175 0.117,0.79 0.175,1.169 -0.117,0.381 -0.526,0.03 -0.76,0.03 L -1.287,0.673 C -0.965,0.205 -0.234,0.292 0.117,-0.146 L 0,0 z"></path>
          </g>
          <g id="g3123" transform="matrix(0.9400024,0,0,-0.9499969,334.67633,975.74162)">
            <path style="fill:#ffffff;fill-opacity:1;fill-rule:nonzero;stroke:none" id="path3125" d="m 0,0 0.555,0.38 c -0.233,0.117 -0.73,0.38 -1.11,0.175 -0.146,-0.116 -0.41,0 -0.497,-0.234 -0.088,-0.38 0.38,-0.233 0.321,-0.614 C -0.38,-0.614 -0.146,-0.322 0,0"></path>
          </g>
          <g id="g3127" transform="matrix(0.9400024,0,0,-0.9499969,338.08458,974.90848)">
            <path style="fill:#ffffff;fill-opacity:1;fill-rule:nonzero;stroke:none" id="path3129" d="M 0,0 C -0.146,0.351 -0.585,0.38 -0.877,0.555 -1.257,0.38 -1.813,0.497 -2.047,0.059 -1.754,-0.205 -1.433,-0.175 -1.082,-0.351 -0.702,-0.409 -0.263,-0.322 0,0"></path>
          </g>
          <g id="g3131" transform="matrix(0.9400024,0,0,-0.9499969,338.60666,973.71404)">
            <path style="fill:#ffffff;fill-opacity:1;fill-rule:nonzero;stroke:none" id="path3133" d="M 0,0 C -0.117,0.292 0.088,0.643 -0.234,0.76 -0.643,0.585 -1.17,0.497 -1.374,0.058 c 0.175,-0.117 0.438,-0.146 0.643,-0.234 l 0.409,-0.672 C 0.059,-0.76 -0.146,-0.263 0,0"></path>
          </g>
          <g id="g3135" transform="matrix(0.9400024,0,0,-0.9499969,335.9409,974.18628)">
            <path style="fill:#ffffff;fill-opacity:1;fill-rule:nonzero;stroke:none" id="path3137" d="M 0,0 0.555,0.351 C 0.321,0.497 0.175,0.76 -0.117,0.819 -0.76,0.555 -1.696,0.585 -1.93,-0.234 -1.492,-0.322 -0.907,-0.38 -0.556,0.088 L 0,0 z"></path>
          </g>
          <g id="g3139" transform="matrix(0.9400024,0,0,-0.9499969,334.31894,973.26964)">
            <path style="fill:#ffffff;fill-opacity:1;fill-rule:nonzero;stroke:none" id="path3141" d="M 0,0 0.03,0.234 C -0.438,0.058 -0.994,0.731 -1.403,0.205 -1.637,0.058 -1.696,-0.204 -1.608,-0.468 c 0.117,-0.088 0.146,-0.321 0.351,-0.321 0.556,0 0.848,0.526 1.257,0.789"></path>
          </g>
          <g id="g3143" transform="matrix(0.9400024,0,0,-0.9499969,337.47978,972.5197)">
            <path style="fill:#ffffff;fill-opacity:1;fill-rule:nonzero;stroke:none" id="path3145" d="M 0,0 C -0.088,0.205 -0.234,0.38 -0.38,0.497 -0.906,0.585 -1.228,0.672 -1.754,0.439 -1.842,0.146 -2.456,0.146 -2.134,-0.234 -1.491,-0.38 -0.789,-0.439 -0.205,-0.322 L 0,0 z"></path>
          </g>
          <g id="g3147" transform="matrix(0.9400024,0,0,-0.9499969,335.41827,971.68628)">
            <path style="fill:#ffffff;fill-opacity:1;fill-rule:nonzero;stroke:none" id="path3149" d="M 0,0 C -0.38,0.234 -0.965,0.322 -1.403,0.088 -1.608,-0.117 -2.134,-0.263 -2.047,-0.614 -1.666,-0.907 -1.082,-0.673 -0.643,-0.79 -0.614,-0.439 -0.146,-0.322 0,0"></path>
          </g>
          <g id="g3151" transform="matrix(0.9400024,0,0,-0.9499969,338.24956,971.07524)">
            <path style="fill:#ffffff;fill-opacity:1;fill-rule:nonzero;stroke:none" id="path3153" d="m 0,0 c 0,0.555 -0.468,0.234 -0.79,0.351 -0.321,-0.059 -0.555,-0.38 -0.701,-0.614 0.204,-0.088 0.438,0.058 0.643,-0.088 0.263,-0.146 0.38,-0.439 0.702,-0.439 C 0.058,-0.527 -0.263,-0.234 0,0"></path>
          </g>
          <g id="g3155" transform="matrix(0.9400024,0,0,-0.9499969,333.52209,971.2697)">
            <path style="fill:#ffffff;fill-opacity:1;fill-rule:nonzero;stroke:none" id="path3157" d="M 0,0 C 0.029,0.088 0.263,0.205 0.088,0.292 -0.292,0.526 -0.848,0.76 -1.286,0.526 -1.491,0.292 -2.017,0.322 -1.901,-0.088 -1.316,-0.322 -0.555,-0.088 0,0"></path>
          </g>
          <g id="g3159" transform="matrix(0.9400024,0,0,-0.9499969,336.43555,970.6864)">
            <path style="fill:#ffffff;fill-opacity:1;fill-rule:nonzero;stroke:none" id="path3161" d="M 0,0 C -0.088,0.439 -0.351,0.702 -0.79,0.789 -1.228,0.643 -1.813,0.555 -2.047,0.088 c 0.176,-0.117 0.468,-0.234 0.644,-0.059 0.117,0.234 0.38,0.146 0.555,0.088 0.234,-0.176 0.322,-0.497 0.643,-0.468 0.088,0.117 0,0.322 0.205,0.351"></path>
          </g>
          <g id="g3163" transform="matrix(0.9400024,0,0,-0.9499969,331.98274,969.85306)">
            <path style="fill:#ffffff;fill-opacity:1;fill-rule:nonzero;stroke:none" id="path3165" d="M 0,0 C 0,0.234 0.234,0.38 0.088,0.614 -0.585,0.643 -1.403,0.936 -1.871,0.205 -1.9,-0.059 -1.549,-0.117 -1.345,-0.146 -1.169,-0.059 -0.994,0 -0.789,-0.029 -0.672,-0.38 -0.029,-0.409 0,0"></path>
          </g>
          <g id="g3167" transform="matrix(0.9400024,0,0,-0.9499969,333.85185,970.01997)">
            <path style="fill:#ffffff;fill-opacity:1;fill-rule:nonzero;stroke:none" id="path3169" d="M 0,0 0,0.029 C 0.205,-0.029 0.614,0 0.702,0.263 0.555,0.76 -0.117,0.702 -0.555,0.848 -0.731,0.468 -1.228,0.41 -1.403,0.029 -0.965,-0.321 -0.351,0.497 0,0"></path>
          </g>
          <g id="g3171" transform="matrix(0.9400024,0,0,-0.9499969,337.83717,969.65869)">
            <path style="fill:#ffffff;fill-opacity:1;fill-rule:nonzero;stroke:none" id="path3173" d="M 0,0 C 0.088,0.322 -0.205,0.614 -0.409,0.789 -0.76,0.906 -1.286,0.994 -1.637,0.702 -1.754,0.614 -2.164,0.351 -1.813,0.146 -1.286,0.117 -0.76,-0.38 -0.205,-0.263 L 0,0 z"></path>
          </g>
          <g id="g3175" transform="matrix(0.9400024,0,0,-0.9499969,313.51349,969.40875)">
            <path style="fill:#ffffff;fill-opacity:1;fill-rule:nonzero;stroke:none" id="path3177" d="M 0,0 C 1.228,1.579 2.397,3.246 3.509,4.912 3.304,5.117 3.274,5.585 2.895,5.526 1.549,3.801 0.292,1.901 -0.965,0.059 c 0.146,-0.088 0.175,-0.381 0.351,-0.176 l 0.058,0.029 C -0.673,-0.439 -0.146,-0.292 0,0"></path>
          </g>
          <g id="g3179" transform="matrix(0.9400024,0,0,-0.9499969,330.25154,968.74223)">
            <path style="fill:#ffffff;fill-opacity:1;fill-rule:nonzero;stroke:none" id="path3181" d="M 0,0 C -0.146,0.293 -0.409,0.468 -0.643,0.731 -1.14,0.673 -1.842,0.79 -2.105,0.234 -2.047,0.176 -2.076,0.059 -2.047,-0.029 l 1.082,0.263 C -0.79,0.03 -0.234,-0.672 0,0"></path>
          </g>
          <g id="g3183" transform="matrix(0.9400024,0,0,-0.9499969,335.77585,968.35321)">
            <path style="fill:#ffffff;fill-opacity:1;fill-rule:nonzero;stroke:none" id="path3185" d="m 0,0 c -0.059,0.088 -0.029,0.205 -0.029,0.293 -0.702,0.233 -1.55,0.38 -2.076,-0.322 -0.059,-0.03 -0.029,-0.117 -0.029,-0.176 0.263,-0.087 0.555,-0.438 0.818,-0.117 0.468,0.088 0.907,-0.555 1.287,-0.088 L 0,0 z"></path>
          </g>
          <g id="g3187" transform="matrix(0.9400024,0,0,-0.9499969,332.86269,968.49219)">
            <path style="fill:#ffffff;fill-opacity:1;fill-rule:nonzero;stroke:none" id="path3189" d="M 0,0 0,0.293 C -0.439,0.468 -0.936,0.643 -1.287,0.965 -1.55,0.731 -1.959,0.614 -2.018,0.263 c 0.263,-0.088 0.702,-0.204 1.082,0 C -0.731,-0.088 -0.322,-0.234 0,0"></path>
          </g>
          <g id="g3191" transform="matrix(0.9400024,0,0,-0.9499969,337.7272,967.82539)">
            <path style="fill:#ffffff;fill-opacity:1;fill-rule:nonzero;stroke:none" id="path3193" d="M 0,0 C -0.059,0.585 -0.789,0.321 -1.14,0.526 -1.462,0.585 -1.871,0.497 -2.105,0.321 -1.959,-0.029 -1.433,0.029 -1.14,-0.234 -0.761,0 0,-0.906 -0.059,0 L 0,0 z"></path>
          </g>
          <g id="g3195" transform="matrix(0.9400024,0,0,-0.9499969,327.36546,967.52007)">
            <path style="fill:#ffffff;fill-opacity:1;fill-rule:nonzero;stroke:none" id="path3197" d="M 0,0 C 0,0.117 -0.029,0.205 -0.117,0.263 -0.351,0.234 -0.643,0.175 -0.731,-0.058 -0.76,-0.321 -0.439,-0.117 -0.321,-0.234 -0.205,-0.204 0.029,-0.204 0,0"></path>
          </g>
          <g id="g3199" transform="matrix(0.9400024,0,0,-0.9499969,334.42891,966.8812)">
            <path style="fill:#ffffff;fill-opacity:1;fill-rule:nonzero;stroke:none" id="path3201" d="M 0,0 C -0.234,0.468 -0.76,0.293 -1.14,0.41 -1.432,0.088 -1.9,0.029 -2.222,-0.292 -1.959,-0.818 -1.257,-0.409 -0.818,-0.673 -0.555,-0.351 0.38,-0.789 0,0"></path>
          </g>
          <g id="g3203" transform="matrix(0.9400024,0,0,-0.9499969,330.88361,967.07536)">
            <path style="fill:#ffffff;fill-opacity:1;fill-rule:nonzero;stroke:none" id="path3205" d="m 0,0 c 0.058,0.351 -0.409,0.146 -0.409,0.497 -0.468,-0.234 -1.082,-0.234 -1.492,-0.585 0.263,-0.205 0.79,-0.263 1.17,-0.234 C -0.497,-0.409 0.146,-0.526 0,0"></path>
          </g>
          <g id="g3207" transform="matrix(0.9400024,0,0,-0.9499969,338.60666,966.93657)">
            <path style="fill:#ffffff;fill-opacity:1;fill-rule:nonzero;stroke:none" id="path3209" d="M 0,0 C 0.029,0.117 -0.088,0.322 0.117,0.351 -0.059,0.643 -0.234,1.023 -0.555,1.228 -1.023,1.14 -1.667,1.199 -1.783,0.555 -1.55,0 -0.672,0.643 -0.555,0 -0.439,-0.292 -0.088,-0.263 0,0"></path>
          </g>
          <g id="g3211" transform="matrix(0.9400024,0,0,-0.9499969,336.16058,966.49216)">
            <path style="fill:#ffffff;fill-opacity:1;fill-rule:nonzero;stroke:none" id="path3213" d="m 0,0 c 0.322,0.117 0.176,0.555 0.351,0.789 -0.585,0.264 -1.316,0.03 -1.813,-0.351 0.029,-0.263 0.029,-0.672 0.38,-0.672 C -0.643,-0.175 -0.497,0.38 0,0"></path>
          </g>
          <g id="g3215" transform="matrix(0.9400024,0,0,-0.9499969,332.94502,966.01993)">
            <path style="fill:#ffffff;fill-opacity:1;fill-rule:nonzero;stroke:none" id="path3217" d="m 0,0 c -0.322,0.117 -0.79,0.497 -1.228,0.351 l -0.76,-0.526 C -1.754,-0.351 -1.404,-0.38 -1.17,-0.555 -0.848,-0.263 -0.41,-0.117 0,0"></path>
          </g>
          <g id="g3219" transform="matrix(0.9400024,0,0,-0.9499969,334.7865,965.32547)">
            <path style="fill:#ffffff;fill-opacity:1;fill-rule:nonzero;stroke:none" id="path3221" d="m 0,0 c -0.088,0.585 -0.76,0.205 -1.053,0.468 -0.233,-0.029 -0.643,-0.029 -0.789,-0.38 0.205,0 0.351,-0.293 0.438,-0.439 0.205,0.117 0.556,0.146 0.732,-0.029 L 0,0 z"></path>
          </g>
          <g id="g3223" transform="matrix(0.9400024,0,0,-0.9499969,339.12903,964.74226)">
            <path style="fill:#ffffff;fill-opacity:1;fill-rule:nonzero;stroke:none" id="path3225" d="M 0,0 C -0.029,0.351 -0.263,0.585 -0.673,0.526 -1.023,0.497 -1.404,0.322 -1.55,-0.029 -1.316,-0.556 -0.585,0 -0.526,-0.672 -0.176,-0.614 -0.176,-0.234 0,0"></path>
          </g>
          <g id="g3227" transform="matrix(0.9400024,0,0,-0.9499969,337.01224,965.10327)">
            <path style="fill:#ffffff;fill-opacity:1;fill-rule:nonzero;stroke:none" id="path3229" d="M 0,0 C -0.263,0.292 0.293,0.76 -0.204,0.906 -0.467,1.023 -0.789,1.023 -1.052,0.819 L -1.579,0.234 C -1.345,0.146 -0.994,0.117 -0.76,0.117 -0.526,0.029 -0.234,0.029 0,0"></path>
          </g>
          <g id="g3231" transform="matrix(0.9400024,0,0,-0.9499969,323.24271,964.65895)">
            <path style="fill:#ffffff;fill-opacity:1;fill-rule:nonzero;stroke:none" id="path3233" d="M 0,0 C 0.088,0.205 0.322,0.409 0.205,0.643 L -0.731,1.228 C -1.345,1.17 -2.134,0.965 -2.28,0.322 -2.164,0.088 -1.959,0.351 -1.754,0.263 -1.169,0.38 -0.672,-0.117 -0.117,0 L 0.234,-0.204 C 0.293,-0.058 0,-0.146 0,0"></path>
          </g>
          <g id="g3235" transform="matrix(0.9400024,0,0,-0.9499969,319.66985,964.77)">
            <path style="fill:#ffffff;fill-opacity:1;fill-rule:nonzero;stroke:none" id="path3237" d="M 0,0 C 0.176,0.497 -0.409,0.292 -0.585,0.468 -0.819,0.351 -1.17,0.526 -1.316,0.263 -1.374,0.059 -1.287,-0.029 -1.082,-0.058 L 0,0 z"></path>
          </g>
          <g id="g3239" transform="matrix(0.9400024,0,0,-0.9499969,335.44582,963.76994)">
            <path style="fill:#ffffff;fill-opacity:1;fill-rule:nonzero;stroke:none" id="path3241" d="m 0,0 c -0.234,0.292 -0.643,0.439 -0.994,0.263 -0.117,-0.175 -0.614,-0.292 -0.438,-0.614 0.233,-0.176 0.584,-0.117 0.877,-0.176 L 0,0 z"></path>
          </g>
          <g id="g3243" transform="matrix(0.9400024,0,0,-0.9499969,325.74396,963.76994)">
            <path style="fill:#ffffff;fill-opacity:1;fill-rule:nonzero;stroke:none" id="path3245" d="M 0,0 C 0.059,0.292 -0.117,0.585 -0.38,0.643 -0.994,0.702 -1.696,0.789 -2.222,0.439 l 0.409,-0.351 c 0.146,0.087 0.41,0 0.585,-0.147 0.292,-0.263 0.702,-0.204 1.052,-0.117 L 0,0 z"></path>
          </g>
          <g id="g3247" transform="matrix(0.9400024,0,0,-0.9499969,340.22816,963.49226)">
            <path style="fill:#ffffff;fill-opacity:1;fill-rule:nonzero;stroke:none" id="path3249" d="m 0,0 c -0.058,0.234 0.117,0.439 -0.029,0.614 -0.41,-0.292 -1.345,0.205 -1.316,-0.643 0.117,-0.175 0.263,0.058 0.38,-0.059 C -0.672,-0.497 -0.293,-0.146 0,0"></path>
          </g>
          <g id="g3251" transform="matrix(0.9400024,0,0,-0.9499969,318.04843,963.52)">
            <path style="fill:#ffffff;fill-opacity:1;fill-rule:nonzero;stroke:none" id="path3253" d="M 0,0 C 0.058,0.234 -0.03,0.351 -0.234,0.439 -0.497,0.322 -0.965,0.322 -0.965,-0.059 -0.672,-0.234 -0.176,-0.175 0,0"></path>
          </g>
          <g id="g3255" transform="matrix(0.9400024,0,0,-0.9499969,336.98544,963.54774)">
            <path style="fill:#ffffff;fill-opacity:1;fill-rule:nonzero;stroke:none" id="path3257" d="m 0,0 c 0,0.205 -0.205,0.497 -0.497,0.555 -0.176,0.234 -0.468,0.059 -0.702,0 L -1.258,0.497 C -1.082,-0.146 -0.468,0.263 0,0"></path>
          </g>
          <g id="g3259" transform="matrix(0.9400024,0,0,-0.9499969,320.93405,963.21429)">
            <path style="fill:#ffffff;fill-opacity:1;fill-rule:nonzero;stroke:none" id="path3261" d="M 0,0 C -0.292,0.117 -0.468,0.497 -0.818,0.643 -1.316,0.701 -1.696,0.234 -2.222,0.234 l 0,-0.351 c 0.702,0.555 1.228,-0.41 1.871,-0.088 L 0,0 z"></path>
          </g>
          <g id="g3263" transform="matrix(0.9400024,0,0,-0.9499969,337.67212,963.40904)">
            <path style="fill:#ffffff;fill-opacity:1;fill-rule:nonzero;stroke:none" id="path3265" d="M 0,0 0.059,-0.029 0.263,0.059 0,0 z"></path>
          </g>
          <g id="g3267" transform="matrix(0.9400024,0,0,-0.9499969,338.46924,962.90887)">
            <path style="fill:#ffffff;fill-opacity:1;fill-rule:nonzero;stroke:none" id="path3269" d="m 0,0 0.146,0.205 c -0.438,0.409 -0.965,0.087 -1.432,0.146 0.204,-0.176 0.263,-0.643 0.584,-0.527 L -0.38,-0.497 C -0.088,-0.409 -0.322,0 0,0"></path>
          </g>
          <g id="g3271" transform="matrix(0.9400024,0,0,-0.9499969,327.3381,962.32558)">
            <path style="fill:#ffffff;fill-opacity:1;fill-rule:nonzero;stroke:none" id="path3273" d="M 0,0 C 0.088,0.088 0.234,0.029 0.351,-0.059 -0.263,0.497 -1.345,0.468 -2.076,0.263 L -2.339,-0.029 C -1.901,-0.351 -0.994,0.029 -0.76,-0.643 -0.497,-0.468 0.117,-0.497 0,0"></path>
          </g>
          <g id="g3275" transform="matrix(0.9400024,0,0,-0.9499969,323.57254,962.52003)">
            <path style="fill:#ffffff;fill-opacity:1;fill-rule:nonzero;stroke:none" id="path3277" d="M 0,0 C 0.059,0.614 -0.643,0.468 -0.965,0.731 -1.316,0.38 -1.93,0.322 -2.251,-0.029 -1.959,-0.38 -1.696,0.059 -1.374,0.029 -0.994,-0.146 -0.351,-0.468 0,0"></path>
          </g>
          <g id="g3279" transform="matrix(0.9400024,0,0,-0.9499969,317.47118,962.02025)">
            <path style="fill:#ffffff;fill-opacity:1;fill-rule:nonzero;stroke:none" id="path3281" d="M 0,0 C -0.263,0.029 -0.146,0.234 -0.205,0.351 -0.555,0.497 -0.906,0.322 -1.023,0 L -1.082,-0.321 C -0.789,-0.292 -0.293,-0.204 0,0"></path>
          </g>
          <g id="g3283" transform="matrix(0.9400024,0,0,-0.9499969,341.24535,961.35335)">
            <path style="fill:#ffffff;fill-opacity:1;fill-rule:nonzero;stroke:none" id="path3285" d="m 0,0 -0.117,0.117 c -0.175,-0.176 -0.497,-0.205 -0.731,-0.351 -0.263,-0.029 -0.497,-0.088 -0.673,-0.292 0,-0.176 0.205,-0.176 0.351,-0.176 0.322,0.059 0.409,-0.438 0.702,-0.204 C -0.117,-0.731 0,-0.351 0,0"></path>
          </g>
          <g id="g3287" transform="matrix(0.9400024,0,0,-0.9499969,337.14995,961.77011)">
            <path style="fill:#ffffff;fill-opacity:1;fill-rule:nonzero;stroke:none" id="path3289" d="M 0,0 C -0.263,0.146 -0.263,0.497 -0.672,0.292 -0.935,0.175 -1.462,0.029 -1.374,-0.321 -1.053,-0.38 -0.701,-0.526 -0.409,-0.468 -0.175,-0.351 -0.263,-0.029 0,0"></path>
          </g>
          <g id="g3291" transform="matrix(0.9400024,0,0,-0.9499969,320.13721,961.71463)">
            <path style="fill:#ffffff;fill-opacity:1;fill-rule:nonzero;stroke:none" id="path3293" d="M 0,0 C -0.439,0.146 -0.994,0.614 -1.462,0.292 -1.667,0.088 -1.871,-0.234 -2.076,-0.468 -1.374,-0.146 -0.731,-0.029 0,0"></path>
          </g>
          <g id="g3295" transform="matrix(0.9400024,0,0,-0.9499969,339.12903,961.57564)">
            <path style="fill:#ffffff;fill-opacity:1;fill-rule:nonzero;stroke:none" id="path3297" d="M 0,0 C 0.146,0.146 0.439,0.351 0.439,0.556 0.088,0.789 -0.322,0.556 -0.673,0.497 -0.819,0.322 -1.111,0.234 -1.14,-0.029 -0.936,-0.322 -0.468,0.058 -0.205,-0.205 0,-0.292 -0.059,-0.088 0,0"></path>
          </g>
          <g id="g3299" transform="matrix(0.9400024,0,0,-0.9499969,325.85413,961.21446)">
            <path style="fill:#ffffff;fill-opacity:1;fill-rule:nonzero;stroke:none" id="path3301" d="M 0,0 C -0.088,0.351 -0.585,0.175 -0.79,0.468 -1.257,0.818 -1.725,0.263 -2.106,0.058 -2.369,-0.205 -2.164,-0.439 -1.872,-0.526 -1.17,-0.672 -0.702,0 0,0"></path>
          </g>
          <g id="g3303" transform="matrix(0.9400024,0,0,-0.9499969,328.68512,961.27003)">
            <path style="fill:#ffffff;fill-opacity:1;fill-rule:nonzero;stroke:none" id="path3305" d="M 0,0 C 0.116,0.175 0.175,0.38 0.321,0.555 0.175,1.052 -0.351,0.877 -0.673,0.994 -1.17,0.935 -1.609,0.76 -2.047,0.526 -2.135,0.439 -2.135,0.322 -2.193,0.205 -1.988,0.117 -1.579,0.409 -1.404,0.088 -0.79,0.497 -0.644,-0.702 -0.146,0 L 0,0 z"></path>
          </g>
          <g id="g3307" transform="matrix(0.9400024,0,0,-0.9499969,322.61082,961.02008)">
            <path style="fill:#ffffff;fill-opacity:1;fill-rule:nonzero;stroke:none" id="path3309" d="M 0,0 C 0.175,0.029 0.263,-0.088 0.467,-0.029 L 0.409,0.38 C -0.117,0.497 -0.673,0.526 -1.17,0.351 -1.462,0.234 -1.667,0.029 -1.988,-0.058 c 0,-0.264 0.292,-0.234 0.438,-0.381 C -1.111,-0.146 -0.497,-0.205 0,0"></path>
          </g>
          <g id="g3311" transform="matrix(0.9400024,0,0,-0.9499969,342.23479,960.85336)">
            <path style="fill:#ffffff;fill-opacity:1;fill-rule:nonzero;stroke:none" id="path3313" d="m 0,0 c 0,0.175 0.088,0.351 0.205,0.438 0,0.147 -0.176,0.117 -0.264,0.176 L -0.146,0.526 C -0.497,0.614 -0.877,0.438 -1.199,0.205 L -1.257,0.146 C -0.965,-0.146 -0.322,-0.468 0,0"></path>
          </g>
          <g id="g3315" transform="matrix(0.9400024,0,0,-0.9499969,338.27692,960.43698)">
            <path style="fill:#ffffff;fill-opacity:1;fill-rule:nonzero;stroke:none" id="path3317" d="m 0,0 c -0.205,0.263 -0.556,0.176 -0.907,0.205 -0.321,-0.029 -0.35,-0.322 -0.497,-0.526 0.147,-0.38 0.556,-0.088 0.848,-0.088 L 0,0 z"></path>
          </g>
          <g id="g3319" transform="matrix(0.9400024,0,0,-0.9499969,329.09685,960.77005)">
            <path style="fill:#ffffff;fill-opacity:1;fill-rule:nonzero;stroke:none" id="path3321" d="M 0,0 0.234,-0.088 0.117,0 0,0 z"></path>
          </g>
          <g id="g3323" transform="matrix(0.9400024,0,0,-0.9499969,315.7397,960.60342)">
            <path style="fill:#ffffff;fill-opacity:1;fill-rule:nonzero;stroke:none" id="path3325" d="M 0,0 C 0.058,0.175 -0.117,0.263 -0.205,0.409 -0.439,0.351 -0.848,0.322 -0.819,0.029 -0.643,-0.292 -0.293,0.059 0,0"></path>
          </g>
          <g id="g3327" transform="matrix(0.9400024,0,0,-0.9499969,318.13058,960.27025)">
            <path style="fill:#ffffff;fill-opacity:1;fill-rule:nonzero;stroke:none" id="path3329" d="M 0,0 C -0.087,0.205 -0.175,0.409 -0.439,0.439 -0.818,0.263 -1.257,0.263 -1.579,-0.088 l 0.205,-0.263 C -0.965,-0.146 -0.439,-0.204 0,0"></path>
          </g>
          <g id="g3331" transform="matrix(0.9400024,0,0,-0.9499969,302.05232,960.43698)">
            <path style="fill:#ed1639;fill-opacity:1;fill-rule:nonzero;stroke:none" id="path3333" d="m 0,0 c 3.363,0.205 6.93,0.38 10.35,0.643 0.205,0.264 0.585,0.234 0.819,0.176 6.871,0.877 13.421,2.485 19.883,4.298 3.479,0.965 6.783,2.31 9.999,3.86 0.263,0.233 0.234,0.584 0.322,0.877 -1.199,6.637 -2.369,13.07 -3.655,19.502 -0.527,2.836 -1.462,5.76 -1.754,8.421 -0.088,-0.03 -0.059,0.321 -0.263,0.234 l 0.087,0.087 c -1.228,5.672 -3.128,11.111 -7.017,15.643 -0.293,0.029 -0.147,0.38 -0.38,0.497 -5.79,6.696 -13.655,11.315 -22.485,12.163 -5.38,-4.064 -9.093,-9.941 -11.578,-15.788 -1.93,-5.176 -2.807,-10.819 -2.135,-16.55 0.702,-7.105 2.515,-13.946 3.86,-20.847 0.38,-0.38 0.117,-0.994 0.351,-1.433 0.877,-3.976 1.959,-7.865 2.836,-11.841 0.351,-0.088 0.818,-0.059 1.199,-0.03 L 0,0 z"></path>
          </g>
          <g id="g3335" transform="matrix(0.9400024,0,0,-0.9499969,326.87083,959.88133)">
            <path style="fill:#ffffff;fill-opacity:1;fill-rule:nonzero;stroke:none" id="path3337" d="M 0,0 C 0.175,0.146 0.439,0.146 0.614,0.292 0.409,0.527 0,0.409 -0.293,0.527 -0.673,0.322 -1.082,0.146 -1.199,-0.321 c 0.088,0 0.263,-0.381 0.497,-0.205 C -0.556,-0.263 -0.234,-0.059 0,0"></path>
          </g>
          <g id="g3339" transform="matrix(0.9400024,0,0,-0.9499969,320.93405,960.18675)">
            <path style="fill:#ffffff;fill-opacity:1;fill-rule:nonzero;stroke:none" id="path3341" d="M 0,0 C 0.293,0.058 0,0.321 0.205,0.438 -0.322,0.789 -0.906,0.672 -1.491,0.526 -1.403,0.321 -1.784,0.38 -1.608,0.175 -1.754,0.088 -1.93,0 -1.901,-0.205 -1.257,-0.146 -0.673,0.117 0,0"></path>
          </g>
          <g id="g3343" transform="matrix(0.9400024,0,0,-0.9499969,341.27271,959.88133)">
            <path style="fill:#ffffff;fill-opacity:1;fill-rule:nonzero;stroke:none" id="path3345" d="m 0,0 c -0.409,0.439 -1.053,0.058 -1.579,0.058 l -0.175,-0.292 c 0.409,-0.263 0.848,-0.087 1.257,-0.292 C -0.293,-0.439 0.029,-0.292 0,0"></path>
          </g>
          <g id="g3347" transform="matrix(0.9400024,0,0,-0.9499969,324.78204,959.88133)">
            <path style="fill:#ffffff;fill-opacity:1;fill-rule:nonzero;stroke:none" id="path3349" d="M 0,0 C 0.526,-0.175 0.263,0.614 0.731,0.702 0.789,1.111 0.263,0.907 0.117,1.023 -0.526,0.76 -1.257,0.614 -1.579,-0.059 -1.491,-0.263 -1.14,-0.468 -0.936,-0.234 -0.614,-0.059 -0.322,-0.029 0,0"></path>
          </g>
          <g id="g3351" transform="matrix(0.9400024,0,0,-0.9499969,330.00414,958.93694)">
            <path style="fill:#ffffff;fill-opacity:1;fill-rule:nonzero;stroke:none" id="path3353" d="m 0,0 -0.117,0.263 c -0.731,-0.058 -1.579,-0.029 -1.959,-0.731 0.41,-0.526 1.082,0.176 1.521,-0.351 C -0.38,-0.585 -0.029,-0.38 0,0"></path>
          </g>
          <g id="g3355" transform="matrix(0.9400024,0,0,-0.9499969,339.48622,959.07564)">
            <path style="fill:#ffffff;fill-opacity:1;fill-rule:nonzero;stroke:none" id="path3357" d="m 0,0 c -0.234,-0.088 -0.409,0.029 -0.614,0.234 -0.292,-0.146 -0.818,0.058 -0.877,-0.351 0.117,-0.497 0.702,-0.205 1.082,-0.38 L 0,0 z"></path>
          </g>
          <g id="g3359" transform="matrix(0.9400024,0,0,-0.9499969,342.75668,958.71472)">
            <path style="fill:#ffffff;fill-opacity:1;fill-rule:nonzero;stroke:none" id="path3361" d="m 0,0 c -0.234,0.439 -0.789,0.205 -1.14,0.205 -0.146,-0.117 -0.409,0 -0.468,-0.234 0.117,-0.41 0.643,-0.088 0.848,-0.38 0.088,0 0.234,0.146 0.322,0 0,-0.059 -0.088,-0.117 -0.117,-0.146 0.321,-0.556 0.379,0.292 0.672,0.146 L 0,0 z"></path>
          </g>
          <g id="g3363" transform="matrix(0.9400024,0,0,-0.9499969,330.38878,959.21452)">
            <path style="fill:#ffffff;fill-opacity:1;fill-rule:nonzero;stroke:none" id="path3365" d="M 0,0 C -0.029,0.029 -0.088,0.146 -0.205,0.117 -0.263,0.029 -0.059,-0.059 0,0"></path>
          </g>
          <g id="g3367" transform="matrix(0.9400024,0,0,-0.9499969,307.60397,958.88155)">
            <path style="fill:#ffffff;fill-opacity:1;fill-rule:nonzero;stroke:none" id="path3369" d="M 0,0 8.801,0.994 C 8.041,5.205 7.017,9.269 6.023,13.45 5.848,13.421 5.789,13.655 5.731,13.713 1.17,12.924 -3.391,12.573 -7.953,12.105 -7.836,11.9 -8.07,11.871 -8.04,11.696 -7.339,7.778 -6.491,4.152 -5.643,0.351 -5.438,0.176 -5.497,-0.117 -5.438,-0.351 -3.684,-0.087 -1.754,-0.175 0,0"></path>
          </g>
          <g id="g3371" transform="matrix(0.9400024,0,0,-0.9499969,340.77808,958.07585)">
            <path style="fill:#ffffff;fill-opacity:1;fill-rule:nonzero;stroke:none" id="path3373" d="M 0,0 C -0.439,0.322 -0.994,0.351 -1.491,0.059 -1.579,0 -1.52,-0.088 -1.55,-0.175 -1.14,-0.497 -0.088,-0.848 0,0"></path>
          </g>
          <g id="g3375" transform="matrix(0.9400024,0,0,-0.9499969,330.99358,957.65938)">
            <path style="fill:#ffffff;fill-opacity:1;fill-rule:nonzero;stroke:none" id="path3377" d="M 0,0 C 0.059,0.146 -0.146,0.263 0.029,0.351 0.088,0.293 0.205,0.351 0.263,0.322 0.176,0.38 0.088,0.614 0,0.439 -0.556,1.287 -1.404,0.351 -2.105,0.293 -2.047,0.263 -1.871,0.03 -1.93,-0.175 -1.257,0.03 -0.731,-0.526 -0.088,-0.234 L 0,0 z"></path>
          </g>
          <g id="g3379" transform="matrix(0.9400024,0,0,-0.9499969,343.25159,957.24243)">
            <path style="fill:#ffffff;fill-opacity:1;fill-rule:nonzero;stroke:none" id="path3381" d="M 0,0 C -0.059,0.029 -0.029,0.117 -0.029,0.175 -0.234,0.117 -0.205,0.409 -0.38,0.38 -0.877,0.468 -0.818,-0.058 -1.286,-0.029 -1.14,-0.263 -0.79,-0.205 -0.555,-0.351 -0.351,-0.322 -0.059,-0.263 0,0"></path>
          </g>
          <g id="g3383" transform="matrix(0.9400024,0,0,-0.9499969,341.24535,957.21487)">
            <path style="fill:#ffffff;fill-opacity:1;fill-rule:nonzero;stroke:none" id="path3385" d="M 0,0 C 0.204,0.234 0.409,0.76 0.848,0.731 0.555,0.76 0.292,0.848 -0.029,0.76 -0.263,0.556 -0.965,0.673 -0.761,0.176 -0.614,-0.204 -0.292,0.176 0,0"></path>
          </g>
          <g id="g3387" transform="matrix(0.9400024,0,0,-0.9499969,322.1711,954.65919)">
            <path style="fill:#ffffff;fill-opacity:1;fill-rule:nonzero;stroke:none" id="path3389" d="m 0,0 0.263,1.17 c -0.234,0.847 -0.702,1.783 -1.55,2.163 l -0.146,0.234 c -0.468,2.865 -0.731,6.023 -1.257,8.83 1.871,0.702 3.772,1.345 5.409,2.602 -0.058,0.556 -0.322,1.404 -0.322,1.901 -1.608,-0.556 -3.128,-1.228 -4.795,-1.637 -2.719,-0.527 -5.468,-1.082 -8.216,-1.258 -0.877,0 -1.52,0.322 -2.31,0 0.146,-0.672 0.088,-1.432 0.293,-2.105 2.017,-0.351 4.298,-0.38 6.403,-0.088 0.409,-0.526 0.38,-1.257 0.614,-1.871 0.673,-2.31 1.199,-4.766 1.988,-7.076 C -3.567,2.339 -4.24,2.427 -4.094,1.871 -4.532,1.579 -4.123,1.023 -4.298,0.672 -4.152,-0.292 -3.07,-0.848 -2.222,-1.14 -1.287,-1.257 -0.468,-0.673 0,0"></path>
          </g>
          <g id="g3391" transform="matrix(0.9400024,0,0,-0.9499969,339.40378,951.04825)">
            <path style="fill:#ffffff;fill-opacity:1;fill-rule:nonzero;stroke:none" id="path3393" d="m 0,0 c -0.351,1.053 -0.175,2.134 -0.439,3.187 -0.468,3.099 -1.023,6.228 -1.286,9.386 -0.322,0.204 -0.614,-0.234 -0.936,-0.264 -1.579,-0.496 -3.128,-1.111 -4.737,-1.491 l -0.117,-0.117 c -3.07,-0.789 -6.11,-1.725 -9.239,-2.397 0.059,-0.117 -0.088,-0.176 -0.176,-0.234 0.556,-0.673 0.41,-1.608 0.673,-2.398 0.79,-3.508 1.55,-7.105 2.544,-10.438 C -8.859,-3.918 -4.503,-1.784 0,0"></path>
          </g>
          <g id="g3395" transform="matrix(0.9400024,0,0,-0.9499969,350.42513,948.68723)">
            <path style="fill:#ffffff;fill-opacity:1;fill-rule:nonzero;stroke:none" id="path3397" d="M 0,0 -0.059,0.322 C -0.351,0.439 -0.526,0.146 -0.702,-0.058 -0.76,-0.205 -0.643,-0.234 -0.526,-0.263 -0.322,-0.322 -0.029,-0.263 0,0"></path>
          </g>
          <g id="g3399" transform="matrix(0.9400024,0,0,-0.9499969,351.2496,946.82619)">
            <path style="fill:#ffffff;fill-opacity:1;fill-rule:nonzero;stroke:none" id="path3401" d="M 0,0 C -0.146,0.351 -0.146,0.76 -0.585,0.819 -0.848,0.819 -1.14,0.643 -1.316,0.351 -1.316,0.029 -0.789,0 -0.994,-0.38 -0.789,-0.029 -0.234,-0.409 0,0"></path>
          </g>
          <g id="g3403" transform="matrix(0.9400024,0,0,-0.9499969,351.90919,944.68745)">
            <path style="fill:#ffffff;fill-opacity:1;fill-rule:nonzero;stroke:none" id="path3405" d="M 0,0 C -0.38,0.351 0.058,0.819 -0.439,1.023 -0.848,0.907 -1.316,0.877 -1.666,0.643 -1.549,0.029 -0.819,0.088 -0.468,-0.263 -0.263,-0.292 -0.088,-0.146 0,0"></path>
          </g>
          <g id="g3407" transform="matrix(0.9400024,0,0,-0.9499969,352.81621,942.85396)">
            <path style="fill:#ffffff;fill-opacity:1;fill-rule:nonzero;stroke:none" id="path3409" d="M 0,0 C 0.205,0.585 -0.351,0.731 -0.322,1.257 -0.877,1.199 -1.433,1.169 -1.901,0.848 -1.813,0.263 -1.053,0.497 -0.731,0.146 -0.526,0.029 -0.234,-0.322 0,0"></path>
          </g>
          <g id="g3411" transform="matrix(0.9400024,0,0,-0.9499969,351.57936,940.54871)">
            <path style="fill:#ffffff;fill-opacity:1;fill-rule:nonzero;stroke:none" id="path3413" d="M 0,0 C -0.088,0.497 -0.614,0.409 -0.877,0.731 -0.994,0.643 -1.228,0.556 -1.228,0.351 -0.936,0.146 -1.286,-0.497 -0.936,-0.672 -0.526,-0.555 -0.351,-0.117 0,0"></path>
          </g>
          <g id="g3415" transform="matrix(0.9400024,0,0,-0.9499969,353.28329,939.74319)">
            <path style="fill:#ffffff;fill-opacity:1;fill-rule:nonzero;stroke:none" id="path3417" d="M 0,0 C 0.176,0.439 -0.234,0.673 -0.585,0.76 -0.994,0.643 -1.462,0.614 -1.696,0.205 -1.17,-0.059 -0.409,-1.17 0,0"></path>
          </g>
          <g id="g3419" transform="matrix(0.9400024,0,0,-0.9499969,317.33394,939.24321)">
            <path style="fill:#ffffff;fill-opacity:1;fill-rule:nonzero;stroke:none" id="path3421" d="M 0,0 C 0.058,0.088 -0.176,0.117 -0.029,0.205 0.117,-0.176 0.468,0.263 0.702,0.38 1.052,0.702 1.374,1.14 1.871,1.287 L 2.076,1.55 1.725,2.836 -3.041,23.04 c -1.053,4.591 -2.369,9.064 -3.626,13.538 0.117,0.351 -0.263,0.468 -0.233,0.76 l -0.147,0.526 c -0.702,1.111 -1.403,2.31 -2.368,3.246 -0.731,-1.433 -1.082,-3.129 -1.082,-4.796 1.521,-8.712 3.538,-17.484 5.263,-25.963 l 2.105,-9.766 c 0.439,-0.146 0.76,-0.526 1.258,-0.497 l 0.175,0.292 -1.491,8.304 -3.655,18.303 c -0.117,1.141 -0.614,2.223 -0.585,3.334 l 0.059,0 C -4.825,20.204 -2.778,10.029 -0.059,0 L 0,0 z"></path>
          </g>
          <g id="g3423" transform="matrix(0.9400024,0,0,-0.9499969,352.73387,938.27089)">
            <path style="fill:#ffffff;fill-opacity:1;fill-rule:nonzero;stroke:none" id="path3425" d="m 0,0 c 0.117,0.088 0.058,0.263 0,0.38 -0.322,0.322 -0.702,0.146 -1.053,0.351 -0.351,0 -1.023,-0.029 -0.848,-0.556 0,-0.146 0.088,-0.234 0.234,-0.234 0.439,0.322 0.702,-0.438 1.141,-0.029 L 0,0 z"></path>
          </g>
          <g id="g3427" transform="matrix(0.9400024,0,0,-0.9499969,353.9429,937.07664)">
            <path style="fill:#ffffff;fill-opacity:1;fill-rule:nonzero;stroke:none" id="path3429" d="M 0,0 C 0,0.234 -0.117,0.497 -0.321,0.585 -0.935,0.79 -1.403,0.556 -1.959,0.439 L -2.105,0.234 c 0.614,0.029 1.053,-0.585 1.637,-0.702 C -0.292,-0.292 -0.088,-0.234 0,0"></path>
          </g>
          <g id="g3431" transform="matrix(0.9400024,0,0,-0.9499969,351.13962,936.82652)">
            <path style="fill:#ffffff;fill-opacity:1;fill-rule:nonzero;stroke:none" id="path3433" d="M 0,0 C 0.117,0.204 0.058,0.497 0.322,0.585 0,0.731 -0.322,0.585 -0.585,0.439 -0.702,0.321 -0.672,0.117 -0.643,-0.029 -0.438,-0.293 -0.234,0.058 0,0"></path>
          </g>
          <g id="g3435" transform="matrix(0.9400024,0,0,-0.9499969,310.59985,935.38223)">
            <path style="fill:#ffffff;fill-opacity:1;fill-rule:nonzero;stroke:none" id="path3437" d="m 0,0 c -1.17,5.643 -2.397,11.374 -3.538,17.017 -0.409,1.433 -0.76,2.895 -1.023,4.386 -0.672,2.544 -1.228,5.175 -1.667,7.748 -0.35,1.784 -0.614,3.713 -0.848,5.439 l -0.117,0.117 c -6.198,-7.544 -9.414,-16.754 -8.391,-26.813 0.146,-3.128 0.76,-6.169 1.491,-9.181 1.667,-0.438 3.567,0.059 5.438,0.088 C -5.789,-0.906 -2.836,-0.38 0,0"></path>
          </g>
          <g id="g3439" transform="matrix(0.9400024,0,0,-0.9499969,353.31102,935.57671)">
            <path style="fill:#ffffff;fill-opacity:1;fill-rule:nonzero;stroke:none" id="path3441" d="M 0,0 C -0.38,0.614 -1.111,0.555 -1.755,0.497 -1.93,0.263 -2.047,0.117 -2.105,-0.146 -1.784,-0.789 -1.228,0 -0.76,0 L 0,0 z"></path>
          </g>
          <g id="g3443" transform="matrix(0.9400024,0,0,-0.9499969,354.32782,934.5489)">
            <path style="fill:#ffffff;fill-opacity:1;fill-rule:nonzero;stroke:none" id="path3445" d="M 0,0 C 0.146,0.41 -0.293,0.643 -0.643,0.643 -1.111,0.643 -1.462,0.497 -1.93,0.38 -1.433,0.146 -0.877,-0.175 -0.439,-0.585 -0.117,-0.556 -0.117,-0.204 0,0"></path>
          </g>
          <g id="g3447" transform="matrix(0.9400024,0,0,-0.9499969,351.41438,934.32669)">
            <path style="fill:#ffffff;fill-opacity:1;fill-rule:nonzero;stroke:none" id="path3449" d="M 0,0 0.585,0.117 C 0.614,0.38 0.614,0.848 0.205,0.819 -0.38,0.848 -1.111,0.79 -1.374,0.234 -1.462,0 -1.286,-0.234 -1.023,-0.234 -0.672,-0.175 -0.263,-0.38 0,0"></path>
          </g>
          <g id="g3451" transform="matrix(0.9400024,0,0,-0.9499969,353.64107,932.99347)">
            <path style="fill:#ffffff;fill-opacity:1;fill-rule:nonzero;stroke:none" id="path3453" d="m 0,0 c -0.439,0.292 -0.673,1.316 -1.404,0.702 -0.175,-0.205 -0.585,0 -0.789,-0.263 0.322,-0.088 0.701,-0.351 1.082,-0.497 0.233,-0.088 0.76,0 1.111,0.058"></path>
          </g>
          <g id="g3455" transform="matrix(0.9400024,0,0,-0.9499969,350.61754,932.68776)">
            <path style="fill:#ffffff;fill-opacity:1;fill-rule:nonzero;stroke:none" id="path3457" d="M 0,0 C -0.029,0.205 -0.234,0.205 -0.351,0.38 -0.585,0.38 -0.818,0.263 -0.877,0.029 -0.76,-0.468 -0.205,-0.322 0,0"></path>
          </g>
          <g id="g3459" transform="matrix(0.9400024,0,0,-0.9499969,329.15193,931.02109)">
            <path style="fill:#ffffff;fill-opacity:1;fill-rule:nonzero;stroke:none" id="path3461" d="m 0,0 c 2.135,0.819 4.357,1.462 6.491,2.31 l 0.059,0.117 -0.059,0 C 5.965,3.304 6.315,4.093 6.023,5.058 5.263,8.713 4.24,12.28 2.982,15.73 c -3.275,6.14 -8.801,11.491 -14.999,14.59 -1.521,0.936 -3.275,1.521 -4.941,2.222 0.117,-0.526 0.175,-1.081 0.233,-1.637 l -0.058,0 -0.292,1.111 c 1.549,-6.725 3.362,-13.362 4.853,-20.058 1.228,-4.444 2.223,-9.18 3.333,-13.742 0.322,-0.175 0.585,0.176 0.848,0.03 C -5.292,-1.345 -2.69,-0.585 0,0"></path>
          </g>
          <g id="g3463" transform="matrix(0.9400024,0,0,-0.9499969,354.87726,932.10437)">
            <path style="fill:#ffffff;fill-opacity:1;fill-rule:nonzero;stroke:none" id="path3465" d="M 0,0 C 0.059,0.409 -0.321,0.555 -0.701,0.585 -0.965,0.409 -1.228,0.614 -1.462,0.38 -1.198,0.117 -1.14,-0.293 -0.789,-0.409 -0.438,-0.439 -0.175,-0.205 0,0"></path>
          </g>
          <g id="g3467" transform="matrix(0.9400024,0,0,-0.9499969,354.60268,931.77121)">
            <path style="fill:#231f20;fill-opacity:1;fill-rule:nonzero;stroke:none" id="path3469" d="M 0,0 C -0.029,0.029 -0.234,0.058 -0.176,-0.059 L 0,0 z"></path>
          </g>
          <g id="g3471" transform="matrix(0.9400024,0,0,-0.9499969,351.08482,931.41002)">
            <path style="fill:#ffffff;fill-opacity:1;fill-rule:nonzero;stroke:none" id="path3473" d="M 0,0 C 0.409,0.058 0.848,-0.439 1.169,0.029 0.965,0.409 0.585,0.526 0.263,0.877 -0.234,0.643 -0.994,0.555 -0.965,-0.175 -0.731,-0.702 -0.351,-0.117 0,0"></path>
          </g>
          <g id="g3475" transform="matrix(0.9400024,0,0,-0.9499969,353.91554,930.6046)">
            <path style="fill:#ffffff;fill-opacity:1;fill-rule:nonzero;stroke:none" id="path3477" d="M 0,0 C -0.029,0.263 0.409,0.702 -0.117,0.79 -0.497,0.877 -0.585,1.228 -1.053,1.14 -1.257,0.731 -1.784,0.643 -2.134,0.556 -1.93,-0.176 -1.345,0.497 -0.965,0.088 -0.702,-0.088 -0.205,-0.614 0,0"></path>
          </g>
          <g id="g3479" transform="matrix(0.9400024,0,0,-0.9499969,350.09509,930.24342)">
            <path style="fill:#ffffff;fill-opacity:1;fill-rule:nonzero;stroke:none" id="path3481" d="M 0,0 C 0,0.176 0.088,0.322 0.234,0.439 0,0.614 -0.234,1.17 -0.614,0.731 c -0.175,0 -0.321,0.292 -0.497,0.029 -0.117,-0.146 0.029,-0.292 -0.175,-0.409 0,-0.205 0,-0.41 0.233,-0.497 C -0.789,0.029 -0.351,0.146 0,0"></path>
          </g>
          <g id="g3483" transform="matrix(0.9400024,0,0,-0.9499969,355.12486,929.21581)">
            <path style="fill:#ffffff;fill-opacity:1;fill-rule:nonzero;stroke:none" id="path3485" d="M 0,0 C 0.029,0.322 0,0.76 -0.322,0.936 -0.555,0.907 -0.731,0.673 -1.023,0.702 L -1.462,0.205 C -1.111,0 -0.643,-0.38 -0.175,-0.351 L 0,0 z"></path>
          </g>
          <g id="g3487" transform="matrix(0.9400024,0,0,-0.9499969,352.45882,928.74347)">
            <path style="fill:#ffffff;fill-opacity:1;fill-rule:nonzero;stroke:none" id="path3489" d="M 0,0 C -0.088,0.439 -0.643,0.409 -0.848,0.76 -1.199,0.672 -1.491,0.468 -1.871,0.439 L -2.31,0 c 0.146,-0.146 0.205,-0.439 0.497,-0.439 C -1.286,0.175 -0.351,-0.936 0,0"></path>
          </g>
          <g id="g3491" transform="matrix(0.9400024,0,0,-0.9499969,349.71043,927.82681)">
            <path style="fill:#ffffff;fill-opacity:1;fill-rule:nonzero;stroke:none" id="path3493" d="M 0,0 C 0.322,-0.205 0.556,0.234 0.79,0.351 L -0.088,0.877 C -0.556,0.76 -1.17,0.526 -1.316,0 -1.257,-0.088 -1.345,-0.322 -1.14,-0.293 -0.76,-0.205 -0.468,0.292 0,0"></path>
          </g>
          <g id="g3495" transform="matrix(0.9400024,0,0,-0.9499969,354.10786,927.66019)">
            <path style="fill:#ffffff;fill-opacity:1;fill-rule:nonzero;stroke:none" id="path3497" d="m 0,0 c -0.497,0.205 -0.614,0.848 -1.228,0.789 -0.292,-0.38 -0.848,-0.38 -1.082,-0.818 0.176,-0.059 0.439,0.117 0.585,-0.146 0.351,0.058 0.76,0.116 1.024,-0.176 C -0.497,-0.205 -0.263,-0.029 0,0"></path>
          </g>
          <g id="g3499" transform="matrix(0.9400024,0,0,-0.9499969,355.56459,927.10472)">
            <path style="fill:#ffffff;fill-opacity:1;fill-rule:nonzero;stroke:none" id="path3501" d="m 0,0 c 0.117,0.439 -0.088,0.731 -0.263,1.111 -0.556,0.029 -1.14,0.146 -1.667,-0.146 -0.058,-0.79 0.936,-0.731 1.433,-1.111 0.175,0 0.38,0 0.497,0.146"></path>
          </g>
          <g id="g3503" transform="matrix(0.9400024,0,0,-0.9499969,352.32158,926.3548)">
            <path style="fill:#ffffff;fill-opacity:1;fill-rule:nonzero;stroke:none" id="path3505" d="m 0,0 c -0.292,0.263 -0.614,0.643 -1.053,0.702 -0.409,-0.234 -1.257,-0.176 -1.14,-0.907 0.468,-0.204 1.14,-0.204 1.637,-0.146 L 0,0 z"></path>
          </g>
          <g id="g3507" transform="matrix(0.9400024,0,0,-0.9499969,349.13329,926.02135)">
            <path style="fill:#ffffff;fill-opacity:1;fill-rule:nonzero;stroke:none" id="path3509" d="M 0,0 C 0.117,0.117 0.322,0.351 0.088,0.497 L 0.146,0.526 C -0.292,0.819 -0.848,0.468 -1.316,0.321 -1.433,0.146 -1.754,0.117 -1.696,-0.176 -1.17,-0.673 -0.643,0.204 0,0"></path>
          </g>
          <g id="g3511" transform="matrix(0.9400024,0,0,-0.9499969,353.75076,925.21594)">
            <path style="fill:#ffffff;fill-opacity:1;fill-rule:nonzero;stroke:none" id="path3513" d="M 0,0 C 0.029,0.117 0.146,0.205 0.263,0.205 -0.292,0.38 -0.351,1.053 -1.024,0.936 L -1.14,1.053 -2.018,0.351 c 0.351,-0.439 0.965,-0.556 1.462,-0.497 C -0.409,0.059 -0.234,-0.029 0,0"></path>
          </g>
          <g id="g3515" transform="matrix(0.9400024,0,0,-0.9499969,351.13962,924.21588)">
            <path style="fill:#ffffff;fill-opacity:1;fill-rule:nonzero;stroke:none" id="path3517" d="m 0,0 c -0.585,-0.176 -0.906,0.702 -1.462,0.322 -0.293,-0.293 -0.789,-0.41 -0.848,-0.819 0.527,-0.789 1.17,0.029 1.842,-0.029 C -0.263,-0.409 -0.117,-0.205 0,0"></path>
          </g>
          <g id="g3519" transform="matrix(0.9400024,0,0,-0.9499969,348.14383,924.3826)">
            <path style="fill:#ffffff;fill-opacity:1;fill-rule:nonzero;stroke:none" id="path3521" d="M 0,0 C 0.234,0.117 0.146,0.351 0.029,0.497 -0.439,0.468 -1.023,0.468 -1.257,-0.029 -1.316,-0.175 -1.228,-0.322 -1.082,-0.322 -0.731,-0.205 -0.439,0.058 0,0"></path>
          </g>
          <g id="g3523" transform="matrix(0.9400024,0,0,-0.9499969,355.20729,924.10472)">
            <path style="fill:#ffffff;fill-opacity:1;fill-rule:nonzero;stroke:none" id="path3525" d="M 0,0 C -0.38,0.234 -0.263,0.79 -0.643,0.994 -1.14,1.082 -1.52,0.79 -1.9,0.555 -1.433,0.146 -0.702,-0.556 0,0"></path>
          </g>
          <g id="g3527" transform="matrix(0.9400024,0,0,-0.9499969,347.12685,922.93813)">
            <path style="fill:#ffffff;fill-opacity:1;fill-rule:nonzero;stroke:none" id="path3529" d="M 0,0 C -0.205,0.117 -0.468,0.029 -0.702,0.059 -0.819,-0.029 -0.965,-0.146 -0.848,-0.293 -0.702,-0.526 0.088,-0.497 0,0"></path>
          </g>
          <g id="g3531" transform="matrix(0.9400024,0,0,-0.9499969,351.6069,923.04938)">
            <path style="fill:#ffffff;fill-opacity:1;fill-rule:nonzero;stroke:none" id="path3533" d="m 0,0 c 0.409,0.176 1.17,-0.263 1.228,0.38 0.146,0.059 0,0.263 0.088,0.351 C 1.023,0.848 0.702,1.14 0.38,0.877 L 0.322,0.936 C -0.205,0.877 -0.819,0.76 -0.994,0.205 -1.024,0.059 -0.848,0.088 -0.79,0.029 -0.848,-0.058 -0.848,-0.38 -0.614,-0.351 -0.351,-0.38 -0.176,-0.175 0,0"></path>
          </g>
          <g id="g3535" transform="matrix(0.9400024,0,0,-0.9499969,349.38069,923.216)">
            <path style="fill:#ffffff;fill-opacity:1;fill-rule:nonzero;stroke:none" id="path3537" d="M 0,0 C 0.643,-0.117 0.234,0.614 0.614,0.848 0.205,0.819 -0.205,1.579 -0.555,0.936 -0.673,0.409 -1.608,0.497 -1.17,-0.146 -0.79,0.117 -0.468,-0.029 0,0"></path>
          </g>
          <g id="g3539" transform="matrix(0.9400024,0,0,-0.9499969,348.22618,921.38271)">
            <path style="fill:#ffffff;fill-opacity:1;fill-rule:nonzero;stroke:none" id="path3541" d="m 0,0 c -0.351,-0.117 -0.877,-0.058 -0.994,-0.556 0,-0.117 0.088,-0.234 0.234,-0.263 C -0.585,-0.351 0.614,-0.76 0,0"></path>
          </g>
          <g id="g3543" transform="matrix(0.9400024,0,0,-0.9499969,346.38481,921.43819)">
            <path style="fill:#ffffff;fill-opacity:1;fill-rule:nonzero;stroke:none" id="path3545" d="M 0,0 C 0.029,0.555 -0.409,-0.059 -0.672,0.088 -0.848,0 -0.76,-0.234 -0.614,-0.322 -0.38,-0.322 -0.059,-0.292 0,0"></path>
          </g>
          <g id="g3547" transform="matrix(0.9400024,0,0,-0.9499969,351.02974,921.41054)">
            <path style="fill:#ffffff;fill-opacity:1;fill-rule:nonzero;stroke:none" id="path3549" d="m 0,0 c 0.292,0 0.819,-0.234 0.819,0.205 l -0.03,0.146 c -0.526,0 -1.023,0.614 -1.52,0.146 -0.117,-0.175 -0.38,-0.409 -0.146,-0.614 0.205,-0.175 0.438,-0.088 0.643,-0.059 L 0,0 z"></path>
          </g>
          <g id="g3551" transform="matrix(0.9400024,0,0,-0.9499969,347.7041,920.60503)">
            <path style="fill:#ffffff;fill-opacity:1;fill-rule:nonzero;stroke:none" id="path3553" d="M 0,0 C -0.234,0.468 -0.702,0.088 -1.082,0.088 -1.199,-0.058 -1.462,-0.292 -1.14,-0.439 -0.76,-0.292 -0.263,-0.351 0,0"></path>
          </g>
          <g id="g3555" transform="matrix(0.9400024,0,0,-0.9499969,349.68289,920.38274)">
            <path style="fill:#ffffff;fill-opacity:1;fill-rule:nonzero;stroke:none" id="path3557" d="M 0,0 C 0.059,0.146 0.059,0.322 -0.146,0.351 -0.614,0.409 -0.936,0.088 -1.374,0 -1.52,-0.117 -1.403,-0.38 -1.228,-0.38 -0.614,-0.585 -0.497,-0.029 0,0"></path>
          </g>
          <g id="g3559" transform="matrix(0.9400024,0,0,-0.9499969,346.05478,919.60497)">
            <path style="fill:#ffffff;fill-opacity:1;fill-rule:nonzero;stroke:none" id="path3561" d="m 0,0 c 0,0.205 -0.351,0.117 -0.526,0.205 -0.176,0 -0.322,-0.03 -0.409,-0.176 0,-0.146 0.116,-0.293 0.233,-0.351 C -0.468,-0.234 -0.088,-0.264 0,0"></path>
          </g>
          <g id="g3563" transform="matrix(0.9400024,0,0,-0.9499969,348.94095,918.91052)">
            <path style="fill:#ffffff;fill-opacity:1;fill-rule:nonzero;stroke:none" id="path3565" d="M 0,0 -0.176,0.088 C 2.31,3.392 4.386,6.666 6.725,10.029 6.14,9.97 5.38,10.175 4.854,9.853 2.544,6.666 0.38,3.713 -1.988,0.555 c 0.029,-0.233 -0.205,-0.584 0.175,-0.643 0.468,0.059 0.877,-0.204 1.374,-0.175 C -0.293,-0.175 -0.234,0.088 0,0"></path>
          </g>
          <g id="g3567" transform="matrix(0.9400024,0,0,-0.9499969,456.51981,989.83141)">
            <path style="fill:#231f20;fill-opacity:1;fill-rule:nonzero;stroke:none" id="path3569" d="m 0,0 0,-5.651 25.693,-0.027 0,5.692 -7.973,0.78 -17.892,25.184 c 0,0 17.21,25.894 19.392,29.128 2.464,3.651 4.226,5.003 7.044,5.003 0.941,0 1.711,0.017 1.711,0.017 l -0.416,5.699 -32.922,0 0.407,-5.699 7.508,-0.618 -12.956,-19.817 c 0,0 -9.738,14.053 -11.662,16.809 -1.754,2.51 -1.499,3.253 1.149,3.266 l 7.436,0.35 -0.382,5.709 -27.665,0.018 0.576,-5.691 8.067,-0.632 18.686,-26.017 c 0,0 -15.956,-24.719 -18.895,-29.295 -2.002,-3.116 -4.358,-4.214 -8.543,-4.222 l 0.022,-5.65 33.566,0 0,5.687 -7.814,0.78 11.78,19.342 L 6.932,3.73 C 8.308,1.638 8.042,0.665 5.971,0.463 L 0,0 z"></path>
          </g>
          <g id="g3571" transform="matrix(0.9400024,0,0,-0.9499969,561.81775,989.84166)">
            <path style="fill:#231f20;fill-opacity:1;fill-rule:nonzero;stroke:none" id="path3573" d="m 0,0 c 10.804,0.008 17.151,4.091 17.153,13.025 0.001,10.525 -7.311,14.313 -17.408,14.351 -0.176,10e-4 -0.271,0.007 -0.271,0.007 l 0,-27.381 C -0.526,0.002 -0.338,0 0,0 M 30.479,45.073 C 28.717,36.962 23.109,31.891 15.245,30.108 15.197,30.097 15.271,29.988 15.499,29.935 24.019,27.941 33.686,21.504 33.723,12.214 33.778,-1.421 20.85,-5.666 0.407,-5.659 l -25.006,-0.008 0.022,5.655 c 0.108,0.001 0.215,0.004 0.321,0.008 5.14,0.053 7.758,3.566 7.791,10.365 l 0.008,49.143 -7.199,0.629 -0.416,5.706 32.567,0.02 0.453,-5.726 c -0.201,0 -0.51,0 -0.703,-0.001 -8.133,-0.027 -8.806,-0.203 -8.806,-6.85 l 0,-19.795 c 0,0 0.141,0.049 0.42,0.048 8.429,-0.046 12.619,2.78 14.32,9.97 0.758,3.202 1.022,5.941 1.8,9.824 1.955,9.773 5.372,12.727 16.436,12.727 1.069,0 1.837,-0.064 2.591,-0.068 0.999,-0.005 2.302,-0.146 2.302,-0.146 l 0.44,-5.647 c -4.045,0.019 -5.022,-1.124 -5.813,-6.533 -0.715,-4.898 -0.794,-5.543 -1.456,-8.589"></path>
          </g>
          <g id="g3575" transform="matrix(0.9400024,0,0,-0.9499969,483.78966,989.83282)">
            <path style="fill:#231f20;fill-opacity:1;fill-rule:nonzero;stroke:none" id="path3577" d="M 0,0 C 5.836,-0.001 8.434,3.354 8.419,10.229 L 8.398,59.516 1.754,60.116 1.359,65.85 36.253,65.836 36.704,60.132 34.709,60.11 C 25.007,60.153 24.356,59.392 24.363,52.177 L 24.361,35.102 c 0,0 0.123,0.14 0.46,0.216 C 42.238,39.24 58.477,31.014 58.471,13.939 58.466,-1.161 45.315,-5.689 25.124,-5.682 L -0.022,-5.689 0,0 z m 24.628,-0.011 c 10.673,0.035 17.928,4.211 17.928,14.848 0,10.48 -7.303,15.485 -17.686,14.57 -0.348,-0.031 -0.538,-0.086 -0.538,-0.086 l 0,-29.333 c 0.098,0 0.196,0 0.296,0.001"></path>
          </g>
          <g id="g3579" transform="matrix(0.9400024,0,0,-0.9499969,394.61285,958.56767)">
            <path style="fill:#231f20;fill-opacity:1;fill-rule:nonzero;stroke:none" id="path3581" d="m 0,0 c 3.893,0.029 5.515,0.804 7.184,2.989 1.085,1.422 1.714,2.432 1.998,2.919 0.126,0.217 0.184,0.33 0.184,0.33 l 4.067,0 0,-19.917 -4.862,0.008 c 0.002,0.139 -0.013,0.306 -0.047,0.493 -0.971,4.497 -2.592,5.845 -9.385,5.839 l -8.018,-0.053 0.003,-24.854 16.51,0.021 c 1.981,0.025 2.669,0.236 2.903,0.959 0.455,1.403 0.756,2.356 1.86,5.066 1.004,2.463 1.887,3.917 2.639,4.818 l 5.345,-0.039 -2.043,-17.154 -52.684,-0.01 0.021,5.673 c 0.087,0 0.173,10e-4 0.259,0.002 6.195,0.027 9.251,2.243 9.254,10.716 l 0.017,48.787 -7.875,0.644 -0.399,5.678 54.024,0.018 2.123,-20.19 c -1.19,-0.322 -2.384,-0.432 -3.511,-0.432 -1.316,0 -2.38,0.58 -2.818,1.674 -0.514,1.282 -1.278,3.227 -2.562,6.24 -2.103,4.938 -4.922,6.261 -12.687,6.261 l -8.938,0 c -1.209,0 -1.438,-0.589 -1.438,-1.619 l 0,-24.863 L 0,0 z"></path>
          </g>
          <g id="g3583" transform="matrix(0.9400024,0,0,-0.9499969,658.06479,948.56857)">
            <path style="fill:#231f20;fill-opacity:1;fill-rule:nonzero;stroke:none" id="path3585" d="m 0,0 c 2.784,0.004 3.957,0.81 4.602,3.613 1.95,8.472 6.4,14.171 14.394,14.165 C 26.132,17.773 30.833,13.532 30.841,6.892 30.848,1.418 27.919,-2.052 16.677,-6.533 4.596,-11.348 -1.688,-18.611 -1.733,-29.636 c -0.054,-12.932 9.568,-21.138 24.201,-21.169 4.703,-0.01 8.752,1.228 12.043,3.796 0,0 0.079,-0.071 0.234,-0.18 0.834,-0.586 1.751,-1.132 3.036,-1.54 2.132,-0.677 3.418,-0.384 3.418,-0.384 0,0 -0.283,2.483 0.426,9.889 0.599,6.256 1.43,9.901 1.43,9.901 l -6.048,-0.002 c -3.902,-10.724 -8.355,-15.367 -15.772,-15.372 -6.412,-0.005 -10.776,3.792 -10.776,9.951 0,6.063 3.724,9.659 13.459,13.265 13.166,4.878 19.795,11.764 19.787,22.842 C 43.694,14.346 33.87,23.86 19.436,23.982 12.686,24.039 8.629,22.603 4.299,19.728 c 0,0 -0.082,0.054 -0.213,0.182 -0.599,0.579 -1.799,1.299 -3.081,1.701 -2.815,0.882 -4.879,0.78 -4.879,0.78 l 2.268,-22.408 c 0,0 0.723,0.016 1.606,0.017"></path>
          </g>
          <g id="g3587" transform="matrix(0.9400024,0,0,-0.9499969,165.84625,933.27087)">
            <path style="fill:#231f20;fill-opacity:1;fill-rule:nonzero;stroke:none" id="path3589" d="m 0,0 -7.552,0.615 -0.396,5.652 33.742,0 0.425,-5.652 -0.563,-0.021 C 17.337,0.226 15.959,-0.1 15.959,-7.203 l -0.005,-51.624 9.025,-0.717 0,-5.69 -35.184,0.025 0,5.668 0.478,-0.007 c 6.199,-0.01 9.747,2.939 9.718,9.263 L 0,0 z"></path>
          </g>
          <g id="g3591" transform="matrix(0.9400024,0,0,-0.9499969,122.02898,982.12836)">
            <path style="fill:#231f20;fill-opacity:1;fill-rule:nonzero;stroke:none" id="path3593" d="M 0,0 -10.795,29.262 7.604,29.261 0,0 z m -16.497,45.178 c -1.671,5.241 0.982,6.872 8.917,6.876 l 0.815,-0.028 -0.397,5.665 -26.314,0 0.414,-5.636 6.704,-0.705 24.535,-65.124 12.313,0 17.902,61.382 c 0.889,2.802 2.838,4.264 5.687,4.281 l 2.193,0.162 -0.425,5.64 -32.39,0.007 0.402,-5.65 9.54,-0.619 -3.991,-15.299 -22.707,0.008 -3.198,9.04 z"></path>
          </g>
          <g id="g3595" transform="matrix(0.9400024,0,0,-0.9499969,233.18756,989.85182)">
            <path style="fill:#231f20;fill-opacity:1;fill-rule:nonzero;stroke:none" id="path3597" d="m 0,0 0,-5.639 33.687,0.004 0,5.636 -9.482,0.72 13.929,26.196 11.241,-21.323 c 2.249,-4.772 1.271,-5.613 -5.02,-5.555 l -1.711,-0.028 0,-5.663 24.391,0 0,5.662 -7.134,0.767 -18.729,34.59 0,18.779 c 0,5.322 1.871,5.918 11.295,6.011 l 0.496,0.005 -0.348,5.705 -36.582,-0.026 0.496,-5.687 9.06,-0.64 -0.027,-24.359 C 25.562,35.155 8.099,3.914 8.097,3.91 6.558,1.314 4.363,0.002 0.551,0.002 L 0,0 z"></path>
          </g>
          <g id="g3599" transform="matrix(0.9400024,0,0,-0.9499969,58.963287,938.06787)">
            <path style="fill:#231f20;fill-opacity:1;fill-rule:nonzero;stroke:none" id="path3601" d="M 0,0 C 0.021,3.656 0.091,5.057 3.248,5.059 12.43,5.066 22.575,-1.022 22.613,-23.672 22.655,-49.237 13.06,-54.013 0,-54.018 L 0,0 z m -25.519,-60.182 26.463,0.015 C 26.452,-60.173 39.15,-47.82 39.175,-24.391 39.199,-2.764 26.134,11.312 1.474,11.345 l -25.68,0.005 0.415,-5.701 7.842,-0.623 0.012,-48.253 c -0.003,-7.935 -2.314,-11.222 -8.997,-11.25 -0.194,-0.012 -0.391,0.006 -0.592,-0.002 l 0.007,-5.703 z"></path>
          </g>
          <g id="g3603" transform="matrix(0.9400024,0,0,-0.9499969,224.07338,933.40491)">
            <path style="fill:#231f20;fill-opacity:1;fill-rule:nonzero;stroke:none" id="path3605" d="m 0,0 c 8.015,0 9.779,-1.234 12.882,-8.484 1.289,-3.011 1.754,-4.45 2.249,-5.74 0.563,-1.47 1.599,-2.174 3.102,-2.174 1.127,0 2.322,0.11 3.512,0.431 l -2.312,22.416 -52.745,-0.033 0.421,-5.664 8.795,-0.647 0,-50.054 c -0.028,-8.732 -5.278,-9.318 -8.836,-9.419 l -0.73,-0.025 0,-5.676 37.723,-0.003 0,5.677 -12.203,0.703 -0.013,56.863 c 0,0.697 0.148,1.159 0.395,1.413 0.223,0.229 0.603,0.396 1.163,0.396 L 0,0 z"></path>
          </g>
          <g id="g3607" transform="matrix(0.9400024,0,0,-0.9499969,630.14766,958.57736)">
            <path style="fill:#231f20;fill-opacity:1;fill-rule:nonzero;stroke:none" id="path3609" d="m 0,0 c 3.893,0.029 5.515,0.832 7.184,3.017 1.085,1.422 1.713,2.432 1.997,2.919 0.127,0.217 0.185,0.33 0.185,0.33 l 4.067,0 0,-19.917 -4.862,0.008 c 0.002,0.139 -0.013,0.306 -0.048,0.493 -0.971,4.497 -2.591,5.845 -9.384,5.839 l -8.018,-0.053 0.003,-24.854 16.822,0.021 c 1.981,0.025 2.419,0.424 2.653,1.146 0.456,1.403 0.694,2.169 1.798,4.879 1.004,2.463 1.887,3.889 2.639,4.79 l 5.345,-0.011 -2.044,-17.182 -52.683,0.018 0.021,5.645 c 0.087,0 0.173,10e-4 0.258,0.002 6.195,-0.036 9.252,2.27 9.254,10.744 l 0.018,48.787 -7.313,0.644 -0.427,5.678 53.489,-0.01 2.124,-20.162 c -1.19,-0.322 -2.384,-0.432 -3.512,-0.432 -1.315,0 -2.379,0.58 -2.818,1.674 -0.513,1.282 -1.278,3.227 -2.561,6.24 -2.103,4.938 -4.923,6.261 -12.687,6.261 l -8.939,0 c -1.208,0 -1.437,-0.589 -1.437,-1.619 l 0,-24.863 L 0,0 z"></path>
          </g>
          <g id="g3611" transform="matrix(0.9400024,0,0,-0.9499969,705.98273,948.5965)">
            <path style="fill:#231f20;fill-opacity:1;fill-rule:nonzero;stroke:none" id="path3613" d="m 0,0 c 2.784,0.004 3.957,0.81 4.602,3.613 1.95,8.472 6.399,14.171 14.394,14.165 C 26.132,17.773 30.832,13.532 30.841,6.892 30.847,1.418 27.919,-2.052 16.677,-6.533 4.596,-11.348 -1.688,-18.611 -1.733,-29.636 -1.787,-42.568 7.835,-50.649 22.468,-50.68 c 4.703,-0.01 8.752,1.103 12.042,3.671 0,0 0.08,-0.071 0.234,-0.18 0.835,-0.586 1.752,-1.132 3.037,-1.54 2.132,-0.677 3.418,-0.384 3.418,-0.384 0,0 -0.283,2.483 0.426,9.889 0.599,6.256 1.43,9.901 1.43,9.901 l -6.048,-0.002 c -3.902,-10.724 -8.355,-15.242 -15.772,-15.247 -6.412,-0.005 -10.777,3.667 -10.777,9.827 0,6.062 3.725,9.658 13.459,13.264 13.167,4.878 19.796,11.764 19.787,22.842 C 43.694,14.346 33.87,23.86 19.436,23.982 12.685,24.039 8.629,22.603 4.299,19.728 c 0,0 -0.082,0.054 -0.213,0.182 -0.599,0.579 -1.799,1.299 -3.081,1.701 -2.816,0.882 -4.879,0.78 -4.879,0.78 l 2.268,-22.408 c 0,0 0.723,0.016 1.606,0.017"></path>
          </g>
        </g>
      </g>
    </g>
  </g>
</svg>
