<svg viewBox="0 0 288 288" xmlns="http://www.w3.org/2000/svg"><svg width="288" height="288" viewBox="0 0 358.975 153.057" xmlns="http://www.w3.org/2000/svg"><defs><clipPath id="a"><path class="color000 svgShape" d="M0 114.793h269.231V0H0z" fill="#fff"/></clipPath></defs><g class="color000 svgShape" transform="matrix(1.3333 0 0 -1.3333 0 153.06)" clip-path="url(#a)" fill="#fff"><path class="color1d1d1b svgShape" d="M55.358 91.76c-19.185 0-34.738-15.553-34.738-34.738 0-19.186 15.553-34.739 34.738-34.739s34.738 15.553 34.738 34.739c0 19.185-15.553 34.738-34.738 34.738m0-5.71c16.006 0 29.028-13.022 29.028-29.028S71.364 27.994 55.358 27.994 26.33 41.016 26.33 57.022 39.352 86.05 55.358 86.05"/><path class="color1d1d1b svgShape" d="M34.715 68.672h19.732v-5.99H41.551v-4.193h11.663v-5.673H41.551v-8.809h-6.836zm32.49-11.839c2.291 0 3.665 1.128 3.665 2.925v.07c0 1.973-1.445 2.96-3.7 2.96h-4.51v-5.955zM55.824 68.672h11.663c3.771 0 6.378-.986 8.034-2.642 1.444-1.445 2.184-3.312 2.184-5.744v-.07c0-3.806-2.008-6.307-5.074-7.611l5.885-8.597h-7.858l-4.968 7.47h-3.03v-7.47h-6.836zm47.696-1.07h10.701v-1.043h-9.572V60.33h8.595v-1.043h-8.595v-6.88h-1.129zm12.92-8.878v8.878h1.129v-8.769c0-3.583 1.932-5.645 5.144-5.645 3.082 0 5.058 1.867 5.058 5.536v8.878h1.128v-8.749c0-4.363-2.539-6.685-6.23-6.685-3.646 0-6.229 2.3-6.229 6.556m15.65 8.878h1.064l10.484-13.22v13.22h1.085V52.407h-.846l-10.701 13.5v-13.5h-1.086zm21.13-14.153c4.232 0 6.902 2.887 6.902 6.512v.044c0 3.603-2.67 6.554-6.902 6.554h-3.93v-13.11zm-5.058 14.153h5.058c4.775 0 8.074-3.279 8.074-7.555v-.042c0-4.276-3.299-7.597-8.074-7.597h-5.058zm22.138-7.88c2.541 0 4.429 1.281 4.429 3.474v.042c0 2.041-1.607 3.321-4.363 3.321h-5.189v-6.837zm-6.251 7.881h6.382c1.867 0 3.365-.587 4.276-1.498a4.012 4.012 0 0 0 1.15-2.823v-.044c0-2.539-1.888-3.993-4.449-4.34l5.014-6.49h-1.434l-4.839 6.295h-4.972v-6.295h-1.128zm24.901-9.922-3.995 8.791-4.014-8.791zm-4.515 10.03h1.085l7.075-15.304h-1.236l-1.932 4.255h-8.965l-1.932-4.255h-1.172zm10.445-.109h1.13V52.407h-1.13zm3.74-12.981.738.846c1.671-1.54 3.212-2.257 5.448-2.257 2.28 0 3.842 1.28 3.842 3.017v.044c0 1.607-.846 2.54-4.298 3.233-3.645.738-5.123 1.976-5.123 4.277v.044c0 2.257 2.063 3.994 4.885 3.994 2.214 0 3.668-.609 5.209-1.845l-.715-.891c-1.434 1.238-2.867 1.715-4.538 1.715-2.235 0-3.711-1.281-3.711-2.865v-.044c0-1.606.824-2.583 4.427-3.321 3.516-.716 4.994-1.974 4.994-4.188v-.044c0-2.453-2.107-4.146-5.036-4.146-2.433 0-4.299.803-6.122 2.431m13.93 12.981h1.13V52.407h-1.13zm4.71 0h1.064l10.484-13.22v13.22h1.085V52.407h-.846l-10.701 13.5v-13.5h-1.086zm15.4-7.642v.044c0 4.102 2.973 7.857 7.511 7.857 2.475 0 4.037-.738 5.557-1.997l-.738-.846c-1.194 1.042-2.584 1.824-4.884 1.824-3.691 0-6.274-3.127-6.274-6.795v-.043c0-3.93 2.453-6.859 6.512-6.859 1.932 0 3.733.802 4.841 1.737v4.362h-5.079v1.042h6.164v-5.861c-1.367-1.216-3.494-2.279-5.969-2.279-4.796 0-7.641 3.538-7.641 7.814M110.85 40.322c1.824 0 2.871.974 2.871 2.41v.048c0 1.606-1.12 2.434-2.944 2.434h-3.722v-4.892zm-7.542 8.272h7.785c2.166 0 3.844-.607 4.963-1.726.95-.949 1.46-2.287 1.46-3.893v-.049c0-2.75-1.484-4.477-3.649-5.279l4.16-6.083h-4.379l-3.65 5.45h-2.943v-5.45h-3.747zm16.362 0h12.845v-3.333h-9.124v-3.455h8.03v-3.333h-8.03v-3.576h9.246v-3.333H119.67zm14.32-8.564v.049c0 4.841 3.772 8.807 8.929 8.807 3.067 0 4.915-.826 6.691-2.336l-2.359-2.846c-1.315 1.096-2.483 1.728-4.453 1.728-2.725 0-4.89-2.408-4.89-5.304v-.049c0-3.114 2.141-5.401 5.157-5.401 1.363 0 2.58.341 3.528 1.022v2.434h-3.771v3.234h7.397v-7.395c-1.752-1.484-4.161-2.701-7.275-2.701-5.304 0-8.954 3.722-8.954 8.758m18.34-1.167v9.731h3.747V38.96c0-2.774 1.387-4.209 3.674-4.209 2.286 0 3.674 1.386 3.674 4.088v9.755h3.747v-9.609c0-5.158-2.896-7.689-7.47-7.689-4.573 0-7.372 2.555-7.372 7.567m17.43 9.731h3.747V34.97h8.491v-3.406H169.76zm23.62-9.902-2.263 5.523-2.262-5.523zm-3.942 10.025h3.455l7.299-17.152h-3.917l-1.557 3.819h-7.202l-1.557-3.819h-3.82zm13.932-3.576h-5.182v3.453h14.111v-3.453h-5.182V31.565h-3.747zm23.28-5.111v.049c0 2.919-2.142 5.353-5.158 5.353-3.018 0-5.109-2.384-5.109-5.304v-.049c0-2.919 2.14-5.353 5.156-5.353 3.018 0 5.111 2.385 5.111 5.304m-14.185 0v.049c0 4.841 3.819 8.807 9.074 8.807 5.257 0 9.028-3.917 9.028-8.758v-.049c0-4.841-3.82-8.807-9.075-8.807s-9.027 3.917-9.027 8.758m27.745.292c1.825 0 2.872.974 2.872 2.41v.048c0 1.606-1.12 2.434-2.945 2.434h-3.721v-4.892zm-7.541 8.272h7.785c2.165 0 3.844-.607 4.963-1.726.949-.949 1.461-2.287 1.461-3.893v-.049c0-2.75-1.484-4.477-3.65-5.279l4.16-6.083h-4.379l-3.65 5.45h-2.943v-5.45h-3.747zM107.42 79.881c1.142 0 1.868.596 1.868 1.518v.026c0 .973-.7 1.505-1.881 1.505h-2.323v-3.049zm-3.932 4.502h4.048c1.142 0 2.037-.337 2.621-.908.481-.493.753-1.168.753-1.96v-.025c0-1.493-.895-2.388-2.154-2.751l2.452-3.438h-1.894l-2.232 3.166h-1.998v-3.166h-1.596zm13.792-5.176c-.104 1.012-.701 1.804-1.739 1.804-.96 0-1.635-.74-1.777-1.804zm-5.073-.506v.026c0 1.959 1.388 3.568 3.347 3.568 2.18 0 3.283-1.713 3.283-3.685 0-.142-.013-.285-.026-.441h-5.034c.168-1.116.96-1.739 1.972-1.739.765 0 1.31.286 1.855.818l.922-.818c-.649-.778-1.545-1.284-2.803-1.284-1.985 0-3.516 1.44-3.516 3.555m13.383.363v.026c0 1.116-.922 1.881-2.011 1.881-1.09 0-1.946-.752-1.946-1.881v-.026c0-1.116.869-1.881 1.946-1.881 1.089 0 2.011.765 2.011 1.881m-5.203-5.047.584 1.181c.74-.454 1.505-.727 2.439-.727 1.401 0 2.167.727 2.167 2.102v.532c-.571-.74-1.285-1.259-2.413-1.259-1.609 0-3.114 1.194-3.114 3.205v.026c0 2.024 1.518 3.218 3.114 3.218 1.154 0 1.868-.532 2.4-1.168v1.025h1.57v-5.449c0-1.155-.298-2.011-.87-2.582-.622-.623-1.582-.921-2.815-.921-1.129 0-2.18.285-3.062.817m8.793 8.135h1.57v-6.851h-1.57zm-.065 2.543h1.687v-1.492h-1.687zm3.085-8.499.7 1.064c.753-.558 1.545-.843 2.245-.843.675 0 1.064.285 1.064.739v.026c0 .532-.726.714-1.531.96-1.012.286-2.141.701-2.141 2.011v.026c0 1.297 1.077 2.089 2.439 2.089.857 0 1.791-.298 2.518-.778l-.623-1.116c-.662.402-1.363.649-1.934.649-.609 0-.96-.286-.96-.675v-.026c0-.506.74-.714 1.544-.973.999-.312 2.128-.766 2.128-1.998v-.026c0-1.44-1.116-2.154-2.543-2.154-.973 0-2.05.351-2.906 1.025m7.37.999v3.607h-.869v1.349h.869v1.882h1.57v-1.882h1.843v-1.349h-1.843v-3.36c0-.61.312-.857.843-.857.351 0 .662.078.973.234v-1.285c-.389-.22-.817-.35-1.414-.35-1.155 0-1.972.506-1.972 2.011m9.5 2.012c-.104 1.012-.701 1.804-1.739 1.804-.96 0-1.635-.74-1.777-1.804zm-5.073-.506v.026c0 1.959 1.388 3.568 3.347 3.568 2.18 0 3.283-1.713 3.283-3.685 0-.142-.013-.285-.026-.441h-5.034c.168-1.116.96-1.739 1.972-1.739.765 0 1.31.286 1.855.818l.922-.818c-.65-.778-1.545-1.284-2.803-1.284-1.985 0-3.516 1.44-3.516 3.555m8.243 3.451h1.57v-1.544c.428 1.025 1.22 1.726 2.426 1.674v-1.661h-.09c-1.376 0-2.336-.895-2.336-2.711v-2.609h-1.57zm9.95-2.945c-.104 1.012-.701 1.804-1.739 1.804-.96 0-1.635-.74-1.777-1.804zm-5.073-.506v.026c0 1.959 1.388 3.568 3.347 3.568 2.18 0 3.283-1.713 3.283-3.685 0-.142-.013-.285-.026-.441h-5.034c.168-1.116.96-1.739 1.972-1.739.765 0 1.31.286 1.855.818l.922-.818c-.65-.778-1.545-1.284-2.803-1.284-1.985 0-3.516 1.44-3.516 3.555m13.413.012v.026c0 1.323-.935 2.193-1.985 2.193-1.077 0-1.972-.831-1.972-2.193v-.026c0-1.323.908-2.192 1.972-2.192 1.05 0 1.985.882 1.985 2.192m-5.54 0v.026c0 2.271 1.544 3.555 3.179 3.555 1.128 0 1.842-.558 2.335-1.206v3.684h1.57v-9.471h-1.57v1.142c-.506-.714-1.22-1.285-2.335-1.285-1.61 0-3.179 1.285-3.179 3.555m12.38 3.439h1.609l1.375-4.697 1.518 4.723h1.35l1.518-4.723 1.401 4.697h1.583l-2.245-6.903h-1.414l-1.531 4.684-1.544-4.684h-1.401zm11.71 0h1.57v-6.851h-1.57zm-.065 2.543h1.687v-1.492h-1.687zm3.925-7.5v3.607h-.869v1.349h.869v1.882h1.57v-1.882h1.842v-1.349h-1.842v-3.36c0-.61.312-.857.843-.857.351 0 .662.078.973.234v-1.285c-.389-.22-.817-.35-1.414-.35-1.154 0-1.972.506-1.972 2.011m5 7.577h1.57V81.1c.441.636 1.077 1.194 2.14 1.194 1.545 0 2.44-1.038 2.44-2.621v-4.372h-1.57v3.892c0 1.064-.532 1.674-1.466 1.674-.908 0-1.544-.636-1.544-1.7v-3.866h-1.57z"/></g></svg></svg>