<svg xmlns="http://www.w3.org/2000/svg"><defs><font id="Gellix-Bold" horiz-adv-x="737"><font-face font-family="Gellix" font-weight="700" units-per-em="2048" panose-1="0 0 8 0 0 0 0 0 0 0" ascent="1638" descent="-410" x-height="1006" cap-height="1434" bbox="-1075 -467 2466 2370" underline-thickness="102" underline-position="-307" unicode-range="U+0020-25CF"/><glyph glyph-name=".notdef" horiz-adv-x="2185" d="M70 633q0 202 78 388.5T358 1345t314.5 222 384.5 92V-389q-202 7-385 90.5t-315 220T147.5 244 70 633zm1060 1018q83-28 153.5-171.5T1395 1111t41-478-41.5-477T1283-211t-153-172v2034zm664-1018q0-344-142-617t-366-366q103 134 164 398t61 585-61 585.5-164 401.5q146-62 262-207.5t181-349.5 65-430zm324 0q0-310-171-566t-452-374q172 150 273.5 400T1870 633q0 289-101.5 541T1495 1575q281-119 452-376t171-566z"/><glyph glyph-name=".null" horiz-adv-x="0"/><glyph glyph-name="nonmarkingreturn" horiz-adv-x="682"/><glyph glyph-name="space" horiz-adv-x="417"/><glyph glyph-name="exclam" unicode="!" horiz-adv-x="583" d="M137 1434h307l-8-990H147zM291-20q-78 0-132.5 53.5T104 164q0 76 54.5 129T291 346q79 0 133.5-52.5T479 164 424.5 33.5 291-20z"/><glyph glyph-name="quotedbl" unicode="&quot;" horiz-adv-x="892" d="m123 920-21 514h287l-16-514H123zm399 0-18 514h287l-19-514H522z"/><glyph glyph-name="numbersign" unicode="#" horiz-adv-x="1435" d="M1393 850h-267l-73-264h258V340H983L889 0H641l96 340H487L391 0H145l95 340H41v246h268l74 264H123v246h330l94 338h248l-95-338h250l94 338h246l-94-338h197V850zM805 586l76 264H631l-76-264h250z"/><glyph glyph-name="dollar" unicode="$" horiz-adv-x="1218" d="M1149 422q0-163-112.5-281.5T741-10v-236H465V-2Q292 41 186 170.5T80 475h299q0-94 68-151.5T623 266q100 0 162.5 43T848 422q0 40-26 70t-69.5 49-100 34.5-119 32-125 36.5-119 52-100 74.5-69.5 109T94 1030q0 155 102.5 267T465 1442v237h276v-241q178-40 270.5-166t92.5-295H791q-2 84-59.5 137T578 1167q-86 0-136.5-36t-50.5-99q0-38 26-65.5t70-45 100.5-32T707 859t126-36 119.5-53 100.5-77.5 70-113.5 26-157z"/><glyph glyph-name="percent" unicode="%" horiz-adv-x="1509" d="M719 1141q0-137-88-227.5T410 823q-132 0-220 91t-88 227q0 135 88 224t220 89q133 0 221-89t88-224zm397 293h230L393 0H164zm-584-293q0 61-33 99t-89 38-88.5-38-32.5-99 32.5-99 88.5-38 89 38 33 99zm877-844q0-136-88.5-226.5T1100-20 879.5 70.5 791 297q0 135 88.5 224t220.5 89 220.5-89 88.5-224zm-188 0q0 61-32.5 98t-88.5 37-89.5-37-33.5-98 33.5-100 89.5-39 88.5 39 32.5 100z"/><glyph glyph-name="ampersand" unicode="&amp;" horiz-adv-x="1595" d="M1481 0h-394L965 133Q778-20 563-20 363-20 231.5 97.5T100 395q0 75 21 135.5T182 636t84 76.5T369 774q-111 138-111 291 0 163 117 276t287 113q167 0 283-113t116-276q0-68-19.5-124t-56-97.5-78-71.5-96.5-57l174-187 131 144h359l-310-336zM520 1071q0-38 31-80.5T643 889q75 36 115.5 78.5T799 1071q0 57-39 95t-98 38q-60 0-101-38t-41-95zm53-827q111 0 211 80L532 594q-71-37-109-81t-38-107q0-70 54.5-116T573 244z"/><glyph glyph-name="quotesingle" unicode="'" horiz-adv-x="491" d="m123 920-21 514h287l-16-514H123z"/><glyph glyph-name="parenleft" unicode="(" horiz-adv-x="704" d="M131 606q0 323 125 611t338 464l170-190q-167-139-264-377t-97-508q0-269 97-506.5T764-276L594-467Q381-291 256-3.5T131 606z"/><glyph glyph-name="parenright" unicode=")" horiz-adv-x="704" d="M573 606q0-322-124-609.5T113-467L-59-276Q109-139 206 98.5T303 606q0 271-97 508.5T-59 1491l172 190q212-176 336-464t124-611z"/><glyph glyph-name="asterisk" unicode="*" horiz-adv-x="1067" d="m969 1102-287-96 199-248-144-121-202 252-205-252-144 121 201 248-289 96 64 180 276-92v285h191v-285l276 92z"/><glyph glyph-name="plus" unicode="+" horiz-adv-x="1214" d="M1112 801V530H743V160H471v370H102v271h369v370h272V801h369z"/><glyph glyph-name="comma" unicode="," horiz-adv-x="577" d="M473 244 344-276H104l80 520h289z"/><glyph glyph-name="hyphen" unicode="-" horiz-adv-x="765" d="M51 397v271h664V397H51z"/><glyph glyph-name="period" unicode="." horiz-adv-x="583" d="M291-20q-78 0-132.5 53.5T104 164q0 76 54.5 129T291 346q79 0 133.5-52.5T479 164 424.5 33.5 291-20z"/><glyph glyph-name="slash" unicode="/" horiz-adv-x="962" d="m10 0 631 1434h309L319 0H10z"/><glyph glyph-name="zero" unicode="0" horiz-adv-x="1251" d="M625-20q-173 0-300.5 92.5T131.5 331 66 717q0 221 66 387t193 258 300 92q262 0 411.5-200.5T1186 717q0-220-66-386T926.5 72.5 625-20zm0 294q120 0 184.5 110T874 717t-64.5 332.5T625 1159q-119 0-183.5-110T377 717t65-332.5T625 274z"/><glyph glyph-name="one" unicode="1" horiz-adv-x="802" d="M694 1434V0H393v1018L74 772v363l418 299h202z"/><glyph glyph-name="two" unicode="2" horiz-adv-x="1163" d="M90 0v217l461 451q126 122 158 161 63 83 65 162 0 72-56 120t-138 48q-104 0-158.5-70T373 901H68q-10 244 136.5 398.5T586 1454q218 0 358.5-128.5T1085 999q0-137-79.5-256.5T766 475L586 295h504V0H90z"/><glyph glyph-name="three" unicode="3" horiz-adv-x="1132" d="m360 848 275 295H70v291h993v-199L723 885q154-15 253-130.5t99-281.5q0-216-148.5-354.5T547-20q-141 0-256 56.5t-184 158T29 424h303q13-64 69.5-107T547 274q95 0 156 58t61 149q0 63-34 107.5T639.5 654 510 675t-150-22v195z"/><glyph glyph-name="four" unicode="4" horiz-adv-x="1241" d="M1198 569V295h-151V0H743v295H41v205l498 934h344L422 569h321v338h304V569h151z"/><glyph glyph-name="five" unicode="5" horiz-adv-x="1122" d="M549-20q-138 0-252 50.5t-187.5 153T29 424h303q19-69 75.5-109.5T549 274q89 0 149 61.5T758 485q0 93-59.5 153T549 698q-63 0-115.5-21T352 618H86l64 816h825v-287H422l-25-256q33 26 88.5 42.5T592 950q211 0 344-127t133-346q0-102-41-194T917.5 124.5 751.5 19 549-20z"/><glyph glyph-name="six" unicode="6" horiz-adv-x="1118" d="M614 958q197 0 328-136t131-341q0-135-69.5-250.5t-188-183T559-20 302.5 47.5t-188 183T45 481q0 74 29.5 166T160 829l375 605h346L578 956q12 2 36 2zm-55-690q92 0 155.5 62T778 483q0 92-63.5 154.5T557 700q-91 0-153-62.5T342 483q0-91 63-153t154-62z"/><glyph glyph-name="seven" unicode="7" horiz-adv-x="1073" d="M31 1434h1001v-203L444 0H106l551 1141H31v293z"/><glyph glyph-name="eight" unicode="8" horiz-adv-x="1105" d="M555-16q-221 0-363.5 121.5T49 416q0 113 64.5 209.5T285 774q-82 43-132.5 123T102 1063q0 169 127.5 277T555 1448q196 0 323.5-108.5T1006 1063q0-88-51-168T821 774q107-48 171.5-144.5T1057 416q0-189-141-310.5T555-16zm0 911q77 0 125 41.5t47 107.5q1 66-47 108t-125 42-126-42-48-108q-1-66 48-107.5T555 895zm0-643q94 0 154.5 53T770 442q0 83-60.5 137T555 633q-95 0-156-54t-61-137q0-84 60.5-137T555 252z"/><glyph glyph-name="nine" unicode="9" horiz-adv-x="1118" d="M559 1454q139 0 257.5-68t187.5-183.5 69-250.5q0-167-112-346L584 0H238l303 479q-12-2-37-2-197 0-328 135T45 952q0 135 69.5 250.5t188 183.5 256.5 68zm2-721q91 0 153 63t62 154-63 153-154 62q-92 0-155.5-62T340 950t64-154 157-63z"/><glyph glyph-name="colon" unicode=":" horiz-adv-x="583" d="M291 635q-78 0-132.5 53.5T104 819q0 76 54.5 129t132.5 53q79 0 133.5-52.5T479 819t-54.5-130.5T291 635zm0-655q-78 0-132.5 53.5T104 164q0 76 54.5 129T291 346q79 0 133.5-52.5T479 164 424.5 33.5 291-20z"/><glyph glyph-name="semicolon" unicode=";" horiz-adv-x="636" d="M346 600q-78 0-132 53.5T160 784t54 130 132 53q79 0 132.5-53T532 784t-53.5-130.5T346 600zm127-330L344-250H104l80 520h289z"/><glyph glyph-name="less" unicode="&lt;" horiz-adv-x="1097" d="M995 193 102 596v221l893 404V928L489 709l506-220V193z"/><glyph glyph-name="equal" unicode="=" horiz-adv-x="1214" d="M1112 1053V782H102v271h1010zm0-482V299H102v272h1010z"/><glyph glyph-name="greater" unicode="&gt;" horiz-adv-x="1097" d="M102 193v296l506 220-506 219v293l893-404V596z"/><glyph glyph-name="question" unicode="?" horiz-adv-x="1075" d="M541 1454q209 0 350-124t141-308q0-78-20-144t-52.5-110.5-71-81.5-78-66-72-55.5-53-57.5-21.5-65H369q0 75 19.5 134.5T439 674t68.5 69 75 56.5 68.5 51 50.5 60.5 19.5 78q0 81-51.5 125.5T532 1159q-97 0-151.5-64T328 932H23q-4 145 62.5 265t187 188.5T541 1454zM522-20q-79 0-132.5 53.5T336 164t53.5 129.5T522 346q78 0 132.5-53T709 164q0-77-54.5-130.5T522-20z"/><glyph glyph-name="at" unicode="@" horiz-adv-x="1923" d="M1126 918h230V467q0-95 20.5-130.5T1456 301q61 0 99 82t38 205q0 249-170 388.5T952 1116q-132 0-247.5-47T507 940 377.5 743.5 330 498q0-128 46.5-240.5T503 64.5t192-127T934-109q91 0 171 27.5T1210-14h314q-68-140-230.5-222.5T934-319q-230 0-420.5 106t-301 294T102 498q0 233 112.5 423.5t307 298T952 1327q409 0 639-196t230-543q0-227-105-363.5T1442 88q-188 0-262 121Q1075 82 905 82q-161 0-273 124T520 508q0 180 111.5 303T905 934q137 0 221-100v84zM938 311q85 0 136.5 54t51.5 143q0 91-51.5 145T938 707q-80 0-135-57.5T748 508q0-83 55.5-140T938 311z"/><glyph glyph-name="A" unicode="A" horiz-adv-x="1411" d="m1069 0-90 240H426L334 0H12l570 1434h245L1399 0h-330zM526 500h353L705 958z"/><glyph glyph-name="B" unicode="B" horiz-adv-x="1206" d="M109 0v1434h538q185 0 316-112.5t131-268.5q0-97-56.5-181.5T895 758q115-23 189.5-120t74.5-228q0-172-132-291T709 0H109zm303 856h221q64 0 108.5 42.5T786 1001t-44 101-109 41H412V856zm0-565h270q70 0 119 48.5T850 457t-48.5 118.5T686 625H412V291z"/><glyph glyph-name="C" unicode="C" horiz-adv-x="1550" d="M797-20q-205 0-371.5 96t-261 265T70 717t94.5 376 261 265 371.5 96q167 0 316-67.5t247.5-188T1479 930h-338q-29 101-124.5 165T797 1159q-177 0-296.5-126.5T381 717t119.5-316T797 274q125 0 221.5 70T1143 522h340q-41-239-232.5-390.5T797-20z"/><glyph glyph-name="D" unicode="D" horiz-adv-x="1394" d="M600 1434q204 0 370.5-92t261.5-255 95-364q0-205-95-370.5t-261.5-259T600 0H109v1434h491zm21-1143q170 0 281.5 123T1014 723q0 183-110.5 301.5T621 1143H412V291h209z"/><glyph glyph-name="E" unicode="E" horiz-adv-x="1064" d="M109 1434h878v-291H412V885h512V594H412V291h575V0H109v1434z"/><glyph glyph-name="F" unicode="F" horiz-adv-x="1042" d="M109 1434h878v-291H412V844h512V553H412V0H109v1434z"/><glyph glyph-name="G" unicode="G" horiz-adv-x="1568" d="M1491 809q8-60 8-139 0-145-53.5-273t-146-219.5T1077 33 799-20q-205 0-372 96T165 341 70 717t95 376 262.5 265 373.5 96q168 0 319-69t248-183 117-244h-342q-35 91-131 146t-211 55q-180 0-300-126.5T381 717t120-316 298-127q165 0 267 83.5T1176 561v2H778v246h713z"/><glyph glyph-name="H" unicode="H" horiz-adv-x="1433" d="M1022 1434h305V0h-305v596H412V0H109v1434h303V887h610v547z"/><glyph glyph-name="I" unicode="I" horiz-adv-x="520" d="M109 1434h303V0H109v1434z"/><glyph glyph-name="J" unicode="J" horiz-adv-x="690" d="M57 274q12-2 52-2 87 0 132.5 46T287 469v965h305V387q0-181-111-292T201-16Q113-16 57-6v280z"/><glyph glyph-name="K" unicode="K" horiz-adv-x="1402" d="M1356 0H958L412 684V0H109v1434h303V827l510 607h383L729 758z"/><glyph glyph-name="L" unicode="L" horiz-adv-x="1120" d="M109 1434h303V291h657V0H109v1434z"/><glyph glyph-name="M" unicode="M" horiz-adv-x="1767" d="M109 0v1434h368l426-988 447 988h309V0h-303v842L989 0H770L412 842V0H109z"/><glyph glyph-name="N" unicode="N" horiz-adv-x="1361" d="M109 1434h258l583-836v836h303V0H999L412 836V0H109v1434z"/><glyph glyph-name="O" unicode="O" horiz-adv-x="1601" d="M801 1454q206 0 374-96t263.5-265 95.5-376-95.5-376T1175 76 801-20 427.5 76 165 341 70 717t95 376 262.5 265 373.5 96zm0-295q-180 0-300-126.5T381 717t120-316 300-127 300 127 120 316-120 315.5T801 1159z"/><glyph glyph-name="P" unicode="P" horiz-adv-x="1191" d="M655 1434q211 0 348.5-130T1141 975q0-201-137.5-333T655 510H412V0H109v1434h546zm0-633q78 0 129.5 49.5T836 975q0 72-51.5 120T655 1143H412V801h243z"/><glyph glyph-name="Q" unicode="Q" horiz-adv-x="1601" d="M1581 0h-317l-76 84Q1018-20 801-20q-206 0-373.5 96T165 341 70 717t95 376 262.5 265 373.5 96 374-96 263.5-265 95.5-376q0-274-166-477zM801 274q100 0 180 41L670 664h317l170-189q64 106 64 242 0 189-120 315.5T801 1159t-300-126.5T381 717t120-316 300-127z"/><glyph glyph-name="R" unicode="R" horiz-adv-x="1294" d="M1260 0H891L567 547H412V0H109v1434h553q120 0 224-59t166-161.5 62-222.5q0-136-61-240T885 594zM412 1141V809h219q74 0 125 48t51 120q0 69-51 116.5T631 1141H412z"/><glyph glyph-name="S" unicode="S" horiz-adv-x="1218" d="M623-20q-235 0-389 140T80 475h299q0-94 68-151.5T623 266q100 0 162.5 43T848 422q0 40-26 70t-69.5 49-100 34.5-119 32-125 36.5-119 52-100 74.5-69.5 109T94 1030q0 184 140.5 304T588 1454q103 0 189-25.5t146-70 101-105 60.5-130T1104 977H791q-2 84-59.5 137T578 1167q-86 0-136.5-36t-50.5-99q0-38 26-65.5t70-45 100.5-32T707 859t126-36 119.5-53 100.5-77.5 70-113.5 26-157q0-191-149.5-316.5T623-20z"/><glyph glyph-name="T" unicode="T" horiz-adv-x="1228" d="M1186 1434v-291H766V0H463v1143H45v291h1141z"/><glyph glyph-name="U" unicode="U" horiz-adv-x="1353" d="M678-18q-162 0-292 74T182.5 261 109 555v879h303V555q0-120 76-199.5T678 276t189 79.5T942 555v879h303V555q0-163-73.5-294t-203-205T678-18z"/><glyph glyph-name="V" unicode="V" horiz-adv-x="1355" d="M16 1434h326l338-938 338 938h321L801 0H557z"/><glyph glyph-name="W" unicode="W" horiz-adv-x="2078" d="M1743 1436h317L1585 0h-244l-301 922L741 0H496L16 1436h324l285-924 297 924h243l297-924z"/><glyph glyph-name="X" unicode="X" horiz-adv-x="1374" d="M1358 0H997L684 469 373 0H16l492 737-465 697h363l282-426 283 426h354L866 741z"/><glyph glyph-name="Y" unicode="Y" horiz-adv-x="1394" d="M16 1434h371l318-521 317 521h354L854 606V0H549v606z"/><glyph glyph-name="Z" unicode="Z" horiz-adv-x="1222" d="M92 1434h1063v-205L465 291h696V0H51v205l692 938H92v291z"/><glyph glyph-name="bracketleft" unicode="[" horiz-adv-x="729" d="M365 1444V-156h303v-235H102v2070h566v-235H365z"/><glyph glyph-name="backslash" unicode="\" horiz-adv-x="956" d="M944 0H635L4 1434h309z"/><glyph glyph-name="bracketright" unicode="]" horiz-adv-x="739" d="M375 1444H72v235h565V-391H72v235h303v1600z"/><glyph glyph-name="asciicircum" unicode="^" horiz-adv-x="1232" d="M1130 561H836l-220 506-221-506H102l404 893h221z"/><glyph glyph-name="underscore" unicode="_" horiz-adv-x="1247" d="M41-291v271h1165v-271H41z"/><glyph glyph-name="grave" unicode="`" horiz-adv-x="720" d="M102 1436h342l174-320H352z"/><glyph glyph-name="a" unicode="a" horiz-adv-x="1234" d="M846 1006h289V0H846v143Q736-20 526-20q-128 0-235.5 70.5T121 241.5 59 504t62 262.5 169.5 190T526 1026q210 0 320-164v144zM594 256q106 0 179 71.5T846 504q0 104-73 176t-179 72q-104 0-178-72.5T342 504q0-104 73.5-176T594 256z"/><glyph glyph-name="b" unicode="b" horiz-adv-x="1234" d="M709 1026q128 0 235.5-69.5t169.5-190 62-262.5-62-262.5-169.5-191T709-20q-210 0-318 161V0H102v1434h289V864q109 162 318 162zm-66-770q104 0 177 72t73 176q0 103-73 175.5T643 752q-106 0-179-72t-73-176q0-105 73-176.5T643 256z"/><glyph glyph-name="c" unicode="c" horiz-adv-x="1134" d="M582-20q-223 0-373 149T59 502t150 374 373 150q189 0 330-115t161-288H780q-15 56-70.5 91.5T582 750q-103 0-171.5-70.5T342 502q0-104 68.5-175T582 256q72 0 128.5 38t71.5 97h293q-11-118-80-212.5T817.5 32 582-20z"/><glyph glyph-name="d" unicode="d" horiz-adv-x="1234" d="M846 1434h289V0H846v143Q736-20 526-20q-128 0-235.5 70.5T121 241.5 59 504t62 262.5 169.5 190T526 1026q210 0 320-164v572zM594 256q106 0 179 71.5T846 504q0 104-73 176t-179 72q-104 0-178-72.5T342 504q0-104 73.5-176T594 256z"/><glyph glyph-name="e" unicode="e" horiz-adv-x="1136" d="M1077 537q0-53-6-103H324q15-98 85-156.5T580 219q83 0 135.5 32.5T780 338h283q-25-162-155-260T588-20q-146 0-267.5 69.5T129 240.5 59 508q0 219 151.5 368.5T582 1026q134 0 248-64t180.5-177 66.5-248zm-739 81h438q-6 75-66 125t-141 50q-85 0-145-44t-86-131z"/><glyph glyph-name="f" unicode="f" horiz-adv-x="823" d="M698 1210q-78 0-126-38.5T524 1055v-49h248V731H524V0H236v731H49v275h187v55q0 198 108.5 311T633 1485q73 0 139-17v-266q-27 8-74 8z"/><glyph glyph-name="g" unicode="g" horiz-adv-x="1234" d="M846 1008h289V43q0-139-70-244T877.5-360 614-414q-62 0-124.5 9T355-370t-127 66-94 108.5T90-39h289q6-65 70-100t155-35q97 0 169.5 58T846 31v145Q738 18 526 18q-128 0-235.5 68T121 270 59 522q0 137 62 253t169.5 183.5T526 1026q212 0 320-158v140zM594 285q106 0 179 68t73 169-73 170.5T594 762q-104 0-178-70t-74-170q0-99 73.5-168T594 285z"/><glyph glyph-name="h" unicode="h" horiz-adv-x="1177" d="M664 1026q193 0 303-121.5T1077 569V0H788v532q0 98-54.5 158T590 750q-90 0-144.5-59.5T391 532V0H102v1434h289V874q100 152 273 152z"/><glyph glyph-name="i" unicode="i" horiz-adv-x="493" d="M246 1493q72 0 124-51.5t52-122.5q0-72-52-124t-124-52-124 52-52 124q0 71 52 122.5t124 51.5zm-144-487h289V0H102v1006z"/><glyph glyph-name="j" unicode="j" horiz-adv-x="493" d="M246 1493q72 0 124-51.5t52-122.5q0-72-52-124t-124-52-124 52-52 124q0 71 52 122.5t124 51.5zM-45-127q5 0 17-1t18-1q112 0 112 127v1008h289V-31q0-167-101.5-263.5T14-391q-13 0-59 4v260z"/><glyph glyph-name="k" unicode="k" horiz-adv-x="1140" d="M1126 0H756L391 451V0H102v1434h289V590l348 416h355L676 520z"/><glyph glyph-name="l" unicode="l" horiz-adv-x="493" d="M391 1434V0H102v1434h289z"/><glyph glyph-name="m" unicode="m" horiz-adv-x="1777" d="M1266 1026q182 0 296.5-110T1677 625V0h-291v557q0 89-47 141t-125 52q-77 0-129.5-50.5T1032 557V0H743v557q0 89-47 141t-127 52q-76 0-127-50t-51-143V0H102v1006h289V885q97 141 287 141 199 0 285-147 45 66 127 106.5t176 40.5z"/><glyph glyph-name="n" unicode="n" horiz-adv-x="1177" d="M664 1026q193 0 303-121.5T1077 569V0H788v532q0 98-54.5 158T590 750q-90 0-144.5-59.5T391 532V0H102v1006h289V874q100 152 273 152z"/><glyph glyph-name="o" unicode="o" horiz-adv-x="1163" d="M582 1026q109 0 205.5-40t166-109.5 110-167T1104 502q0-147-68.5-267t-188-187.5T582-20q-223 0-373 149T59 502t150 374 373 150zm0-276q-103 0-171.5-70.5T342 502q0-104 68.5-175T582 256q101 0 170 71t69 175q0 107-68.5 177.5T582 750z"/><glyph glyph-name="p" unicode="p" horiz-adv-x="1234" d="M709 1026q128 0 235.5-69.5t169.5-190 62-262.5-62-262.5-169.5-191T709-20q-210 0-318 161v-473H102v1338h289V864q109 162 318 162zm-66-770q104 0 177 72t73 176q0 103-73 175.5T643 752q-106 0-179-72t-73-176q0-105 73-176.5T643 256z"/><glyph glyph-name="q" unicode="q" horiz-adv-x="1234" d="M846 1006h289V-332H846v475Q736-20 526-20q-128 0-235.5 70.5T121 241.5 59 504t62 262.5 169.5 190T526 1026q210 0 320-164v144zM594 256q106 0 179 71.5T846 504q0 104-73 176t-179 72q-104 0-178-72.5T342 504q0-104 73.5-176T594 256z"/><glyph glyph-name="r" unicode="r" horiz-adv-x="784" d="M651 1026q31 0 97-12V752q-61 14-105 14-111 0-181.5-68.5T391 496V0H102v1006h289V891q93 135 260 135z"/><glyph glyph-name="s" unicode="s" horiz-adv-x="960" d="M510-20q-199 0-324.5 95.5T45 340h277q4-51 53-82t121-31q64 0 99.5 20t35.5 56q0 33-31 54t-81 31.5T408.5 409 288 437t-110 46-81 82.5T66 696q0 143 108.5 236.5T465 1026q172 0 295-88t141-248H610q-3 40-44 68t-107 28q-52 0-83.5-17.5T344 717q0-31 31.5-49.5T457 640t110-18 120.5-28T798 543.5t81.5-92.5T911 305q0-138-115.5-231.5T510-20z"/><glyph glyph-name="t" unicode="t" horiz-adv-x="800" d="M743 731H496V414q0-78 47.5-117T670 258q42 0 73 8V0q-62-16-139-16-181 0-289 113T207 410v321H20v275h187v264h289v-264h247V731z"/><glyph glyph-name="u" unicode="u" horiz-adv-x="1177" d="M788 1006h289V0H788v133Q693-20 516-20q-193 0-303.5 122T102 438v568h289V475q0-100 54-159.5T590 256q89 0 143.5 59.5T788 475v531z"/><glyph glyph-name="v" unicode="v" horiz-adv-x="1112" d="M1096 1006 680 0H434L16 1006h314l227-613 223 613h316z"/><glyph glyph-name="w" unicode="w" horiz-adv-x="1615" d="M379 0 16 1006h310l168-551 200 551h226l202-551 166 551h311L1237 0h-227L807 551 602 0H379z"/><glyph glyph-name="x" unicode="x" horiz-adv-x="1120" d="M1096 0H748L557 272 367 0H23l362 518-340 488h348l166-238 168 238h344L731 520z"/><glyph glyph-name="y" unicode="y" horiz-adv-x="1101" d="M774 1006h311L526-334H217L403 82 16 1006h312l223-588z"/><glyph glyph-name="z" unicode="z" horiz-adv-x="1032" d="M954 1006V801L467 276h494V0H47v205l490 526H84v275h870z"/><glyph glyph-name="braceleft" unicode="{" horiz-adv-x="890" d="M702-391q-213 0-335.5 126T244 82v272q0 65-54.5 119T41 553v182q95 26 149 80.5T244 936v270q0 219 122.5 345T702 1679h146v-235H702q-93 0-151.5-65.5T492 1206V956q0-96-43.5-175T330 645q162-125 162-313V82q0-107 58.5-172.5T702-156h146v-235H702z"/><glyph glyph-name="bar" unicode="|" horiz-adv-x="507" d="M102 1638h304V-334H102v1972z"/><glyph glyph-name="braceright" unicode="}" horiz-adv-x="890" d="M188-391H43v235h145q93 0 152 66t59 172v250q0 187 160 313-160 123-160 311v250q0 106-59 172t-152 66H43v235h145q213-2 336-128t123-345V936q0-66 54-120.5T850 735V553q-94-26-148.5-80T647 354V82q0-221-123-347T188-391z"/><glyph glyph-name="asciitilde" unicode="~" horiz-adv-x="1228" d="m346 440-244 31q22 176 104.5 271.5T416 838q66 0 139.5-30t133-59.5T780 719q78 0 99 145l249-30q-28-174-112-271.5T809 465q-51 0-107.5 18.5t-96 41-83.5 41-73 18.5q-78 0-103-144z"/><glyph glyph-name="uni00A0" horiz-adv-x="417"/><glyph glyph-name="exclamdown" unicode="¡" horiz-adv-x="583" d="M291 1454q79 0 133.5-53.5T479 1270t-54.5-130-133.5-53q-78 0-132.5 53.5T104 1270q0 77 54.5 130.5T291 1454zM137 0l10 991h289l8-991H137z"/><glyph glyph-name="cent" unicode="¢" horiz-adv-x="1134" d="M1075 391q-13-145-111.5-251.5T717-4v-242H428V0Q263 48 161 184T59 502t102 319 267 185v247h289v-243q143-37 241-142.5T1073 623H780q-15 56-70.5 91.5T582 750q-103 0-171.5-70.5T342 502q0-104 68.5-175T582 256q72 0 128.5 38t71.5 97h293z"/><glyph glyph-name="sterling" unicode="£" horiz-adv-x="1259" d="M575 561q0-74-34.5-144.5T442 291h738V0H109v291q78 44 120.5 113T272 555v37H113v244h159v139q0 214 126 346.5T739 1454q194 0 324.5-113t140.5-297H893q-3 48-43 80.5T748 1157q-87 0-130-62.5T575 920v-84h314V592H575v-31z"/><glyph glyph-name="currency" unicode="¤" horiz-adv-x="1650" d="M1440 727q0-162-84-305l192-193L1327 6l-194 195q-134-86-304-86-165 0-309 88L324 6 102 229l195 195q-86 143-86 303 0 164 86 307l-195 195 222 223 196-197q139 88 309 88t304-86l194 195 221-223-192-193q84-143 84-309zM829 401q135 0 229.5 95t94.5 231q0 138-94.5 234T829 1057q-137 0-234-97t-97-233q0-134 97.5-230T829 401z"/><glyph glyph-name="yen" unicode="¥" horiz-adv-x="1394" d="M1376 1434 975 799h256V555H854V0H549v555H164v244h262L16 1434h371l318-521 317 521h354z"/><glyph glyph-name="brokenbar" unicode="¦" horiz-adv-x="507" d="M102 858v780h304V858H102zm0-1192v783h304v-783H102z"/><glyph glyph-name="section" unicode="§" horiz-adv-x="1196" d="M1090 500q0-116-72-217 72-88 72-228 0-165-134-285T606-350q-217 0-357 128.5T109 106h251q0-96 69-156.5T606-111q101 0 165.5 46.5T836 55q0 42-24.5 73.5T746 180t-94.5 36-113 31.5-118.5 34T307.5 329 213 397.5 147.5 498 123 637q0 120 74 219-74 87-74 221 0 169 128.5 278T575 1464q116 0 208-35t148.5-95.5 86-137T1047 1032H784q-3 85-61.5 139T569 1225q-89 0-142.5-40T373 1079q0-39 24.5-68t66-46.5 95.5-32T672.5 903 791 870t113-48.5 95.5-71 66-104.5 24.5-146zM373 637q0-40 24.5-69t72-48 96-32 120-31T805 422q31 31 31 78 0 36-18.5 64.5t-46.5 46-73 34-86 26.5-99 26-99 30q-41-38-41-90z"/><glyph glyph-name="dieresis" unicode="¨" horiz-adv-x="989" d="M279 1493q72 0 124-51.5t52-122.5q0-72-52-124t-124-52-124.5 52-52.5 124q0 71 52.5 122.5T279 1493zm432 0q72 0 124-51.5t52-122.5q0-72-52-124t-124-52-124 52-52 124q0 71 52 122.5t124 51.5z"/><glyph glyph-name="copyright" unicode="©" horiz-adv-x="1613" d="M805-20q-198 0-367.5 99T169 347.5 70 717t99 369.5T437.5 1355t367.5 99q201 0 371-99t269-268.5 99-369.5-99-369.5T1176 79 805-20zm2 114q167 0 309.5 84T1342 405.5t83 311.5-83 311.5-225.5 227T807 1339q-125 0-239.5-49.5t-197.5-133T237.5 958 188 717q0-168 83-311.5T497 178t310-84zm-2 217q-173 0-289.5 117.5T399 721t116.5 292T805 1130q145 0 255.5-84T1188 838H989q-15 55-67.5 89T805 961q-95 0-160-69.5T580 721t65-170.5T805 481q67 0 119 37.5t67 95.5h199q-23-135-130.5-219T805 311z"/><glyph glyph-name="ordfeminine" unicode="ª" horiz-adv-x="739" d="M500 1442h182V838H500v82q-64-95-187-95-115 0-196.5 92.5T35 1139q0 131 81.5 223t196.5 92q122 0 187-94v82zM356 999q60 0 102 40t42 100-42 100.5-102 40.5-101.5-41-41.5-100q0-57 41.5-98.5T356 999z"/><glyph glyph-name="guillemotleft" unicode="«" horiz-adv-x="1458" d="M684 82 100 485v189l584 405V784L367 580l317-199V82zm666 0L766 485v189l584 405V784l-318-204 318-199V82z"/><glyph glyph-name="logicalnot" unicode="¬" horiz-adv-x="1198" d="M1096 788V82H823v436H102v270h994z"/><glyph glyph-name="uni00AD" unicode="­" horiz-adv-x="765" d="M51 397v271h664V397H51z"/><glyph glyph-name="registered" unicode="®" horiz-adv-x="1605" d="M805 1454q201 0 371-99t269-268.5 99-369.5-99-369.5T1176 79 805-20q-198 0-367.5 99T169 347.5 70 717t99 369.5T437.5 1355t367.5 99zm2-1360q167 0 309.5 84T1342 405.5t83 311.5-83 311.5-225.5 227T807 1339q-125 0-239.5-49.5t-197.5-133T237.5 958 188 717q0-168 83-311.5T497 178t310-84zm283 778q0-76-33-133t-92-88l209-329H961L782 623h-80V322H526v798h308q102 0 179-73t77-175zm-388 78V774h115q39 0 66.5 26t27.5 62q0 37-28 62.5T817 950H702z"/><glyph glyph-name="macron" unicode="¯" horiz-adv-x="860" d="M102 1126v232h656v-232H102z"/><glyph glyph-name="degree" unicode="°" horiz-adv-x="845" d="M737 1143q0-132-92.5-226T422 823t-223 94-93 226q0 128 93 219.5t223 91.5 222.5-91.5T737 1143zm-178 0q0 56-40 95.5t-97 39.5-97-39.5-40-95.5q0-58 40-98.5t97-40.5 97 40.5 40 98.5z"/><glyph glyph-name="plusminus" unicode="±" horiz-adv-x="1214" d="M743 1057h369V786H743V416H471v370H102v271h369v370h272v-370zM102 0v270h1010V0H102z"/><glyph glyph-name="uni00B2" unicode="²" horiz-adv-x="700" d="M53 573v138l273 264q85 81 103 105 30 40 30 85 0 40-32.5 67.5T348 1260q-60 0-91-40.5T231 1108H39q-6 150 82.5 244t230.5 94q131 0 217-78t86-199q0-84-49-157.5T461 854l-94-94h288V573H53z"/><glyph glyph-name="uni00B3" unicode="³" horiz-adv-x="681" d="m215 1083 156 168H41v183h600v-125l-197-203q90-10 147.5-80T649 860q0-131-90-215t-229-84q-130 0-218.5 75.5T14 831h193q8-36 40-59.5t83-23.5q54 0 87.5 32.5T451 864q0 72-72.5 99.5T215 961v122z"/><glyph glyph-name="acute" unicode="´" horiz-adv-x="720" d="m618 1436-249-320H102l177 320h339z"/><glyph glyph-name="uni00B5" unicode="µ" horiz-adv-x="1177" d="M788 1006h289V0H788v133Q693-20 516-20q-63 0-125 16v-330H102v1340h289V475q0-100 54-159.5T590 256q89 0 143.5 59.5T788 475v531z"/><glyph glyph-name="paragraph" unicode="¶" horiz-adv-x="1630" d="M1587 1434v-291h-203V-334h-274v1477H915V-334H641v844h-96q-213 0-352.5 131.5T53 973t137.5 330.5T539 1434h1048zM641 801v342H530q-74 0-124-49t-50-121 50.5-122T530 801h111z"/><glyph glyph-name="periodcentered" unicode="·" horiz-adv-x="583" d="M291 432q-78 0-132.5 53.5T104 616q0 76 54.5 129.5T291 799q79 0 133.5-53T479 616t-54.5-130.5T291 432z"/><glyph glyph-name="cedilla" unicode="¸" horiz-adv-x="634" d="M188 49h218q61-62 92.5-127t33-122-23-107-70.5-83.5-115.5-50T170-449l-68 205q97-1 150.5 25t58.5 68.5T284.5-55 188 49z"/><glyph glyph-name="uni00B9" unicode="¹" horiz-adv-x="483" d="M424 1434V573H233v598L43 1026v227l252 181h129z"/><glyph glyph-name="ordmasculine" unicode="º" horiz-adv-x="698" d="M348 1454q134 0 225-91t91-224-91-223.5T348 825q-133 0-223 90t-90 224 90 224.5 223 90.5zm0-176q-58 0-96.5-39.5T213 1139t39-100 96-40 96 40 39 100-39 99.5-96 39.5z"/><glyph glyph-name="guillemotright" unicode="»" horiz-adv-x="1458" d="M109 82v299l319 199-319 204v295l585-405V485zm665 0v299l320 199-320 204v295l586-405V485z"/><glyph glyph-name="onequarter" unicode="¼" horiz-adv-x="1730" d="M424 573H233v598L43 1026v227l252 181h129V573zm784 861h230L485 0H256zm498-1082V176h-90V0h-191v176h-419v117l297 567h217l-269-508h174v191h191V352h90z"/><glyph glyph-name="onehalf" unicode="½" horiz-adv-x="1746" d="M424 1434V573H233v598L43 1026v227l252 181h129zm784 0h230L485 0H256zM1149 0v137l270 264q61 58 79.5 77t36 50 17.5 64q0 39-31.5 66.5T1444 686q-60 0-91-40t-28-111h-192q-6 149 83 243t230 94q132 0 217.5-77.5T1749 596q0-84-49-157.5T1554 281l-94-95h291V0h-602z"/><glyph glyph-name="threequarters" unicode="¾" horiz-adv-x="1812" d="M649 860q0-131-90-215t-229-84q-130 0-218.5 75.5T14 831h193q8-36 40-59.5t83-23.5q54 0 87.5 32.5T451 864q0 72-72.5 99.5T215 961v122l156 168H41v183h600v-125l-197-203q90-10 147.5-80T649 860zm643 574h230L569 0H340zm496-1082V176h-88V0h-193v176h-420v117l297 567h218l-267-508h172v191h193V352h88z"/><glyph glyph-name="questiondown" unicode="¿" horiz-adv-x="1064" d="M545 1454q78 0 132-53.5t54-130.5-54-130-132-53q-79 0-134 53t-55 130 55 130.5 134 53.5zM526-20q-209 0-351 124.5T33 412q0 78 20 144t52.5 110.5T177 748t78.5 66 72 55.5 53 57T401 991h297q0-75-19.5-134.5T628 759t-69-69-76-56.5-69-51-50.5-60.5-19.5-78q0-80 52-125t136-45q97 0 152 64.5T739 502h305q4-145-63-265T793.5 48.5 526-20z"/><glyph glyph-name="Agrave" unicode="À" horiz-adv-x="1411" d="M864 1544H598l-250 320h340zM1069 0l-90 240H426L334 0H12l570 1434h245L1399 0h-330zM526 500h353L705 958z"/><glyph glyph-name="Aacute" unicode="Á" horiz-adv-x="1411" d="m1077 1864-250-320H561l176 320h340zM1069 0l-90 240H426L334 0H12l570 1434h245L1399 0h-330zM526 500h353L705 958z"/><glyph glyph-name="Acircumflex" unicode="Â" horiz-adv-x="1411" d="m707 1692-101-142H350l199 320h315l201-320H809zM1069 0l-90 240H426L334 0H12l570 1434h245L1399 0h-330zM526 500h353L705 958z"/><glyph glyph-name="Atilde" unicode="Ã" horiz-adv-x="1411" d="M567 1647q-29 0-47-28.5t-16-72.5l-234 41q12 135 90 220t185 85q59 0 120.5-27t106.5-54 66-27q32 0 51.5 26.5T911 1882l234-39q-15-135-94-221t-183-86q-63 0-124.5 28t-107 55.5T567 1647zM1069 0l-90 240H426L334 0H12l570 1434h245L1399 0h-330zM526 500h353L705 958z"/><glyph glyph-name="Adieresis" unicode="Ä" horiz-adv-x="1411" d="M492 1536q-72 0-124.5 52T315 1712q0 71 52.5 122.5T492 1886t124-51.5 52-122.5q0-72-52-124t-124-52zm430 0q-71 0-124 52t-53 124q0 70 53 122t124 52q72 0 124-51.5t52-122.5q0-72-52-124t-124-52zM1069 0l-90 240H426L334 0H12l570 1434h245L1399 0h-330zM526 500h353L705 958z"/><glyph glyph-name="Aring" unicode="Å" horiz-adv-x="1411" d="M709 1532q-124 0-207.5 80.5T418 1812q0 120 83.5 201.5T709 2095t208-81.5 84-201.5q0-119-84-199.5T709 1532zm0 395q-50 0-83.5-33t-33.5-82q0-47 34-79.5t83-32.5 82.5 32.5T825 1812q0 49-33 82t-83 33zM1069 0l-90 240H426L334 0H12l570 1434h245L1399 0h-330zM526 500h353L705 958z"/><glyph glyph-name="AE" unicode="Æ" horiz-adv-x="1927" d="M1849 1143h-565V885h504V594h-504V291h565V0H985v305H520L356 0H12l803 1434h1034v-291zM664 575h321v603z"/><glyph glyph-name="Ccedilla" unicode="Ç" horiz-adv-x="1550" d="M1483 522q-38-218-201.5-365T887-16q62-85 69-169.5T922.5-331t-127-95T596-449l-68 205q111-2 164 31.5t47 86.5-59 114Q412 28 241 231T70 717q0 207 94.5 376t261 265 371.5 96q167 0 316-67.5t247.5-188T1479 930h-338q-29 101-124.5 165T797 1159q-177 0-296.5-126.5T381 717t119.5-316T797 274q125 0 221.5 70T1143 522h340z"/><glyph glyph-name="Egrave" unicode="È" horiz-adv-x="1064" d="M201 1864h340l176-320H451zm-92-430h878v-291H412V885h512V594H412V291h575V0H109v1434z"/><glyph glyph-name="Eacute" unicode="É" horiz-adv-x="1064" d="m932 1864-250-320H416l176 320h340zm-823-430h878v-291H412V885h512V594H412V291h575V0H109v1434z"/><glyph glyph-name="Ecircumflex" unicode="Ê" horiz-adv-x="1064" d="m561 1692-100-142H205l198 320h316l201-320H664zm426-549H412V885h512V594H412V291h575V0H109v1434h878v-291z"/><glyph glyph-name="Edieresis" unicode="Ë" horiz-adv-x="1064" d="M346 1886q72 0 124-51.5t52-122.5q0-72-52-124t-124-52-124 52-52 124q0 71 52 122.5t124 51.5zm430 0q72 0 124-51.5t52-122.5q0-72-52-124t-124-52q-71 0-123.5 52T600 1712q0 70 52.5 122t123.5 52zm-667-452h878v-291H412V885h512V594H412V291h575V0H109v1434z"/><glyph glyph-name="Igrave" unicode="Ì" horiz-adv-x="520" d="M-102 1864h342l176-320H150zm211-430h303V0H109v1434z"/><glyph glyph-name="Iacute" unicode="Í" horiz-adv-x="520" d="m631 1864-250-320H115l176 320h340zm-522-430h303V0H109v1434z"/><glyph glyph-name="Icircumflex" unicode="Î" horiz-adv-x="520" d="m258 1692-100-142H-98l198 320h316l200-320H360zM109 0v1434h303V0H109z"/><glyph glyph-name="Idieresis" unicode="Ï" horiz-adv-x="520" d="M45 1886q72 0 124-51.5t52-122.5q0-72-52-124t-124-52-124 52-52 124q0 71 52 122.5T45 1886zm430 0q72 0 124-51.5t52-122.5q0-72-52-124t-124-52q-71 0-123.5 52T299 1712q0 70 52.5 122t123.5 52zm-366-452h303V0H109v1434z"/><glyph glyph-name="Eth" unicode="Ð" horiz-adv-x="1394" d="M600 1434q204 0 370.5-92t261.5-255 95-364q0-205-95-370.5t-261.5-259T600 0H109v627H-68v192h177v615h491zm21-1143q170 0 281.5 123T1014 723q0 183-110.5 301.5T621 1143H412V819h206V627H412V291h209z"/><glyph glyph-name="Ntilde" unicode="Ñ" horiz-adv-x="1361" d="M250 1587q12 135 89.5 220t184.5 85q59 0 120.5-27t106.5-54 66-27q32 0 52 27t22 71l233-39q-15-135-93.5-221T848 1536q-63 0-124.5 28t-107 55.5T547 1647q-29 0-47-28.5t-17-72.5zm-141-153h258l583-836v836h303V0H999L412 836V0H109v1434z"/><glyph glyph-name="Ograve" unicode="Ò" horiz-adv-x="1601" d="M440 1864h340l176-320H690zm361-410q206 0 374-96t263.5-265 95.5-376-95.5-376T1175 76 801-20 427.5 76 165 341 70 717t95 376 262.5 265 373.5 96zm0-295q-180 0-300-126.5T381 717t120-316 300-127 300 127 120 316-120 315.5T801 1159z"/><glyph glyph-name="Oacute" unicode="Ó" horiz-adv-x="1601" d="m1171 1864-249-320H655l176 320h340zm-370-410q206 0 374-96t263.5-265 95.5-376-95.5-376T1175 76 801-20 427.5 76 165 341 70 717t95 376 262.5 265 373.5 96zm0-295q-180 0-300-126.5T381 717t120-316 300-127 300 127 120 316-120 315.5T801 1159z"/><glyph glyph-name="Ocircumflex" unicode="Ô" horiz-adv-x="1601" d="m801 1692-101-142H444l199 320h315l201-320H903zm0-238q206 0 374-96t263.5-265 95.5-376-95.5-376T1175 76 801-20 427.5 76 165 341 70 717t95 376 262.5 265 373.5 96zm0-1180q180 0 300 127t120 316-120 315.5T801 1159t-300-126.5T381 717t120-316 300-127z"/><glyph glyph-name="Otilde" unicode="Õ" horiz-adv-x="1601" d="M365 1587q12 135 89.5 220t184.5 85q59 0 120.5-27t106.5-54 66-27q32 0 52 27t22 71l233-39q-15-135-93.5-221T963 1536q-63 0-124.5 28t-107 55.5T662 1647q-29 0-47-28.5t-17-72.5zm436-133q206 0 374-96t263.5-265 95.5-376-95.5-376T1175 76 801-20 427.5 76 165 341 70 717t95 376 262.5 265 373.5 96zm0-295q-180 0-300-126.5T381 717t120-316 300-127 300 127 120 316-120 315.5T801 1159z"/><glyph glyph-name="Odieresis" unicode="Ö" horiz-adv-x="1601" d="M586 1886q72 0 124-51.5t52-122.5q0-72-52-124t-124-52-124 52-52 124q0 71 52 122.5t124 51.5zm430 0q72 0 124-51.5t52-122.5q0-72-52-124t-124-52q-71 0-123.5 52T840 1712q0 70 52.5 122t123.5 52zm-215-432q206 0 374-96t263.5-265 95.5-376-95.5-376T1175 76 801-20 427.5 76 165 341 70 717t95 376 262.5 265 373.5 96zm0-295q-180 0-300-126.5T381 717t120-316 300-127 300 127 120 316-120 315.5T801 1159z"/><glyph glyph-name="multiply" unicode="×" horiz-adv-x="1165" d="M1063 969 774 680l289-289-191-192-288 288-289-288-193 192 287 289-287 287 193 192 287-287 288 289z"/><glyph glyph-name="Oslash" unicode="Ø" horiz-adv-x="1601" d="M1364 1200q170-207 170-483 0-207-95.5-376T1175 76 801-20q-200 0-369 94L279-111 84 59l149 181Q70 443 70 717q0 207 95 376t262.5 265 373.5 96q198 0 362-90l158 188 195-170zM381 717q0-128 57-230l529 639q-81 33-166 33-180 0-300-126.5T381 717zm420-443q180 0 300 127t120 316q0 127-62 235L629 311q75-37 172-37z"/><glyph glyph-name="Ugrave" unicode="Ù" horiz-adv-x="1353" d="M317 1864h340l177-320H567zM678-18q-162 0-292 74T182.5 261 109 555v879h303V555q0-120 76-199.5T678 276t189 79.5T942 555v879h303V555q0-163-73.5-294t-203-205T678-18z"/><glyph glyph-name="Uacute" unicode="Ú" horiz-adv-x="1353" d="m1049 1864-250-320H532l177 320h340zM678-18q-162 0-292 74T182.5 261 109 555v879h303V555q0-120 76-199.5T678 276t189 79.5T942 555v879h303V555q0-163-73.5-294t-203-205T678-18z"/><glyph glyph-name="Ucircumflex" unicode="Û" horiz-adv-x="1353" d="m676 1692-101-142H319l199 320h316l200-320H778zm266-258h303V555q0-163-73.5-294t-203-205T678-18q-162 0-292 74T182.5 261 109 555v879h303V555q0-120 76-199.5T678 276t189 79.5T942 555v879z"/><glyph glyph-name="Udieresis" unicode="Ü" horiz-adv-x="1353" d="M463 1886q72 0 124-51.5t52-122.5q0-72-52-124t-124-52-124 52-52 124q0 71 52 122.5t124 51.5zm430 0q72 0 124-51.5t52-122.5q0-72-52-124t-124-52q-71 0-123.5 52T717 1712q0 70 52.5 122t123.5 52zM678-18q-162 0-292 74T182.5 261 109 555v879h303V555q0-120 76-199.5T678 276t189 79.5T942 555v879h303V555q0-163-73.5-294t-203-205T678-18z"/><glyph glyph-name="Yacute" unicode="Ý" horiz-adv-x="1394" d="m1071 1864-250-320H555l176 320h340zM16 1434h371l318-521 317 521h354L854 606V0H549v606z"/><glyph glyph-name="Thorn" unicode="Þ" horiz-adv-x="1187" d="M655 1180q211 0 348.5-130.5T1141 719q0-201-137.5-332T655 256H412V0H109v1434h303v-254h243zm0-633q78 0 129.5 49T836 719q0 73-51.5 121.5T655 889H412V547h243z"/><glyph glyph-name="germandbls" unicode="ß" horiz-adv-x="1214" d="M98 0v881q0 268 142.5 420.5T631 1454q89 0 173-31.5t147.5-86 102-133.5 38.5-167q0-84-41-150.5T950 784q93-46 150-132t57-193q0-192-132.5-325.5T702 0H520v291h164q69 0 116.5 47T848 453q0 69-50 115t-130 46H520v273h117q63 0 104 39t41 94q0 62-43.5 102.5T625 1163q-100 0-162-77t-62-205V0H98z"/><glyph glyph-name="agrave" unicode="à" horiz-adv-x="1234" d="M836 1116H569l-250 320h340zm10-110h289V0H846v143Q736-20 526-20q-128 0-235.5 70.5T121 241.5 59 504t62 262.5 169.5 190T526 1026q210 0 320-164v144zM594 256q106 0 179 71.5T846 504q0 104-73 176t-179 72q-104 0-178-72.5T342 504q0-104 73.5-176T594 256z"/><glyph glyph-name="aacute" unicode="á" horiz-adv-x="1234" d="m1051 1436-250-320H535l176 320h340zm-205-430h289V0H846v143Q736-20 526-20q-128 0-235.5 70.5T121 241.5 59 504t62 262.5 169.5 190T526 1026q210 0 320-164v144zM594 256q106 0 179 71.5T846 504q0 104-73 176t-179 72q-104 0-178-72.5T342 504q0-104 73.5-176T594 256z"/><glyph glyph-name="acircumflex" unicode="â" horiz-adv-x="1234" d="m678 1264-100-142H322l198 320h316l200-320H780zm168-258h289V0H846v143Q736-20 526-20q-128 0-235.5 70.5T121 241.5 59 504t62 262.5 169.5 190T526 1026q210 0 320-164v144zM594 256q106 0 179 71.5T846 504q0 104-73 176t-179 72q-104 0-178-72.5T342 504q0-104 73.5-176T594 256z"/><glyph glyph-name="atilde" unicode="ã" horiz-adv-x="1234" d="M539 1219q-29 0-47-28.5t-17-72.5l-233 41q12 135 89.5 220t184.5 85q59 0 120.5-27t106.5-54 66-27q32 0 52 27t22 71l233-39q-15-135-93.5-221T840 1108q-63 0-124.5 28t-107 55.5T539 1219zm307-213h289V0H846v143Q736-20 526-20q-128 0-235.5 70.5T121 241.5 59 504t62 262.5 169.5 190T526 1026q210 0 320-164v144zM594 256q106 0 179 71.5T846 504q0 104-73 176t-179 72q-104 0-178-72.5T342 504q0-104 73.5-176T594 256z"/><glyph glyph-name="adieresis" unicode="ä" horiz-adv-x="1234" d="M463 1143q-72 0-124 52t-52 124q0 71 52 122.5t124 51.5 124-51.5 52-122.5q0-72-52-124t-124-52zm430 0q-71 0-123.5 52T717 1319q0 70 52.5 122t123.5 52q72 0 124-51.5t52-122.5q0-72-52-124t-124-52zm-47-137h289V0H846v143Q736-20 526-20q-128 0-235.5 70.5T121 241.5 59 504t62 262.5 169.5 190T526 1026q210 0 320-164v144zM594 256q106 0 179 71.5T846 504q0 104-73 176t-179 72q-104 0-178-72.5T342 504q0-104 73.5-176T594 256z"/><glyph glyph-name="aring" unicode="å" horiz-adv-x="1234" d="M680 1104q-124 0-207.5 80.5T389 1384q0 120 83.5 201.5T680 1667t208.5-81.5T973 1384q0-119-84.5-199.5T680 1104zm0 395q-50 0-83.5-33t-33.5-82q0-47 34-79.5t83-32.5 83 32.5 34 79.5q0 49-33.5 82t-83.5 33zm166-493h289V0H846v143Q736-20 526-20q-128 0-235.5 70.5T121 241.5 59 504t62 262.5 169.5 190T526 1026q210 0 320-164v144zM594 256q106 0 179 71.5T846 504q0 104-73 176t-179 72q-104 0-178-72.5T342 504q0-104 73.5-176T594 256z"/><glyph glyph-name="ae" unicode="æ" horiz-adv-x="2041" d="M1982 537q0-53-6-103h-747q15-98 85-156.5t171-58.5q83 0 136 32.5t67 86.5h282q-26-162-157-260t-320-98q-226 0-358 161V0H846v143Q736-20 526-20q-128 0-235.5 70.5T121 241.5 59 504t62 262.5 169.5 190T526 1026q210 0 320-164v144h289V870q133 156 354 156 133 0 246.5-64t180-177 66.5-248zm-739 81h438q-6 76-65.5 125.5T1475 793q-85 0-145.5-44T1243 618zM594 256q106 0 179 71.5T846 504q0 104-73 176t-179 72q-104 0-178-72.5T342 504q0-104 73.5-176T594 256z"/><glyph glyph-name="ccedilla" unicode="ç" horiz-adv-x="1134" d="M1075 391q-13-153-121.5-262T686-10q64-86 72.5-171.5t-32-147.5-127-96.5T399-449l-67 205q111-2 164 32t46.5 86.5T483-12Q297 21 178 162.5T59 502q0 224 150 374t373 150q189 0 330-115t161-288H780q-15 56-70.5 91.5T582 750q-103 0-171.5-70.5T342 502q0-104 68.5-175T582 256q72 0 128.5 38t71.5 97h293z"/><glyph glyph-name="egrave" unicode="è" horiz-adv-x="1136" d="M725 1116H459l-250 320h340zm352-579q0-53-6-103H324q15-98 85-156.5T580 219q83 0 135.5 32.5T780 338h283q-25-162-155-260T588-20q-146 0-267.5 69.5T129 240.5 59 508q0 219 151.5 368.5T582 1026q134 0 248-64t180.5-177 66.5-248zm-739 81h438q-6 75-66 125t-141 50q-85 0-145-44t-86-131z"/><glyph glyph-name="eacute" unicode="é" horiz-adv-x="1136" d="m940 1436-250-320H424l176 320h340zm137-899q0-53-6-103H324q15-98 85-156.5T580 219q83 0 135.5 32.5T780 338h283q-25-162-155-260T588-20q-146 0-267.5 69.5T129 240.5 59 508q0 219 151.5 368.5T582 1026q134 0 248-64t180.5-177 66.5-248zm-739 81h438q-6 75-66 125t-141 50q-85 0-145-44t-86-131z"/><glyph glyph-name="ecircumflex" unicode="ê" horiz-adv-x="1136" d="m569 1264-100-142H213l199 320h315l201-320H672zm508-727q0-53-6-103H324q15-98 85-156.5T580 219q83 0 135.5 32.5T780 338h283q-25-162-155-260T588-20q-146 0-267.5 69.5T129 240.5 59 508q0 219 151.5 368.5T582 1026q134 0 248-64t180.5-177 66.5-248zm-739 81h438q-6 75-66 125t-141 50q-85 0-145-44t-86-131z"/><glyph glyph-name="edieresis" unicode="ë" horiz-adv-x="1136" d="M354 1143q-72 0-124 52t-52 124q0 71 52 122.5t124 51.5 124-51.5 52-122.5q0-72-52-124t-124-52zm430 0q-71 0-123.5 52T608 1319q0 70 52.5 122t123.5 52q72 0 124.5-51.5T961 1319q0-72-52.5-124T784 1143zm293-606q0-53-6-103H324q15-98 85-156.5T580 219q83 0 135.5 32.5T780 338h283q-25-162-155-260T588-20q-146 0-267.5 69.5T129 240.5 59 508q0 219 151.5 368.5T582 1026q134 0 248-64t180.5-177 66.5-248zm-739 81h438q-6 75-66 125t-141 50q-85 0-145-44t-86-131z"/><glyph glyph-name="igrave" unicode="ì" horiz-adv-x="493" d="M-115 1436h342l176-320H137zm217-430h289V0H102v1006z"/><glyph glyph-name="iacute" unicode="í" horiz-adv-x="493" d="m616 1436-249-320H100l176 320h340zm-514-430h289V0H102v1006z"/><glyph glyph-name="icircumflex" unicode="î" horiz-adv-x="493" d="m246 1264-101-142h-256l199 320h315l201-320H348zM102 0v1006h289V0H102z"/><glyph glyph-name="idieresis" unicode="ï" horiz-adv-x="493" d="M31 1493q72 0 124-51.5t52-122.5q0-72-52-124t-124-52-124 52-52 124q0 71 52 122.5T31 1493zm430 0q72 0 124-51.5t52-122.5q0-72-52-124t-124-52q-71 0-123.5 52T285 1319q0 70 52.5 122t123.5 52zm-359-487h289V0H102v1006z"/><glyph glyph-name="eth" unicode="ð" horiz-adv-x="1267" d="M1364 1325v-192h-229V602q0-140-42.5-257.5T977 147.5 805 24 594-20q-160 0-283 71T123.5 240.5 59 504q0 142 62 262.5t169.5 190T526 1026q107 0 189.5-45T846 854v279H610v192h236v109h289v-109h229zM594 256q106 0 179 71.5T846 504q0 104-73 176t-179 72q-104 0-178-72.5T342 504q0-104 73.5-176T594 256z"/><glyph glyph-name="ntilde" unicode="ñ" horiz-adv-x="1177" d="M434 1219q-30 0-47.5-28t-15.5-73l-234 41q12 135 90 220t185 85q59 0 120.5-27t106.5-54 66-27q31 0 51.5 27t21.5 71l234-39q-15-135-95-221t-184-86q-62 0-123 28t-106.5 55.5T434 1219zm230-193q193 0 303-121.5T1077 569V0H788v532q0 98-54.5 158T590 750q-90 0-144.5-59.5T391 532V0H102v1006h289V874q100 152 273 152z"/><glyph glyph-name="ograve" unicode="ò" horiz-adv-x="1163" d="M221 1436h340l176-320H471zm361-410q109 0 205.5-40t166-109.5 110-167T1104 502q0-147-68.5-267t-188-187.5T582-20q-223 0-373 149T59 502t150 374 373 150zm0-276q-103 0-171.5-70.5T342 502q0-104 68.5-175T582 256q101 0 170 71t69 175q0 107-68.5 177.5T582 750z"/><glyph glyph-name="oacute" unicode="ó" horiz-adv-x="1163" d="m952 1436-250-320H436l176 320h340zm-370-410q109 0 205.5-40t166-109.5 110-167T1104 502q0-147-68.5-267t-188-187.5T582-20q-223 0-373 149T59 502t150 374 373 150zm0-276q-103 0-171.5-70.5T342 502q0-104 68.5-175T582 256q101 0 170 71t69 175q0 107-68.5 177.5T582 750z"/><glyph glyph-name="ocircumflex" unicode="ô" horiz-adv-x="1163" d="m582 1264-101-142H225l199 320h315l201-320H684zm0-238q109 0 205.5-40t166-109.5 110-167T1104 502q0-147-68.5-267t-188-187.5T582-20q-223 0-373 149T59 502t150 374 373 150zm0-770q101 0 170 71t69 175q0 107-68.5 177.5T582 750q-103 0-171.5-70.5T342 502q0-104 68.5-175T582 256z"/><glyph glyph-name="otilde" unicode="õ" horiz-adv-x="1163" d="M143 1159q12 135 90 220t185 85q59 0 120.5-27t106.5-54 66-27q32 0 51.5 26.5T784 1454l234-39q-15-135-94-221t-183-86q-63 0-124.5 28t-107 55.5T440 1219q-29 0-47-28.5t-16-72.5zm439-133q109 0 205.5-40t166-109.5 110-167T1104 502q0-147-68.5-267t-188-187.5T582-20q-223 0-373 149T59 502t150 374 373 150zm0-276q-103 0-171.5-70.5T342 502q0-104 68.5-175T582 256q101 0 170 71t69 175q0 107-68.5 177.5T582 750z"/><glyph glyph-name="odieresis" unicode="ö" horiz-adv-x="1163" d="M367 1493q72 0 124-51.5t52-122.5q0-72-52-124t-124-52-124.5 52-52.5 124q0 71 52.5 122.5T367 1493zm430 0q72 0 124-51.5t52-122.5q0-72-52-124t-124-52q-71 0-123.5 52T621 1319q0 70 52.5 122t123.5 52zm-215-467q109 0 205.5-40t166-109.5 110-167T1104 502q0-147-68.5-267t-188-187.5T582-20q-223 0-373 149T59 502t150 374 373 150zm0-276q-103 0-171.5-70.5T342 502q0-104 68.5-175T582 256q101 0 170 71t69 175q0 107-68.5 177.5T582 750z"/><glyph glyph-name="divide" unicode="÷" horiz-adv-x="1214" d="M608 893q-78 0-132 53.5T422 1077t54 130 132 53q79 0 133-53t54-130-54-130.5T608 893zm504-100V520H102v273h1010zM608 51q-78 0-132 54t-54 131q0 76 54 129t132 53q79 0 133-52.5T795 236t-54-131-133-54z"/><glyph glyph-name="oslash" unicode="ø" horiz-adv-x="1163" d="M983 844q121-143 121-342 0-147-68.5-267t-188-187.5T582-20q-147 0-265 67L211-80 74 41l102 123Q59 306 59 502q0 224 150 374t373 150q143 0 258-65l106 129 141-121zM311 502q0-70 31-137l336 401q-50 16-96 16-118 0-194.5-79T311 502zm271-277q117 0 193.5 78T852 502q0 81-35 143L481 244q49-19 101-19z"/><glyph glyph-name="ugrave" unicode="ù" horiz-adv-x="1177" d="M741 1116H475l-250 320h340zm47-110h289V0H788v133Q693-20 516-20q-193 0-303.5 122T102 438v568h289V475q0-100 54-159.5T590 256q89 0 143.5 59.5T788 475v531z"/><glyph glyph-name="uacute" unicode="ú" horiz-adv-x="1177" d="m956 1436-249-320H440l174 320h342zm-168-430h289V0H788v133Q693-20 516-20q-193 0-303.5 122T102 438v568h289V475q0-100 54-159.5T590 256q89 0 143.5 59.5T788 475v531z"/><glyph glyph-name="ucircumflex" unicode="û" horiz-adv-x="1177" d="m586 1266-103-144H227l201 320h313l201-320H686zm202-260h289V0H788v133Q693-20 516-20q-193 0-303.5 122T102 438v568h289V475q0-100 54-159.5T590 256q89 0 143.5 59.5T788 475v531z"/><glyph glyph-name="udieresis" unicode="ü" horiz-adv-x="1177" d="M369 1143q-72 0-124 52t-52 124q0 71 52 122.5t124 51.5 124-51.5 52-122.5q0-72-52-124t-124-52zm432 0q-72 0-124 52t-52 124q0 71 52 122.5t124 51.5 124-51.5 52-122.5q0-72-52-124t-124-52zm-13-137h289V0H788v133Q693-20 516-20q-193 0-303.5 122T102 438v568h289V475q0-100 54-159.5T590 256q89 0 143.5 59.5T788 475v531z"/><glyph glyph-name="yacute" unicode="ý" horiz-adv-x="1101" d="m940 1436-250-320H424l176 320h340zm-166-430h311L526-334H217L403 82 16 1006h312l223-588z"/><glyph glyph-name="thorn" unicode="þ" horiz-adv-x="1234" d="M707 1026q129 0 237-70t170-190 62-262-62-262.5-170-191T707-20q-208 0-318 163v-477H102v1768h287V862q110 164 318 164zm-66-770q105 0 178.5 72T893 504q0 103-74 175.5T641 752q-106 0-179-72t-73-176q0-105 73-176.5T641 256z"/><glyph glyph-name="ydieresis" unicode="ÿ" horiz-adv-x="1101" d="M354 1143q-72 0-124 52t-52 124q0 71 52 122.5t124 51.5 124-51.5 52-122.5q0-72-52-124t-124-52zm430 0q-71 0-123.5 52T608 1319q0 70 52.5 122t123.5 52q72 0 124.5-51.5T961 1319q0-72-52.5-124T784 1143zm-10-137h311L526-334H217L403 82 16 1006h312l223-588z"/><glyph glyph-name="Amacron" unicode="Ā" horiz-adv-x="1411" d="M1034 1786v-232H379v232h655zM1069 0l-90 240H426L334 0H12l570 1434h245L1399 0h-330zM526 500h353L705 958z"/><glyph glyph-name="amacron" unicode="ā" horiz-adv-x="1234" d="M1008 1358v-232H352v232h656zm-162-352h289V0H846v143Q736-20 526-20q-128 0-235.5 70.5T121 241.5 59 504t62 262.5 169.5 190T526 1026q210 0 320-164v144zM594 256q106 0 179 71.5T846 504q0 104-73 176t-179 72q-104 0-178-72.5T342 504q0-104 73.5-176T594 256z"/><glyph glyph-name="Abreve" unicode="Ă" horiz-adv-x="1411" d="M707 1524q-150 0-246 90t-96 241h219q0-63 34.5-102t88.5-39 88 39 34 102h220q0-151-96-241t-246-90zM1069 0l-90 240H426L334 0H12l570 1434h245L1399 0h-330zM526 500h353L705 958z"/><glyph glyph-name="abreve" unicode="ă" horiz-adv-x="1234" d="M680 1096q-150 0-246 90t-96 241h219q0-63 34.5-102t88.5-39 88.5 39 34.5 102h219q0-151-96-241t-246-90zm166-90h289V0H846v143Q736-20 526-20q-128 0-235.5 70.5T121 241.5 59 504t62 262.5 169.5 190T526 1026q210 0 320-164v144zM594 256q106 0 179 71.5T846 504q0 104-73 176t-179 72q-104 0-178-72.5T342 504q0-104 73.5-176T594 256z"/><glyph glyph-name="Aogonek" unicode="Ą" horiz-adv-x="1411" d="m1350-164 71-182q-40-22-106.5-35.5T1182-395q-105 0-171.5 60.5T944-180q0 122 111 219l-76 201H426L334 0H12l570 1434h245L1399 0h-70q-62-14-98.5-44.5T1194-113q0-29 22.5-47t59.5-18q36 0 74 14zM526 500h353L705 958z"/><glyph glyph-name="aogonek" unicode="ą" horiz-adv-x="1234" d="m1155-164 72-182q-40-22-107-35.5T987-395q-105 0-171 60.5T750-180q0 114 96 207v116Q736-20 526-20q-128 0-235.5 70.5T121 241.5 59 504t62 262.5 169.5 190T526 1026q210 0 320-164v144h289V0q-62-14-99-44.5T999-113q0-29 22.5-47t59.5-18q36 0 74 14zM594 256q106 0 179 71.5T846 504q0 104-73 176t-179 72q-104 0-178-72.5T342 504q0-104 73.5-176T594 256z"/><glyph glyph-name="Cacute" unicode="Ć" horiz-adv-x="1550" d="m1159 1864-250-320H643l176 320h340zM797-20q-205 0-371.5 96t-261 265T70 717t94.5 376 261 265 371.5 96q167 0 316-67.5t247.5-188T1479 930h-338q-29 101-124.5 165T797 1159q-177 0-296.5-126.5T381 717t119.5-316T797 274q125 0 221.5 70T1143 522h340q-41-239-232.5-390.5T797-20z"/><glyph glyph-name="cacute" unicode="ć" horiz-adv-x="1134" d="m952 1436-250-320H436l176 320h340zM582-20q-223 0-373 149T59 502t150 374 373 150q189 0 330-115t161-288H780q-15 56-70.5 91.5T582 750q-103 0-171.5-70.5T342 502q0-104 68.5-175T582 256q72 0 128.5 38t71.5 97h293q-11-118-80-212.5T817.5 32 582-20z"/><glyph glyph-name="Ccircumflex" unicode="Ĉ" horiz-adv-x="1550" d="m788 1692-100-142H432l199 320h315l201-320H891zm355-1170h340q-41-239-232.5-390.5T797-20q-205 0-371.5 96t-261 265T70 717t94.5 376 261 265 371.5 96q167 0 316-67.5t247.5-188T1479 930h-338q-29 101-124.5 165T797 1159q-177 0-296.5-126.5T381 717t119.5-316T797 274q125 0 221.5 70T1143 522z"/><glyph glyph-name="ccircumflex" unicode="ĉ" horiz-adv-x="1134" d="m580 1264-101-142H223l199 320h315l201-320H682zm202-873h293q-11-118-80-212.5T817.5 32 582-20q-223 0-373 149T59 502t150 374 373 150q189 0 330-115t161-288H780q-15 56-70.5 91.5T582 750q-103 0-171.5-70.5T342 502q0-104 68.5-175T582 256q72 0 128.5 38t71.5 97z"/><glyph glyph-name="Cdotaccent" unicode="Ċ" horiz-adv-x="1550" d="M788 1886q72 0 124.5-51.5T965 1712q0-72-52.5-124T788 1536t-124 52-52 124q0 71 52 122.5t124 51.5zm9-1906q-205 0-371.5 96t-261 265T70 717t94.5 376 261 265 371.5 96q167 0 316-67.5t247.5-188T1479 930h-338q-29 101-124.5 165T797 1159q-177 0-296.5-126.5T381 717t119.5-316T797 274q125 0 221.5 70T1143 522h340q-41-239-232.5-390.5T797-20z"/><glyph glyph-name="cdotaccent" unicode="ċ" horiz-adv-x="1134" d="M582 1493q72 0 124-51.5t52-122.5q0-72-52-124t-124-52-124 52-52 124q0 71 52 122.5t124 51.5zm0-1513q-223 0-373 149T59 502t150 374 373 150q189 0 330-115t161-288H780q-15 56-70.5 91.5T582 750q-103 0-171.5-70.5T342 502q0-104 68.5-175T582 256q72 0 128.5 38t71.5 97h293q-11-118-80-212.5T817.5 32 582-20z"/><glyph glyph-name="Ccaron" unicode="Č" horiz-adv-x="1550" d="m631 1544-199 320h256l100-142 103 142h256l-201-320H631zm512-1022h340q-41-239-232.5-390.5T797-20q-205 0-371.5 96t-261 265T70 717t94.5 376 261 265 371.5 96q167 0 316-67.5t247.5-188T1479 930h-338q-29 101-124.5 165T797 1159q-177 0-296.5-126.5T381 717t119.5-316T797 274q125 0 221.5 70T1143 522z"/><glyph glyph-name="ccaron" unicode="č" horiz-adv-x="1134" d="m422 1116-199 320h256l101-142 102 142h256l-201-320H422zm360-725h293q-11-118-80-212.5T817.5 32 582-20q-223 0-373 149T59 502t150 374 373 150q189 0 330-115t161-288H780q-15 56-70.5 91.5T582 750q-103 0-171.5-70.5T342 502q0-104 68.5-175T582 256q72 0 128.5 38t71.5 97z"/><glyph glyph-name="Dcaron" unicode="Ď" horiz-adv-x="1394" d="m444 1544-198 320h256l100-142 103 142h256l-201-320H444zm156-110q204 0 370.5-92t261.5-255 95-364q0-205-95-370.5t-261.5-259T600 0H109v1434h491zm21-1143q170 0 281.5 123T1014 723q0 183-110.5 301.5T621 1143H412V291h209z"/><glyph glyph-name="dcaron" unicode="ď" horiz-adv-x="1544" d="M1264 1552h303l-103-436h-239zM846 862v572h289V0H846v143Q736-20 526-20q-128 0-235.5 70.5T121 241.5 59 504t62 262.5 169.5 190T526 1026q210 0 320-164zM594 256q106 0 179 71.5T846 504q0 104-73 176t-179 72q-104 0-178-72.5T342 504q0-104 73.5-176T594 256z"/><glyph glyph-name="Dcroat" unicode="Đ" horiz-adv-x="1394" d="M600 1434q204 0 370.5-92t261.5-255 95-364q0-205-95-370.5t-261.5-259T600 0H109v627H-68v192h177v615h491zm21-1143q170 0 281.5 123T1014 723q0 183-110.5 301.5T621 1143H412V819h206V627H412V291h209z"/><glyph glyph-name="dcroat" unicode="đ" horiz-adv-x="1234" d="M1333 1315v-172h-198V0H846v143Q736-20 526-20q-128 0-235.5 70.5T121 241.5 59 504t62 262.5 169.5 190T526 1026q210 0 320-164v281H647v172h199v119h289v-119h198zM594 256q106 0 179 71.5T846 504q0 104-73 176t-179 72q-104 0-178-72.5T342 504q0-104 73.5-176T594 256z"/><glyph glyph-name="Emacron" unicode="Ē" horiz-adv-x="1064" d="M233 1554v232h656v-232H233zm-124-120h878v-291H412V885h512V594H412V291h575V0H109v1434z"/><glyph glyph-name="emacron" unicode="ē" horiz-adv-x="1136" d="M897 1358v-232H242v232h655zm180-821q0-53-6-103H324q15-98 85-156.5T580 219q83 0 135.5 32.5T780 338h283q-25-162-155-260T588-20q-146 0-267.5 69.5T129 240.5 59 508q0 219 151.5 368.5T582 1026q134 0 248-64t180.5-177 66.5-248zm-739 81h438q-6 75-66 125t-141 50q-85 0-145-44t-86-131z"/><glyph glyph-name="Ebreve" unicode="Ĕ" horiz-adv-x="1064" d="M903 1855q0-151-96-241t-246-90-246 90-96 241h219q0-63 34.5-102t88.5-39 88.5 39 34.5 102h219zm-794-421h878v-291H412V885h512V594H412V291h575V0H109v1434z"/><glyph glyph-name="ebreve" unicode="ĕ" horiz-adv-x="1136" d="M569 1096q-150 0-246 90t-96 241h219q0-63 34.5-102t88.5-39 88.5 39 34.5 102h219q0-151-96-241t-246-90zm508-559q0-53-6-103H324q15-98 85-156.5T580 219q83 0 135.5 32.5T780 338h283q-25-162-155-260T588-20q-146 0-267.5 69.5T129 240.5 59 508q0 219 151.5 368.5T582 1026q134 0 248-64t180.5-177 66.5-248zm-739 81h438q-6 75-66 125t-141 50q-85 0-145-44t-86-131z"/><glyph glyph-name="Edotaccent" unicode="Ė" horiz-adv-x="1064" d="M561 1886q72 0 124-51.5t52-122.5q0-72-52-124t-124-52-124 52-52 124q0 71 52 122.5t124 51.5zm-452-452h878v-291H412V885h512V594H412V291h575V0H109v1434z"/><glyph glyph-name="edotaccent" unicode="ė" horiz-adv-x="1136" d="M569 1143q-72 0-124 52t-52 124q0 71 52 122.5t124 51.5 124-51.5 52-122.5q0-72-52-124t-124-52zm508-606q0-53-6-103H324q15-98 85-156.5T580 219q83 0 135.5 32.5T780 338h283q-25-162-155-260T588-20q-146 0-267.5 69.5T129 240.5 59 508q0 219 151.5 368.5T582 1026q134 0 248-64t180.5-177 66.5-248zm-739 81h438q-6 75-66 125t-141 50q-85 0-145-44t-86-131z"/><glyph glyph-name="Eogonek" unicode="Ę" horiz-adv-x="1064" d="M987 1143H412V885h512V594H412V291h575V0H850q-62-14-98.5-44.5T715-113q0-29 22.5-47t59.5-18q35 0 73 14l72-182q-40-22-107-35.5T702-395q-105 0-171 60.5T465-180q0 95 72 180H109v1434h878v-291z"/><glyph glyph-name="eogonek" unicode="ę" horiz-adv-x="1136" d="M1077 537q0-53-6-103H324q15-98 85-156.5T580 219q83 0 135.5 32.5T780 338h283q-27-180-184-281-121-93-121-170 0-29 22.5-47t59.5-18q35 0 73 14l72-182q-40-22-107-35.5T745-395q-105 0-171 60.5T508-180q0 83 55 160-214 9-359 160.5T59 508q0 219 151.5 368.5T582 1026q134 0 248-64t180.5-177 66.5-248zm-739 81h438q-6 75-66 125t-141 50q-85 0-145-44t-86-131z"/><glyph glyph-name="Ecaron" unicode="Ě" horiz-adv-x="1064" d="m403 1544-198 320h256l100-142 103 142h256l-201-320H403zm584-401H412V885h512V594H412V291h575V0H109v1434h878v-291z"/><glyph glyph-name="ecaron" unicode="ě" horiz-adv-x="1136" d="m412 1116-199 320h256l100-142 103 142h256l-201-320H412zm665-579q0-53-6-103H324q15-98 85-156.5T580 219q83 0 135.5 32.5T780 338h283q-25-162-155-260T588-20q-146 0-267.5 69.5T129 240.5 59 508q0 219 151.5 368.5T582 1026q134 0 248-64t180.5-177 66.5-248zm-739 81h438q-6 75-66 125t-141 50q-85 0-145-44t-86-131z"/><glyph glyph-name="Gcircumflex" unicode="Ĝ" horiz-adv-x="1568" d="m791 1692-101-142H434l199 320h315l201-320H893zm700-883q8-60 8-139 0-145-53.5-273t-146-219.5T1077 33 799-20q-205 0-372 96T165 341 70 717t95 376 262.5 265 373.5 96q168 0 319-69t248-183 117-244h-342q-35 91-131 146t-211 55q-180 0-300-126.5T381 717t120-316 298-127q165 0 267 83.5T1176 561v2H778v246h713z"/><glyph glyph-name="gcircumflex" unicode="ĝ" horiz-adv-x="1234" d="m633 1264-101-142H276l199 320h316l200-320H735zm213-256h289V43q0-139-70-244T877.5-360 614-414q-62 0-124.5 9T355-370t-127 66-94 108.5T90-39h289q6-65 70-100t155-35q97 0 169.5 58T846 31v145Q738 18 526 18q-128 0-235.5 68T121 270 59 522q0 137 62 253t169.5 183.5T526 1026q212 0 320-158v140zM594 285q106 0 179 68t73 169-73 170.5T594 762q-104 0-178-70t-74-170q0-99 73.5-168T594 285z"/><glyph glyph-name="Gbreve" unicode="Ğ" horiz-adv-x="1568" d="M791 1524q-150 0-246 90t-96 241h219q0-63 34.5-102t88.5-39 88 39 34 102h220q0-151-96-241t-246-90zm700-715q8-60 8-139 0-145-53.5-273t-146-219.5T1077 33 799-20q-205 0-372 96T165 341 70 717t95 376 262.5 265 373.5 96q168 0 319-69t248-183 117-244h-342q-35 91-131 146t-211 55q-180 0-300-126.5T381 717t120-316 298-127q165 0 267 83.5T1176 561v2H778v246h713z"/><glyph glyph-name="gbreve" unicode="ğ" horiz-adv-x="1234" d="M635 1096q-150 0-246 90t-96 241h219q0-63 34.5-102t88.5-39 88.5 39 34.5 102h219q0-151-96-241t-246-90zm211-88h289V43q0-139-70-244T877.5-360 614-414q-62 0-124.5 9T355-370t-127 66-94 108.5T90-39h289q6-65 70-100t155-35q97 0 169.5 58T846 31v145Q738 18 526 18q-128 0-235.5 68T121 270 59 522q0 137 62 253t169.5 183.5T526 1026q212 0 320-158v140zM594 285q106 0 179 68t73 169-73 170.5T594 762q-104 0-178-70t-74-170q0-99 73.5-168T594 285z"/><glyph glyph-name="Gdotaccent" unicode="Ġ" horiz-adv-x="1568" d="M791 1536q-72 0-124.5 52T614 1712q0 71 52.5 122.5T791 1886t124-51.5 52-122.5q0-72-52-124t-124-52zm700-727q8-60 8-139 0-145-53.5-273t-146-219.5T1077 33 799-20q-205 0-372 96T165 341 70 717t95 376 262.5 265 373.5 96q168 0 319-69t248-183 117-244h-342q-35 91-131 146t-211 55q-180 0-300-126.5T381 717t120-316 298-127q165 0 267 83.5T1176 561v2H778v246h713z"/><glyph glyph-name="gdotaccent" unicode="ġ" horiz-adv-x="1234" d="M635 1143q-72 0-124 52t-52 124q0 71 52 122.5t124 51.5 124-51.5 52-122.5q0-72-52-124t-124-52zm211-135h289V43q0-139-70-244T877.5-360 614-414q-62 0-124.5 9T355-370t-127 66-94 108.5T90-39h289q6-65 70-100t155-35q97 0 169.5 58T846 31v145Q738 18 526 18q-128 0-235.5 68T121 270 59 522q0 137 62 253t169.5 183.5T526 1026q212 0 320-158v140zM594 285q106 0 179 68t73 169-73 170.5T594 762q-104 0-178-70t-74-170q0-99 73.5-168T594 285z"/><glyph glyph-name="uni0122" unicode="Ģ" horiz-adv-x="1568" d="M1491 809q8-60 8-139 0-145-53.5-273t-146-219.5T1077 33 799-20q-205 0-372 96T165 341 70 717t95 376 262.5 265 373.5 96q168 0 319-69t248-183 117-244h-342q-35 91-131 146t-211 55q-180 0-300-126.5T381 717t120-316 298-127q165 0 267 83.5T1176 561v2H778v246h713zM453-453l174 322h342L719-453H453z"/><glyph glyph-name="uni0123" unicode="ģ" horiz-adv-x="1234" d="m1008 1452-177-319H492l249 319h267zm-162-444h289V43q0-139-70-244T877.5-360 614-414q-62 0-124.5 9T355-370t-127 66-94 108.5T90-39h289q6-65 70-100t155-35q97 0 169.5 58T846 31v145Q738 18 526 18q-128 0-235.5 68T121 270 59 522q0 137 62 253t169.5 183.5T526 1026q212 0 320-158v140zM594 285q106 0 179 68t73 169-73 170.5T594 762q-104 0-178-70t-74-170q0-99 73.5-168T594 285z"/><glyph glyph-name="Hcircumflex" unicode="Ĥ" horiz-adv-x="1433" d="m717 1692-101-142H360l199 320h315l201-320H819zm305-258h305V0h-305v596H412V0H109v1434h303V887h610v547z"/><glyph glyph-name="hcircumflex" unicode="ĥ" horiz-adv-x="1177" d="m248 1690-101-142h-258l201 322h316l198-322H348zm416-664q193 0 303-121.5T1077 569V0H788v532q0 98-54.5 158T590 750q-90 0-144.5-59.5T391 532V0H102v1434h289V874q100 152 273 152z"/><glyph glyph-name="Hbar" unicode="Ħ" horiz-adv-x="1433" d="M1454 1270v-193h-127V0h-305v596H412V0H109v1077H-23v193h132v164h303v-164h610v164h305v-164h127zm-432-383v190H412V887h610z"/><glyph glyph-name="hbar" unicode="ħ" horiz-adv-x="1177" d="M664 1026q193 0 303-121.5T1077 569V0H788v532q0 98-54.5 158T590 750q-90 0-144.5-59.5T391 532V0H102v1143H-94v172h196v119h289v-119h203v-172H391V874q100 152 273 152z"/><glyph glyph-name="Itilde" unicode="Ĩ" horiz-adv-x="520" d="M-178 1587q12 135 89.5 220T96 1892q59 0 120.5-27t106.5-54 66-27q32 0 52 27t22 71l233-39q-15-135-93.5-221T420 1536q-63 0-124.5 28t-107 55.5T119 1647q-29 0-47-28.5T55 1546zm287-153h303V0H109v1434z"/><glyph glyph-name="itilde" unicode="ĩ" horiz-adv-x="493" d="M-190 1159q12 135 89.5 220T84 1464q59 0 120.5-27t106.5-54 66-27q32 0 52 27t22 71l233-39q-15-135-93.5-221T408 1108q-63 0-124.5 28T176 1191.5t-70 27.5q-29 0-47-28.5T43 1118zm292-153h289V0H102v1006z"/><glyph glyph-name="Imacron" unicode="Ī" horiz-adv-x="520" d="M-68 1554v232h656v-232H-68zm177-120h303V0H109v1434z"/><glyph glyph-name="imacron" unicode="ī" horiz-adv-x="493" d="M-82 1126v232h655v-232H-82zm184-120h289V0H102v1006z"/><glyph glyph-name="Ibreve" unicode="Ĭ" horiz-adv-x="520" d="M602 1855q0-151-96-241t-246-90-246 90-96 241h219q0-63 34.5-102t88.5-39 88.5 39 34.5 102h219zm-493-421h303V0H109v1434z"/><glyph glyph-name="ibreve" unicode="ĭ" horiz-adv-x="493" d="M588 1427q0-151-96-241t-246-90-246 90-96 241h219q0-63 34.5-102t88.5-39 88.5 39 34.5 102h219zm-486-421h289V0H102v1006z"/><glyph glyph-name="Iogonek" unicode="Į" horiz-adv-x="520" d="m420-164 72-182q-40-22-107-35.5T252-395q-105 0-171.5 60.5T14-180q0 110 95 205v1409h303V0h-13q-62-14-98.5-44.5T264-113q0-29 22.5-47t59.5-18q36 0 74 14z"/><glyph glyph-name="iogonek" unicode="į" horiz-adv-x="493" d="M246 1143q-72 0-124 52t-52 124q0 71 52 122.5t124 51.5 124-51.5 52-122.5q0-72-52-124t-124-52zM412-164l71-182q-40-22-106.5-35.5T244-395q-105 0-171.5 60.5T6-180Q6-66 102 27v979h289V0q-62-14-98.5-44.5T256-113q0-29 22.5-47t59.5-18q36 0 74 14z"/><glyph glyph-name="Idotaccent" unicode="İ" horiz-adv-x="520" d="M260 1886q72 0 124-51.5t52-122.5q0-72-52-124t-124-52-124 52-52 124q0 71 52 122.5t124 51.5zm-151-452h303V0H109v1434z"/><glyph glyph-name="dotlessi" unicode="ı" horiz-adv-x="493" d="M102 1006h289V0H102v1006z"/><glyph glyph-name="IJ" unicode="Ĳ" horiz-adv-x="1210" d="M109 1434h303V0H109v1434zM578 274q12-2 51-2 87 0 132.5 46T807 469v965h305V387q0-181-111-292T721-16q-87 0-143 10v280z"/><glyph glyph-name="ij" unicode="ĳ" horiz-adv-x="987" d="M246 1493q72 0 124-51.5t52-122.5q0-72-52-124t-124-52-124 52-52 124q0 71 52 122.5t124 51.5zm493 0q72 0 124-51.5t52-122.5q0-72-52-124t-124-52q-71 0-123.5 52T563 1319q0 70 52.5 122t123.5 52zm-637-487h289V0H102v1006zM451-127q3 0 14-1t18-1q113 0 113 127v1008h289V-31q0-167-101.5-263.5T508-391q-11 0-57 4v260z"/><glyph glyph-name="Jcircumflex" unicode="Ĵ" horiz-adv-x="690" d="m436 1692-100-142H80l199 320h315l201-320H539zM287 469v965h305V387q0-181-111-292T201-16Q113-16 57-6v280q12-2 52-2 87 0 132.5 46T287 469z"/><glyph glyph-name="jcircumflex" unicode="ĵ" horiz-adv-x="493" d="m246 1264-101-142h-256l199 320h315l201-320H348zM102-2v1008h289V-31q0-167-101.5-263.5T14-391q-13 0-59 4v260q5 0 17-1t18-1q112 0 112 127z"/><glyph glyph-name="uni0136" unicode="Ķ" horiz-adv-x="1402" d="M729 758 1356 0H958L412 684V0H109v1434h303V827l510 607h383zM324-453l174 322h342L590-453H324z"/><glyph glyph-name="uni0137" unicode="ķ" horiz-adv-x="1140" d="M391 451V0H102v1434h289V590l348 416h355L676 520 1126 0H756zM244-453l174 322h342L510-453H244z"/><glyph glyph-name="kgreenlandic" unicode="ĸ" horiz-adv-x="1142" d="M1126 0H756L389 473V0H102v1006h287V571l350 435h355L692 520z"/><glyph glyph-name="Lacute" unicode="Ĺ" horiz-adv-x="1120" d="m629 1864-250-320H113l176 320h340zm-520-430h303V291h657V0H109v1434z"/><glyph glyph-name="lacute" unicode="ĺ" horiz-adv-x="493" d="m655 1864-249-320H139l176 320h340zm-264-430V0H102v1434h289z"/><glyph glyph-name="uni013B" unicode="Ļ" horiz-adv-x="1120" d="M109 1434h303V291h657V0H109v1434zM727-131 477-453H211l174 322h342z"/><glyph glyph-name="uni013C" unicode="ļ" horiz-adv-x="493" d="M391 1434V0H102v1434h289zm70-1565L211-453H-55l174 322h342z"/><glyph glyph-name="Lcaron" unicode="Ľ" horiz-adv-x="1120" d="m590 1116 39 436h301l-103-436H590zm-481 318h303V291h657V0H109v1434z"/><glyph glyph-name="lcaron" unicode="ľ" horiz-adv-x="790" d="m473 1116 39 436h303l-102-436H473zm-82 318V0H102v1434h289z"/><glyph glyph-name="Ldot" unicode="Ŀ" horiz-adv-x="1134" d="M109 1434h303V291h657V0H109v1434zm700-805q-78 0-132 53.5T623 813q0 76 54 129t132 53q79 0 132.5-52.5T995 813t-53.5-130.5T809 629z"/><glyph glyph-name="ldot" unicode="ŀ" horiz-adv-x="815" d="M356 1434V0H68v1434h288zm275-846q-78 0-132.5 53.5T444 772q0 76 54.5 129T631 954q79 0 133.5-52.5T819 772t-54.5-130.5T631 588z"/><glyph glyph-name="Lslash" unicode="Ł" horiz-adv-x="1120" d="M412 291h657V0H109v567l-164-75v262l164 75v605h303V971l329 153V864L412 711V291z"/><glyph glyph-name="lslash" unicode="ł" horiz-adv-x="493" d="M512 1040V774l-121-55V0H102v584l-125-58v267l125 57v584h289V985z"/><glyph glyph-name="Nacute" unicode="Ń" horiz-adv-x="1361" d="m1057 1864-250-320H541l176 320h340zm-948-430h258l583-836v836h303V0H999L412 836V0H109v1434z"/><glyph glyph-name="nacute" unicode="ń" horiz-adv-x="1177" d="m944 1436-250-320H428l176 320h340zm-280-410q193 0 303-121.5T1077 569V0H788v532q0 98-54.5 158T590 750q-90 0-144.5-59.5T391 532V0H102v1006h289V874q100 152 273 152z"/><glyph glyph-name="uni0145" unicode="Ņ" horiz-adv-x="1361" d="M109 1434h258l583-836v836h303V0H999L412 836V0H109v1434zM895-131 645-453H379l174 322h342z"/><glyph glyph-name="uni0146" unicode="ņ" horiz-adv-x="1177" d="M664 1026q193 0 303-121.5T1077 569V0H788v532q0 98-54.5 158T590 750q-90 0-144.5-59.5T391 532V0H102v1006h289V874q100 152 273 152zM270-453l176 322h340L537-453H270z"/><glyph glyph-name="Ncaron" unicode="Ň" horiz-adv-x="1361" d="m528 1544-198 320h256l100-142 102 142h256l-200-320H528zm422-110h303V0H999L412 836V0H109v1434h258l583-836v836z"/><glyph glyph-name="ncaron" unicode="ň" horiz-adv-x="1177" d="m416 1116-199 320h256l100-142 103 142h256l-201-320H416zm248-90q193 0 303-121.5T1077 569V0H788v532q0 98-54.5 158T590 750q-90 0-144.5-59.5T391 532V0H102v1006h289V874q100 152 273 152z"/><glyph glyph-name="napostrophe" unicode="ŉ" horiz-adv-x="1175" d="M211 1268q-42 22-67 62.5t-25 90.5q0 72 50 122t122 50 122-50 50-122q0-33-10.5-65t-42.5-86l-88-154H137zm453-242q193 0 303-121.5T1077 569V0H788v532q0 98-54.5 158T590 750q-90 0-144.5-59.5T391 532V0H102v1006h289V874q100 152 273 152z"/><glyph glyph-name="Eng" unicode="Ŋ" horiz-adv-x="1361" d="M950 1434h303V49q0-182-111-292.5T862-354q-84 0-143 10v278h53q152 0 174 142L412 836V0H109v1434h258l583-836v836z"/><glyph glyph-name="eng" unicode="ŋ" horiz-adv-x="1175" d="M1077 569V0h-2v-31q0-167-102-263.5T696-391q-11 0-57 4v260q5 0 17-1t18-1q112 0 112 127v268h2v266q0 98-54.5 158T590 750q-90 0-144.5-59.5T391 532V0H102v1006h289V874q100 152 273 152 193 0 303-121.5T1077 569z"/><glyph glyph-name="Omacron" unicode="Ō" horiz-adv-x="1601" d="M473 1554v232h655v-232H473zm328-100q206 0 374-96t263.5-265 95.5-376-95.5-376T1175 76 801-20 427.5 76 165 341 70 717t95 376 262.5 265 373.5 96zm0-295q-180 0-300-126.5T381 717t120-316 300-127 300 127 120 316-120 315.5T801 1159z"/><glyph glyph-name="omacron" unicode="ō" horiz-adv-x="1163" d="M254 1126v232h655v-232H254zm328-100q109 0 205.5-40t166-109.5 110-167T1104 502q0-147-68.5-267t-188-187.5T582-20q-223 0-373 149T59 502t150 374 373 150zm0-276q-103 0-171.5-70.5T342 502q0-104 68.5-175T582 256q101 0 170 71t69 175q0 107-68.5 177.5T582 750z"/><glyph glyph-name="Obreve" unicode="Ŏ" horiz-adv-x="1601" d="M1143 1855q0-151-96-241t-246-90-246 90-96 241h219q0-63 34.5-102t88.5-39 88.5 39 34.5 102h219zm-342-401q206 0 374-96t263.5-265 95.5-376-95.5-376T1175 76 801-20 427.5 76 165 341 70 717t95 376 262.5 265 373.5 96zm0-295q-180 0-300-126.5T381 717t120-316 300-127 300 127 120 316-120 315.5T801 1159z"/><glyph glyph-name="obreve" unicode="ŏ" horiz-adv-x="1163" d="M924 1427q0-151-96-241t-246-90-246 90-96 241h219q0-63 34.5-102t88.5-39 88.5 39 34.5 102h219zm-342-401q109 0 205.5-40t166-109.5 110-167T1104 502q0-147-68.5-267t-188-187.5T582-20q-223 0-373 149T59 502t150 374 373 150zm0-276q-103 0-171.5-70.5T342 502q0-104 68.5-175T582 256q101 0 170 71t69 175q0 107-68.5 177.5T582 750z"/><glyph glyph-name="Ohungarumlaut" unicode="Ő" horiz-adv-x="1601" d="m719 1544 125 326H547l-123-326h295zm444 0 125 326H991l-125-326h297zm-362-90q206 0 374-96t263.5-265 95.5-376-95.5-376T1175 76 801-20 427.5 76 165 341 70 717t95 376 262.5 265 373.5 96zm0-295q-180 0-300-126.5T381 717t120-316 300-127 300 127 120 316-120 315.5T801 1159z"/><glyph glyph-name="ohungarumlaut" unicode="ő" horiz-adv-x="1163" d="m500 1116 125 326H328l-123-326h295zm444 0 125 326H772l-125-326h297zm-362-90q109 0 205.5-40t166-109.5 110-167T1104 502q0-147-68.5-267t-188-187.5T582-20q-223 0-373 149T59 502t150 374 373 150zm0-276q-103 0-171.5-70.5T342 502q0-104 68.5-175T582 256q101 0 170 71t69 175q0 107-68.5 177.5T582 750z"/><glyph glyph-name="OE" unicode="Œ" horiz-adv-x="1939" d="M1862 1143h-574V885h512V594h-512V291h574V0H797Q593 0 426.5 93.5T165 352.5 70 723q0 201 95 364t261.5 255 370.5 92h1065v-291zM983 291v852H774q-172 0-282.5-118.5T381 723q0-186 111.5-309T774 291h209z"/><glyph glyph-name="oe" unicode="œ" horiz-adv-x="1906" d="M1841 434h-741q0-8-4-24 22-88 89.5-139.5T1348 219q83 0 135.5 32.5T1550 338h283q-25-162-155.5-260T1356-20q-115 0-214 43.5T969 145Q898 66 798 23T582-20q-223 0-373 149T59 502t150 374 373 150q114 0 213.5-43T967 862q72 78 171 121t214 43q134 0 248-64t180.5-177 66.5-248q0-4-6-103zm-504 359q-85 0-145-44t-86-131h440q-7 76-67 125.5T1337 793zM582 256q101 0 170 71t69 175q0 107-68.5 177.5T582 750q-103 0-171.5-70.5T342 502q0-104 68.5-175T582 256z"/><glyph glyph-name="Racute" unicode="Ŕ" horiz-adv-x="1294" d="m922 1864-250-320H406l176 320h340zM1260 0H891L567 547H412V0H109v1434h553q120 0 224-59t166-161.5 62-222.5q0-136-61-240T885 594zM412 1141V809h219q74 0 125 48t51 120q0 69-51 116.5T631 1141H412z"/><glyph glyph-name="racute" unicode="ŕ" horiz-adv-x="784" d="m803 1436-250-320H287l176 320h340zM391 891q93 135 260 135 31 0 97-12V752q-61 14-105 14-111 0-181.5-68.5T391 496V0H102v1006h289V891z"/><glyph glyph-name="uni0156" unicode="Ŗ" horiz-adv-x="1294" d="M885 594 1260 0H891L567 547H412V0H109v1434h553q120 0 224-59t166-161.5 62-222.5q0-136-61-240T885 594zm-473 547V809h219q74 0 125 48t51 120q0 69-51 116.5T631 1141H412zM311-453l174 322h342L578-453H311z"/><glyph glyph-name="uni0157" unicode="ŗ" horiz-adv-x="784" d="M651 1026q31 0 97-12V752q-61 14-105 14-111 0-181.5-68.5T391 496V0H102v1006h289V891q93 135 260 135zM-57-453l174 322h342L209-453H-57z"/><glyph glyph-name="Rcaron" unicode="Ř" horiz-adv-x="1294" d="m393 1544-198 320h256l100-142 102 142h256l-200-320H393zM1260 0H891L567 547H412V0H109v1434h553q120 0 224-59t166-161.5 62-222.5q0-136-61-240T885 594zM412 1141V809h219q74 0 125 48t51 120q0 69-51 116.5T631 1141H412z"/><glyph glyph-name="rcaron" unicode="ř" horiz-adv-x="784" d="M272 1116 74 1436h256l100-142 102 142h256l-200-320H272zm119-225q93 135 260 135 31 0 97-12V752q-61 14-105 14-111 0-181.5-68.5T391 496V0H102v1006h289V891z"/><glyph glyph-name="Sacute" unicode="Ś" horiz-adv-x="1218" d="m961 1864-250-320H444l177 320h340zM623-20q-235 0-389 140T80 475h299q0-94 68-151.5T623 266q100 0 162.5 43T848 422q0 40-26 70t-69.5 49-100 34.5-119 32-125 36.5-119 52-100 74.5-69.5 109T94 1030q0 184 140.5 304T588 1454q103 0 189-25.5t146-70 101-105 60.5-130T1104 977H791q-2 84-59.5 137T578 1167q-86 0-136.5-36t-50.5-99q0-38 26-65.5t70-45 100.5-32T707 859t126-36 119.5-53 100.5-77.5 70-113.5 26-157q0-191-149.5-316.5T623-20z"/><glyph glyph-name="sacute" unicode="ś" horiz-adv-x="976" d="m834 1438-250-320H317l177 320h340zM510-20q-199 0-324.5 95.5T45 340h277q4-51 53-82t121-31q64 0 99.5 20t35.5 56q0 33-31 54t-81 31.5T408.5 409 288 437t-110 46-81 82.5T66 696q0 143 108.5 236.5T465 1026q172 0 295-88t141-248H610q-3 40-44 68t-107 28q-52 0-83.5-17.5T344 717q0-31 31.5-49.5T457 640t110-18 120.5-28T798 543.5t81.5-92.5T911 305q0-138-115.5-231.5T510-20z"/><glyph glyph-name="Scircumflex" unicode="Ŝ" horiz-adv-x="1218" d="m590 1692-101-142H233l199 320h316l200-320H692zm-199-660q0-38 26-65.5t70-45 100.5-32T707 859t126-36 119.5-53 100.5-77.5 70-113.5 26-157q0-191-149.5-316.5T623-20q-235 0-389 140T80 475h299q0-94 68-151.5T623 266q100 0 162.5 43T848 422q0 40-26 70t-69.5 49-100 34.5-119 32-125 36.5-119 52-100 74.5-69.5 109T94 1030q0 184 140.5 304T588 1454q103 0 189-25.5t146-70 101-105 60.5-130T1104 977H791q-2 84-59.5 137T578 1167q-86 0-136.5-36t-50.5-99z"/><glyph glyph-name="scircumflex" unicode="ŝ" horiz-adv-x="976" d="m463 1266-101-142H106l199 320h316l198-320H563zM344 717q0-31 31.5-49.5T457 640t110-18 120.5-28T798 543.5t81.5-92.5T911 305q0-138-115.5-231.5T510-20q-199 0-324.5 95.5T45 340h277q4-51 53-82t121-31q64 0 99.5 20t35.5 56q0 33-31 54t-81 31.5T408.5 409 288 437t-110 46-81 82.5T66 696q0 143 108.5 236.5T465 1026q172 0 295-88t141-248H610q-3 40-44 68t-107 28q-52 0-83.5-17.5T344 717z"/><glyph glyph-name="Scedilla" unicode="Ş" horiz-adv-x="1218" d="M1149 422q0-165-115-284T735-12q51-68 67-137.5t-3.5-126-65-99-121-62.5T446-449l-67 205q110-2 163 31t47.5 85.5T532-14Q332 12 206 147T80 475h299q0-94 68-151.5T623 266q100 0 162.5 43T848 422q0 40-26 70t-69.5 49-100 34.5-119 32-125 36.5-119 52-100 74.5-69.5 109T94 1030q0 184 140.5 304T588 1454q103 0 189-25.5t146-70 101-105 60.5-130T1104 977H791q-2 84-59.5 137T578 1167q-86 0-136.5-36t-50.5-99q0-38 26-65.5t70-45 100.5-32T707 859t126-36 119.5-53 100.5-77.5 70-113.5 26-157z"/><glyph glyph-name="scedilla" unicode="ş" horiz-adv-x="976" d="M911 305q0-117-86-204.5T604-12q50-69 66-138.5t-3.5-126-64.5-99-120-62T315-449l-67 205q111-2 164 32t46.5 86.5T399-12Q245 13 151.5 104.5T45 340h277q4-51 53-82t121-31q64 0 99.5 20t35.5 56q0 33-31 54t-81 31.5T408.5 409 288 437t-110 46-81 82.5T66 696q0 143 108.5 236.5T465 1026q172 0 295-88t141-248H610q-3 40-44 68t-107 28q-52 0-83.5-17.5T344 717q0-31 31.5-49.5T457 640t110-18 120.5-28T798 543.5t81.5-92.5T911 305z"/><glyph glyph-name="Scaron" unicode="Š" horiz-adv-x="1218" d="m432 1544-199 320h256l101-142 102 142h256l-200-320H432zm-41-512q0-38 26-65.5t70-45 100.5-32T707 859t126-36 119.5-53 100.5-77.5 70-113.5 26-157q0-191-149.5-316.5T623-20q-235 0-389 140T80 475h299q0-94 68-151.5T623 266q100 0 162.5 43T848 422q0 40-26 70t-69.5 49-100 34.5-119 32-125 36.5-119 52-100 74.5-69.5 109T94 1030q0 184 140.5 304T588 1454q103 0 189-25.5t146-70 101-105 60.5-130T1104 977H791q-2 84-59.5 137T578 1167q-86 0-136.5-36t-50.5-99z"/><glyph glyph-name="scaron" unicode="š" horiz-adv-x="976" d="m305 1118-199 320h256l101-142 100 142h256l-198-320H305zm39-401q0-31 31.5-49.5T457 640t110-18 120.5-28T798 543.5t81.5-92.5T911 305q0-138-115.5-231.5T510-20q-199 0-324.5 95.5T45 340h277q4-51 53-82t121-31q64 0 99.5 20t35.5 56q0 33-31 54t-81 31.5T408.5 409 288 437t-110 46-81 82.5T66 696q0 143 108.5 236.5T465 1026q172 0 295-88t141-248H610q-3 40-44 68t-107 28q-52 0-83.5-17.5T344 717z"/><glyph glyph-name="uni0162" unicode="Ţ" horiz-adv-x="1226" d="M1186 1143H766V27q54-60 80.5-123t25-117.5-27.5-102-72-79.5-114.5-47-149.5-7l-66 205q86-1 138 19.5t65.5 55-3 78.5T582 0H463v1143H45v291h1141v-291z"/><glyph glyph-name="uni0163" unicode="ţ" horiz-adv-x="800" d="M743 731H496V414q0-78 47.5-117T670 258q42 0 73 8V0q-51-11-96-14 50-68 65-137t-5-125.5-65-99-120-62T356-449l-67 205q95-1 148 23.5t60.5 65T478-65 393 35q-89 52-137.5 147T207 410v321H20v275h187v264h289v-264h247V731z"/><glyph glyph-name="Tcaron" unicode="Ť" horiz-adv-x="1228" d="m455 1544-199 320h256l100-142 103 142h256l-201-320H455zm731-110v-291H766V0H463v1143H45v291h1141z"/><glyph glyph-name="tcaron" unicode="ť" horiz-adv-x="800" d="M614 1552h301l-102-436H575zm-118-282v-264h247V731H496V414q0-78 47.5-117T670 258q42 0 73 8V0q-62-16-139-16-181 0-289 113T207 410v321H20v275h187v264h289z"/><glyph glyph-name="Tbar" unicode="Ŧ" horiz-adv-x="1228" d="M1186 1143H766V813h190V621H766V0H463v621H270v192h193v330H45v291h1141v-291z"/><glyph glyph-name="tbar" unicode="ŧ" horiz-adv-x="800" d="M743 731H496V580h211V422H496v-8q0-78 47.5-117T670 258q42 0 73 8V0q-62-16-139-16-181 0-289 113T207 410v12H20v158h187v151H20v275h187v264h289v-264h247V731z"/><glyph glyph-name="Utilde" unicode="Ũ" horiz-adv-x="1353" d="M240 1587q12 135 89.5 220t184.5 85q59 0 120.5-27t106.5-54 66-27q32 0 52 27t22 71l233-39q-15-135-93.5-221T838 1536q-63 0-124.5 28t-107 55.5T537 1647q-29 0-47-28.5t-17-72.5zM678-18q-162 0-292 74T182.5 261 109 555v879h303V555q0-120 76-199.5T678 276t189 79.5T942 555v879h303V555q0-163-73.5-294t-203-205T678-18z"/><glyph glyph-name="utilde" unicode="ũ" horiz-adv-x="1177" d="M444 1219q-29 0-46-28t-15-73l-236 41q12 135 90.5 220t184.5 85q59 0 120.5-27t107-54 67.5-27q31 0 51 27t23 71l231-39q-13-135-93-221t-184-86q-62 0-123.5 28T514 1191.5t-70 27.5zm344-213h289V0H788v133Q693-20 516-20q-193 0-303.5 122T102 438v568h289V475q0-100 54-159.5T590 256q89 0 143.5 59.5T788 475v531z"/><glyph glyph-name="Umacron" unicode="Ū" horiz-adv-x="1353" d="M350 1554v232h656v-232H350zM678-18q-162 0-292 74T182.5 261 109 555v879h303V555q0-120 76-199.5T678 276t189 79.5T942 555v879h303V555q0-163-73.5-294t-203-205T678-18z"/><glyph glyph-name="umacron" unicode="ū" horiz-adv-x="1177" d="M913 1358v-232H258v232h655zm-125-352h289V0H788v133Q693-20 516-20q-193 0-303.5 122T102 438v568h289V475q0-100 54-159.5T590 256q89 0 143.5 59.5T788 475v531z"/><glyph glyph-name="Ubreve" unicode="Ŭ" horiz-adv-x="1353" d="M1020 1855q0-151-96-241t-246-90-246 90-96 241h219q0-63 34.5-102t88.5-39 88.5 39 34.5 102h219zM678-18q-162 0-292 74T182.5 261 109 555v879h303V555q0-120 76-199.5T678 276t189 79.5T942 555v879h303V555q0-163-73.5-294t-203-205T678-18z"/><glyph glyph-name="ubreve" unicode="ŭ" horiz-adv-x="1177" d="M586 1096q-150 0-246 90t-96 241h219q0-63 34.5-102t88.5-39q53 0 88 39.5t35 101.5h219q-1-151-97-241t-245-90zm202-90h289V0H788v133Q693-20 516-20q-193 0-303.5 122T102 438v568h289V475q0-100 54-159.5T590 256q89 0 143.5 59.5T788 475v531z"/><glyph glyph-name="Uring" unicode="Ů" horiz-adv-x="1353" d="M678 1532q-124 0-207.5 80.5T387 1812q0 120 83.5 201.5T678 2095t208.5-81.5T971 1812q0-119-84.5-199.5T678 1532zm0 168q49 0 83 32.5t34 79.5q0 49-33.5 82t-83.5 33-83.5-33-33.5-82q0-47 34-79.5t83-32.5zm0-1718q-162 0-292 74T182.5 261 109 555v879h303V555q0-120 76-199.5T678 276t189 79.5T942 555v879h303V555q0-163-73.5-294t-203-205T678-18z"/><glyph glyph-name="uring" unicode="ů" horiz-adv-x="1177" d="M586 1104q-123 0-207 81t-84 199q0 120 84 201.5t207 81.5q124 0 208.5-81.5T879 1384q0-119-84.5-199.5T586 1104zm0 395q-50 0-82.5-32.5T471 1384q0-47 33-79.5t82-32.5q51 0 85 32.5t34 79.5q0 49-34 82t-85 33zm202-493h289V0H788v133Q693-20 516-20q-193 0-303.5 122T102 438v568h289V475q0-100 54-159.5T590 256q89 0 143.5 59.5T788 475v531z"/><glyph glyph-name="Uhungarumlaut" unicode="Ű" horiz-adv-x="1353" d="m594 1544 125 326H422l-123-326h295zm444 0 125 326H866l-125-326h297zM678-18q-162 0-292 74T182.5 261 109 555v879h303V555q0-120 76-199.5T678 276t189 79.5T942 555v879h303V555q0-163-73.5-294t-203-205T678-18z"/><glyph glyph-name="uhungarumlaut" unicode="ű" horiz-adv-x="1177" d="m627 1442-123-326H207l125 326h295zm444 0-125-326H651l125 326h295zm-283-436h289V0H788v133Q693-20 516-20q-193 0-303.5 122T102 438v568h289V475q0-100 54-159.5T590 256q89 0 143.5 59.5T788 475v531z"/><glyph glyph-name="Uogonek" unicode="Ų" horiz-adv-x="1353" d="M942 1434h303V555q0-211-120.5-364T811-4q-55-15-87-44.5T692-113q0-29 22.5-47t59.5-18q36 0 74 14l72-182q-40-22-107-35.5T680-395q-105 0-171.5 60.5T442-180q0 99 74 182-183 50-295 200.5T109 555v879h303V555q0-120 76-199.5T678 276t189 79.5T942 555v879z"/><glyph glyph-name="uogonek" unicode="ų" horiz-adv-x="1177" d="m1096-164 71-182q-40-22-106.5-35.5T928-395q-105 0-171.5 60.5T690-180q0 114 98 209v104Q693-20 516-20q-193 0-303.5 122T102 438v568h289V475q0-100 54-159.5T590 256q89 0 143.5 59.5T788 475v531h289V0h-2q-62-14-98.5-44.5T940-113q0-29 22.5-47t59.5-18q36 0 74 14z"/><glyph glyph-name="Wcircumflex" unicode="Ŵ" horiz-adv-x="2078" d="m1038 1692-100-142H682l199 320h315l201-320h-256zm705-256h317L1585 0h-244l-301 922L741 0H496L16 1436h324l285-924 297 924h243l297-924z"/><glyph glyph-name="wcircumflex" unicode="ŵ" horiz-adv-x="1615" d="m809 1264-100-142H453l198 320h316l200-320H911zm479-258h311L1237 0h-227L807 551 602 0H379L16 1006h310l168-551 200 551h226l202-551z"/><glyph glyph-name="Ycircumflex" unicode="Ŷ" horiz-adv-x="1394" d="m698 1692-100-142H342l199 320h315l201-320H801zm324-258h354L854 606V0H549v606L16 1434h371l318-521z"/><glyph glyph-name="ycircumflex" unicode="ŷ" horiz-adv-x="1101" d="m569 1264-100-142H213l199 320h315l201-320H672zm205-258h311L526-334H217L403 82 16 1006h312l223-588z"/><glyph glyph-name="Ydieresis" unicode="Ÿ" horiz-adv-x="1394" d="M485 1886q72 0 124.5-51.5T662 1712q0-72-52.5-124T485 1536t-124 52-52 124q0 71 52 122.5t124 51.5zm430 0q72 0 124.5-51.5T1092 1712q0-72-52.5-124T915 1536q-71 0-123.5 52T739 1712q0 70 52.5 122t123.5 52zM16 1434h371l318-521 317 521h354L854 606V0H549v606z"/><glyph glyph-name="Zacute" unicode="Ź" horiz-adv-x="1222" d="m981 1864-250-320H465l176 320h340zM92 1434h1063v-205L465 291h696V0H51v205l692 938H92v291z"/><glyph glyph-name="zacute" unicode="ź" horiz-adv-x="1032" d="m874 1436-249-320H358l177 320h339zm80-430V801L467 276h494V0H47v205l490 526H84v275h870z"/><glyph glyph-name="Zdotaccent" unicode="Ż" horiz-adv-x="1222" d="M610 1886q72 0 124-51.5t52-122.5q0-72-52-124t-124-52-124 52-52 124q0 71 52 122.5t124 51.5zM92 1434h1063v-205L465 291h696V0H51v205l692 938H92v291z"/><glyph glyph-name="zdotaccent" unicode="ż" horiz-adv-x="1032" d="M504 1493q72 0 124-51.5t52-122.5q0-72-52-124t-124-52-124 52-52 124q0 71 52 122.5t124 51.5zm450-487V801L467 276h494V0H47v205l490 526H84v275h870z"/><glyph glyph-name="Zcaron" unicode="Ž" horiz-adv-x="1222" d="m451 1544-199 320h256l100-142 103 142h256l-201-320H451zm14-1253h696V0H51v205l692 938H92v291h1063v-205z"/><glyph glyph-name="zcaron" unicode="ž" horiz-adv-x="1032" d="m346 1116-199 320h256l101-142 102 142h256l-200-320H346zm121-840h494V0H47v205l490 526H84v275h870V801z"/><glyph glyph-name="longs" unicode="ſ" horiz-adv-x="741" d="M633 1485q73 0 139-17v-266q-27 8-74 8-78 0-126-38.5T524 1055V0H236v731H49v275h187v55q0 198 108.5 311T633 1485z"/><glyph glyph-name="uni0180" unicode="ƀ" horiz-adv-x="1234" d="M709 1026q128 0 235.5-69.5t169.5-190 62-262.5-62-262.5-169.5-191T709-20q-210 0-318 161V0H102v1128H-96v193h198v113h289v-113h199v-193H391V864q109 162 318 162zm-66-770q104 0 177 72t73 176q0 103-73 175.5T643 752q-106 0-179-72t-73-176q0-105 73-176.5T643 256z"/><glyph glyph-name="florin" unicode="ƒ" horiz-adv-x="790" d="M668 1210q-79 0-126.5-38.5T494 1055v-49h247V731H494V72q0-199-109-312.5T96-354q-79 0-141 16v266q31-8 76-8 78 0 126 39t48 117v655H18v275h187v55q0 198 108 311t287 113q75 0 141-17v-266q-31 8-73 8z"/><glyph glyph-name="uni01EA" unicode="Ǫ" horiz-adv-x="1601" d="M918-12q-43-15-69-42t-26-59q0-29 22.5-47t59.5-18q36 0 74 14l72-182q-40-22-107-35.5T811-395q-105 0-171.5 60.5T573-180q0 92 68 176-254 53-412.5 251T70 717q0 207 95 376t262.5 265 373.5 96 374-96 263.5-265 95.5-376q0-283-173-486T918-12zM381 717q0-189 120-316t300-127 300 127 120 316-120 315.5T801 1159t-300-126.5T381 717z"/><glyph glyph-name="uni01EB" unicode="ǫ" horiz-adv-x="1163" d="M707-6q-51-15-81-44t-30-63q0-29 22.5-47t59.5-18q36 0 74 14l71-182q-40-22-106.5-35.5T584-395q-105 0-171.5 60.5T346-180q0 99 74 182-162 50-261.5 185.5T59 502q0 224 150 374t373 150q109 0 205.5-40t166-109.5 110-167T1104 502q0-190-110.5-329T707-6zM342 502q0-104 68.5-175T582 256q101 0 170 71t69 175q0 107-68.5 177.5T582 750q-103 0-171.5-70.5T342 502z"/><glyph glyph-name="Aringacute" unicode="Ǻ" horiz-adv-x="1411" d="M709 1532q-124 0-207.5 80.5T418 1812q0 82 40 148t109 102l170 308h340l-237-304q74-34 117.5-101.5T1001 1812q0-119-84-199.5T709 1532zm0 168q49 0 82.5 32.5T825 1812q0 49-33 82t-83 33-83.5-33-33.5-82q0-47 34-79.5t83-32.5zM1069 0l-90 240H426L334 0H12l570 1434h245L1399 0h-330zM526 500h353L705 958z"/><glyph glyph-name="aringacute" unicode="ǻ" horiz-adv-x="1234" d="M680 1104q-124 0-207.5 80.5T389 1384q0 82 41 148t111 102l170 310h340l-240-306q74-34 118-102t44-152q0-119-84.5-199.5T680 1104zm0 168q49 0 83 32.5t34 79.5q0 49-33.5 82t-83.5 33-83.5-33-33.5-82q0-47 34-79.5t83-32.5zm166-266h289V0H846v143Q736-20 526-20q-128 0-235.5 70.5T121 241.5 59 504t62 262.5 169.5 190T526 1026q210 0 320-164v144zM594 256q106 0 179 71.5T846 504q0 104-73 176t-179 72q-104 0-178-72.5T342 504q0-104 73.5-176T594 256z"/><glyph glyph-name="AEacute" unicode="Ǽ" horiz-adv-x="1927" d="m1653 1864-250-320h-266l176 320h340zm196-721h-565V885h504V594h-504V291h565V0H985v305H520L356 0H12l803 1434h1034v-291zM664 575h321v603z"/><glyph glyph-name="aeacute" unicode="ǽ" horiz-adv-x="2041" d="m1393 1436-250-320H877l176 320h340zm589-899q0-53-6-103h-747q15-98 85-156.5t171-58.5q83 0 136 32.5t67 86.5h282q-26-162-157-260t-320-98q-226 0-358 161V0H846v143Q736-20 526-20q-128 0-235.5 70.5T121 241.5 59 504t62 262.5 169.5 190T526 1026q210 0 320-164v144h289V870q133 156 354 156 133 0 246.5-64t180-177 66.5-248zm-739 81h438q-6 76-65.5 125.5T1475 793q-85 0-145.5-44T1243 618zM594 256q106 0 179 71.5T846 504q0 104-73 176t-179 72q-104 0-178-72.5T342 504q0-104 73.5-176T594 256z"/><glyph glyph-name="uni0218" unicode="Ș" horiz-adv-x="1218" d="M623-20q-235 0-389 140T80 475h299q0-94 68-151.5T623 266q100 0 162.5 43T848 422q0 40-26 70t-69.5 49-100 34.5-119 32-125 36.5-119 52-100 74.5-69.5 109T94 1030q0 184 140.5 304T588 1454q103 0 189-25.5t146-70 101-105 60.5-130T1104 977H791q-2 84-59.5 137T578 1167q-86 0-136.5-36t-50.5-99q0-38 26-65.5t70-45 100.5-32T707 859t126-36 119.5-53 100.5-77.5 70-113.5 26-157q0-191-149.5-316.5T623-20zm200-111L573-453H307l174 322h342z"/><glyph glyph-name="uni0219" unicode="ș" horiz-adv-x="976" d="M510-20q-199 0-324.5 95.5T45 340h277q4-51 53-82t121-31q64 0 99.5 20t35.5 56q0 33-31 54t-81 31.5T408.5 409 288 437t-110 46-81 82.5T66 696q0 143 108.5 236.5T465 1026q172 0 295-88t141-248H610q-3 40-44 68t-107 28q-52 0-83.5-17.5T344 717q0-31 31.5-49.5T457 640t110-18 120.5-28T798 543.5t81.5-92.5T911 305q0-138-115.5-231.5T510-20zm182-111L442-453H176l174 322h342z"/><glyph glyph-name="uni021A" unicode="Ț" horiz-adv-x="1228" d="M1186 1434v-291H766V0H463v1143H45v291h1141zM313-453l174 322h342L580-453H313z"/><glyph glyph-name="uni021B" unicode="ț" horiz-adv-x="800" d="M743 731H496V414q0-78 47.5-117T670 258q42 0 73 8V0q-62-16-139-16-181 0-289 113T207 410v321H20v275h187v264h289v-264h247V731zM217-453l174 322h342L483-453H217z"/><glyph glyph-name="uni0237" unicode="ȷ" horiz-adv-x="493" d="M-45-127q5 0 17-1t18-1q112 0 112 127v1008h289V-31q0-167-101.5-263.5T14-391q-13 0-59 4v260z"/><glyph glyph-name="uni0243" unicode="Ƀ" horiz-adv-x="1206" d="M895 758q115-23 189.5-120t74.5-228q0-172-132-291T709 0H109v352H-82v193h191v889h538q185 0 316-112.5t131-268.5q0-97-56.5-181.5T895 758zm-483 385V856h221q64 0 108.5 42.5T786 1001t-44 101-109 41H412zm270-852q70 0 119 48.5T850 457t-48.5 118.5T686 625H412V291h270z"/><glyph glyph-name="circumflex" unicode="ˆ" horiz-adv-x="919" d="M817 1122H561l-102 142-101-142H102l199 320h315z"/><glyph glyph-name="caron" unicode="ˇ" horiz-adv-x="919" d="M561 1436h256l-201-320H301l-199 320h256l101-142z"/><glyph glyph-name="breve" unicode="˘" horiz-adv-x="888" d="M786 1427q-1-151-97-241t-245-90q-150 0-246 90t-96 241h220q0-63 34-102t88-39q53 0 88 39.5t35 101.5h219z"/><glyph glyph-name="dotaccent" unicode="˙" horiz-adv-x="557" d="M279 1493q72 0 124-51.5t52-122.5q0-72-52-124t-124-52-124.5 52-52.5 124q0 71 52.5 122.5T279 1493z"/><glyph glyph-name="ring" unicode="˚" horiz-adv-x="790" d="M393 1104q-123 0-207 81t-84 199q0 120 84 201.5t207 81.5q125 0 210-81.5t85-201.5q0-118-85-199t-210-81zm0 168q51 0 85 32.5t34 79.5q0 49-34 82t-85 33q-49 0-81.5-32.5T279 1384q0-48 32.5-80t81.5-32z"/><glyph glyph-name="ogonek" unicode="˛" horiz-adv-x="681" d="M487 168V0q-60-14-96.5-44.5T354-113q0-30 22-47.5t60-17.5q33 0 74 14l70-182q-38-22-105-35.5T340-395q-104 0-171 60.5T102-180q0 121 107.5 216.5T487 168z"/><glyph glyph-name="tilde" unicode="˜" horiz-adv-x="1079" d="M102 1159q12 135 90 220t185 85q59 0 120.5-27t106.5-54 66-27q32 0 51.5 26.5T743 1454l234-39q-15-135-94-221t-183-86q-63 0-124.5 28t-107 55.5T399 1219q-29 0-47-28.5t-16-72.5z"/><glyph glyph-name="hungarumlaut" unicode="˝" horiz-adv-x="1069" d="m399 1116 123 326H227l-125-326h297zm443 0 125 326H672l-125-326h295z"/><glyph glyph-name="gravecomb" unicode="̀" horiz-adv-x="0" d="M-827 1436h340l176-320h-267z"/><glyph glyph-name="acutecomb" unicode="́" horiz-adv-x="0" d="m-262 1436-250-320h-266l176 320h340z"/><glyph glyph-name="uni0302" unicode="̂" horiz-adv-x="0" d="M-94 1122h-256l-103 142-100-142h-256l199 320h315z"/><glyph glyph-name="tildecomb" unicode="̃" horiz-adv-x="0" d="M-1075 1159q12 135 89.5 220t184.5 85q59 0 120.5-27t106.5-54 66-27q32 0 52 27t22 71l233-39q-15-135-93.5-221t-182.5-86q-63 0-124.5 28t-107 55.5-69.5 27.5q-29 0-47-28.5t-17-72.5z"/><glyph glyph-name="uni0304" unicode="̄" horiz-adv-x="0" d="M-901 1126v232h655v-232h-655z"/><glyph glyph-name="uni0306" unicode="̆" horiz-adv-x="0" d="M-207 1427q0-151-96-241t-246-90-246 90-96 241h219q0-63 34.5-102t88.5-39 88.5 39 34.5 102h219z"/><glyph glyph-name="uni0307" unicode="̇" horiz-adv-x="0" d="M-496 1493q72 0 124.5-51.5T-319 1319q0-72-52.5-124t-124.5-52-124 52-52 124q0 71 52 122.5t124 51.5z"/><glyph glyph-name="uni0308" unicode="̈" horiz-adv-x="0" d="M-772 1493q72 0 124-51.5t52-122.5q0-72-52-124t-124-52-124 52-52 124q0 71 52 122.5t124 51.5zm430 0q72 0 124-51.5t52-122.5q0-72-52-124t-124-52q-71 0-123.5 52t-52.5 124q0 70 52.5 122t123.5 52z"/><glyph glyph-name="uni030A" unicode="̊" horiz-adv-x="0" d="M-573 1104q-124 0-207.5 80.5T-864 1384q0 120 83.5 201.5T-573 1667t208-81.5 84-201.5q0-119-84-199.5t-208-80.5zm0 168q49 0 82.5 32.5t33.5 79.5q0 49-33 82t-83 33-83.5-33-33.5-82q0-47 34-79.5t83-32.5z"/><glyph glyph-name="uni030B" unicode="̋" horiz-adv-x="0" d="m-680 1116 125 326h-297l-123-326h295zm444 0 125 326h-297l-124-326h296z"/><glyph glyph-name="uni030C" unicode="̌" horiz-adv-x="0" d="M-442 1436h256l-201-320h-315l-199 320h256l100-142z"/><glyph glyph-name="uni0312" unicode="̒" horiz-adv-x="0" d="m-471 1133 250 319H45l-176-319h-340z"/><glyph glyph-name="uni0326" unicode="̦" horiz-adv-x="0" d="m-90-131-250-322h-266l174 322h342z"/><glyph glyph-name="uni0327" unicode="̧" horiz-adv-x="0" d="M-449 49h216q61-62 93-127t33.5-122-23-107-71-83.5-116-50T-469-449l-68 205q78-1 128.5 16t68 46.5 11.5 67-37.5 80T-449 49z"/><glyph glyph-name="uni0328" unicode="̨" horiz-adv-x="0" d="M-481 168V0q-62-14-98.5-44.5T-616-113q0-29 22-47t59-18q36 0 74 14l72-182q-40-22-107-35.5T-629-395q-105 0-171 60.5T-866-180q0 121 107.5 216.5T-481 168z"/><glyph glyph-name="uni0394" unicode="Δ" horiz-adv-x="1218" d="M12 0v291l473 1143h246l475-1143V0H12zm320 291h549L608 991z"/><glyph glyph-name="uni0394" unicode="δ" horiz-adv-x="1218" d="M12 0v291l473 1143h246l475-1143V0H12zm320 291h549L608 991z"/><glyph glyph-name="uni03A9" unicode="Ω" horiz-adv-x="1591" d="M109 0v291h249q-122 69-189 195.5T102 774q0 194 90 349.5t248.5 243T795 1454q147 0 275.5-51.5t220-141 144-216T1487 774q0-162-66-288t-188-195h252V0H881v291q140 70 217.5 194t77.5 273q0 186-104 293.5T795 1159q-171 0-275-108T416 758q0-148 78-272t219-195V0H109z"/><glyph glyph-name="uni03A9" unicode="ω" horiz-adv-x="1591" d="M109 0v291h249q-122 69-189 195.5T102 774q0 194 90 349.5t248.5 243T795 1454q147 0 275.5-51.5t220-141 144-216T1487 774q0-162-66-288t-188-195h252V0H881v291q140 70 217.5 194t77.5 273q0 186-104 293.5T795 1159q-171 0-275-108T416 758q0-148 78-272t219-195V0H109z"/><glyph glyph-name="uni03BC" unicode="μ" horiz-adv-x="1177" d="M788 1006h289V0H788v133Q693-20 516-20q-63 0-125 16v-330H102v1340h289V475q0-100 54-159.5T590 256q89 0 143.5 59.5T788 475v531z"/><glyph glyph-name="pi" unicode="π" horiz-adv-x="1492" d="M1436 731h-271V414q0-78 48-117t126-39q43 0 74 8V0q-62-16-139-16-180 0-288.5 113T877 410v321H612V0H324v731H59v275h1377V731z"/><glyph glyph-name="uni0E3F" unicode="฿" horiz-adv-x="1347" d="M983 758q115-23 189.5-120t74.5-228q0-113-61.5-207.5T1021 54 797 0h-33v-246H487V0H197v1434h290v245h277v-245q176-10 296-120.5t120-260.5q0-97-56-181.5T983 758zm-109 243q0 60-45 101t-108 41H500V856h221q64 0 108.5 42.5T874 1001zM770 291q70 0 119 48.5T938 457t-48.5 118.5T772 625H500V291h270z"/><glyph glyph-name="Wgrave" unicode="Ẁ" horiz-adv-x="2078" d="M678 1864h340l176-320H928zm1065-428h317L1585 0h-244l-301 922L741 0H496L16 1436h324l285-924 297 924h243l297-924z"/><glyph glyph-name="wgrave" unicode="ẁ" horiz-adv-x="1615" d="M449 1436h339l177-320H698zM379 0 16 1006h310l168-551 200 551h226l202-551 166 551h311L1237 0h-227L807 551 602 0H379z"/><glyph glyph-name="Wacute" unicode="Ẃ" horiz-adv-x="2078" d="m1409 1864-250-320H893l176 320h340zm334-428h317L1585 0h-244l-301 922L741 0H496L16 1436h324l285-924 297 924h243l297-924z"/><glyph glyph-name="wacute" unicode="ẃ" horiz-adv-x="1615" d="m1180 1436-250-320H664l176 320h340zM379 0 16 1006h310l168-551 200 551h226l202-551 166 551h311L1237 0h-227L807 551 602 0H379z"/><glyph glyph-name="Wdieresis" unicode="Ẅ" horiz-adv-x="2078" d="M823 1886q72 0 124-51.5t52-122.5q0-72-52-124t-124-52-124 52-52 124q0 71 52 122.5t124 51.5zm430 0q72 0 124.5-51.5T1430 1712q0-72-52.5-124t-124.5-52q-71 0-123.5 52t-52.5 124q0 70 52.5 122t123.5 52zm490-450h317L1585 0h-244l-301 922L741 0H496L16 1436h324l285-924 297 924h243l297-924z"/><glyph glyph-name="wdieresis" unicode="ẅ" horiz-adv-x="1615" d="M594 1493q72 0 124-51.5t52-122.5q0-72-52-124t-124-52-124 52-52 124q0 71 52 122.5t124 51.5zm430 0q72 0 124-51.5t52-122.5q0-72-52-124t-124-52q-71 0-123.5 52T848 1319q0 70 52.5 122t123.5 52zM379 0 16 1006h310l168-551 200 551h226l202-551 166 551h311L1237 0h-227L807 551 602 0H379z"/><glyph glyph-name="uni1E9E" unicode="ẞ" horiz-adv-x="1288" d="M639 1454q224 0 375.5-121t165.5-299L942 809q133-31 215-129.5t82-226.5q0-186-137.5-319.5T772 0H526v291h244q66 0 113 44.5T930 446q0 72-45 115t-119 43H571l-2 189 271 268q-18 42-70 70t-117 28q-106 0-172.5-83T414 858V0H109v858q0 268 144.5 432T639 1454z"/><glyph glyph-name="Ygrave" unicode="Ỳ" horiz-adv-x="1394" d="M340 1864h340l176-320H590zM16 1434h371l318-521 317 521h354L854 606V0H549v606z"/><glyph glyph-name="ygrave" unicode="ỳ" horiz-adv-x="1101" d="M725 1116H459l-250 320h340zm49-110h311L526-334H217L403 82 16 1006h312l223-588z"/><glyph glyph-name="uni2009" horiz-adv-x="315"/><glyph glyph-name="endash" unicode="–" horiz-adv-x="1253" d="M102 397v271h1049V397H102z"/><glyph glyph-name="emdash" unicode="—" horiz-adv-x="2252" d="M102 397v271h2048V397H102z"/><glyph glyph-name="quoteleft" unicode="‘" horiz-adv-x="569" d="M102 1171q0 47 54 152l151 295h162l-115-295q42-21 67-61.5t25-90.5q0-73-50-122.5T274 999t-122 49.5-50 122.5z"/><glyph glyph-name="quoteright" unicode="’" horiz-adv-x="569" d="M467 1448q0-47-51-152L262 999H100l115 295q-42 20-67 62t-25 92q0 72 50 121t122 49q73 0 122.5-49t49.5-121z"/><glyph glyph-name="quotesinglbase" unicode="‚" horiz-adv-x="569" d="M467 174q0-30-11.5-61.5T416 23L262-274H100L215 23q-42 21-67 61t-25 90q0 72 50 122t122 50q73 0 122.5-50T467 174z"/><glyph glyph-name="quotedblleft" unicode="“" horiz-adv-x="1009" d="M102 1171q0 47 54 152l151 295h162l-115-295q42-21 67-61.5t25-90.5q0-73-50-122.5T274 999t-122 49.5-50 122.5zm439 0q0 49 53 152l151 295h162l-114-295q42-21 67-61.5t25-90.5q0-73-49.5-122.5T713 999q-72 0-122 49.5T541 1171z"/><glyph glyph-name="quotedblright" unicode="”" horiz-adv-x="1009" d="M467 1448q0-47-51-152L262 999H100l115 295q-42 20-67 62t-25 92q0 72 50 121t122 49q73 0 122.5-49t49.5-121zm440 0q0-49-53-152L702 999H541l114 295q-42 20-67 62t-25 92q0 72 49.5 121t122.5 49q72 0 122-49t50-121z"/><glyph glyph-name="quotedblbase" unicode="„" horiz-adv-x="1009" d="M467 174q0-30-11.5-61.5T416 23L262-274H100L215 23q-42 21-67 61t-25 90q0 72 50 122t122 50q73 0 122.5-50T467 174zm440 0q0-48-53-151L702-274H541L655 23q-42 21-67 61t-25 90q0 72 49.5 122T735 346q72 0 122-50t50-122z"/><glyph glyph-name="dagger" unicode="†" horiz-adv-x="956" d="M854 1163V915H610V377H350v538H102v248h248v312h260v-312h244z"/><glyph glyph-name="daggerdbl" unicode="‡" horiz-adv-x="978" d="M854 915H610V559h244V313H610V0H350v313H102v246h248v356H102v248h248v312h260v-312h244V915z"/><glyph glyph-name="bullet" unicode="•" horiz-adv-x="780" d="M389 215q-123 0-206 84t-83 207q0 124 83 206.5T389 795q124 0 207.5-82.5T680 506q0-123-84-207t-207-84z"/><glyph glyph-name="ellipsis" unicode="…" horiz-adv-x="1529" d="M291-20q-78 0-132.5 53.5T104 164q0 76 54.5 129T291 346q79 0 133.5-52.5T479 164 424.5 33.5 291-20zm483 0q-79 0-132.5 53.5T588 164t53.5 129.5T774 346q78 0 132.5-53T961 164q0-77-54.5-130.5T774-20zm463 0q-78 0-132 53.5T1051 164q0 76 54 129t132 53q79 0 133.5-52.5T1425 164t-54.5-130.5T1237-20z"/><glyph glyph-name="perthousand" unicode="‰" horiz-adv-x="2195" d="M719 1141q0-137-88-227.5T410 823q-132 0-220 91t-88 227q0 135 88 224t220 89q133 0 221-89t88-224zm397 293h230L393 0H164zm-584-293q0 61-33 99t-89 38-88.5-38-32.5-99 32.5-99 88.5-38 89 38 33 99zm877-844q0-136-88.5-226.5T1100-20 879.5 70.5 791 297q0 135 88.5 224t220.5 89 220.5-89 88.5-224zm684 0q0-137-88-227t-221-90q-132 0-219.5 90.5T1477 297q0 135 87.5 224t219.5 89q133 0 221-89t88-224zm-872 0q0 61-32.5 98t-88.5 37-89.5-37-33.5-98 33.5-100 89.5-39 88.5 39 32.5 100zm684 0q0 61-32.5 98t-88.5 37-89.5-37-33.5-98 33.5-100 89.5-39 88.5 39 32.5 100z"/><glyph glyph-name="guilsinglleft" unicode="‹" horiz-adv-x="786" d="M684 82 100 485v189l584 405V784L367 580l317-199V82z"/><glyph glyph-name="guilsinglright" unicode="›" horiz-adv-x="792" d="M109 82v299l317 199-317 204v295l583-405V485z"/><glyph glyph-name="fraction" unicode="⁄" horiz-adv-x="495" d="M610 1434h230L-113 0h-229z"/><glyph glyph-name="Euro" unicode="€" horiz-adv-x="1755" d="M1346 522h340q-40-239-232-390.5T1001-20q-279 0-478.5 172.5T281 596H45v246h238q42 269 241 440.5t477 171.5q167 0 315.5-67.5t246.5-188T1681 930h-338q-28 100-123 164.5t-219 64.5q-146 0-255.5-88T600 842h555l-63-246H598q36-144 145.5-233t257.5-89q124 0 220.5 70T1346 522z"/><glyph glyph-name="uni20BD" unicode="₽" horiz-adv-x="1353" d="M797 571H573V408h359V178H573V0H270v178H45v230h225v163H45v238h225v625h527q224 0 365-119t141-309q0-192-141-313.5T797 571zm-224 625V809h224q85 0 142.5 56.5T997 1006q0 83-57.5 136.5T797 1196H573z"/><glyph glyph-name="uni2116" unicode="№" horiz-adv-x="2580" d="M1944 1452q145 0 265-68.5t188.5-189.5 68.5-268q0-146-68.5-266T2209 471.5 1944 403q-146 0-266 68.5T1489.5 660 1421 926q0 224 150 375t373 151zm-1835-18h258l583-836v836h303V0H999L412 836V0H109v1434zm1835-260q-103 0-171.5-70.5T1704 926q0-104 68.5-174t171.5-70q101 0 170 70t69 174q0 107-68.5 177.5T1944 1174zm503-906V-4H1436v272h1011z"/><glyph glyph-name="uni2117" unicode="℗" horiz-adv-x="1605" d="M805 1454q201 0 371-99t269-268.5 99-369.5-99-369.5T1176 79 805-20q-198 0-367.5 99T169 347.5 70 717t99 369.5T437.5 1355t367.5 99zm2-1360q167 0 309.5 84T1342 405.5t83 311.5-83 311.5-225.5 227T807 1339q-125 0-239.5-49.5t-197.5-133T237.5 958 188 717q0-168 83-311.5T497 178t310-84zm61 1026q119 0 197-73t78-185q0-113-78.5-187.5T868 600H741V322H563v798h305zm0-350q41 0 69 26t28 66q0 38-28.5 63T868 950H741V770h127z"/><glyph glyph-name="trademark" unicode="™" horiz-adv-x="1804" d="M713 1434v-183H467V573H274v678H27v183h686zm833 0h197V573h-193v488l-211-488h-137l-205 488V573H805v861h231l248-578z"/><glyph glyph-name="uni2126" unicode="Ω" horiz-adv-x="1591" d="M109 0v291h249q-122 69-189 195.5T102 774q0 194 90 349.5t248.5 243T795 1454q147 0 275.5-51.5t220-141 144-216T1487 774q0-162-66-288t-188-195h252V0H881v291q140 70 217.5 194t77.5 273q0 186-104 293.5T795 1159q-171 0-275-108T416 758q0-148 78-272t219-195V0H109z"/><glyph glyph-name="oneeighth" unicode="⅛" horiz-adv-x="1755" d="M424 1434V573H233v598L43 1026v227l252 181h129zm784 0h230L485 0H256zM1423-10q-133 0-219 74t-86 188q0 65 36.5 122t100.5 91q-48 27-77 73.5t-29 98.5q0 101 77 166t197 65q119 0 196-65t77-166q0-49-29-97t-78-75q62-30 99.5-87.5T1726 252q0-114-85.5-188T1423-10zm0 551q42 0 69.5 24t27.5 60q0 37-27.5 60.5T1423 709q-43 0-70.5-23.5T1325 625q0-36 27-60t71-24zm0-381q53 0 88 30t35 76q0 47-35 78t-88 31q-54 0-88.5-31t-34.5-78q0-46 34.5-76t88.5-30z"/><glyph glyph-name="threeeighths" unicode="⅜" horiz-adv-x="1837" d="m215 1083 156 168H41v183h600v-125l-197-203q90-10 147.5-80T649 860q0-131-90-215t-229-84q-130 0-218.5 75.5T14 831h193q8-36 40-59.5t83-23.5q54 0 87.5 32.5T451 864q0 72-72.5 99.5T215 961v122zm1077 351h230L569 0H340zM1505-10q-133 0-219 74t-86 188q0 65 36.5 122t100.5 91q-48 27-77 73.5t-29 98.5q0 101 77 166t197 65q119 0 196-65t77-166q0-49-29-97t-78-75q62-30 99.5-87.5T1808 252q0-114-85.5-188T1505-10zm0 551q42 0 69.5 24t27.5 60q0 37-27.5 60.5T1505 709q-43 0-70.5-23.5T1407 625q0-36 27-60t71-24zm0-381q53 0 88 30t35 76q0 47-35 78t-88 31q-54 0-88.5-31t-34.5-78q0-46 34.5-76t88.5-30z"/><glyph glyph-name="fiveeighths" unicode="⅝" horiz-adv-x="1832" d="M332 561q-129 0-220 72T14 831h193q10-39 43.5-61t81.5-22q49 0 83 35t34 83q0 54-33.5 88.5T332 989q-78 0-115-47H49l39 492h500v-181H260l-14-139q48 33 112 33 126 0 206.5-76.5T645 862q0-126-91-213.5T332 561zm948 873h229L557 0H328zM1501-10q-132 0-218.5 74T1196 252q0 65 37 122.5t102 90.5q-48 27-78 73.5t-30 98.5q0 101 77.5 166t196.5 65 196-65 77-166q0-50-28-97.5t-79-74.5q62-30 99.5-87.5T1804 252q0-114-85.5-188T1501-10zm0 551q44 0 71 24t27 60q0 37-27.5 60.5T1501 709q-42 0-70-24t-28-60 28-60 70-24zm0-381q54 0 88.5 30t34.5 76q0 47-34.5 78t-88.5 31q-53 0-88-31t-35-78q0-46 35-76t88-30z"/><glyph glyph-name="seveneighths" unicode="⅞" horiz-adv-x="1662" d="M18 1434h605v-129L272 573H59l328 676H18v185zm1100 0h230L395 0H166zM1331-10q-133 0-219 74t-86 188q0 65 36.5 122t100.5 91q-48 27-77 73.5t-29 98.5q0 101 77 166t197 65q119 0 196-65t77-166q0-49-29-97t-78-75q62-30 99.5-87.5T1634 252q0-114-85.5-188T1331-10zm0 551q42 0 69 24t27 60q0 37-27.5 60.5T1331 709q-43 0-70.5-23.5T1233 625q0-36 27-60t71-24zm0-381q53 0 88 30t35 76q0 47-35 78t-88 31q-54 0-88.5-31t-34.5-78q0-46 34.5-76t88.5-30z"/><glyph glyph-name="arrowleft" unicode="←" horiz-adv-x="1669" d="M1567 772V514H592l385-371L793-41 102 643l691 686 184-184-387-373h977z"/><glyph glyph-name="arrowup" unicode="↑" horiz-adv-x="1574" d="m1473 774-185-184-370 385V0H659v977L287 590 102 774l686 690z"/><glyph glyph-name="arrowright" unicode="→" horiz-adv-x="1669" d="m877 1329 690-686L877-41 692 143l385 371H102v258h977l-387 373z"/><glyph glyph-name="arrowdown" unicode="↓" horiz-adv-x="1574" d="m1288 852 185-184L786-25 102 668l185 184 370-385v975h258V465z"/><glyph glyph-name="uni2196" unicode="↖" horiz-adv-x="1331" d="M1229 246 1047 66 356 756l11-537H106l-4 973 973-4V928l-536 8z"/><glyph glyph-name="uni2197" unicode="↗" horiz-adv-x="1331" d="m256 1188 973 2-6-971H963l10 535L283 63 102 246l691 690-537-8v260z"/><glyph glyph-name="uni2198" unicode="↘" horiz-adv-x="1331" d="M256 0v260l537-8-691 690 181 180 690-688-10 535h260l6-973z"/><glyph glyph-name="uni2199" unicode="↙" horiz-adv-x="1331" d="M1229 942 539 252l536 8V0L102-4l4 973h261l-11-537 691 690z"/><glyph glyph-name="partialdiff" unicode="∂" horiz-adv-x="1218" d="M1001 829q56-90 84.5-181.5T1114 481q0-135-69-250.5t-187.5-183T600-20q-138 0-256.5 67.5t-188 183T86 481q0 205 131 341t328 136q25 0 37-2l-303 478h346zM600 268q91 0 154 62t63 153q0 92-62 154.5T602 700q-94 0-157.5-62.5T381 483q0-91 63.5-153T600 268z"/><glyph glyph-name="emptyset" unicode="∅" horiz-adv-x="1650" d="M324 6 102 229l195 195q-86 143-86 303 0 167 83 309t225.5 224.5T829 1343q170 0 304-86l194 195 221-223-192-193q84-143 84-309 0-125-48.5-238.5t-130-195.5T1067 163t-238-48q-165 0-309 88zm208 604 412 414q-51 33-115 33-137 0-234-97t-97-233q0-65 34-117zm297-209q135 0 229.5 95t94.5 231q0 63-33 121L709 436q58-35 120-35z"/><glyph glyph-name="uni2206" unicode="∆" horiz-adv-x="1218" d="M12 0v291l473 1143h246l475-1143V0H12zm320 291h549L608 991z"/><glyph glyph-name="product" unicode="∏" horiz-adv-x="1421" d="M1319 1434V0h-303v1143H408V0H102v1434h1217z"/><glyph glyph-name="summation" unicode="∑" horiz-adv-x="1269" d="M1167 1434v-291H518l309-426-309-426h649V0H102v217l369 500-369 500v217h1065z"/><glyph glyph-name="minus" unicode="−" horiz-adv-x="1214" d="M1112 801V530H102v271h1010z"/><glyph glyph-name="radical" unicode="√" horiz-adv-x="1544" d="M1122 1434h320L907 0H657L389 715H102v291h500l182-500z"/><glyph glyph-name="infinity" unicode="∞" horiz-adv-x="2023" d="M1411 1202q150 0 268-73.5T1859 935t62-261q0-140-62-259.5T1679 221t-268-74q-130 0-238.5 66T1012 369q-54-91-162-156.5T612 147q-151 0-269 74T163.5 414.5 102 674t61.5 260T343 1128t269 74q128 0 236-65t164-156q55 92 163 156.5t236 64.5zM627 426q92 0 166 64.5T895 674q-28 120-102 186t-166 66q-102 0-166-70t-64-182 63.5-180T627 426zm772 0q101 0 164 68t63 180-63.5 182-163.5 70q-83 0-153.5-66T1147 674q28-118 98-183t154-65z"/><glyph glyph-name="integral" unicode="∫" horiz-adv-x="790" d="M600 1485q75 0 141-17v-266q-31 8-73 8-79 0-126.5-38.5T494 1055V72q0-199-109-312.5T96-354q-79 0-141 16v266q31-8 76-8 78 0 126 39t48 117v985q0 198 108 311t287 113z"/><glyph glyph-name="approxequal" unicode="≈" horiz-adv-x="1228" d="m346 666-244 30q22 176 104.5 271.5T416 1063q66 0 139.5-30t133-59.5T780 944q78 0 99 146l249-31q-28-174-112-271.5T809 690q-65 0-136 30t-129.5 59.5T449 809q-79 0-103-143zm0-484-244 31q22 176 104.5 272.5T416 582q66 0 139.5-30t133-59.5T780 463q78 0 99 143l249-28q-28-175-112-272t-207-97q-51 0-107.5 18.5t-96 41-83.5 41-73 18.5q-79 0-103-146z"/><glyph glyph-name="notequal" unicode="≠" horiz-adv-x="1214" d="M1112 782H784l-96-211h424V299H563L455 61H195l108 238H102v272h326l96 211H102v271h547l103 225h260l-103-225h203V782z"/><glyph glyph-name="lessequal" unicode="≤" horiz-adv-x="1099" d="M997 393 104 797v223l893 403v-293L492 909l505-219V393zM995 0H102v270h893V0z"/><glyph glyph-name="greaterequal" unicode="≥" horiz-adv-x="1099" d="M102 393v297l506 219-506 221v293l893-403V797zm2-393v270h893V0H104z"/><glyph glyph-name="lozenge" unicode="◊" horiz-adv-x="1220" d="m713 1434 405-717L713 0H506L104 717l402 717h207zM608 291l236 426-236 426-237-426z"/><glyph glyph-name="circle" unicode="○" horiz-adv-x="1613" d="M805-20q-198 0-367.5 99T169 347.5 70 717t99 369.5T437.5 1355t367.5 99q201 0 371-99t269-268.5 99-369.5-99-369.5T1176 79 805-20zm2 114q167 0 309.5 84T1342 405.5t83 311.5-83 311.5-225.5 227T807 1339q-125 0-239.5-49.5t-197.5-133T237.5 958 188 717q0-168 83-311.5T497 178t310-84z"/><glyph glyph-name="uni25CF" unicode="●" horiz-adv-x="1613" d="M807-20q-200 0-369.5 99T169 347.5 70 717t99 369.5T437.5 1355t369.5 99 369.5-99 268.5-268.5 99-369.5-99-369.5T1176.5 79 807-20z"/><glyph glyph-name="P_sq" horiz-adv-x="1193" d="M1141 1434V510H412V0H109v1434h1032zM838 801v342H412V801h426z"/><glyph glyph-name="P_sq_sinf" horiz-adv-x="745" d="M686 860V299H254V0H61v860h625zM494 485v191H254V485h240z"/><glyph glyph-name="Iacute_J.loclNLD" horiz-adv-x="1210" d="m631 1864-250-320H115l176 320h340zm698 0-250-320H813l176 320h340zM109 1434h303V0H109v1434zM578 274q12-2 51-2 87 0 132.5 46T807 469v965h305V387q0-181-111-292T721-16q-87 0-143 10v280z"/><glyph glyph-name="O.ss10" horiz-adv-x="1505" d="M1399 1434V0H109v1434h1290zM412 291h682v852H412V291z"/><glyph glyph-name="Oacute.ss10" horiz-adv-x="1505" d="m1124 1864-250-320H608l176 320h340zm275-430V0H109v1434h1290zM412 291h682v852H412V291z"/><glyph glyph-name="Obreve.ss10" horiz-adv-x="1505" d="M1096 1855q0-151-96-241t-246-90-246 90-96 241h219q0-63 34.5-102t88.5-39 88.5 39 34.5 102h219zm303-421V0H109v1434h1290zM412 291h682v852H412V291z"/><glyph glyph-name="Ocircumflex.ss10" horiz-adv-x="1505" d="m754 1692-101-142H397l199 320h315l201-320H856zm-645-258h1290V0H109v1434zm985-1143v852H412V291h682z"/><glyph glyph-name="Odieresis.ss10" horiz-adv-x="1505" d="M539 1886q72 0 124-51.5t52-122.5q0-72-52-124t-124-52-124.5 52-52.5 124q0 71 52.5 122.5T539 1886zm430 0q72 0 124-51.5t52-122.5q0-72-52-124t-124-52q-71 0-123.5 52T793 1712q0 70 52.5 122t123.5 52zm430-452V0H109v1434h1290zM412 291h682v852H412V291z"/><glyph glyph-name="Ograve.ss10" horiz-adv-x="1505" d="M393 1864h340l176-320H643zm1006-430V0H109v1434h1290zM412 291h682v852H412V291z"/><glyph glyph-name="Ohungarumlaut.ss10" horiz-adv-x="1505" d="m672 1544 125 326H500l-123-326h295zm444 0 125 326H944l-125-326h297zm283-110V0H109v1434h1290zM412 291h682v852H412V291z"/><glyph glyph-name="Omacron.ss10" horiz-adv-x="1505" d="M426 1554v232h655v-232H426zm973-120V0H109v1434h1290zM412 291h682v852H412V291z"/><glyph glyph-name="uni01EA.ss10" horiz-adv-x="1505" d="M942 0q-62-14-98.5-44.5T807-113q0-29 22.5-47t59.5-18q36 0 74 14l71-182q-40-22-106.5-35.5T795-395q-105 0-171.5 60.5T557-180q0 95 72 180H109v1434h1290V0H942zM412 1143V291h682v852H412z"/><glyph glyph-name="Oslash.ss10" horiz-adv-x="1511" d="M1401 1294V0H330L154-213-41-43l152 182v1295h1071l176 213 194-170zm-985-151V508l524 635H416zm155-852h527v637z"/><glyph glyph-name="S.ss12" horiz-adv-x="1126" d="M535 1434h419v-295H477q-59 0-94-28t-35-73q0-44 39.5-75t102-51T628 872t152.5-52.5 139-78.5 102-126.5T1061 426q0-87-31-163t-91-135.5T783 34 565 0H86v295h496q78 0 124 35.5t46 95.5q0 39-24 68t-65 48-94 34.5-112 32T339.5 645 228 696.5 134 770 69 877t-24 147q0 182 136 296t354 114z"/><glyph glyph-name="Sacute.ss12" horiz-adv-x="1126" d="m963 1864-250-320H446l177 320h340zm-428-430h419v-295H477q-59 0-94-28t-35-73q0-44 39.5-75t102-51T628 872t152.5-52.5 139-78.5 102-126.5T1061 426q0-87-31-163t-91-135.5T783 34 565 0H86v295h496q78 0 124 35.5t46 95.5q0 39-24 68t-65 48-94 34.5-112 32T339.5 645 228 696.5 134 770 69 877t-24 147q0 182 136 296t354 114z"/><glyph glyph-name="Scaron.ss12" horiz-adv-x="1126" d="m432 1544-199 320h256l101-142 102 142h256l-200-320H432zm-84-506q0-44 39.5-75t102-51T628 872t152.5-52.5 139-78.5 102-126.5T1061 426q0-87-31-163t-91-135.5T783 34 565 0H86v295h496q78 0 124 35.5t46 95.5q0 39-24 68t-65 48-94 34.5-112 32T339.5 645 228 696.5 134 770 69 877t-24 147q0 182 136 296t354 114h419v-295H477q-59 0-94-28t-35-73z"/><glyph glyph-name="Scedilla.ss12" horiz-adv-x="1126" d="M1061 426q0-109-46-199T870 75.5 631 2q47-59 68.5-119t17-111.5-32-96-73.5-74T498.5-442 354-449l-67 205q114-2 166.5 34t43 91.5T428 0H86v295h496q78 0 124 35.5t46 95.5q0 39-24 68t-65 48-94 34.5-112 32T339.5 645 228 696.5 134 770 69 877t-24 147q0 182 136 296t354 114h419v-295H477q-59 0-94-28t-35-73q0-44 39.5-75t102-51T628 872t152.5-52.5 139-78.5 102-126.5T1061 426z"/><glyph glyph-name="Scircumflex.ss12" horiz-adv-x="1126" d="m590 1692-101-142H233l199 320h316l200-320H692zm-242-654q0-44 39.5-75t102-51T628 872t152.5-52.5 139-78.5 102-126.5T1061 426q0-87-31-163t-91-135.5T783 34 565 0H86v295h496q78 0 124 35.5t46 95.5q0 39-24 68t-65 48-94 34.5-112 32T339.5 645 228 696.5 134 770 69 877t-24 147q0 182 136 296t354 114h419v-295H477q-59 0-94-28t-35-73z"/><glyph glyph-name="uni0218.ss12" horiz-adv-x="1126" d="M535 1434h419v-295H477q-59 0-94-28t-35-73q0-44 39.5-75t102-51T628 872t152.5-52.5 139-78.5 102-126.5T1061 426q0-87-31-163t-91-135.5T783 34 565 0H86v295h496q78 0 124 35.5t46 95.5q0 39-24 68t-65 48-94 34.5-112 32T339.5 645 228 696.5 134 770 69 877t-24 147q0 182 136 296t354 114zM731-131 481-453H215l174 322h342z"/><glyph glyph-name="D.ss16" horiz-adv-x="1503" d="M707 1434q204 0 370.5-92t261.5-255 95-364q0-205-95-370.5t-261.5-259T707 0H43v276h172v1158h492zm22-1143q170 0 281.5 123T1122 723q0 183-110.5 301.5T729 1143H520V291h209z"/><glyph glyph-name="Eth.ss16" horiz-adv-x="1503" d="M707 1434q204 0 370.5-92t261.5-255 95-364q0-205-95-370.5t-261.5-259T707 0H43v276h172v345H41v192h174v621h492zm22-1143q170 0 281.5 123T1122 723q0 183-110.5 301.5T729 1143H520V813h207V621H520V291h209z"/><glyph glyph-name="Dcaron.ss16" horiz-adv-x="1503" d="m547 1544-199 320h256l101-142 102 142h256l-201-320H547zm160-110q204 0 370.5-92t261.5-255 95-364q0-205-95-370.5t-261.5-259T707 0H43v276h172v1158h492zm22-1143q170 0 281.5 123T1122 723q0 183-110.5 301.5T729 1143H520V291h209z"/><glyph glyph-name="Dcroat.ss16" horiz-adv-x="1503" d="M707 1434q204 0 370.5-92t261.5-255 95-364q0-205-95-370.5t-261.5-259T707 0H43v276h172v345H41v192h174v621h492zm22-1143q170 0 281.5 123T1122 723q0 183-110.5 301.5T729 1143H520V813h207V621H520V291h209z"/><glyph glyph-name="J.ss17" horiz-adv-x="833" d="M725 1434V0H57v291h365v1143h303z"/><glyph glyph-name="Jcircumflex.ss17" horiz-adv-x="833" d="m571 1692-100-142H215l199 320h315l201-320H674zM422 291v1143h303V0H57v291h365z"/><glyph glyph-name="L.ss18" horiz-adv-x="1228" d="M520 291h656V0H43v276h172v1158h305V291z"/><glyph glyph-name="Lacute.ss18" horiz-adv-x="1228" d="m729 1864-250-320H213l176 320h340zM520 291h656V0H43v276h172v1158h305V291z"/><glyph glyph-name="Lcaron.ss18" horiz-adv-x="1228" d="m1083 1552-102-436H743l39 436h301zM520 291h656V0H43v276h172v1158h305V291z"/><glyph glyph-name="uni013B.ss18" horiz-adv-x="1228" d="M520 291h656V0H43v276h172v1158h305V291zM317-453l175 322h342L584-453H317z"/><glyph glyph-name="Ldot.ss18" horiz-adv-x="1228" d="M520 291h656V0H43v276h172v1158h305V291zm412 338q-78 0-132.5 53.5T745 813q0 76 54.5 129T932 995q79 0 132.5-52.5T1118 813t-53.5-130.5T932 629z"/><glyph glyph-name="Lslash.ss18" horiz-adv-x="1228" d="M520 291h656V0H43v276h172v295L43 492v262l172 80v600h305V975l320 149V864L520 715V291z"/><glyph glyph-name="M.swsh" horiz-adv-x="2078" d="m1743-2-281 926L1165-2H922L625 922 340-2H16l480 1436h245l299-922 301 922h244L2060-2h-317z"/><glyph glyph-name="G.titl" horiz-adv-x="1662" d="M1622 809V563h-131q-19-171-112.5-304T1134 53 799-20q-205 0-372 96T165 341 70 717t95 376 262.5 265 373.5 96q168 0 319-69t248-183 117-244h-342q-35 91-131 146t-211 55q-180 0-300-126.5T381 717q0-191 123.5-317T823 274q77 0 145.5 26.5t114 69T1154 463t26 100H778v246h844z"/><glyph glyph-name="Gbreve.titl" horiz-adv-x="1662" d="M766 1524q-150 0-246 90t-96 241h219q0-63 34.5-102t88.5-39 88.5 39 34.5 102h219q0-151-96-241t-246-90zm856-715V563h-131q-19-171-112.5-304T1134 53 799-20q-205 0-372 96T165 341 70 717t95 376 262.5 265 373.5 96q168 0 319-69t248-183 117-244h-342q-35 91-131 146t-211 55q-180 0-300-126.5T381 717q0-191 123.5-317T823 274q77 0 145.5 26.5t114 69T1154 463t26 100H778v246h844z"/><glyph glyph-name="Gcircumflex.titl" horiz-adv-x="1662" d="m764 1692-100-142H408l198 320h316l200-320H866zm858-883V563h-131q-19-171-112.5-304T1134 53 799-20q-205 0-372 96T165 341 70 717t95 376 262.5 265 373.5 96q168 0 319-69t248-183 117-244h-342q-35 91-131 146t-211 55q-180 0-300-126.5T381 717q0-191 123.5-317T823 274q77 0 145.5 26.5t114 69T1154 463t26 100H778v246h844z"/><glyph glyph-name="uni0122.titl" horiz-adv-x="1662" d="M1622 809V563h-131q-19-171-112.5-304T1134 53 799-20q-205 0-372 96T165 341 70 717t95 376 262.5 265 373.5 96q168 0 319-69t248-183 117-244h-342q-35 91-131 146t-211 55q-180 0-300-126.5T381 717q0-191 123.5-317T823 274q77 0 145.5 26.5t114 69T1154 463t26 100H778v246h844zM492-453l174 322h342L758-453H492z"/><glyph glyph-name="Gdotaccent.titl" horiz-adv-x="1662" d="M766 1536q-72 0-124 52t-52 124q0 71 52 122.5t124 51.5 124-51.5 52-122.5q0-72-52-124t-124-52zm856-727V563h-131q-19-171-112.5-304T1134 53 799-20q-205 0-372 96T165 341 70 717t95 376 262.5 265 373.5 96q168 0 319-69t248-183 117-244h-342q-35 91-131 146t-211 55q-180 0-300-126.5T381 717q0-191 123.5-317T823 274q77 0 145.5 26.5t114 69T1154 463t26 100H778v246h844z"/><glyph glyph-name="I.titl" horiz-adv-x="739" d="M664 1159H522V276h142V0H76v276h141v883H76v275h588v-275z"/><glyph glyph-name="IJ.titl" horiz-adv-x="1554" d="M664 1434v-275H522V276h142V0H76v276h141v883H76v275h588zm809 0v-275h-142V387q0-181-111-292T940-16q-87 0-143 10v280q12-2 51-2 87 0 132.5 46t45.5 151v690H885v275h588z"/><glyph glyph-name="Iacute.titl" horiz-adv-x="739" d="m741 1864-249-320H225l176 320h340zm-77-430v-275H522V276h142V0H76v276h141v883H76v275h588z"/><glyph glyph-name="Ibreve.titl" horiz-adv-x="739" d="M371 1524q-150 0-246 90t-96 241h219q0-63 34.5-102t88.5-39 88.5 39 34.5 102h219q0-151-96-241t-246-90zm293-90v-275H522V276h142V0H76v276h141v883H76v275h588z"/><glyph glyph-name="Icircumflex.titl" horiz-adv-x="739" d="m369 1692-101-142H12l199 320h315l201-320H471zm295-258v-275H522V276h142V0H76v276h141v883H76v275h588z"/><glyph glyph-name="Idieresis.titl" horiz-adv-x="739" d="M332 1712q0-72-52-124t-124-52-124 52-52 124q0 71 52 122.5t124 51.5 124-51.5 52-122.5zm254 174q72 0 124-51.5t52-122.5q0-72-52-124t-124-52q-71 0-123.5 52T410 1712q0 70 52.5 122t123.5 52zm78-452v-275H522V276h142V0H76v276h141v883H76v275h588z"/><glyph glyph-name="Idotaccent.titl" horiz-adv-x="739" d="M371 1536q-72 0-124 52t-52 124q0 71 52 122.5t124 51.5 124-51.5 52-122.5q0-72-52-124t-124-52zm293-377H522V276h142V0H76v276h141v883H76v275h588v-275z"/><glyph glyph-name="Igrave.titl" horiz-adv-x="739" d="M526 1544H260L10 1864h340zm138-385H522V276h142V0H76v276h141v883H76v275h588v-275z"/><glyph glyph-name="Imacron.titl" horiz-adv-x="739" d="M43 1786h655v-232H43v232zm621-352v-275H522V276h142V0H76v276h141v883H76v275h588z"/><glyph glyph-name="Iogonek.titl" horiz-adv-x="739" d="M664 1159H522V276h142V0H555q-62-14-98.5-44.5T420-113q0-29 22.5-47t59.5-18q35 0 73 14l72-182q-40-22-106.5-35.5T408-395q-105 0-171.5 60.5T170-180q0 95 72 180H76v276h141v883H76v275h588v-275z"/><glyph glyph-name="Itilde.titl" horiz-adv-x="739" d="m573 1882 234-39q-15-135-94-221t-183-86q-63 0-124.5 28t-107 55.5T229 1647q-29 0-47-28.5t-16-72.5l-234 41q12 135 90 220t185 85q59 0 120.5-27t106.5-54 66-27q32 0 51.5 26.5T573 1882zm91-448v-275H522V276h142V0H76v276h141v883H76v275h588z"/><glyph glyph-name="J.titl" horiz-adv-x="808" d="M733 1434v-275H592V387q0-181-111-292T201-16Q113-16 57-6v280q12-2 52-2 87 0 132.5 46T287 469v690H145v275h588z"/><glyph glyph-name="Jcircumflex.titl" horiz-adv-x="808" d="m430 1692-100-142H74l198 320h316l200-320H532zm303-258v-275H592V387q0-181-111-292T201-16Q113-16 57-6v280q12-2 52-2 87 0 132.5 46T287 469v690H145v275h588z"/><glyph glyph-name="T.titl" horiz-adv-x="1228" d="M1186 1143H766V276h141V0H322v276h141v867H45v291h1141v-291z"/><glyph glyph-name="Tbar.titl" horiz-adv-x="1228" d="M1186 1143H766V813h188V621H766V276h141V0H322v276h141v345H268v192h195v330H45v291h1141v-291z"/><glyph glyph-name="Tcaron.titl" horiz-adv-x="1228" d="m453 1544-199 320h256l100-142 103 142h256l-201-320H453zm733-401H766V276h141V0H322v276h141v867H45v291h1141v-291z"/><glyph glyph-name="uni0162.titl" horiz-adv-x="1228" d="M1186 1143H766V276h141V0H727q68-88 78.5-175t-29-150.5-127-99T446-449l-65 205q114-2 166.5 34t42.5 91.5T520 0H322v276h141v867H45v291h1141v-291z"/><glyph glyph-name="uni021A.titl" horiz-adv-x="1228" d="M1186 1143H766V276h141V0H322v276h141v867H45v291h1141v-291zM307-453l176 322h340L573-453H307z"/><glyph glyph-name="Y.titl" horiz-adv-x="1394" d="M854 606V276h141V0H408v276h141v330L16 1434h371l318-521 317 521h354z"/><glyph glyph-name="Yacute.titl" horiz-adv-x="1394" d="m1053 1864-250-320H537l174 320h342zM854 606V276h141V0H408v276h141v330L16 1434h371l318-521 317 521h354z"/><glyph glyph-name="Ycircumflex.titl" horiz-adv-x="1394" d="m682 1692-102-144H324l200 322h314l200-322H782zM854 606V276h141V0H408v276h141v330L16 1434h371l318-521 317 521h354z"/><glyph glyph-name="Ydieresis.titl" horiz-adv-x="1394" d="M467 1536q-72 0-124 52t-52 124q0 71 52 122.5t124 51.5 124-51.5 52-122.5q0-72-52-124t-124-52zm430 0q-72 0-124 52t-52 124q0 71 52 122.5t124 51.5 124-51.5 52-122.5q0-72-52-124t-124-52zm-43-930V276h141V0H408v276h141v330L16 1434h371l318-521 317 521h354z"/><glyph glyph-name="Ygrave.titl" horiz-adv-x="1394" d="M838 1544H571l-249 320h340zm16-938V276h141V0H408v276h141v330L16 1434h371l318-521 317 521h354z"/><glyph glyph-name="i.loclTRK" horiz-adv-x="493" d="M246 1493q72 0 124-51.5t52-122.5q0-72-52-124t-124-52-124 52-52 124q0 71 52 122.5t124 51.5zm-144-487h289V0H102v1006z"/><glyph glyph-name="eth.alt" horiz-adv-x="1204" d="M1022 889q60-97 91.5-196t31.5-179q0-144-74-268T870.5 49.5 596-23q-147 0-273 72.5T123 246 49 514q0 219 141.5 364.5T543 1024q29 0 59-6l-113 176-243-84-58 160 207 71-112 179h348l49-80 293 100 57-160-258-88zM596 268q105 0 178.5 72T848 516q0 106-73 179t-177 73q-106 0-180-73t-74-179q0-103 73.5-175.5T596 268z"/><glyph glyph-name="germandbls.calt" horiz-adv-x="1288" d="M639 1454q224 0 375.5-121t165.5-299L942 809q133-31 215-129.5t82-226.5q0-186-137.5-319.5T772 0H526v291h244q66 0 113 44.5T930 446q0 72-45 115t-119 43H571l-2 189 271 268q-18 42-70 70t-117 28q-106 0-172.5-83T414 858V0H109v858q0 268 144.5 432T639 1454z"/><glyph glyph-name="iacute_j.loclNLD" horiz-adv-x="987" d="m616 1436-249-320H100l176 320h340zm494 0-250-320H594l176 320h340zM102 1006h289V0H102v1006zM451-127q3 0 14-1t18-1q113 0 113 127v1008h289V-31q0-167-101.5-263.5T508-391q-11 0-57 4v260z"/><glyph glyph-name="a.ss01" horiz-adv-x="1028" d="M502 1026q214 0 328-110.5T944 618V0H672v125Q585-20 385-20q-133 0-222 87T74 281q0 155 126 238t343 83h129v35q0 70-46.5 113T502 793q-69 0-116.5-37T334 657H80q14 155 136 262t286 107zm-49-821q94 0 156.5 55T672 391v31H528q-96 0-149-29.5T326 307q0-46 34.5-74t92.5-28z"/><glyph glyph-name="aacute.ss01" horiz-adv-x="1028" d="m893 1436-250-320H377l176 320h340zm-391-410q214 0 328-110.5T944 618V0H672v125Q585-20 385-20q-133 0-222 87T74 281q0 155 126 238t343 83h129v35q0 70-46.5 113T502 793q-69 0-116.5-37T334 657H80q14 155 136 262t286 107zm-49-821q94 0 156.5 55T672 391v31H528q-96 0-149-29.5T326 307q0-46 34.5-74t92.5-28z"/><glyph glyph-name="abreve.ss01" horiz-adv-x="1028" d="M522 1096q-150 0-246 90t-96 241h219q0-63 34.5-102t88.5-39 88.5 39 34.5 102h219q0-151-96-241t-246-90zm-20-70q214 0 328-110.5T944 618V0H672v125Q585-20 385-20q-133 0-222 87T74 281q0 155 126 238t343 83h129v35q0 70-46.5 113T502 793q-69 0-116.5-37T334 657H80q14 155 136 262t286 107zm-49-821q94 0 156.5 55T672 391v31H528q-96 0-149-29.5T326 307q0-46 34.5-74t92.5-28z"/><glyph glyph-name="acircumflex.ss01" horiz-adv-x="1028" d="m520 1264-100-142H164l198 320h316l201-320H623zm-18-238q214 0 328-110.5T944 618V0H672v125Q585-20 385-20q-133 0-222 87T74 281q0 155 126 238t343 83h129v35q0 70-46.5 113T502 793q-69 0-116.5-37T334 657H80q14 155 136 262t286 107zm-49-821q94 0 156.5 55T672 391v31H528q-96 0-149-29.5T326 307q0-46 34.5-74t92.5-28z"/><glyph glyph-name="adieresis.ss01" horiz-adv-x="1028" d="M305 1143q-72 0-124 52t-52 124q0 71 52 122.5t124 51.5 124-51.5 52-122.5q0-72-52-124t-124-52zm430 0q-71 0-123.5 52T559 1319q0 70 52.5 122t123.5 52q72 0 124-51.5t52-122.5q0-72-52-124t-124-52zm-233-117q214 0 328-110.5T944 618V0H672v125Q585-20 385-20q-133 0-222 87T74 281q0 155 126 238t343 83h129v35q0 70-46.5 113T502 793q-69 0-116.5-37T334 657H80q14 155 136 262t286 107zm-49-821q94 0 156.5 55T672 391v31H528q-96 0-149-29.5T326 307q0-46 34.5-74t92.5-28z"/><glyph glyph-name="agrave.ss01" horiz-adv-x="1028" d="M678 1116H412l-250 320h340zm-176-90q214 0 328-110.5T944 618V0H672v125Q585-20 385-20q-133 0-222 87T74 281q0 155 126 238t343 83h129v35q0 70-46.5 113T502 793q-69 0-116.5-37T334 657H80q14 155 136 262t286 107zm-49-821q94 0 156.5 55T672 391v31H528q-96 0-149-29.5T326 307q0-46 34.5-74t92.5-28z"/><glyph glyph-name="amacron.ss01" horiz-adv-x="1028" d="M850 1358v-232H195v232h655zm-348-332q214 0 328-110.5T944 618V0H672v125Q585-20 385-20q-133 0-222 87T74 281q0 155 126 238t343 83h129v35q0 70-46.5 113T502 793q-69 0-116.5-37T334 657H80q14 155 136 262t286 107zm-49-821q94 0 156.5 55T672 391v31H528q-96 0-149-29.5T326 307q0-46 34.5-74t92.5-28z"/><glyph glyph-name="aogonek.ss01" horiz-adv-x="1028" d="m965-164 71-182q-40-22-106.5-35.5T797-395q-105 0-171.5 60.5T559-180q0 125 113 221v84Q585-20 385-20q-133 0-222 87T74 281q0 155 126 238t343 83h129v35q0 70-46.5 113T502 793q-69 0-116.5-37T334 657H80q14 155 136 262t286 107q214 0 328-110.5T944 618V0q-62-14-98.5-44.5T809-113q0-29 22.5-47t59.5-18q36 0 74 14zM453 205q94 0 156.5 55T672 391v31H528q-96 0-149-29.5T326 307q0-46 34.5-74t92.5-28z"/><glyph glyph-name="aring.ss01" horiz-adv-x="1028" d="M522 1104q-124 0-207.5 80.5T231 1384q0 120 83.5 201.5T522 1667t208.5-81.5T815 1384q0-119-84.5-199.5T522 1104zm0 395q-50 0-83-33t-33-82q0-47 33.5-79.5T522 1272t83 32.5 34 79.5q0 49-33.5 82t-83.5 33zm-20-473q214 0 328-110.5T944 618V0H672v125Q585-20 385-20q-133 0-222 87T74 281q0 155 126 238t343 83h129v35q0 70-46.5 113T502 793q-69 0-116.5-37T334 657H80q14 155 136 262t286 107zm-49-821q94 0 156.5 55T672 391v31H528q-96 0-149-29.5T326 307q0-46 34.5-74t92.5-28z"/><glyph glyph-name="atilde.ss01" horiz-adv-x="1028" d="M381 1219q-29 0-47-28.5t-17-72.5l-233 41q12 135 89.5 220t184.5 85q59 0 120.5-27t106.5-54 66-27q32 0 52 27t22 71l233-39q-15-135-93.5-221T682 1108q-63 0-124.5 28t-107 55.5T381 1219zm121-193q214 0 328-110.5T944 618V0H672v125Q585-20 385-20q-133 0-222 87T74 281q0 155 126 238t343 83h129v35q0 70-46.5 113T502 793q-69 0-116.5-37T334 657H80q14 155 136 262t286 107zm-49-821q94 0 156.5 55T672 391v31H528q-96 0-149-29.5T326 307q0-46 34.5-74t92.5-28z"/><glyph glyph-name="ae.ss01" horiz-adv-x="1857" d="M1798 537q0-4-6-103h-750q15-98 85-156.5t171-58.5q83 0 136 32.5t67 86.5h283q-25-162-155.5-260T1307-20q-212 0-363 141V0H672v125Q585-20 385-20q-133 0-222 87T74 281q0 155 126 238t343 83h129v35q0 70-46.5 113T502 793q-69 0-116.5-37T334 657H80q14 155 136 262t286 107q282 0 391-190 72 89 179 139.5t231 50.5q134 0 248-64t180.5-177 66.5-248zm-741 81h440q-7 76-67 125.5T1288 793q-85 0-145-44t-86-131zM453 205q94 0 156.5 55T672 391v31H528q-96 0-149-29.5T326 307q0-46 34.5-74t92.5-28z"/><glyph glyph-name="aeacute.ss01" horiz-adv-x="1857" d="m1298 1436-249-320H782l176 320h340zm500-899q0-4-6-103h-750q15-98 85-156.5t171-58.5q83 0 136 32.5t67 86.5h283q-25-162-155.5-260T1307-20q-212 0-363 141V0H672v125Q585-20 385-20q-133 0-222 87T74 281q0 155 126 238t343 83h129v35q0 70-46.5 113T502 793q-69 0-116.5-37T334 657H80q14 155 136 262t286 107q282 0 391-190 72 89 179 139.5t231 50.5q134 0 248-64t180.5-177 66.5-248zm-741 81h440q-7 76-67 125.5T1288 793q-85 0-145-44t-86-131zM453 205q94 0 156.5 55T672 391v31H528q-96 0-149-29.5T326 307q0-46 34.5-74t92.5-28z"/><glyph glyph-name="a.ss02" horiz-adv-x="1040" d="M123 1006h815V0H649v125Q562-20 362-20q-133 0-222 87T51 281q0 155 126 238t343 83h129v160H123v244zm307-801q94 0 156.5 55T649 391v31H506q-97 0-150-29.5T303 307q0-46 34.5-74t92.5-28z"/><glyph glyph-name="aacute.ss02" horiz-adv-x="1040" d="m899 1436-250-320H383l176 320h340zm-776-430h815V0H649v125Q562-20 362-20q-133 0-222 87T51 281q0 155 126 238t343 83h129v160H123v244zm307-801q94 0 156.5 55T649 391v31H506q-97 0-150-29.5T303 307q0-46 34.5-74t92.5-28z"/><glyph glyph-name="abreve.ss02" horiz-adv-x="1040" d="M526 1096q-150 0-246 90t-96 241h219q0-63 34.5-102t88.5-39 88.5 39 34.5 102h219q0-151-96-241t-246-90zm-403-90h815V0H649v125Q562-20 362-20q-133 0-222 87T51 281q0 155 126 238t343 83h129v160H123v244zm307-801q94 0 156.5 55T649 391v31H506q-97 0-150-29.5T303 307q0-46 34.5-74t92.5-28z"/><glyph glyph-name="acircumflex.ss02" horiz-adv-x="1040" d="m526 1264-100-142H170l199 320h315l201-320H629zm-403-258h815V0H649v125Q562-20 362-20q-133 0-222 87T51 281q0 155 126 238t343 83h129v160H123v244zm307-801q94 0 156.5 55T649 391v31H506q-97 0-150-29.5T303 307q0-46 34.5-74t92.5-28z"/><glyph glyph-name="adieresis.ss02" horiz-adv-x="1040" d="M311 1143q-72 0-124 52t-52 124q0 71 52 122.5t124 51.5 124-51.5 52-122.5q0-72-52-124t-124-52zm430 0q-71 0-123.5 52T565 1319q0 70 52.5 122t123.5 52q72 0 124.5-51.5T918 1319q0-72-52.5-124T741 1143zm-618-137h815V0H649v125Q562-20 362-20q-133 0-222 87T51 281q0 155 126 238t343 83h129v160H123v244zm307-801q94 0 156.5 55T649 391v31H506q-97 0-150-29.5T303 307q0-46 34.5-74t92.5-28z"/><glyph glyph-name="agrave.ss02" horiz-adv-x="1021" d="M676 1116H410l-250 320h340zm-553-110h815V0H649v125Q562-20 362-20q-133 0-222 87T51 281q0 155 126 238t343 83h129v160H123v244zm307-801q94 0 156.5 55T649 391v31H506q-97 0-150-29.5T303 307q0-46 34.5-74t92.5-28z"/><glyph glyph-name="amacron.ss02" horiz-adv-x="1040" d="M854 1358v-232H199v232h655zm-731-352h815V0H649v125Q562-20 362-20q-133 0-222 87T51 281q0 155 126 238t343 83h129v160H123v244zm307-801q94 0 156.5 55T649 391v31H506q-97 0-150-29.5T303 307q0-46 34.5-74t92.5-28z"/><glyph glyph-name="aogonek.ss02" horiz-adv-x="1040" d="m958-164 72-182q-40-22-106.5-35.5T791-395q-105 0-171.5 60.5T553-180q0 114 96 207v98Q562-20 362-20q-133 0-222 87T51 281q0 155 126 238t343 83h129v160H123v244h815V0q-62-14-98.5-44.5T803-113q0-29 22.5-47t59.5-18q35 0 73 14zM430 205q94 0 156.5 55T649 391v31H506q-97 0-150-29.5T303 307q0-46 34.5-74t92.5-28z"/><glyph glyph-name="aring.ss02" horiz-adv-x="1040" d="M528 1104q-124 0-207 80.5T238 1384q0 120 83 201.5t207 81.5 208.5-81.5T821 1384q0-119-84.5-199.5T528 1104zm0 395q-50 0-83-33t-33-82q0-47 33.5-79.5T528 1272t83 32.5 34 79.5q0 49-33.5 82t-83.5 33zm-405-493h815V0H649v125Q562-20 362-20q-133 0-222 87T51 281q0 155 126 238t343 83h129v160H123v244zm307-801q94 0 156.5 55T649 391v31H506q-97 0-150-29.5T303 307q0-46 34.5-74t92.5-28z"/><glyph glyph-name="atilde.ss02" horiz-adv-x="1040" d="M387 1219q-29 0-47-28.5t-16-72.5l-234 41q12 135 90 220t185 85q59 0 120-27t106-54 66-27q32 0 52 27t22 71l234-39q-15-135-94-221t-183-86q-63 0-124.5 28t-107 55.5T387 1219zM123 762v244h815V0H649v125Q562-20 362-20q-133 0-222 87T51 281q0 155 126 238t343 83h129v160H123zm307-557q94 0 156.5 55T649 391v31H506q-97 0-150-29.5T303 307q0-46 34.5-74t92.5-28z"/><glyph glyph-name="ae.ss02" horiz-adv-x="1777" d="M1718 537q0-4-6-103H963q15-98 85-156.5t171-58.5q83 0 135.5 32.5T1421 338h283q-25-162-155.5-260T1227-20q-219 0-350 153V0H649v125Q562-20 362-20q-133 0-222 87T51 281q0 158 127.5 244.5T537 612h112v150H123v244h754V879q131 147 346 147 134 0 248-64t180.5-177 66.5-248zm-741 81h440q-7 76-67 125.5T1208 793q-85 0-145-44t-86-131zM430 205q94 0 156.5 55T649 391v41H520q-109 0-163-33t-54-92q0-46 34.5-74t92.5-28z"/><glyph glyph-name="aeacute.ss02" horiz-adv-x="1777" d="m1257 1436-249-320H741l177 320h339zm461-899q0-4-6-103H963q15-98 85-156.5t171-58.5q83 0 135.5 32.5T1421 338h283q-25-162-155.5-260T1227-20q-219 0-350 153V0H649v125Q562-20 362-20q-133 0-222 87T51 281q0 158 127.5 244.5T537 612h112v150H123v244h754V879q131 147 346 147 134 0 248-64t180.5-177 66.5-248zm-741 81h440q-7 76-67 125.5T1208 793q-85 0-145-44t-86-131zM430 205q94 0 156.5 55T649 391v41H520q-109 0-163-33t-54-92q0-46 34.5-74t92.5-28z"/><glyph glyph-name="c.ss03" horiz-adv-x="937" d="M856 731H391V276h465V0H102v1006h754V731z"/><glyph glyph-name="cacute.ss03" horiz-adv-x="937" d="m862 1436-250-320H346l176 320h340zm-6-705H391V276h465V0H102v1006h754V731z"/><glyph glyph-name="ccaron.ss03" horiz-adv-x="937" d="m332 1116-199 320h256l100-142 103 142h256l-201-320H332zm524-385H391V276h465V0H102v1006h754V731z"/><glyph glyph-name="ccedilla.ss03" horiz-adv-x="937" d="M856 731H391V276h465V0H629q55-70 74-141t.5-129-64-102-121-64.5T350-449l-67 205q114-2 166.5 34t43 91.5T424 0H102v1006h754V731z"/><glyph glyph-name="ccircumflex.ss03" horiz-adv-x="937" d="m489 1264-100-142H133l199 320h315l201-320H592zm367-533H391V276h465V0H102v1006h754V731z"/><glyph glyph-name="cdotaccent.ss03" horiz-adv-x="937" d="M492 1493q72 0 124-51.5t52-122.5q0-72-52-124t-124-52-124.5 52-52.5 124q0 71 52.5 122.5T492 1493zm364-762H391V276h465V0H102v1006h754V731z"/><glyph glyph-name="g.ss04" horiz-adv-x="1220" d="M829 1006h289V-334H215v242h614v299Q722 49 516 49q-125 0-230 65.5T120 293 59 539q0 201 133.5 344T516 1026q207 0 313-156v136zM582 307q103 0 174 67t71 165-71 164.5T582 770t-174.5-67T336 539t71.5-164.5T582 307z"/><glyph glyph-name="gbreve.ss04" horiz-adv-x="1220" d="M602 1096q-150 0-246 90t-96 241h219q0-63 34.5-102t88.5-39 88.5 39 34.5 102h219q0-151-96-241t-246-90zm227-90h289V-334H215v242h614v299Q722 49 516 49q-125 0-230 65.5T120 293 59 539q0 201 133.5 344T516 1026q207 0 313-156v136zM582 307q103 0 174 67t71 165-71 164.5T582 770t-174.5-67T336 539t71.5-164.5T582 307z"/><glyph glyph-name="gcircumflex.ss04" horiz-adv-x="1220" d="m616 1264-100-142H260l199 320h315l201-320H719zm213-258h289V-334H215v242h614v299Q722 49 516 49q-125 0-230 65.5T120 293 59 539q0 201 133.5 344T516 1026q207 0 313-156v136zM582 307q103 0 174 67t71 165-71 164.5T582 770t-174.5-67T336 539t71.5-164.5T582 307z"/><glyph glyph-name="uni0123.ss04" horiz-adv-x="1220" d="m989 1452-174-319H473l250 319h266zm-160-446h289V-334H215v242h614v299Q722 49 516 49q-125 0-230 65.5T120 293 59 539q0 201 133.5 344T516 1026q207 0 313-156v136zM582 307q103 0 174 67t71 165-71 164.5T582 770t-174.5-67T336 539t71.5-164.5T582 307z"/><glyph glyph-name="gdotaccent.ss04" horiz-adv-x="1220" d="M602 1143q-72 0-124 52t-52 124q0 71 52 122.5t124 51.5 124-51.5 52-122.5q0-72-52-124t-124-52zm227-137h289V-334H215v242h614v299Q722 49 516 49q-125 0-230 65.5T120 293 59 539q0 201 133.5 344T516 1026q207 0 313-156v136zM582 307q103 0 174 67t71 165-71 164.5T582 770t-174.5-67T336 539t71.5-164.5T582 307z"/><glyph glyph-name="h.ss05" horiz-adv-x="1140" d="M391 1434v-428h647V0H750v731H391V0H102v1434h289z"/><glyph glyph-name="hbar.ss05" horiz-adv-x="1140" d="M391 1006h647V0H750v731H391V0H102v1122H-96v193h198v119h289v-119h199v-193H391v-116z"/><glyph glyph-name="hcircumflex.ss05" horiz-adv-x="1140" d="m246 1692-101-142h-256l199 320h315l201-320H348zm145-686h647V0H750v731H391V0H102v1434h289v-428z"/><glyph glyph-name="j.ss06" horiz-adv-x="493" d="M246 1493q72 0 124-51.5t52-122.5q0-72-52-124t-124-52-124 52-52 124q0 71 52 122.5t124 51.5zm145-487V-334H102v1340h289z"/><glyph glyph-name="uni0237.ss06" horiz-adv-x="493" d="M391 1006V-334H102v1340h289z"/><glyph glyph-name="jcircumflex.ss06" horiz-adv-x="493" d="m246 1264-101-142h-256l199 320h315l201-320H348zM102-334v1340h289V-334H102z"/><glyph glyph-name="l.ss07" horiz-adv-x="587" d="M391 1434V276h152V0H102v1434h289z"/><glyph glyph-name="lacute.ss07" horiz-adv-x="587" d="m625 1864-250-320H109l176 320h340zm-234-430V276h152V0H102v1434h289z"/><glyph glyph-name="lcaron.ss07" horiz-adv-x="796" d="m467 1116 39 436h301l-102-436H467zm-76 318V276h152V0H102v1434h289z"/><glyph glyph-name="uni013C.ss07" horiz-adv-x="587" d="M391 1434V276h152V0H102v1434h289zM553-131 303-453H37l174 322h342z"/><glyph glyph-name="ldot.ss07" horiz-adv-x="837" d="M391 1434V276h152V0H102v1434h289zm262-846q-79 0-132.5 53.5T467 772t53.5 129.5T653 954q78 0 132.5-53T840 772q0-77-54.5-130.5T653 588z"/><glyph glyph-name="lslash.ss07" horiz-adv-x="587" d="M391 276h152V0H102v584l-122-58v267l122 57v584h289V983l123 57V774l-123-57V276z"/><glyph glyph-name="m.ss08" horiz-adv-x="1732" d="M1630 1006V0h-289v731h-331V0H721v731H391V0H102v1006h1528z"/><glyph glyph-name="n.ss09" horiz-adv-x="1140" d="M1038 1006V0H750v731H391V0H102v1006h936z"/><glyph glyph-name="nacute.ss09" horiz-adv-x="1140" d="m940 1436-250-320H424l176 320h340zm98-430V0H750v731H391V0H102v1006h936z"/><glyph glyph-name="ncaron.ss09" horiz-adv-x="1140" d="m412 1116-199 320h256l100-142 103 142h256l-201-320H412zm-310-110h936V0H750v731H391V0H102v1006z"/><glyph glyph-name="uni0146.ss09" horiz-adv-x="1140" d="M1038 1006V0H750v731H391V0H102v1006h936zM782-131 532-453H266l174 322h342z"/><glyph glyph-name="eng.ss09" horiz-adv-x="1153" d="M102 1006h936V-31q0-167-101-263.5T662-391q-23 0-101 8l39 258q20-4 37-4 113 0 113 127v733H391V0H102v1006z"/><glyph glyph-name="ntilde.ss09" horiz-adv-x="1140" d="M131 1159q12 135 90 220t185 85q59 0 120-27t106-54 66-27q32 0 52 27t22 71l234-39q-15-135-94-221t-183-86q-63 0-124.5 28t-107 55.5T428 1219q-29 0-47-28.5t-16-72.5zm907-153V0H750v731H391V0H102v1006h936z"/><glyph glyph-name="o.ss10" horiz-adv-x="1136" d="M1034 1006V0H102v1006h932zM748 731H389V276h359v455z"/><glyph glyph-name="oacute.ss10" horiz-adv-x="1136" d="m940 1436-250-320H424l176 320h340zm94-430V0H102v1006h932zM748 731H389V276h359v455z"/><glyph glyph-name="obreve.ss10" horiz-adv-x="1136" d="M911 1427q0-151-96-241t-246-90-246 90-96 241h219q0-63 34.5-102t88.5-39 88.5 39 34.5 102h219zm123-421V0H102v1006h932zM748 731H389V276h359v455z"/><glyph glyph-name="ocircumflex.ss10" horiz-adv-x="1136" d="m569 1264-100-142H213l199 320h315l201-320H672zm-467-258h932V0H102v1006zm646-730v455H389V276h359z"/><glyph glyph-name="odieresis.ss10" horiz-adv-x="1136" d="M354 1493q72 0 124-51.5t52-122.5q0-72-52-124t-124-52-124 52-52 124q0 71 52 122.5t124 51.5zm430 0q72 0 124.5-51.5T961 1319q0-72-52.5-124T784 1143q-71 0-123.5 52T608 1319q0 70 52.5 122t123.5 52zm250-487V0H102v1006h932zM748 731H389V276h359v455z"/><glyph glyph-name="ograve.ss10" horiz-adv-x="1136" d="M209 1436h340l176-320H459zm825-430V0H102v1006h932zM748 731H389V276h359v455z"/><glyph glyph-name="ohungarumlaut.ss10" horiz-adv-x="1136" d="m487 1116 125 326H315l-122-326h294zm445 0 125 326H760l-125-326h297zm102-110V0H102v1006h932zM748 731H389V276h359v455z"/><glyph glyph-name="omacron.ss10" horiz-adv-x="1136" d="M242 1126v232h655v-232H242zm792-120V0H102v1006h932zM748 731H389V276h359v455z"/><glyph glyph-name="oslash.ss10" horiz-adv-x="1327" d="M1130 913V0H358L240-139 102-18l97 114v910h770l116 139 140-121zM438 776V379l336 397H438zm113-547h340v402z"/><glyph glyph-name="otilde.ss10" horiz-adv-x="1136" d="M131 1159q12 135 90 220t185 85q59 0 120-27t106-54 66-27q32 0 52 27t22 71l234-39q-15-135-94-221t-183-86q-63 0-124.5 28t-107 55.5T428 1219q-29 0-47-28.5t-16-72.5zm903-153V0H102v1006h932zM748 731H389V276h359v455z"/><glyph glyph-name="oe.ss10" horiz-adv-x="1939" d="M1880 537q0-4-6-103h-750q15-98 85-156.5t171-58.5q83 0 136 32.5t67 86.5h283q-25-162-155.5-260T1389-20q-209 0-355 133V0H102v1006h932V897q148 129 350 129 134 0 248-64t181-177 67-248zm-741 81h440q-7 76-67 125.5T1370 793q-85 0-145-44t-86-131zM748 276v455H389V276h359z"/><glyph glyph-name="r.ss11" horiz-adv-x="755" d="M719 1006V731H389V0H102v1006h617z"/><glyph glyph-name="racute.ss11" horiz-adv-x="755" d="m760 1436-250-320H244l176 320h340zm-41-430V731H389V0H102v1006h617z"/><glyph glyph-name="rcaron.ss11" horiz-adv-x="755" d="M231 1116 33 1436h256l100-142 103 142h256l-201-320H231zM102 0v1006h617V731H389V0H102z"/><glyph glyph-name="uni0157.ss11" horiz-adv-x="755" d="M719 1006V731H389V0H102v1006h617zM446-131 197-453H-70l174 322h342z"/><glyph glyph-name="s.ss12" horiz-adv-x="905" d="M489 0H90v276h406q44 0 65 12t21 40q0 20-23 32t-60.5 17.5-85.5 13-97.5 16-97.5 29-85.5 50-60.5 81T49 686q0 152 107 236t297 84h358V731H408q-76 0-76-47 0-22 29.5-35t76.5-21 103.5-17.5 113-29 103.5-50 76.5-87T864 311q0-143-98-227T489 0z"/><glyph glyph-name="sacute.ss12" horiz-adv-x="905" d="m846 1436-250-320H330l176 320h340zM489 0H90v276h406q44 0 65 12t21 40q0 20-23 32t-60.5 17.5-85.5 13-97.5 16-97.5 29-85.5 50-60.5 81T49 686q0 152 107 236t297 84h358V731H408q-76 0-76-47 0-22 29.5-35t76.5-21 103.5-17.5 113-29 103.5-50 76.5-87T864 311q0-143-98-227T489 0z"/><glyph glyph-name="scaron.ss12" horiz-adv-x="905" d="m315 1116-198 320h256l100-142 102 142h256l-200-320H315zm17-432q0-22 29.5-35t76.5-21 103.5-17.5 113-29 103.5-50 76.5-87T864 311q0-143-98-227T489 0H90v276h406q44 0 65 12t21 40q0 20-23 32t-60.5 17.5-85.5 13-97.5 16-97.5 29-85.5 50-60.5 81T49 686q0 152 107 236t297 84h358V731H408q-76 0-76-47z"/><glyph glyph-name="scedilla.ss12" horiz-adv-x="905" d="M864 311q0-127-77-207.5T567 4q56-70 76-141.5t2-130-63-103T460.5-436 291-449l-68 205q69-1 117 12t69.5 36.5 23.5 55T417.5-73 365 0H90v276h406q44 0 65 12t21 40q0 20-23 32t-60.5 17.5-85.5 13-97.5 16-97.5 29-85.5 50-60.5 81T49 686q0 152 107 236t297 84h358V731H408q-76 0-76-47 0-22 29.5-35t76.5-21 103.5-17.5 113-29 103.5-50 76.5-87T864 311z"/><glyph glyph-name="scircumflex.ss12" horiz-adv-x="905" d="m473 1264-100-142H117l198 320h316l200-320H575zM332 684q0-22 29.5-35t76.5-21 103.5-17.5 113-29 103.5-50 76.5-87T864 311q0-143-98-227T489 0H90v276h406q44 0 65 12t21 40q0 20-23 32t-60.5 17.5-85.5 13-97.5 16-97.5 29-85.5 50-60.5 81T49 686q0 152 107 236t297 84h358V731H408q-76 0-76-47z"/><glyph glyph-name="uni0219.ss12" horiz-adv-x="905" d="M489 0H90v276h406q44 0 65 12t21 40q0 20-23 32t-60.5 17.5-85.5 13-97.5 16-97.5 29-85.5 50-60.5 81T49 686q0 152 107 236t297 84h358V731H408q-76 0-76-47 0-22 29.5-35t76.5-21 103.5-17.5 113-29 103.5-50 76.5-87T864 311q0-143-98-227T489 0zm179-131L418-453H152l174 322h342z"/><glyph glyph-name="t.ss13" horiz-adv-x="774" d="M737 1006V731H528V0H240v731H31v275h209v262h288v-262h209z"/><glyph glyph-name="tbar.ss13" horiz-adv-x="774" d="M737 731H528V547h156V389H528V0H240v389H84v158h156v184H31v275h209v262h288v-262h209V731z"/><glyph glyph-name="tcaron.ss13" horiz-adv-x="774" d="M643 1552h301l-102-436H604zm-115-284v-262h209V731H528V0H240v731H31v275h209v262h288z"/><glyph glyph-name="uni0163.ss13" horiz-adv-x="774" d="M737 731H528V18q76-90 91.5-180.5T597-319 470.5-422.5 262-449l-65 205q114-2 166.5 34t42.5 91.5T336 0h-96v731H31v275h209v262h288v-262h209V731z"/><glyph glyph-name="uni021B.ss13" horiz-adv-x="774" d="M528 1006h209V731H528V0H240v731H31v275h209v262h288v-262zM82-453l174 322h342L348-453H82z"/><glyph glyph-name="u.ss14" horiz-adv-x="1175" d="M1067 1006V467q0-215-133.5-351T588-20q-211 0-344 136T111 467v539h286V467q0-97 51.5-154T588 256t139 57 51 154v539h289z"/><glyph glyph-name="uacute.ss14" horiz-adv-x="1175" d="m961 1436-250-320H444l177 320h340zm106-430V467q0-215-133.5-351T588-20q-211 0-344 136T111 467v539h286V467q0-97 51.5-154T588 256t139 57 51 154v539h289z"/><glyph glyph-name="ucircumflex.ss14" horiz-adv-x="1175" d="m590 1264-101-142H233l199 320h316l200-320H692zm188-258h289V467q0-215-133.5-351T588-20q-211 0-344 136T111 467v539h286V467q0-97 51.5-154T588 256t139 57 51 154v539z"/><glyph glyph-name="udieresis.ss14" horiz-adv-x="1175" d="M375 1493q72 0 124-51.5t52-122.5q0-72-52-124t-124-52-124 52-52 124q0 71 52 122.5t124 51.5zm430 0q72 0 124-51.5t52-122.5q0-72-52-124t-124-52q-71 0-123.5 52T629 1319q0 70 52.5 122t123.5 52zm262-487V467q0-215-133.5-351T588-20q-211 0-344 136T111 467v539h286V467q0-97 51.5-154T588 256t139 57 51 154v539h289z"/><glyph glyph-name="ugrave.ss14" horiz-adv-x="1175" d="M229 1436h340l176-320H479zm838-430V467q0-215-133.5-351T588-20q-211 0-344 136T111 467v539h286V467q0-97 51.5-154T588 256t139 57 51 154v539h289z"/><glyph glyph-name="uhungarumlaut.ss14" horiz-adv-x="1175" d="m508 1116 125 326H336l-123-326h295zm444 0 125 326H780l-125-326h297zm115-110V467q0-215-133.5-351T588-20q-211 0-344 136T111 467v539h286V467q0-97 51.5-154T588 256t139 57 51 154v539h289z"/><glyph glyph-name="umacron.ss14" horiz-adv-x="1175" d="M262 1126v232h656v-232H262zm805-120V467q0-215-133.5-351T588-20q-211 0-344 136T111 467v539h286V467q0-97 51.5-154T588 256t139 57 51 154v539h289z"/><glyph glyph-name="uogonek.ss14" horiz-adv-x="1175" d="M778 1006h289V467q0-182-98-310T707-8q-50-15-78.5-43T600-113q0-29 22.5-47t59.5-18q36 0 74 14l71-182q-40-22-106.5-35.5T588-395q-105 0-171.5 60.5T350-180q0 102 76 184-145 46-230 170t-85 293v539h286V467q0-97 51.5-154T588 256t139 57 51 154v539z"/><glyph glyph-name="uring.ss14" horiz-adv-x="1175" d="M592 1104q-124 0-207.5 80.5T301 1384q0 120 83.5 201.5T592 1667t208.5-81.5T885 1384q0-119-84.5-199.5T592 1104zm0 168q49 0 83 32.5t34 79.5q0 49-33.5 82t-83.5 33-83.5-33-33.5-82q0-47 34-79.5t83-32.5zm475-266V467q0-215-133.5-351T588-20q-211 0-344 136T111 467v539h286V467q0-97 51.5-154T588 256t139 57 51 154v539h289z"/><glyph glyph-name="utilde.ss14" horiz-adv-x="1175" d="M154 1159q12 135 89.5 220t184.5 85q59 0 120.5-27t106.5-54 66-27q32 0 52 27t22 71l233-39q-15-135-93.5-221T752 1108q-63 0-124.5 28t-107 55.5T451 1219q-29 0-47-28.5t-17-72.5zm913-153V467q0-215-133.5-351T588-20q-211 0-344 136T111 467v539h286V467q0-97 51.5-154T588 256t139 57 51 154v539h289z"/><glyph glyph-name="u.ss15" horiz-adv-x="1140" d="M1038 0H102v1006h289V274h359v732h288V0z"/><glyph glyph-name="uacute.ss15" horiz-adv-x="1140" d="m942 1436-250-320H426l176 320h340zM1038 0H102v1006h289V274h359v732h288V0z"/><glyph glyph-name="ucircumflex.ss15" horiz-adv-x="1140" d="m569 1264-100-142H213l199 320h315l201-320H672zm181-258h288V0H102v1006h289V274h359v732z"/><glyph glyph-name="udieresis.ss15" horiz-adv-x="1140" d="M354 1493q72 0 124-51.5t52-122.5q0-72-52-124t-124-52-124 52-52 124q0 71 52 122.5t124 51.5zm430 0q72 0 124.5-51.5T961 1319q0-72-52.5-124T784 1143q-71 0-123.5 52T608 1319q0 70 52.5 122t123.5 52zM1038 0H102v1006h289V274h359v732h288V0z"/><glyph glyph-name="ugrave.ss15" horiz-adv-x="1140" d="M211 1436h340l176-320H461zM1038 0H102v1006h289V274h359v732h288V0z"/><glyph glyph-name="uhungarumlaut.ss15" horiz-adv-x="1140" d="m489 1116 125 326H317l-122-326h294zm445 0 125 326H762l-125-326h297zM1038 0H102v1006h289V274h359v732h288V0z"/><glyph glyph-name="umacron.ss15" horiz-adv-x="1140" d="M244 1126v232h655v-232H244zM1038 0H102v1006h289V274h359v732h288V0z"/><glyph glyph-name="uogonek.ss15" horiz-adv-x="1140" d="M778 0q-62-14-98.5-44.5T643-113q0-29 22.5-47t59.5-18q36 0 74 14l71-182q-40-22-106.5-35.5T631-395q-105 0-171.5 60.5T393-180q0 95 72 180H102v1006h289V274h359v732h288V0H778z"/><glyph glyph-name="uring.ss15" horiz-adv-x="1140" d="M571 1104q-124 0-207 80.5T281 1384q0 120 83 201.5t207 81.5 208.5-81.5T864 1384q0-119-84.5-199.5T571 1104zm0 168q49 0 83 32.5t34 79.5q0 49-33.5 82t-83.5 33-83-33-33-82q0-47 33.5-79.5T571 1272zM1038 0H102v1006h289V274h359v732h288V0z"/><glyph glyph-name="utilde.ss15" horiz-adv-x="1140" d="M133 1159q12 135 90 220t185 85q59 0 120-27t106-54 66-27q32 0 52 27t22 71l234-39q-15-135-94-221t-183-86q-63 0-124.5 28t-107 55.5T430 1219q-29 0-47-28.5t-16-72.5zM1038 0H102v1006h289V274h359v732h288V0z"/><glyph glyph-name="uni00CD_uni00A40301" horiz-adv-x="1210" d="m631 1864-250-320H115l176 320h340zm698 0-250-320H813l176 320h340zM109 1434h303V0H109v1434zM578 274q12-2 51-2 87 0 132.5 46T807 469v965h305V387q0-181-111-292T721-16q-87 0-143 10v280z"/><glyph glyph-name="T_h.dlig" horiz-adv-x="2238" d="M1722 1026q194 0 304-121.5T2136 569V0h-289v532q0 99-54 158.5T1649 750t-144.5-59.5T1450 532V0h-289v1143H766V0H463v1143H45v291h1405V874q100 152 272 152z"/><glyph glyph-name="T_i.dlig" horiz-adv-x="1511" d="M1186 1143H766V0H463v1143H45v291h1141v-291zm-66-137h289V0h-289v1006z"/><glyph glyph-name="f_f.dlig" horiz-adv-x="1523" d="M1401 1210q-79 0-126.5-38.5T1227 1055v-49h248V731h-248V0H938v731H524V0H236v731H49v275h187v55q0 198 108.5 311T633 1485q73 0 139-17v-266q-27 8-74 8-78 0-126-38.5T524 1055v-49h414v55q0 199 108 311.5t289 112.5q74 0 140-17v-266q-31 8-74 8z"/><glyph glyph-name="f_f_i.dlig" horiz-adv-x="1998" d="M1896 1006V0h-288v731h-381V0H938v731H524V0H236v731H49v275h187v55q0 198 108.5 311T633 1485q73 0 139-17v-266q-27 8-74 8-78 0-126-38.5T524 1055v-49h414v55q0 199 108 311.5t289 112.5q74 0 140-17v-266q-31 8-74 8-79 0-126.5-38.5T1227 1055v-49h669z"/><glyph glyph-name="f_f_t.dlig" horiz-adv-x="2207" d="M2150 731h-247V414q0-78 48-117t126-39q42 0 73 8V0q-62-16-139-16-180 0-288.5 113T1614 410v321h-387V0H938v731H524V0H236v731H49v275h187v55q0 198 108.5 311T633 1485q73 0 139-17v-266q-27 8-74 8-78 0-126-38.5T524 1055v-49h414v55q0 199 108 311.5t289 112.5q74 0 140-17v-266q-31 8-74 8-79 0-126.5-38.5T1227 1055v-49h387v264h289v-264h247V731z"/><glyph glyph-name="f_i.dlig" horiz-adv-x="1296" d="M1196 1006V0H907v731H524V0H236v731H49v275h187v55q0 198 108.5 311T633 1485q73 0 139-17v-266q-27 8-74 8-78 0-126-38.5T524 1055v-49h672z"/><glyph glyph-name="f_l.dlig" horiz-adv-x="1296" d="M907 1434h289V0H907v731H524V0H236v731H49v275h187v55q0 198 108.5 311T633 1485q73 0 139-17v-266q-27 8-74 8-78 0-126-38.5T524 1055v-49h383v428z"/><glyph glyph-name="f_t.dlig" horiz-adv-x="1507" d="M1450 731h-248V414q0-78 47.5-117t126.5-39q43 0 74 8V0q-62-16-141-16-180 0-288 113T913 410v321H524V0H236v731H49v275h187v55q0 198 108.5 311T633 1485q73 0 139-17v-266q-27 8-74 8-78 0-126-38.5T524 1055v-49h389v264h289v-264h248V731z"/><glyph glyph-name="A.sinf" horiz-adv-x="851" d="m637 0-51 137H262L211 0H6l340 860h156L844 0H637zM326 301h196l-98 260z"/><glyph glyph-name="B.sinf" horiz-adv-x="724" d="M61 0v860h326q112 0 191-68t79-161q0-56-33-106.5T541 455q68-15 111.5-73T696 248q0-105-80-176.5T424 0H61zm191 518h127q35 0 59.5 23t24.5 57q0 33-24.5 56.5T379 678H252V518zm0-334h156q38 0 66 27t28 65q0 39-27.5 67T410 371H252V184z"/><glyph glyph-name="C.sinf" horiz-adv-x="929" d="M477-12q-187 0-312.5 126.5T39 430t125.5 315.5T477 872q155 0 274-90.5T889 557H674q-15 57-70.5 93T477 686q-103 0-172-73.5T236 430t69-182.5T477 174q70 0 126 40t73 103h215Q868 171 752 79.5T477-12z"/><glyph glyph-name="D.sinf" horiz-adv-x="835" d="M358 860q188 0 313.5-121.5T797 434q0-186-125.5-310T358 0H61v860h297zm15-676q98 0 162.5 71.5T600 434q0 105-64 174.5T373 678H254V184h119z"/><glyph glyph-name="E.sinf" horiz-adv-x="636" d="M61 860h531V678H254V535h303V350H254V184h338V0H61v860z"/><glyph glyph-name="F.sinf" horiz-adv-x="626" d="M61 860h531V678H254V508h303V324H254V0H61v860z"/><glyph glyph-name="G.sinf" horiz-adv-x="940" d="M895 489q6-46 6-86 0-185-118.5-300T477-12 164.5 114.5 39 430t125.5 315.5T479 872q153 0 274-89t140-212H676q-20 53-75.5 84T479 686q-103 0-173-73.5T236 430q0-110 72.5-183T494 174q89 0 144 47t60 113H463v155h432z"/><glyph glyph-name="H.sinf" horiz-adv-x="860" d="M606 860h193V0H606v352H254V0H61v860h193V537h352v323z"/><glyph glyph-name="I.sinf" horiz-adv-x="313" d="M61 860h193V0H61v860z"/><glyph glyph-name="J.sinf" horiz-adv-x="417" d="M35 172h31q53 0 78.5 27t25.5 86v575h192V231q0-107-68-174T125-10q-49 0-90 6v176z"/><glyph glyph-name="K.sinf" horiz-adv-x="849" d="M821 0H571L252 408V0H61v860h191V500l299 360h242L453 455z"/><glyph glyph-name="L.sinf" horiz-adv-x="673" d="M61 860h193V184h389V0H61v860z"/><glyph glyph-name="M.sinf" horiz-adv-x="1060" d="M61 0v860h232l248-577 262 577h196V0H807v487L596 0H459L254 487V0H61z"/><glyph glyph-name="N.sinf" horiz-adv-x="813" d="M61 860h162l336-481v481h193V0H592L254 481V0H61v860z"/><glyph glyph-name="O.sinf" horiz-adv-x="958" d="M479 872q189 0 315-126.5T920 430 794 114.5 479-12q-188 0-314 126.5T39 430t126 315.5T479 872zm0-186q-103 0-173-73.5T236 430q0-108 69.5-182T479 174t173 73.5T721 430t-69 182.5T479 686z"/><glyph glyph-name="P.sinf" horiz-adv-x="714" d="M389 860q128 0 211.5-78.5T684 582q0-123-83.5-203T389 299H254V0H61v860h328zm0-375q44 0 73.5 28t29.5 69-30 68.5-73 27.5H254V485h135z"/><glyph glyph-name="Q.sinf" horiz-adv-x="958" d="M952 0H754l-45 49Q606-12 479-12q-188 0-314 126.5T39 430t126 315.5T479 872q189 0 315-126.5T920 430q0-162-99-285zM479 174q45 0 99 21L393 397h201l92-102q35 59 35 135 0 109-69 182.5T479 686q-103 0-173-73.5T236 430q0-108 69.5-182T479 174z"/><glyph glyph-name="R.sinf" horiz-adv-x="780" d="M760 0H528L338 324h-84V0H61v860h334q110 0 192.5-78.5T670 592q0-81-34.5-142.5T537 354zM252 676l2-187h121q43 0 71.5 27.5T475 584q0 38-29.5 65T375 676H252z"/><glyph glyph-name="S.sinf" horiz-adv-x="731" d="M375-12q-143 0-236.5 84.5T45 287h191q0-53 39-86t100-33q56 0 91.5 24.5T502 256q0 25-19 43.5t-50.5 29-72 22-82 21.5-82 30-72 45T74 515t-19 99q0 112 84.5 185T352 872q153 0 232.5-83.5T664 582H465q0 48-32.5 79T346 692q-47 0-75.5-20.5T242 616q0-27 25-45t64.5-29 87.5-22 96-29 87.5-45 64.5-75.5T692 256q0-107-87-187.5T375-12z"/><glyph glyph-name="T.sinf" horiz-adv-x="739" d="M713 860V678H467V0H274v678H27v182h686z"/><glyph glyph-name="U.sinf" horiz-adv-x="806" d="M403-10q-148 0-245 98T61 334v526h193V334q0-67 43-112.5T403 176q65 0 108.5 45.5T555 334v526h193V334q0-148-98.5-246T403-10z"/><glyph glyph-name="V.sinf" horiz-adv-x="817" d="M8 860h205l197-547 196 547h203L485 0H332z"/><glyph glyph-name="W.sinf" horiz-adv-x="1245" d="M1036 862h201L952 0H799L623 479 451 0H295L8 862h205l164-536 182 536h133l182-536z"/><glyph glyph-name="X.sinf" horiz-adv-x="833" d="M823 0H596L416 272 233 0H8l295 442L25 860h229l164-246 164 246h225L530 444z"/><glyph glyph-name="Y.sinf" horiz-adv-x="843" d="M8 860h234l186-305 182 305h226L522 362V0H328v362z"/><glyph glyph-name="Z.sinf" d="M55 860h641V731L293 184h407V0H31v129l405 549H55v182z"/><glyph glyph-name="a.sinf" horiz-adv-x="739" d="M500 604h182V0H500v82q-65-94-187-94-115 0-196.5 92T35 301q0 131 81.5 223T313 616q124 0 187-94v82zM356 162q60 0 102 40.5t42 98.5q0 60-42 100.5T356 442t-101.5-41T213 301q0-57 41.5-98T356 162z"/><glyph glyph-name="b.sinf" horiz-adv-x="739" d="M426 616q117 0 198-92t81-223q0-128-81.5-220.5T426-12q-120 0-184 92V0H59v860h183V524q64 92 184 92zm-41-454q59 0 101 41t42 98q0 58-42 99.5T385 442q-60 0-101.5-40.5T242 301q0-58 41.5-98.5T385 162z"/><glyph glyph-name="c.sinf" horiz-adv-x="681" d="M348-12q-134 0-223.5 90T35 301q0 134 90 224.5T348 616q116 0 201.5-70T647 371H461q-9 31-41 51t-72 20q-58 0-96.5-40.5T213 301q0-58 39-97.5t96-39.5q41 0 73.5 21t41.5 55h184q-9-108-95-180T348-12z"/><glyph glyph-name="d.sinf" horiz-adv-x="739" d="M500 860h182V0H500v82q-65-94-187-94-115 0-196.5 92T35 301q0 131 81.5 223T313 616q124 0 187-94v338zM356 162q60 0 102 40.5t42 98.5q0 60-42 100.5T356 442t-101.5-41T213 301q0-57 41.5-98T356 162z"/><glyph glyph-name="e.sinf" horiz-adv-x="681" d="M647 322q0-44-2-64H201q11-54 50.5-86.5T348 139q45 0 76 18t37 48h178q-15-98-93.5-157.5T352-12q-134 0-225.5 92T35 305q0 132 90.5 221.5T348 616q124 0 211.5-85T647 322zm-436 53h246q-3 40-37 67t-78 27q-47 0-81.5-24T211 375z"/><glyph glyph-name="f.sinf" horiz-adv-x="499" d="M424 721q-44 0-72-24t-28-66v-27h147V430H324V0H141v430H31v174h110v29q0 121 67 190.5T385 893q44 0 86-10V715q-21 6-47 6z"/><glyph glyph-name="g.sinf" horiz-adv-x="739" d="M500 604h182V27q0-126-89.5-200.5T369-248q-37 0-74 5t-81 20.5-77.5 39-58 65T51-23h182q3-35 40.5-54T362-96q55 0 96.5 32T500 18v86q-64-92-187-92-115 0-196.5 89T35 315t81.5 213T313 616q122 0 187-90v78zM356 178q60 0 102 39.5t42 97.5q0 57-42 96.5T356 451q-59 0-101-39.5T213 315t41.5-97T356 178z"/><glyph glyph-name="h.sinf" horiz-adv-x="706" d="M399 616q117 0 182.5-73.5T647 340V0H465v317q0 56-31 90.5T352 442q-50 0-80-34.5T242 317V0H59v860h183V528q57 88 157 88z"/><glyph glyph-name="i.sinf" horiz-adv-x="301" d="M152 901q44 0 77-33t33-77-33.5-77.5T152 680q-44 0-77.5 33.5T41 791t33.5 77 77.5 33zM59 604h183V0H59v604z"/><glyph glyph-name="j.sinf" horiz-adv-x="301" d="M150 901q44 0 77-33t33-77-33-77.5-77-33.5-76.5 33.5T41 791t32.5 77 76.5 33zM-29-66q3 0 10-1t13-1q29 0 47 18.5T59 4v600h183V-16q0-97-63.5-157T8-233q-4 0-17 1t-20 1v165z"/><glyph glyph-name="k.sinf" horiz-adv-x="694" d="M684 0H451L242 266V0H59v860h183V358l200 246h224L420 311z"/><glyph glyph-name="l.sinf" horiz-adv-x="301" d="M242 860V0H59v860h183z"/><glyph glyph-name="m.sinf" horiz-adv-x="1062" d="M758 616q108 0 178-66.5t70-172.5V0H821v332q0 51-26.5 80.5T725 442t-72.5-29-29.5-81V0H440v332q0 51-26.5 80.5T342 442q-42 0-71-28.5T242 332V0H59v604h183v-69q55 81 168 81 116 0 168-86 28 38 77.5 62T758 616z"/><glyph glyph-name="n.sinf" horiz-adv-x="706" d="M399 616q117 0 182.5-73.5T647 340V0H465v317q0 56-31 90.5T352 442q-50 0-80-34.5T242 317V0H59v604h183v-76q57 88 157 88z"/><glyph glyph-name="o.sinf" horiz-adv-x="698" d="M348 616q134 0 225-91t91-224-91-223-225-90-223.5 90T35 301q0 134 90 224.5T348 616zm0-174q-58 0-96.5-40.5T213 301q0-58 39-97.5t96-39.5 96 39.5 39 97.5q0 61-39 101t-96 40z"/><glyph glyph-name="p.sinf" horiz-adv-x="739" d="M426 616q117 0 198-92t81-223q0-130-81-221.5T426-12q-120 0-184 92v-277H59v801h183v-80q64 92 184 92zm-41-454q59 0 101 41t42 98q0 58-42 99.5T385 442q-60 0-101.5-40.5T242 301q0-58 41.5-98.5T385 162z"/><glyph glyph-name="q.sinf" horiz-adv-x="739" d="M500 604h182v-801H500V82q-65-94-187-94-115 0-196.5 92T35 301q0 131 81.5 223T313 616q124 0 187-94v82zM356 162q60 0 102 40.5t42 98.5q0 60-42 100.5T356 442t-101.5-41T213 301q0-57 41.5-98T356 162z"/><glyph glyph-name="r.sinf" horiz-adv-x="477" d="M397 616q18 0 58-8V444q-49 7-64 7-66 0-107.5-40T242 291V0H59v604h183v-65q58 77 155 77z"/><glyph glyph-name="s.sinf" horiz-adv-x="589" d="M307-12q-119 0-194.5 57.5T27 203h166q3-30 32-50t70-20q40 0 61 14t21 37-25 36.5-62.5 17.5-81.5 14-81.5 24.5T64 327t-25 91q0 86 66 142t174 56q104 0 178-53t84-147H367q-3 24-28 40.5T281 473q-35 0-54.5-12T207 428q0-22 25-33.5t63-13.5 82-11.5 82-25 63-56.5 25-104q0-83-69.5-139.5T307-12z"/><glyph glyph-name="a.ss01.sinf" horiz-adv-x="614" d="M301 616q129 0 197.5-66.5T567 371V0H395v70q-52-82-166-82-79 0-132.5 52.5T43 170q0 92 75 142t204 50h73v21q0 40-25.5 63T301 469q-39 0-66-20.5T207 395H45q9 92 83.5 156.5T301 616zm-29-487q53 0 88 32t35 75v14h-84q-51 0-80.5-17T201 186q0-25 19.5-41t51.5-16z"/><glyph glyph-name="a.ss02.sinf" horiz-adv-x="622" d="M72 604h491V0H381v70q-52-82-168-82-77 0-130.5 53T29 170q0 93 75 142.5T307 362h74v89H72v153zm186-475q53 0 88 32t35 75v14h-84q-53 0-82-16.5T186 186q0-25 20-41t52-16z"/><glyph glyph-name="c.ss03.sinf" horiz-adv-x="593" d="M512 430H242V174h270V0H59v604h453V430z"/><glyph glyph-name="g.ss04.sinf" horiz-adv-x="731" d="M489 604h183v-801H127v152h362v168q-62-90-182-90-114 0-193 85.5T35 326q0 120 79 205t193 85q120 0 182-88v76zM348 193q59 0 99 38t40 95q0 55-40 93t-99 38-100-38-41-93q0-57 41-95t100-38z"/><glyph glyph-name="h.ss05.sinf" horiz-adv-x="684" d="M242 860V604h383V0H442v430H242V0H59v860h183z"/><glyph glyph-name="j.ss06.sinf" horiz-adv-x="301" d="M150 901q45 0 77.5-32.5T260 791q0-44-33-77.5T150 680t-76.5 33.5T41 791t32.5 77 76.5 33zm92-297v-801H59v801h183z"/><glyph glyph-name="l.ss07.sinf" horiz-adv-x="356" d="M242 860V174h90V0H59v860h183z"/><glyph glyph-name="m.ss08.sinf" horiz-adv-x="1034" d="M977 604V0H795v430H608V0H426v430H242V0H59v604h918z"/><glyph glyph-name="n.ss09.sinf" horiz-adv-x="684" d="M625 604V0H442v430H242V0H59v604h566z"/><glyph glyph-name="O.ss10.sinf" horiz-adv-x="899" d="M838 860V0H61v860h777zM254 184h391v492H254V184z"/><glyph glyph-name="o.ss10.sinf" horiz-adv-x="681" d="M623 604V0H59v604h564zM440 430H240V174h200v256z"/><glyph glyph-name="r.ss11.sinf" horiz-adv-x="458" d="M436 604V430H240V0H59v604h377z"/><glyph glyph-name="S.ss12.sinf" horiz-adv-x="675" d="M322 860h251V674H285q-29 0-48.5-15T217 621q0-25 23.5-42t60.5-28.5 82-23.5 90-32 82-47.5 60.5-76.5T639 258q0-110-77-184T340 0H51v186h299q43 0 68.5 20t25.5 52q0 28-23 47t-60 30.5-81.5 23T190 388t-82 43.5-60 72T25 612q0 109 83.5 178.5T322 860z"/><glyph glyph-name="s.ss12.sinf" horiz-adv-x="544" d="M295 0H51v137h246q22 0 36.5 11.5T348 178q0 19-33 31.5t-80 24-94.5 28.5T60 317.5 27 412q0 91 64.5 141.5T272 604h217V467H254q-45 0-45-35 0-18 23-31.5t57.5-21 75-21.5 75-32 57.5-54 23-86q0-85-59-135.5T295 0z"/><glyph glyph-name="t.ss13.sinf" horiz-adv-x="468" d="M446 604V430H324V0H141v430H18v174h123v156h183V604h122z"/><glyph glyph-name="u.ss14.sinf" horiz-adv-x="704" d="M641 604V281q0-129-81.5-211T352-12 144.5 70.5 63 281v323h181V281q0-53 30-85t78-32 78.5 32 30.5 85v323h180z"/><glyph glyph-name="u.ss15.sinf" horiz-adv-x="684" d="M625 0H59v604h183V174h200v430h183V0z"/><glyph glyph-name="D.ss16.sinf" horiz-adv-x="903" d="M426 860q188 0 313-121.5T864 434q0-186-125-310T426 0H25v174h104v686h297zm14-676q98 0 163 71.5T668 434q0 105-64.5 174.5T440 678H322V184h118z"/><glyph glyph-name="J.ss17.sinf" horiz-adv-x="503" d="M442 860V0H35v184h215v676h192z"/><glyph glyph-name="L.ss18.sinf" horiz-adv-x="741" d="M322 184h389V0H25v174h104v686h193V184z"/><glyph glyph-name="t.sinf" horiz-adv-x="485" d="M453 430H305V254q0-43 28.5-66.5T406 164q33 0 47 4V0q-45-10-86-10-110 0-177 70t-67 192v178H12v174h111v158h182V604h148V430z"/><glyph glyph-name="G.titl.sinf" horiz-adv-x="997" d="M975 489V334h-80Q875 179 759.5 83.5T477-12q-187 0-312.5 126.5T39 430t125.5 315.5T479 872q153 0 274-89t140-212H676q-20 53-75.5 84T479 686q-103 0-173-73.5T236 430q0-110 72.5-183T494 174q87 0 145.5 51.5T698 334H463v155h512z"/><glyph glyph-name="I.titl.sinf" horiz-adv-x="446" d="M403 686h-84V174h84V0H43v174h84v512H43v174h360V686z"/><glyph glyph-name="J.titl.sinf" horiz-adv-x="491" d="M436 860V686h-74V231q0-107-68-174T125-10q-49 0-90 6v176h31q53 0 78.5 27t25.5 86v401H78v174h358z"/><glyph glyph-name="T.titl.sinf" horiz-adv-x="739" d="M713 678H467V174h82V0H190v174h84v504H27v182h686V678z"/><glyph glyph-name="Y.titl.sinf" horiz-adv-x="843" d="M522 362V174h82V0H244v174h84v188L8 860h234l186-305 182 305h226z"/><glyph glyph-name="u.sinf" horiz-adv-x="706" d="M465 604h182V0H465v74q-58-86-158-86-116 0-182 73.5T59 264v340h183V287q0-56 30.5-89.5T354 164t81 33.5 30 89.5v317z"/><glyph glyph-name="v.sinf" horiz-adv-x="671" d="M662 604 414 0H258L8 604h199l129-354 127 354h199z"/><glyph glyph-name="w.sinf" horiz-adv-x="968" d="M227 0 8 604h197l94-315 113 315h143l117-315 94 315h195L743 0H602L485 315 367 0H227z"/><glyph glyph-name="x.sinf" horiz-adv-x="677" d="M666 0H444L338 156 229 0H12l217 311L25 604h221l94-133 92 133h217L449 313z"/><glyph glyph-name="y.sinf" horiz-adv-x="663" d="M461 604h194L322-197H125L238 53 8 604h197l127-338z"/><glyph glyph-name="z.sinf" horiz-adv-x="622" d="M575 604V475L293 176h287V0H27v129l282 301H49v174h526z"/><glyph glyph-name="zero.cv01" horiz-adv-x="1198" d="M608 1452q249 0 387-163t138-458V602q0-295-138-457.5T608-18h-18q-250 0-387 162.5T66 602v229q0 295 137 458t387 163h18zm-18-295q-219 0-219-311V588q0-155 55.5-233.5T590 276h18q219 0 219 312v258q0 311-219 311h-18z"/><glyph glyph-name="two.cv01" horiz-adv-x="1105" d="M47 0v158q0 87 24 162t61 131 99.5 112T353 658.5 498 748q131 78 181 130.5t50 122.5q0 71-48.5 116.5T549 1163q-104 0-157.5-72T344 901H37q-9 244 138 398.5T557 1454q210 0 343.5-125.5T1034 1010q0-146-93-254.5T635 530q-141-85-196.5-133T383 295h649V0H47z"/><glyph glyph-name="three.cv01" horiz-adv-x="1093" d="M793 758q101-24 176-121.5t75-212.5q0-199-138.5-320.5T541-18q-230 0-368 135T39 473h280q0-89 64-148t158-59q88 0 145 53t57 132q0 75-59.5 123.5T530 623h-63v237h49q78 0 128 44.5t50 113.5q0 63-46 105t-118 42q-85 0-135.5-51T342 979H72q-12 132 51.5 241.5T299 1390t244 60q185 0 318.5-122.5T995 1034q0-92-58-171.5T793 758z"/><glyph glyph-name="four.cv01" horiz-adv-x="1308" d="M1266 541V250h-152V0H809v250H41v213l668 971h405V541h152zm-846 0h389v561z"/><glyph glyph-name="seven.cv01" horiz-adv-x="1181" d="M1141 1434v-203L543 0H205l557 1141H344V928H39v506h1102z"/><glyph glyph-name="zero.tf" horiz-adv-x="1257" d="M629-18q-261 0-411 201T68 719q0 220 66 386t194 258.5 301 92.5 301-92.5 194-258.5 66-386q0-335-150-536T629-18zm0 294q120 0 184 110t64 333-64 332.5T629 1161t-185-110-65-332 65-332.5T629 276z"/><glyph glyph-name="one.tf" horiz-adv-x="1257" d="M803 276h327V0H133v276h367v742L182 772v363l416 299h205V276z"/><glyph glyph-name="two.tf" horiz-adv-x="1257" d="M172 0v217l461 451q126 122 158 161 63 83 65 162 0 72-55.5 120T662 1159q-103 0-157-70.5T457 901H150q-6 161 59 287.5t185 196 274 69.5q218 0 358.5-128.5T1167 999q0-72-22-139.5T1077.5 727 979 604 848 475L668 295h503V0H172z"/><glyph glyph-name="three.tf" horiz-adv-x="1257" d="m442 848 275 295H152v291h993v-199L805 885q154-15 253-130.5t99-281.5q0-216-148.5-354.5T629-20q-141 0-256 56.5t-184 158T111 424h303q13-64 69.5-107T629 274q95 0 156 58t61 149q0 63-34 107.5T721.5 654 592 675t-150-22v195z"/><glyph glyph-name="four.tf" horiz-adv-x="1257" d="M1217 569V295h-152V0H760v295H57v205l500 934h344L438 569h322v338h305V569h152z"/><glyph glyph-name="five.tf" horiz-adv-x="1257" d="M637-20Q425-20 277 98.5T117 424h303q19-69 75.5-109.5T637 274q89 0 150 61.5T848 485q0 93-60.5 153T637 698q-62 0-114-21t-83-59H174l66 816h823v-287H512l-27-256q35 26 90 42.5T682 950q209 0 343-127t134-346q0-136-69.5-250.5T900 46 637-20z"/><glyph glyph-name="six.tf" horiz-adv-x="1257" d="M694 958q197 0 328-136t131-341q0-135-69.5-250.5t-188-183T639-20q-139 0-257.5 67.5T194 230.5 125 481q0 75 28.5 166.5T238 829l376 605h347L657 956q12 2 37 2zm-55-690q92 0 155.5 62T858 483q0 92-63.5 154.5T637 700q-91 0-153-62.5T422 483q0-91 63-153t154-62z"/><glyph glyph-name="seven.tf" horiz-adv-x="1257" d="M129 1434h1001v-203L545 0H205l551 1141H129v293z"/><glyph glyph-name="eight.tf" horiz-adv-x="1257" d="M631-16q-221 0-363.5 121.5T125 416q0 113 64 210t171 148q-82 43-132 123t-50 166q0 169 127.5 277T631 1448q196 0 323-108.5t127-276.5q0-88-50.5-168T897 774q107-48 171.5-144.5T1133 416q0-189-141-310.5T631-16zm0 911q77 0 125 41.5t47 107.5q1 66-47 108t-125 42-126-42-48-108q-1-66 48-107.5T631 895zm0-643q94 0 154.5 53T846 442q0 83-60.5 137T631 633q-95 0-156-54t-61-137q0-84 60.5-137T631 252z"/><glyph glyph-name="nine.tf" horiz-adv-x="1257" d="M645 1454q139 0 257.5-68t187.5-183.5 69-250.5q0-167-112-346L672 0H324l303 479q-12-2-37-2-196 0-326.5 135T133 952q0 135 69 250.5T389 1386t256 68zm2-721q91 0 153 63t62 154-63 153-154 62q-92 0-155.5-62T426 950t64-154 157-63z"/><glyph glyph-name="zero.tf.cv01" horiz-adv-x="1257" d="M639 1452q249 0 386.5-163T1163 831V602q0-295-137.5-457.5T639-18h-18q-250 0-387.5 162.5T96 602v229q0 295 137.5 458T621 1452h18zm-18-295q-220 0-220-311V588q0-154 56-233t164-79h18q219 0 219 312v258q0 311-219 311h-18z"/><glyph glyph-name="two.tf.cv01" horiz-adv-x="1257" d="M162 0v158q0 87 24 162t61 131 99 112 121 95.5T612 748q132 78 182 131t50 122q0 70-49 116t-131 46q-104 0-157.5-72T459 901H152q-9 245 137.5 399T672 1454q209 0 343-125.5t134-318.5q0-145-93.5-253.5T750 530q-141-85-196.5-133T498 295h647V0H162z"/><glyph glyph-name="three.tf.cv01" horiz-adv-x="1257" d="M889 758q103-24 178.5-121.5T1143 424q0-199-139.5-320.5T639-18q-232 0-370 135T137 473h281q0-89 63.5-148T639 266q87 0 145 53.5T842 451q0 75-60.5 123.5T629 623h-66v237h51q77 0 127 44.5t50 113.5q0 63-46 105t-118 42q-85 0-135.5-51T438 979H170q-13 132 50 241.5T395 1390t244 60q185 0 319-122.5t134-293.5q0-93-58-172T889 758z"/><glyph glyph-name="four.tf.cv01" horiz-adv-x="1257" d="M1327 541V250h-151V0H872v250H104v213l668 971h404V541h151zm-844 0h389v561z"/><glyph glyph-name="seven.tf.cv01" horiz-adv-x="1257" d="M1186 1434v-203L590 0H250l557 1141H389V928H84v506h1102z"/><glyph glyph-name="zero.tf.zero" horiz-adv-x="1257" d="M629 1454q261 0 411-201t150-536q0-220-66-386T930 72.5 629-20 328 72.5 134 331 68 717q0 335 150 536t411 201zm0-295q-120 0-185-110t-65-332q0-67 6-123l408 485q-62 80-164 80zm0-885q120 0 184 110t64 333q0 56-7 121L465 354q62-80 164-80z"/><glyph glyph-name="zero.zero" horiz-adv-x="1251" d="M625 1454q262 0 411.5-200.5T1186 717q0-220-66-386T926.5 72.5 625-20q-173 0-300.5 92.5T131.5 331 66 717q0 221 66 387t193 258 300 92zm0-295q-119 0-183.5-110T377 717q0-67 6-123l405 485q-62 80-163 80zm0-885q120 0 184.5 110T874 717q0 67-6 123L463 354q62-80 162-80z"/><glyph glyph-name="three.sinf" horiz-adv-x="681" d="m215 510 156 168H41v182h600V735L444 532q90-10 147.5-79.5T649 287q0-131-90-215T330-12q-130 0-218.5 75.5T14 258h193q8-36 40-60t83-24q54 0 87.5 33t33.5 84q0 72-72.5 99T215 387v123z"/><glyph glyph-name="four.sinf" horiz-adv-x="749" d="M725 352V176h-88V0H444v176H25v117l297 567h217L272 352h172v191h193V352h88z"/><glyph glyph-name="five.sinf" horiz-adv-x="675" d="M332-12q-129 0-220 72T14 258h193q10-39 43.5-61.5T332 174q49 0 83 35.5t34 83.5q0 54-33.5 88.5T332 416q-78 0-115-47H49l39 491h500V680H260l-14-139q46 32 112 32 126 0 206.5-76T645 289q0-126-91-213.5T332-12z"/><glyph glyph-name="six.sinf" horiz-adv-x="671" d="M371 578q118 0 197-82t79-205-92-213-219-90-218 90-91 213q0 103 67 207l223 362h220L358 578h13zm-35-406q53 0 89 35t36 86-36.5 87-88.5 36q-51 0-87-36t-36-87 36-86 87-35z"/><glyph glyph-name="seven.sinf" horiz-adv-x="647" d="M18 860h605V731L272 0H59l328 676H18v184z"/><glyph glyph-name="eight.sinf" horiz-adv-x="665" d="M334-10q-133 0-219 74T29 252q0 65 36.5 122T166 465q-48 27-77.5 73.5T59 637q0 101 77.5 166T334 868q119 0 195.5-65T606 637q0-49-28.5-97T500 465q62-30 99.5-87.5T637 252q0-114-85.5-188T334-10zm0 551q42 0 69 24t27 60q0 37-27.5 60.5T334 709q-43 0-70.5-23.5T236 625q0-36 27-60t71-24zm0-381q53 0 88 30t35 76q0 47-35 78t-88 31q-54 0-88.5-31T211 266q0-46 34.5-76t88.5-30z"/><glyph glyph-name="nine.sinf" horiz-adv-x="671" d="M334 872q129 0 220-89t91-214q0-102-67-207L354 0H133l182 285h-14q-119 0-197.5 80.5T25 569q0 124 91.5 213.5T334 872zm2-426q51 0 86 35.5t35 87.5q0 50-35.5 85.5T334 690q-51 0-87-35.5T211 569q0-52 36-87.5t89-35.5z"/><glyph glyph-name="zero.dnom" horiz-adv-x="753" d="M377-12q-158 0-249 121.5T37 430t91 320.5T377 872q157 0 248.5-121T717 430t-91.5-321T377-12zm0 186q141 0 141 256T377 686q-144 0-144-256t144-256z"/><glyph glyph-name="zero.sinf" horiz-adv-x="753" d="M377-12q-158 0-249 121.5T37 430t91 320.5T377 872q157 0 248.5-121T717 430t-91.5-321T377-12zm0 186q141 0 141 256T377 686q-144 0-144-256t144-256z"/><glyph glyph-name="one.sinf" horiz-adv-x="483" d="M424 860V0H233v598L43 453v227l252 180h129z"/><glyph glyph-name="two.sinf" horiz-adv-x="700" d="M53 0v137l273 264q61 58 79.5 77t36 50 17.5 64q0 40-32.5 67T348 686q-60 0-91-40t-26-111H39q-6 150 82.5 243.5T352 872q131 0 217-77.5T655 596q0-84-49-157.5T461 281l-94-95h288V0H53z"/><glyph glyph-name="one.dnom" horiz-adv-x="454" d="M424 860V0H233v598L43 453v227l252 180h129z"/><glyph glyph-name="two.dnom" horiz-adv-x="653" d="M53 0v137l273 264q61 58 79.5 77t36 50 17.5 64q0 40-32.5 67T348 686q-60 0-91-40t-26-111H39q-6 150 82.5 243.5T352 872q131 0 217-77.5T655 596q0-84-49-157.5T461 281l-94-95h288V0H53z"/><glyph glyph-name="three.dnom" horiz-adv-x="681" d="m215 510 156 168H41v182h600V735L444 532q90-10 147.5-79.5T649 287q0-131-90-215T330-12q-130 0-218.5 75.5T14 258h193q8-36 40-60t83-24q54 0 87.5 33t33.5 84q0 72-72.5 99T215 387v123z"/><glyph glyph-name="four.dnom" horiz-adv-x="749" d="M725 352V176h-88V0H444v176H25v117l297 567h217L272 352h172v191h193V352h88z"/><glyph glyph-name="five.dnom" horiz-adv-x="669" d="M332-12q-129 0-220 72T14 258h193q10-39 43.5-61.5T332 174q49 0 83 35.5t34 83.5q0 54-33.5 88.5T332 416q-78 0-115-47H49l39 491h500V680H260l-14-139q46 32 112 32 126 0 206.5-76T645 289q0-126-91-213.5T332-12z"/><glyph glyph-name="six.dnom" horiz-adv-x="659" d="M371 578q118 0 197-82t79-205-92-213-219-90-218 90-91 213q0 103 67 207l223 362h220L358 578h13zm-35-406q53 0 89 35t36 86-36.5 87-88.5 36q-51 0-87-36t-36-87 36-86 87-35z"/><glyph glyph-name="seven.dnom" horiz-adv-x="647" d="M18 860h605V731L272 0H59l328 676H18v184z"/><glyph glyph-name="eight.dnom" horiz-adv-x="665" d="M334-10q-133 0-219 74T29 252q0 65 36.5 122T166 465q-48 27-77.5 73.5T59 637q0 101 77.5 166T334 868q119 0 195.5-65T606 637q0-49-28.5-97T500 465q62-30 99.5-87.5T637 252q0-114-85.5-188T334-10zm0 551q42 0 69 24t27 60q0 37-27.5 60.5T334 709q-43 0-70.5-23.5T236 625q0-36 27-60t71-24zm0-381q53 0 88 30t35 76q0 47-35 78t-88 31q-54 0-88.5-31T211 266q0-46 34.5-76t88.5-30z"/><glyph glyph-name="nine.dnom" horiz-adv-x="671" d="M334 872q129 0 220-89t91-214q0-102-67-207L354 0H133l182 285h-14q-119 0-197.5 80.5T25 569q0 124 91.5 213.5T334 872zm2-426q51 0 86 35.5t35 87.5q0 50-35.5 85.5T334 690q-51 0-87-35.5T211 569q0-52 36-87.5t89-35.5z"/><glyph glyph-name="zero.numr" horiz-adv-x="753" d="M377 514q-158 0-249 121.5T37 956t91 321 249 122q157 0 248.5-121.5T717 956t-91.5-321T377 514zm0 186q141 0 141 256t-141 256q-144 0-144-256t144-256z"/><glyph glyph-name="one.numr" horiz-adv-x="505" d="M424 1434V573H233v598L43 1026v227l252 181h129z"/><glyph glyph-name="two.numr" horiz-adv-x="653" d="M53 573v138l273 264q85 81 103 105 30 40 30 85 0 40-32.5 67.5T348 1260q-60 0-91-40.5T231 1108H39q-6 150 82.5 244t230.5 94q131 0 217-78t86-199q0-84-49-157.5T461 854l-94-94h288V573H53z"/><glyph glyph-name="three.numr" horiz-adv-x="681" d="m215 1083 156 168H41v183h600v-125l-197-203q90-10 147.5-80T649 860q0-131-90-215t-229-84q-130 0-218.5 75.5T14 831h193q8-36 40-59.5t83-23.5q54 0 87.5 32.5T451 864q0 72-72.5 99.5T215 961v122z"/><glyph glyph-name="four.numr" horiz-adv-x="749" d="M725 926V750h-88V573H444v177H25v116l297 568h217L272 926h172v190h193V926h88z"/><glyph glyph-name="five.numr" horiz-adv-x="669" d="M332 561q-129 0-220 72T14 831h193q10-39 43.5-61t81.5-22q49 0 83 35t34 83q0 54-33.5 88.5T332 989q-78 0-115-47H49l39 492h500v-181H260l-14-139q48 33 112 33 126 0 206.5-76.5T645 862q0-126-91-213.5T332 561z"/><glyph glyph-name="six.numr" horiz-adv-x="659" d="M371 1151q118 0 197-82t79-205-92-213-219-90-218 90-91 213q0 103 67 207l223 363h220l-179-283h13zm-35-406q53 0 89 35t36 86-36.5 87-88.5 36q-51 0-87-36t-36-87 36-86 87-35z"/><glyph glyph-name="seven.numr" horiz-adv-x="647" d="M18 1434h605v-129L272 573H59l328 676H18v185z"/><glyph glyph-name="eight.numr" horiz-adv-x="665" d="M334 563q-133 0-219 74T29 825q0 65 36.5 122t100.5 91q-48 27-77.5 73.5T59 1210q0 101 77.5 166.5T334 1442q119 0 195.5-65.5T606 1210q0-49-28.5-97t-77.5-75q62-30 99.5-87.5T637 825q0-114-85.5-188T334 563zm0 551q42 0 69 24t27 60q0 37-27.5 60.5T334 1282q-43 0-70.5-23.5T236 1198q0-36 27-60t71-24zm0-381q53 0 88 30.5t35 76.5q0 47-35 77.5T334 948q-54 0-88.5-30.5T211 840q0-46 34.5-76.5T334 733z"/><glyph glyph-name="nine.numr" horiz-adv-x="671" d="M334 1446q129 0 220-89t91-214q0-102-67-207L354 573H133l182 285h-14q-119 0-197.5 81T25 1143q0 124 91.5 213.5T334 1446zm2-426q51 0 86 35.5t35 87.5q0 50-35.5 85.5T334 1264q-51 0-87-35.5t-36-85.5q0-52 36-87.5t89-35.5z"/><glyph glyph-name="zero.sups" horiz-adv-x="753" d="M377 571q-158 0-249 122t-91 321 91 320.5T377 1456q157 0 248.5-121t91.5-321-91.5-321.5T377 571zm0 187q141 0 141 256t-141 256q-144 0-144-256t144-256z"/><glyph glyph-name="one.sups" horiz-adv-x="483" d="M424 1444V584H233v598L43 1036v228l252 180h129z"/><glyph glyph-name="two.sups" horiz-adv-x="700" d="M53 584v137l273 264q61 58 79.5 77t36 50 17.5 64q0 40-32.5 67t-78.5 27q-60 0-91-40.5T231 1118H39q-6 150 82.5 244t230.5 94q131 0 217-77.5t86-198.5q0-84-49-158T461 864l-94-94h288V584H53z"/><glyph glyph-name="three.sups" horiz-adv-x="681" d="m215 1094 156 168H41v182h600v-125l-197-203q90-10 147.5-80T649 870q0-131-90-215t-229-84q-130 0-218.5 76T14 842h193q8-36 40-60t83-24q54 0 87.5 32.5T451 874q0 72-72.5 99.5T215 971v123z"/><glyph glyph-name="four.sups" horiz-adv-x="749" d="M725 936V760h-88V584H444v176H25v117l297 567h217L272 936h172v190h193V936h88z"/><glyph glyph-name="five.sups" horiz-adv-x="675" d="M332 571q-129 0-220 72.5T14 842h193q10-39 43.5-61.5T332 758q49 0 83 35.5t34 83.5q0 53-33.5 87.5T332 999q-78 0-115-47H49l39 492h500v-180H260l-14-140q48 33 112 33 126 0 206.5-76.5T645 872q0-126-91-213.5T332 571z"/><glyph glyph-name="six.sups" horiz-adv-x="671" d="M371 1161q118 0 197-82t79-205-92-213-219-90-218 90-91 213q0 103 67 207l223 363h220l-179-283h13zm-35-405q53 0 89 35t36 86-36.5 86.5T336 999q-51 0-87-35.5T213 877t36-86 87-35z"/><glyph glyph-name="seven.sups" horiz-adv-x="647" d="M18 1444h605v-129L272 584H59l328 676H18v184z"/><glyph glyph-name="eight.sups" horiz-adv-x="665" d="M334 573q-133 0-219 74.5T29 836q0 65 36.5 122t100.5 91q-48 27-77.5 73.5T59 1221q0 101 77.5 166t197.5 65q119 0 195.5-65t76.5-166q0-49-28.5-97t-77.5-75q62-30 99.5-87.5T637 836q0-114-85.5-188.5T334 573zm0 551q42 0 69 24t27 60q0 37-27.5 60.5T334 1292q-43 0-70.5-23.5T236 1208q0-36 27-60t71-24zm0-381q53 0 88 30.5t35 76.5q0 47-35 77.5T334 958q-54 0-88.5-30.5T211 850q0-46 34.5-76.5T334 743z"/><glyph glyph-name="nine.sups" horiz-adv-x="671" d="M334 1456q129 0 220-89t91-214q0-102-67-207L354 584H133l182 284h-14q-119 0-197.5 81T25 1153q0 124 91.5 213.5T334 1456zm2-426q51 0 86 35.5t35 87.5q0 50-35.5 85.5T334 1274q-51 0-87-35.5t-36-85.5q0-52 36-87.5t89-35.5z"/><glyph glyph-name="three.sinf.cv01" horiz-adv-x="677" d="M483 455q59-15 102.5-73.5T629 256q0-121-83-193.5T326-10q-141 0-224 82.5T23 291h178q-2-51 33.5-87t91.5-36q47 0 79.5 30t32.5 74q0 42-33.5 69.5T319 369h-36v149h28q42 0 70.5 25.5T410 606q0 36-26 60t-67 24q-48 0-76-30.5T211 582H41q-12 121 74.5 204.5T326 870q111 0 192.5-74T600 618q0-53-34-101.5T483 455z"/><glyph glyph-name="four.sinf.cv01" horiz-adv-x="825" d="M782 332V154h-88V0H504v154H41v129l397 577h256V332h88zm-501 0h223v321z"/><glyph glyph-name="seven.sinf.cv01" horiz-adv-x="714" d="M690 860V731L336 0H123l328 676H215V549H23v311h667z"/><glyph glyph-name="zero.dnom.cv01" horiz-adv-x="718" d="M367 870q149 0 231-97.5T680 498V362q0-177-82-274.5T367-10h-13q-151 0-234 97.5T37 362v136q0 177 83 274.5T354 870h13zm-13-186q-125 0-125-176V352q0-176 125-176h13q122 0 122 176v156q0 176-122 176h-13z"/><glyph glyph-name="zero.sinf.cv01" horiz-adv-x="718" d="M367 870q149 0 231-97.5T680 498V362q0-177-82-274.5T367-10h-13q-151 0-234 97.5T37 362v136q0 177 83 274.5T354 870h13zm-13-186q-125 0-125-176V352q0-176 125-176h13q122 0 122 176v156q0 176-122 176h-13z"/><glyph glyph-name="two.sinf.cv01" horiz-adv-x="667" d="M29 0v98q0 62 19 114t58 94.5 82.5 75.5T297 453q77 45 106 75.5t29 71.5q0 38-27.5 64T332 690q-60 0-91-42.5T215 535H23q-6 150 82.5 243.5T336 872q126 0 208.5-75.5T627 604q0-87-57.5-153.5T383 313q-40-24-57-35t-41-29-33.5-33-9.5-30h383V0H29z"/><glyph glyph-name="two.dnom.cv01" horiz-adv-x="667" d="M29 0v98q0 62 19 114t58 94.5 82.5 75.5T297 453q77 45 106 75.5t29 71.5q0 38-27.5 64T332 690q-60 0-91-42.5T215 535H23q-6 150 82.5 243.5T336 872q126 0 208.5-75.5T627 604q0-87-57.5-153.5T383 313q-40-24-57-35t-41-29-33.5-33-9.5-30h383V0H29z"/><glyph glyph-name="three.dnom.cv01" horiz-adv-x="677" d="M483 455q59-15 102.5-73.5T629 256q0-121-83-193.5T326-10q-141 0-224 82.5T23 291h178q-2-51 33.5-87t91.5-36q47 0 79.5 30t32.5 74q0 42-33.5 69.5T319 369h-36v149h28q42 0 70.5 25.5T410 606q0 36-26 60t-67 24q-48 0-76-30.5T211 582H41q-12 121 74.5 204.5T326 870q111 0 192.5-74T600 618q0-53-34-101.5T483 455z"/><glyph glyph-name="four.dnom.cv01" horiz-adv-x="825" d="M782 332V154h-88V0H504v154H41v129l397 577h256V332h88zm-501 0h223v321z"/><glyph glyph-name="seven.dnom.cv01" horiz-adv-x="714" d="M690 860V731L336 0H123l328 676H215V549H23v311h667z"/><glyph glyph-name="zero.numr.cv01" horiz-adv-x="718" d="M367 1444q149 0 231-98t82-275V936q0-177-82-275t-231-98h-13q-151 0-234 98T37 936v135q0 177 83 275t234 98h13zm-13-187q-125 0-125-176V926q0-176 125-176h13q122 0 122 176v155q0 176-122 176h-13z"/><glyph glyph-name="two.numr.cv01" d="M86 573v99q0 62 19 113.5t58.5 94.5 83 75 109.5 71q77 45 106.5 76t29.5 72q0 38-28.5 64t-74.5 26q-59 0-89.5-43T274 1108H80q-6 149 83.5 243.5T395 1446q126 0 207.5-75.5T684 1178q0-88-56.5-154T442 887q-37-22-57-34.5T342.5 823t-32-32-9.5-31h381V573H86z"/><glyph glyph-name="three.numr.cv01" horiz-adv-x="677" d="M483 1028q59-15 102.5-73.5T629 829q0-121-83-193.5T326 563q-141 0-224 82.5T23 864h178q-2-51 33.5-87t91.5-36q47 0 79.5 30.5T438 846q0 42-33.5 69T319 942h-36v150h28q42 0 70.5 25.5T410 1180q0 36-26 60t-67 24q-48 0-76-31t-30-78H41q-12 121 75 205t210 84q111 0 192.5-74t81.5-178q0-53-34-102t-83-62z"/><glyph glyph-name="four.numr.cv01" horiz-adv-x="825" d="M782 905V727h-88V573H504v154H41v129l397 578h256V905h88zm-501 0h223v322z"/><glyph glyph-name="seven.numr.cv01" horiz-adv-x="714" d="M690 1434v-129L336 573H123l328 676H215v-127H23v312h667z"/><glyph glyph-name="zero.sups.cv01" horiz-adv-x="718" d="M367 1454q149 0 231-98t82-275V946q0-177-82-275t-231-98h-13q-151 0-234 98T37 946v135q0 177 83 275t234 98h13zm-13-186q-125 0-125-176V936q0-176 125-176h13q122 0 122 176v156q0 176-122 176h-13z"/><glyph glyph-name="two.sups.cv01" horiz-adv-x="667" d="M29 584v98q0 62 19 113.5t58 94.5 82.5 75 108.5 71q76 44 105.5 75.5T432 1184q0 38-27.5 64t-72.5 26q-60 0-91-42.5T215 1118H23q-6 150 82.5 244t230.5 94q126 0 208.5-75.5T627 1188q0-87-57.5-153.5T383 897q-40-24-57-35t-41-29-33.5-33-9.5-30h383V584H29z"/><glyph glyph-name="three.sups.cv01" horiz-adv-x="677" d="M483 1038q59-15 102.5-73T629 840q0-121-83-194t-220-73q-141 0-224 82.5T23 874h178q-2-51 33.5-86.5T326 752q47 0 79.5 30t32.5 74q0 42-33.5 69T319 952h-36v150h28q42 0 70.5 25.5T410 1190q0 36-26 60t-67 24q-48 0-76-31t-30-78H41q-12 121 75 205t210 84q111 0 192.5-74t81.5-178q0-53-34-102t-83-62z"/><glyph glyph-name="four.sups.cv01" horiz-adv-x="825" d="M782 915V737h-88V584H504v153H41v129l397 578h256V915h88zm-501 0h223v322z"/><glyph glyph-name="seven.sups.cv01" horiz-adv-x="714" d="M690 1444v-129L336 584H123l328 676H215v-127H23v311h667z"/><glyph glyph-name="three.sinf.tf" d="m258 510 156 168H84v182h600V735L487 532q90-10 147.5-79.5T692 287q0-131-90-215T373-12q-129 0-218 76T59 258h191q8-36 40-60t83-24q54 0 87.5 33t33.5 84q0 72-72 99t-164-3v123z"/><glyph glyph-name="four.sinf.tf" d="M733 352V176h-88V0H453v176H33v117l297 567h217L281 352h172v191h192V352h88z"/><glyph glyph-name="five.sinf.tf" d="M391-12q-129 0-219 72T76 258h190q12-40 45-62t80-22q49 0 83 35.5t34 83.5q0 54-33.5 88.5T391 416q-78 0-115-47H109l38 491h500V680H319l-14-139q46 32 115 32 126 0 205.5-76T705 289q0-126-91.5-213.5T391-12z"/><glyph glyph-name="six.sinf.tf" d="M412 578q118 0 197-82t79-205-91.5-213T379-12q-128 0-219.5 89.5T68 291q0 99 67 207l225 362h220L399 578h13zm-33-406q51 0 87 35t36 86-36.5 87-88.5 36q-51 0-86-36t-35-87 35.5-86 87.5-35z"/><glyph glyph-name="seven.sinf.tf" d="M80 860h604V731L334 0H121l325 676H80v184z"/><glyph glyph-name="eight.sinf.tf" d="M379-10q-133 0-219 74T74 252q0 65 37 122.5T213 465q-48 27-78.5 73.5T104 637q0 101 77.5 166T379 868q119 0 195.5-65T651 637q0-49-28.5-97T545 465q62-30 99.5-87.5T682 252q0-114-85.5-188T379-10zm0 551q42 0 69 24t27 60q0 37-26.5 60.5T379 709t-70.5-23.5T281 625q0-36 28-60t70-24zm0-381q53 0 88 30t35 76q0 47-35 78t-88 31q-54 0-88.5-31T256 266q0-46 34.5-76t88.5-30z"/><glyph glyph-name="nine.sinf.tf" d="M373 872q128 0 219.5-89.5T684 569q0-100-68-207L391 0H172l180 285h-14q-119 0-197 80.5T63 569q0 125 91.5 214T373 872zm2-426q51 0 86 35.5t35 87.5q0 50-35.5 85.5T373 690t-88.5-35.5T248 569q0-52 36.5-87.5T375 446z"/><glyph glyph-name="zero.sinf.tf" d="M369-12q-158 0-249 121.5T29 430t91 320.5T369 872t249-121 91-321-91-321T369-12zm0 186q141 0 141 256T369 686q-68 0-106-64t-38-192 38-192 106-64z"/><glyph glyph-name="one.sinf.tf" horiz-adv-x="755" d="M487 174h183V0H84v174h213v424L106 453v227l254 180h127V174z"/><glyph glyph-name="two.sinf.tf" d="M113 0v137l272 264q8 8 25.5 24.5T434 448t19 19.5 18 19 14 17 12 17.5 8.5 16 7.5 18 3.5 17.5T518 592q0 40-32 67t-78 27q-60 0-91-40t-26-111H96q-6 149 83.5 243T412 872q131 0 217-77.5T715 596q0-83-49-156T520 281l-94-95h289V0H113z"/><glyph glyph-name="zero.sups.tf" d="M389 561q-158 0-249 122t-91 321 91 320.5T389 1446q157 0 248.5-121t91.5-321-91.5-321.5T389 561zm0 187q141 0 141 256t-141 256q-143 0-143-256t143-256z"/><glyph glyph-name="one.sups.tf" d="M487 758h183V584H84v174h213v424l-191-146v228l254 180h127V758z"/><glyph glyph-name="two.sups.tf" d="M113 573v138l272 264q9 9 28 27t25.5 25 20.5 21 19 20.5 14 18 12 19 7.5 18 5.5 20.5 1 21q0 40-32 67.5t-78 27.5q-60 0-91-40.5T291 1108H96q-6 149 84 243.5t232 94.5q131 0 217-78t86-199q0-83-49-156T520 854l-94-94h289V573H113z"/><glyph glyph-name="three.sups.tf" d="m258 1083 156 168H84v183h600v-125l-197-203q90-10 147.5-80T692 860q0-131-90-215t-229-84q-129 0-218 76T59 831h191q8-36 40-59.5t83-23.5q54 0 87.5 32.5T494 864q0 72-72 99.5T258 961v122z"/><glyph glyph-name="four.sups.tf" d="M733 926V750h-88V573H453v177H33v116l297 568h217L281 926h172v190h192V926h88z"/><glyph glyph-name="five.sups.tf" d="M391 561q-129 0-219 72T76 831h190q12-40 45-61.5t80-21.5q49 0 83 35t34 83q0 54-33.5 88.5T391 989q-78 0-115-47H109l38 492h500v-181H319l-14-139q48 33 115 33 126 0 205.5-76.5T705 862q0-126-91.5-213.5T391 561z"/><glyph glyph-name="six.sups.tf" d="M412 1151q118 0 197-82t79-205-91.5-213T379 561q-128 0-219.5 89.5T68 864q0 99 67 207l225 363h220l-181-283h13zm-33-406q51 0 87 35t36 86-36.5 87-88.5 36q-51 0-86-36t-35-87 35.5-86 87.5-35z"/><glyph glyph-name="seven.sups.tf" d="M80 1434h604v-129L334 573H121l325 676H80v185z"/><glyph glyph-name="eight.sups.tf" d="M379 563q-133 0-219 74T74 825q0 65 37 122.5t102 90.5q-48 27-78.5 73.5T104 1210q0 101 77.5 166.5T379 1442q119 0 195.5-65.5T651 1210q0-49-28.5-97t-77.5-75q62-30 99.5-87.5T682 825q0-114-85.5-188T379 563zm0 551q42 0 69 24t27 60q0 37-26.5 60.5T379 1282t-70.5-23.5T281 1198q0-36 28-60t70-24zm0-381q53 0 88 30.5t35 76.5q0 47-35 77.5T379 948q-54 0-88.5-30.5T256 840q0-46 34.5-76.5T379 733z"/><glyph glyph-name="nine.sups.tf" d="M373 1446q128 0 219.5-89.5T684 1143q0-100-68-207L391 573H172l180 285h-14q-119 0-197 81t-78 204q0 125 91.5 214t218.5 89zm2-426q51 0 86 35.5t35 87.5q0 50-35.5 85.5T373 1264t-88.5-35.5T248 1143q0-52 36.5-87.5T375 1020z"/><glyph glyph-name="three.sinf.tf.cv01" d="M526 455q59-15 103.5-73.5T674 256q0-121-84-193.5T369-10q-141 0-223.5 82T66 291h178q-2-51 33.5-87t91.5-36q49 0 81.5 30t32.5 74q0 42-34 69.5T362 369h-36v149h28q43 0 72 25.5t29 62.5q0 35-26.5 59.5T362 690q-49 0-77.5-30.5T254 582H86q-13 121 73.5 204.5T369 870q111 0 193.5-74.5T645 618q0-53-34.5-101.5T526 455z"/><glyph glyph-name="four.sinf.tf.cv01" d="M737 332V154h-88V0H457v154H-6v129l397 577h258V332h88zm-501 0h221v321z"/><glyph glyph-name="seven.sinf.tf.cv01" d="M707 860V731L350 0H137l330 676H231V549H39v311h668z"/><glyph glyph-name="zero.sinf.tf.cv01" d="M367 870q149 0 231-97.5T680 498V362q0-177-82-274.5T367-10h-13q-151 0-234 97.5T37 362v136q0 177 83 274.5T354 870h13zm-13-186q-125 0-125-176V352q0-176 125-176h13q122 0 122 176v156q0 176-122 176h-13z"/><glyph glyph-name="two.sinf.tf.cv01" d="M86 0v98q0 62 19 114t58.5 94.5 83 75T356 453q77 45 106.5 75.5T492 600q0 38-28.5 64T389 690q-59 0-89.5-42.5T274 535H80q-6 149 83.5 243T395 872q126 0 207.5-75.5T684 604q0-88-56.5-154T442 313q-37-22-57-34.5T342.5 249t-32-32-9.5-31h381V0H86z"/><glyph glyph-name="zero.sups.tf.cv01" d="M367 1444q149 0 231-98t82-275V936q0-177-82-275t-231-98h-13q-151 0-234 98T37 936v135q0 177 83 275t234 98h13zm-13-187q-125 0-125-176V926q0-176 125-176h13q122 0 122 176v155q0 176-122 176h-13z"/><glyph glyph-name="two.sups.tf.cv01" d="M86 573v99q0 62 19 113.5t58.5 94.5 83 75 109.5 71q77 45 106.5 76t29.5 72q0 38-28.5 64t-74.5 26q-59 0-89.5-43T274 1108H80q-6 149 83.5 243.5T395 1446q126 0 207.5-75.5T684 1178q0-88-56.5-154T442 887q-37-22-57-34.5T342.5 823t-32-32-9.5-31h381V573H86z"/><glyph glyph-name="three.sups.tf.cv01" d="M526 1028q59-15 103.5-73.5T674 829q0-121-84-193.5T369 563q-141 0-223.5 82T66 864h178q-2-51 33.5-87t91.5-36q49 0 81.5 30t32.5 75q0 42-33.5 69T362 942h-36v150h28q43 0 72 25.5t29 62.5q0 35-26.5 59.5T362 1264q-49 0-77.5-30.5T254 1155H86q-13 121 74 205t209 84q111 0 193.5-74.5T645 1192q0-54-34.5-102.5T526 1028z"/><glyph glyph-name="four.sups.tf.cv01" d="M782 905V727h-88V573H504v154H41v129l397 578h256V905h88zm-501 0h223v322z"/><glyph glyph-name="seven.sups.tf.cv01" d="M690 1434v-129L336 573H123l328 676H215v-127H23v312h667z"/><glyph glyph-name="zero.sinf.tf.zero" d="M369 872q158 0 249-121t91-321-91-321T369-12 120 109.5 29 430t91 320.5T369 872zm0-186q-68 0-106-64t-38-192q0-43 2-63l232 276q-34 43-90 43zm0-512q141 0 141 256 0 41-2 59L279 215q35-41 90-41z"/><glyph glyph-name="zero.sups.tf.zero" d="M369 1446q158 0 249-121t91-321-91-321.5T369 561 120 683t-91 321 91 320.5T369 1446zm0-186q-68 0-106-64t-38-192q0-44 2-64l232 277q-34 43-90 43zm0-512q141 0 141 256 0 41-2 59L279 788q34-40 90-40z"/><glyph glyph-name="zero.dnom.zero" horiz-adv-x="753" d="M377 872q157 0 248.5-121T717 430t-91.5-321T377-12q-158 0-249 121.5T37 430t91 320.5T377 872zm0-186q-144 0-144-256 0-33 3-63l231 276q-34 43-90 43zm0-512q141 0 141 256 0 44-2 62L285 215q38-41 92-41z"/><glyph glyph-name="zero.sinf.zero" horiz-adv-x="753" d="M377 872q157 0 248.5-121T717 430t-91.5-321T377-12q-158 0-249 121.5T37 430t91 320.5T377 872zm0-186q-144 0-144-256 0-33 3-63l231 276q-34 43-90 43zm0-512q141 0 141 256 0 44-2 62L285 215q38-41 92-41z"/><glyph glyph-name="zero.numr.zero" horiz-adv-x="753" d="M377 1446q157 0 248.5-121t91.5-321-91.5-321.5T377 561q-158 0-249 122t-91 321 91 320.5T377 1446zm0-186q-144 0-144-256 0-34 3-64l231 277q-34 43-90 43zm0-512q141 0 141 256 0 43-2 61L285 788q37-40 92-40z"/><glyph glyph-name="zero.sups.zero" horiz-adv-x="753" d="M377 1446q157 0 248.5-121t91.5-321-91.5-321.5T377 561q-158 0-249 122t-91 321 91 320.5T377 1446zm0-186q-144 0-144-256 0-34 3-64l231 277q-34 43-90 43zm0-512q141 0 141 256 0 43-2 61L285 788q37-40 92-40z"/><glyph glyph-name="colon.case" horiz-adv-x="583" d="M291 834q-78 0-132.5 53.5T104 1018q0 76 54.5 129t132.5 53q79 0 133.5-52.5T479 1018t-54.5-130.5T291 834zm0-654q-78 0-132.5 53T104 362q0 77 54.5 131T291 547q79 0 133.5-54T479 362t-54.5-129.5T291 180z"/><glyph glyph-name="bullet.case" horiz-adv-x="780" d="M389 412q-123 0-206 83.5T100 702q0 124 83 206.5T389 991q124 0 207.5-82.5T680 702q0-123-84-206.5T389 412z"/><glyph glyph-name="parenleft.case" horiz-adv-x="704" d="M131 686q0 322 124.5 609.5T594 1761l170-190q-167-139-264-377t-97-508q0-269 97-507.5T764-199L594-389Q380-211 255.5 76.5T131 686z"/><glyph glyph-name="parenright.case" horiz-adv-x="704" d="M573 686q0-322-124-609.5T113-389L-59-199Q109-60 206 178t97 508q0 271-97 508.5T-59 1571l172 190q212-178 336-465.5T573 686z"/><glyph glyph-name="braceleft.case" horiz-adv-x="890" d="M702-338q-213 0-335.5 126T244 135v271q0 67-54 120T41 604v184q94 24 148.5 79T244 987v273q0 219 122.5 345T702 1731h146v-234H702q-93 0-151.5-66T492 1260v-250q0-192-162-314 162-125 162-311V135q0-107 58.5-173T702-104h146v-234H702z"/><glyph glyph-name="braceright.case" horiz-adv-x="890" d="M190-338H45v234h145q93 0 152 66t59 173v250q0 188 160 311-160 120-160 314v250q0 105-59 171t-152 66H45v234h145q211 0 334-126t123-345V987q0-65 54.5-120T850 788V604q-95-25-149-78t-54-120V135q0-220-123-346.5T190-338z"/><glyph glyph-name="bracketleft.case" horiz-adv-x="729" d="M365 1497V-104h303v-234H102v2069h566v-234H365z"/><glyph glyph-name="bracketright.case" horiz-adv-x="729" d="M365 1497H63v234h564V-338H63v234h302v1601z"/><glyph glyph-name="hyphen.case" horiz-adv-x="765" d="M51 582v270h664V582H51z"/><glyph glyph-name="endash.case" horiz-adv-x="1257" d="M102 582v270h1049V582H102z"/><glyph glyph-name="emdash.case" horiz-adv-x="2252" d="M102 582v270h2048V582H102z"/><glyph glyph-name="guillemotleft.case" horiz-adv-x="1456" d="m100 831 588 410V942L371 739l317-200V240L100 647v184zm666 0 588 410V942l-318-203 318-200V240L766 647v184z"/><glyph glyph-name="guillemotright.case" horiz-adv-x="1456" d="M690 831V647L104 240v299l316 200-316 203v299zm666 0V647L770 240v299l315 200-315 203v299z"/><glyph glyph-name="guilsinglleft.case" horiz-adv-x="792" d="m102 831 588 410V942L373 739l317-200V240L102 647v184z"/><glyph glyph-name="guilsinglright.case" horiz-adv-x="792" d="M690 831V647L102 240v299l318 200-318 203v299z"/><glyph glyph-name="at.case" horiz-adv-x="1886" d="M1126 1049h230V596q0-94 20.5-130t79.5-36q61 0 99 82t38 205q0 249-170 389.5T952 1247q-132 0-247.5-47T507 1071 377.5 874.5 330 629q0-171 79-310t217-217.5T934 23q92 0 172 26.5t104 67.5h314q-68-140-230.5-222.5T934-188q-230 0-420.5 106t-301 294T102 629q0 233 112.5 423.5t307 298T952 1458q409 0 639-196t230-545q0-226-105.5-363T1442 217q-188 0-262 121-103-125-275-125-162 0-273.5 123T520 639q0 178 112 302t273 124q137 0 221-100v84zM938 440q85 0 136.5 54t51.5 145q0 90-51.5 143.5T938 836q-80 0-135-57t-55-140 56-141 134-58z"/><glyph glyph-name="uni030C.alt" horiz-adv-x="0" d="m-434 1116 39 436h301l-103-436h-237z"/><glyph glyph-name="uni0328.alt" horiz-adv-x="0" d="m-270 190 16-106q-84-58-121-104.5t-37-92.5q0-29 22.5-47t59.5-18q36 0 74 14l72-182q-40-22-107-35.5T-424-395q-105 0-171.5 60.5T-662-180q0 119 107 217.5T-270 190z"/><glyph glyph-name="uni0308.case" horiz-adv-x="0" d="M-772 1886q72 0 124-51.5t52-122.5q0-72-52-124t-124-52-124 52-52 124q0 71 52 122.5t124 51.5zm430 0q72 0 124-51.5t52-122.5q0-72-52-124t-124-52q-71 0-123.5 52t-52.5 124q0 70 52.5 122t123.5 52z"/><glyph glyph-name="uni0307.case" horiz-adv-x="0" d="M-496 1886q72 0 124.5-51.5T-319 1712q0-72-52.5-124t-124.5-52-124 52-52 124q0 71 52 122.5t124 51.5z"/></font>
</defs>
</svg>
