<svg xmlns="http://www.w3.org/2000/svg" width="725.47625" viewBox="0 0 200 37.513123" height="137.840488"><g fill="#006473"><path transform="matrix(.12545021679 0 0 .12545021679 -5.49670065096 -47.70419167846)" d="m448.5 617.49321-51.76793-81.57153c-3.10695-5.81387-5.4749-9.33964-5.4749-16.24446.04-10.14929 5.31369-17.48763 23.1957-28.69122 3.86409-2.53909 17.79081-8.07451 29.07489-8.07451 15.21703 0 26.56968 15.74989 26.56968 48.70109 0 53.61539-21.59744 85.88063-21.59744 85.88063zm0 0 9.52732-104.67543 4.3046-18.21507s19.01379 27.72197 67.45301 116.903c30.76369-55.93601 50.38301-122.77677 50.38301-122.77677 1.37747-4.56897 5.02528-5.67513 10.30561-4.2834l33.20698 10.2632c4.0318 1.43878 6.21917 3.03158 3.94891 10.52817-27.62063 80.38034-70.87179 146.68547-70.87179 146.68547-8.32694 12.34014-16.80925 22.81654-44.91212 22.81654-22.67268 0-30.56873-7.72236-38.46582-19.50857zm-204.5 28s-35-26.74653-35-76.75901v-143.24099c0-11.51805 7.43235-21.49932 38.41957-21.49932 33.86428 0 37.58043 13.18152 37.58043 23.07085v59.42847h60c4.3293 0 6 2.5306 6 6.54022v35.45978c0 3.35305-1.36798 6-5.3036 6h-39.6964c-10.29405 0-21-4-21-4v24c0 29.92446-7.73252 60.49107-41 91zm0 0 31-80 10-10v14c0 33.67375 16.33605 59.58152 58.60656 59.58152 38.54378 0 65.6745-21.8349 65.6745-55.71836 0-17.22249-8.33677-30.88801-8.33677-30.88801l43.72302 21.83153 3.83269 53.19332s-29.1163 57.10384-111.19099 57.10384c-64.08958 0-93.30901-29.10384-93.30901-29.10384zm-196-152.8482c0-3.57073 2.002309-6.1518 6-6.1518h65.2723c3.44818 0 5.7277 2.73283 5.7277 6.09155v100.06645c0 17.06099 9.71449 36.90334 39.69604 36.90334 29.19892 0 44.30396-18.16849 44.30396-55.2632v-7.79814l31 59 4 20s-30.41502 29.40373-85.54154 29.40373c-27.36141 0-110.45846-4.48857-110.45846-95.40373zm-.198564-70.25002c0-20.97792 14.862423-38.14518 38.744954-38.14518 25.14388 0 38.625 18.01001 38.625 39.16479 0 23.2638-17.03438 37.36549-38.44507 37.36549-23.303206 0-38.924884-15.89551-38.924884-38.3851z"></path><g transform="matrix(1.26465271302 0 0 1.26465271302 -526.36282807755 -1672.67995433017)"><path d="m481.27579 1351.9072c-1.9933 0-2.37457-.3497-2.37457-1.1037v-23.4413h5.96833l10.13045 18.1536v-18.1536h4.79036v22.9309c0 1.1611-.8571 1.5344-3.33207 1.5344-2.28671 0-2.74969-.3917-3.39456-.8862-.3088-.3457-.39793-.5094-.99744-1.596l-8.3747-14.9873v16.4455c0 .8189-.39522 1.1037-2.4158 1.1037z"></path><path d="m521.66058 1327.3622h5.33468c.95593 6.4252 2.48974 11.4735 4.23299 19.987h.45727l2.78221-18.8495c.17824-.9418.46938-1.1375 1.36785-1.1375h5.33467c.85337 0 1.15136.2165 1.34103 1.0701l3.22189 18.9169h.45726c1.41099-6.9212 2.63634-10.7357 3.97255-19.987h5.29657c-2.21488 12.4679-3.49468 15.3352-5.33986 22.9825-.15662.5672-.28108.6947-.41257.8472-.35134.3814-.86468.7087-3.68777.7087-2.19739 0-3.09118-.12-3.73538-.7351-.24459-.2278-.32332-.4633-.48238-1.2097l-3.14626-17.8442h-.34295l-2.85671 18.0157c-.12248.5914-.18093.7534-.41778 1.035-.27719.2795-.63527.7449-3.82107.7449-2.56256 0-3.10321-.2228-3.61794-.7087-.26774-.2832-.41111-.7548-.49192-1.1537-1.92719-7.7299-3.98819-14.474-5.44638-22.6826z"></path><path d="m564.51615 1351.8886c-2.86768 0-4.73446-.3368-7.12346-.9739-.63951-.1806-.87157-.3485-.87157-1.037 0-.6732.26249-2.092.48204-2.5661.25128-.5282.31534-.6086.73036-.6086.67504 0 2.79696.9738 6.50509.9738 2.56355 0 3.41756-.5371 3.9215-1.0535.37913-.4209.60675-1.0574.60675-1.7852 0-.5875-.12785-1.3168-.6208-1.7869-1.72172-1.6191-7.22359-1.9174-9.41194-4.1776-1.49668-1.4586-1.83321-3.4419-1.83321-4.7474 0-2.1835.80845-3.7176 1.89407-4.8204 1.7289-1.7528 4.58202-2.2824 7.35719-2.2824 3.57575 0 6.41258.8898 6.41258.8898l-.4577 4.1436s-3.09954-.818-5.68222-.818c-3.45447 0-4.2926 1.3541-4.28478 2.6731 0 .6171.21492 1.1517.61836 1.5337 1.50736 1.5686 6.97703 1.6453 9.34864 4.0365 1.43464 1.4305 1.85513 3.2145 1.85513 5.0055 0 2.0893-.58075 3.8935-1.92329 5.2586-1.62284 1.5982-4.32763 2.1424-7.52274 2.1424z"></path><path transform="matrix(.03958870894 0 0 .03958870894 561.61054377334 1120.88785048622)" d="m-1449.9718 5835.4843c-18.4485 0-25-9.4149-25-25v-566.8771c0-19.5882 5.7769-28.1229 36-28.1229h386v107h-291v144h249v106h-249v157h297v106z"></path></g></g></svg>