<svg xmlns="http://www.w3.org/2000/svg" xmlns:xlink="http://www.w3.org/1999/xlink" width="151" height="149"><defs><linearGradient x1="50%" y1="0%" x2="50%" y2="100%" id="c"><stop stop-color="#02A2A7" offset="0%"/><stop stop-color="#02A2A7" offset="100%"/></linearGradient><filter x="-10.4%" y="-7.4%" width="120.7%" height="120.7%" filterUnits="objectBoundingBox" id="a"><feOffset dy="4" in="SourceAlpha" result="shadowOffsetOuter1"/><feGaussianBlur stdDeviation="4" in="shadowOffsetOuter1" result="shadowBlurOuter1"/><feColorMatrix values="0 0 0 0 0.839215686 0 0 0 0 0.68627451 0 0 0 0 0.211764706 0 0 0 0.298158872 0" in="shadowBlurOuter1"/></filter><path id="b" d="M135 67.576l-11.554-15.068 2.584-18.72-17.635-7.001-6.993-17.655-18.7 2.587L67.5 0 52.45 11.567 33.75 8.98l-6.993 17.655-17.635 7 2.584 18.721L0 67.576l11.554 15.068-2.584 18.72 17.635 7.001 6.993 17.655 18.7-2.587L67.347 135l15.05-11.567 18.7 2.587 6.993-17.655 17.635-7.153-2.584-18.72z"/></defs><g transform="translate(8 3)" fill="none"><use fill="#081F28" filter="url(#a)" xlink:href="#b"/><use fill="url(#c)" xlink:href="#b"/></g></svg>
